<?xml version="1.0" encoding="UTF-8"?>
<svg id="Layer_1" data-name="Layer 1" xmlns="http://www.w3.org/2000/svg" viewBox="0 0 240 240">
  <path d="m149.3,131.33c-1.4,0-2.76.01-4.12-.02-.15,0-.34-.19-.45-.34-2.15-3.17-4.29-6.36-6.44-9.54-2-2.97-4-5.94-6.01-8.91-.09-.14-.2-.28-.4-.39v19.16h-4.52v-24.67c.25,0,.47,0,.68,0,1.75,0,3.5,0,5.26,0,.34,0,.54.1.73.38,3.44,5.14,6.9,10.27,10.35,15.41.09.14.2.28.38.54v-16.28h4.52v24.66Z"/>
  <path d="m67.36,106.66h4.8v9.11h12.24v-9.14c.22,0,.39,0,.56,0,1.25,0,2.49.02,3.74-.01.47-.01.62.1.61.59-.03,2.05-.01,4.1-.01,6.16,0,5.76,0,11.52,0,17.29v.64h-4.9v-10.53c-.21-.01-.37-.02-.52-.02-3.71,0-7.42,0-11.13-.01-.46,0-.58.13-.58.58.02,3.13.01,6.25.01,9.38v.6h-4.83v-24.64Z"/>
  <path d="m122.42,131.33c-.74,0-1.43,0-2.11,0-.92,0-1.83-.02-2.75,0-.34,0-.5-.1-.63-.41-.67-1.62-1.37-3.22-2.05-4.84-.12-.3-.27-.43-.62-.43-3.96.01-7.92.01-11.88,0-.33,0-.5.1-.63.41-.67,1.62-1.38,3.22-2.04,4.84-.14.33-.31.43-.66.43-1.59-.02-3.18,0-4.84,0,.08-.21.14-.37.21-.52,3.45-7.88,6.91-15.75,10.35-23.63.17-.4.37-.56.83-.56,1.86.03,3.72.02,5.59,0,.33,0,.5.09.64.41,3.48,7.95,6.96,15.9,10.45,23.85.06.13.1.26.17.45Zm-18.52-10.27h8.83c-1.47-3.45-2.92-6.85-4.42-10.36-1.5,3.53-2.95,6.92-4.41,10.36Z"/>
  <path d="m176.9,131.31h-18.13v-24.63h17.39c0,.17.02.34.02.51,0,1.14,0,2.27,0,3.41q0,.65-.63.65c-3.88,0-7.77,0-11.65,0-.19,0-.37,0-.59,0v5.25h11.11v4.6h-11.11v5.63c.19,0,.39.03.59.03,4.14,0,8.27,0,12.41,0,.48,0,.61.13.6.61-.03,1.31-.01,2.61-.01,3.95Z"/>
  <path d="m56.9,122.84c1.43.83,2.85,1.65,4.29,2.49-.58,1.15-1.34,2.14-2.23,3.01-2.47,2.4-5.47,3.64-8.89,3.62-6.62-.03-11.63-4.52-12.58-10.75-.59-3.83.12-7.39,2.59-10.43,3.12-3.85,7.24-5.3,12.09-4.56,3.94.6,6.86,2.79,8.9,6.19.03.05.06.11.12.23-1.43.83-2.85,1.65-4.27,2.48-.31-.47-.57-.92-.9-1.32-2.05-2.5-4.73-3.3-7.81-2.62-3.15.7-5.03,2.81-5.67,5.93-.53,2.61-.11,5.11,1.62,7.23,3.3,4.03,9.92,3.44,12.49-1.1.07-.12.14-.24.24-.4Z"/>
  <path d="m189.61,126.39h12.88v4.92h-17.71v-24.64h4.83v19.72Z"/>
</svg>