<?xml version="1.0" encoding="UTF-8"?>
<svg id="Layer_1" data-name="Layer 1" xmlns="http://www.w3.org/2000/svg" viewBox="0 0 240 240">
  <defs>
    <style>
      .cls-1 {
        fill: #c5c6c7;
      }
    </style>
  </defs>
  <rect x="105.38" y="108.3" width="18.41" height="3.05"/>
  <rect x="105.38" y="117.36" width="18.41" height="3.05"/>
  <rect class="cls-1" x="114.59" y="111.35" width="9.21" height="6.01"/>
  <path d="m69.82,120.36h-1.69v-12.05c.47,0,.95-.04,1.41,0,.15.01.31.2.43.35,1.12,1.39,2.22,2.78,3.33,4.17.1.12.2.23.34.4.15-.18.29-.33.42-.49,1.08-1.34,2.16-2.68,3.22-4.04.24-.31.49-.46.88-.42.32.03.65,0,1.01,0v12.07c-.52.07-1.05.04-1.66,0-.01-1.56,0-3.1,0-4.63,0-1.54,0-3.07,0-4.61-.04-.01-.08-.02-.12-.03-.12.14-.25.27-.36.42-.98,1.25-1.96,2.5-2.93,3.75-.07.09-.14.18-.22.27-.15.16-.3.17-.44,0-.13-.15-.24-.3-.36-.45-.95-1.22-1.91-2.44-2.86-3.65-.09-.11-.19-.22-.39-.43v9.38Z"/>
  <path d="m58.36,108.29v12.06h-1.63c-.07-.77-.02-1.53-.03-2.3,0-.77,0-1.55,0-2.32v-2.32c0-.77,0-1.53,0-2.43-.18.18-.28.25-.35.35-1,1.28-2.01,2.56-3.01,3.84-.08.11-.16.22-.25.32-.21.22-.31.21-.52-.02-.15-.17-.29-.36-.43-.55-.91-1.16-1.81-2.31-2.72-3.47-.1-.13-.22-.25-.43-.34v9.27c-.33,0-.59.01-.86.02-.25,0-.5,0-.73,0-.12-.46-.16-11.24-.05-12.1.45,0,.91-.04,1.37.02.17.02.35.22.47.38,1.12,1.39,2.22,2.78,3.34,4.17.09.12.2.23.32.37.16-.19.29-.35.43-.51,1.08-1.34,2.16-2.68,3.22-4.04.23-.29.46-.43.83-.4.32.03.65,0,1.04,0Z"/>
  <path d="m39.21,114.04c.02,3.67-2.51,6.32-5.96,6.49-1.79.09-3.44-.31-4.78-1.55-1.93-1.79-2.51-4.01-1.76-6.51.74-2.46,2.49-3.84,5.01-4.25,1.52-.25,2.98-.05,4.33.69,2.11,1.16,3.08,3.01,3.16,5.12Zm-6.44,4.91c2.67.02,4.66-1.92,4.68-4.55.01-2.69-1.9-4.61-4.55-4.69-2.27-.06-4.68,1.49-4.75,4.56-.06,2.66,1.94,4.66,4.62,4.68Z"/>
  <path d="m200.17,118.43v-2.45h-2.23v-1.53h3.92c.02.15.05.28.05.4,0,1.41,0,2.82,0,4.24,0,.32-.09.49-.39.61-1.76.71-3.56,1.01-5.45.71-2.86-.45-4.95-2.85-5.06-5.74-.15-3.87,2.96-6.95,7.25-6.53,1.05.1,2.04.43,3.01.83.28.11.39.27.38.56-.02.4,0,.8,0,1.29-.27-.12-.44-.2-.61-.27-1.21-.55-2.47-.88-3.81-.86-2.64.05-4.87,2.39-4.4,5.38.35,2.27,2.06,3.72,4.36,3.84.92.05,1.81-.08,2.69-.36.11-.04.21-.09.3-.14Z"/>
  <path d="m141.9,108.33h1.68v12.02h-1.66v-5.13c-.47-.14-6-.17-6.69-.04v5.17c-.59.07-1.12.06-1.68,0v-12.02c.52-.09,1.05-.05,1.64-.02v5.14c.48.14,6.04.16,6.7.03v-5.16Z"/>
  <path d="m230.38,120.39c-.61,0-1.09-.02-1.57,0-.32.02-.49-.12-.65-.38-.51-.84-1.03-1.68-1.59-2.5-.37-.54-.77-1.06-1.2-1.57-.62-.73-1.42-.95-2.42-.79v5.16c-.6.1-1.13.07-1.69.02v-11.98c.07-.02.14-.07.21-.07,1.14,0,2.28.02,3.42.04.27,0,.54.07.8.14,1.96.54,2.95,2.48,2.24,4.39-.23.62-.63,1.1-1.19,1.45-.16.1-.32.2-.54.33,1.31.99,1.99,2.39,2.82,3.68.34.54.72,1.06,1.08,1.58.08.12.15.25.29.47Zm-7.43-10.59c-.01,1.26-.04,2.5.02,3.77.5,0,.94.01,1.38,0,.23,0,.46-.05.68-.11.86-.22,1.33-.86,1.34-1.79,0-.97-.42-1.57-1.31-1.79-.68-.17-1.37-.17-2.11-.08Z"/>
  <path d="m208.48,120.35v-12.03h6.67v1.5h-4.97c-.07,1.25-.03,2.43-.03,3.68h4.83v1.55h-4.8v3.76h5.12v1.54h-6.83Z"/>
  <path d="m177.84,114.75h-4.63v5.57c-.59.1-1.12.07-1.67.02v-11.97c.44-.11,5.63-.14,6.29-.02v1.46h-4.6c-.04,1.14-.02,2.23-.01,3.4h4.62v1.54Z"/>
  <path d="m15.98,120.36h-1.67v-10.51h-4.13v-1.53h9.92c0,.34,0,.64,0,.95,0,.17-.02.34-.04.56h-4.09v10.53Z"/>
  <path d="m92.8,120.35h-1.7v-.66c0-1.7-.01-3.4,0-5.11,0-.44-.13-.77-.39-1.1-1.22-1.55-2.43-3.11-3.64-4.67-.1-.13-.19-.28-.36-.52.68,0,1.28-.02,1.87.02.15.01.31.21.42.36.89,1.15,1.77,2.3,2.65,3.45.07.09.15.17.25.3.12-.13.22-.23.31-.35.88-1.13,1.77-2.25,2.63-3.4.22-.3.46-.42.83-.4.46.03.92,0,1.46,0-.12.19-.18.31-.25.41-1.27,1.64-2.53,3.28-3.81,4.9-.2.26-.3.52-.3.85.01,1.74,0,3.48,0,5.22,0,.21,0,.42,0,.69Z"/>
  <path d="m161.16,118.82h5.32c.12.53.1,1.02.02,1.53h-6.92c-.14-.4-.18-11.18-.05-12.03h1.63v10.49Z"/>
  <path d="m150.75,108.29h1.63v12.06h-1.63v-12.06Z"/>
  <path d="m183.91,108.32h1.62c0,4.01,0,7.99,0,11.97-.41.13-.99.15-1.62.03v-12Z"/>
</svg>