<?xml version="1.0" encoding="UTF-8"?>
<svg id="Layer_1" data-name="Layer 1" xmlns="http://www.w3.org/2000/svg" viewBox="0 0 240 240">
  <defs>
    <style>
      .cls-1 {
        fill: #1d1d1b;
      }
    </style>
  </defs>
  <path class="cls-1" d="m31.7,110.78v-3.57h10.85v3.91l-7.54,16.42h7.55v3.57h-11.79v-3.91l7.65-16.42h-6.73Z"/>
  <path class="cls-1" d="m47.27,131.11h-3.97l4.4-23.9h5.1l4.4,23.9h-3.98l-.73-5.3h-4.5l-.73,5.3Zm1.32-8.88h3.31l-1.62-10.26h-.07l-1.62,10.26Z"/>
  <path class="cls-1" d="m58.41,107.21h6.09c4.24,0,6.49,2.32,6.49,7.22v9.47c0,4.9-2.25,7.22-6.49,7.22h-6.09v-23.9Zm4.11,20.52h1.42c2.19,0,2.95-.83,2.95-3.34v-10.46c0-2.52-.76-3.34-2.95-3.34h-1.42v17.14Z"/>
  <path class="cls-1" d="m73.15,131.11v-23.9h4.11v23.9h-4.11Z"/>
  <path class="cls-1" d="m85.24,118.99h6.72v12.12h-1.99l-.76-1.79c-1.23,1.46-2.22,2.12-4.14,2.12-3.25,0-5.5-2.32-5.5-6.13v-12.32c0-3.38,1.99-6.13,6.03-6.13s6.16,2.98,6.16,6.56v1.52h-3.9c0-3.58-.73-4.5-2.35-4.5-.99,0-1.82.59-1.82,2.61v12.28c0,1.52.5,2.52,1.92,2.52,1.66,0,2.25-.93,2.25-3.31v-2.31h-2.61v-3.25Z"/>
  <path class="cls-1" d="m124.32,107.21h4.04l-5,23.9h-4.11l-5-23.9h4.04l2.98,16.59h.07l2.98-16.59Z"/>
  <path class="cls-1" d="m128.84,113c0-3.38,1.98-6.13,6.29-6.13s6.29,2.75,6.29,6.13v12.32c0,3.38-1.97,6.13-6.29,6.13s-6.29-2.74-6.29-6.13v-12.32Zm4.1,12.22c0,1.79.53,2.65,2.19,2.65s2.18-.86,2.18-2.65v-12.12c0-1.79-.53-2.65-2.18-2.65s-2.19.86-2.19,2.65v12.12Z"/>
  <path class="cls-1" d="m143.27,131.11v-23.9h4.1v20.32h6.46v3.57h-10.56Z"/>
  <path class="cls-1" d="m155.23,110.78h-3.98v-3.57h12.05v3.57h-3.97v20.32h-4.1v-20.32Z"/>
  <path class="cls-1" d="m165.54,131.11h-3.97l4.4-23.9h5.1l4.4,23.9h-3.97l-.73-5.3h-4.49l-.74,5.3Zm1.32-8.88h3.31l-1.62-10.26h-.07l-1.62,10.26Z"/>
  <path class="cls-1" d="m177.06,131.11v-23.9h4.11v23.9h-4.11Z"/>
  <path class="cls-1" d="m187.8,131.11h-4.11v-23.9h5.76c4.6,0,6.95,1.95,6.95,7.05,0,3.84-1.49,5.4-2.88,6.02l3.48,10.83h-4.17l-2.91-9.91c-.7.07-1.41.1-2.12.1v9.81Zm0-13.18h1.46c2.22,0,3.05-.83,3.05-3.67s-.83-3.68-3.05-3.68h-1.46v7.35Z"/>
  <path class="cls-1" d="m198.36,131.11v-23.9h10.99v3.57h-6.89v6.16h5.3v3.58h-5.3v7.02h7.35v3.57h-11.45Z"/>
  <path class="cls-1" d="m113.62,119l-3.37,6.36,3.59,3.67-2.45,2.4-3.1-3.18c-.83,1.56-2.41,3.2-5.66,3.2-4.19,0-6.8-2.65-6.8-5.79s2.5-4.75,4.14-5.71c-1.38-1.45-2.11-2.82-2.13-4.43,0-2.76,2.3-4.96,5.24-4.96s5.07,2.18,5.07,4.81-1.99,3.93-3.23,4.66l2.93,2.98,1.97-4h3.78Zm-11.46,3.12c-1.55.85-2.44,1.88-2.44,3.19,0,1.58,1.29,2.7,3.01,2.7s2.53-.89,3.19-2.09l-3.75-3.8Zm.92-8.64c-.98.01-1.77.81-1.76,1.79,0,.01,0,.03,0,.04,0,1.18.9,2.05,1.54,2.73,1.18-.78,2.02-1.44,2.02-2.73,0-.99-.67-1.84-1.78-1.84h-.04Z"/>
</svg>