<?xml version="1.0" encoding="UTF-8"?>
<svg id="Layer_1" data-name="Layer 1" xmlns="http://www.w3.org/2000/svg" viewBox="0 0 240 240">
  <path d="m52.53,107.02c-.48.26-.85.47-1.23.65-1.16.57-1.7,1.57-2.01,2.76-.51,1.99-.2,4.01-.29,6.01-.02.37.2.43.5.43.93,0,1.87,0,2.8,0,.32,0,.69-.07.73.43.04.62-.22,1-.74,1.01-.87.02-1.74,0-2.6,0-.63,0-.68.05-.68.66,0,3.13-.02,6.26.02,9.39.01.97.17,1.96,1.16,2.49.34.19.76.24,1.28.41-.23.14-.39.32-.55.33-2.23.02-4.46.01-6.68,0-.09,0-.2-.02-.28-.07-.09-.05-.15-.14-.22-.21.09-.06.18-.16.28-.18.46-.09.97-.05,1.29-.48.18-.24.38-.51.44-.8.12-.65.22-1.32.22-1.99.02-2.93.01-5.87.01-8.8,0-.69-.06-.75-.77-.75-.28,0-.56.02-.83,0-.12-.01-.3-.11-.33-.2-.03-.09.07-.28.16-.35.43-.29.88-.55,1.32-.83.28-.18.46-.42.46-.8,0-1.27-.01-2.56.11-3.82.06-.64.38-1.27.64-1.87.37-.83.95-1.54,1.73-2.01.73-.44,1.56-.71,2.29-1.14.46-.27.89-.42,1.41-.35.09.01.17.04.37.09Z"/>
  <path d="m62.86,131.34c-.18.06-.36.16-.55.17-1.98.01-3.97.01-5.95,0-.17,0-.33-.11-.5-.16.02-.04.03-.09.05-.13.32-.11.66-.16.94-.33.69-.4.9-1.08.9-1.83,0-3.95,0-7.9,0-11.85,0-1.51-.07-3.02.02-4.52.07-1.27-.4-2.17-1.41-2.86-.39-.27-.38-.41.05-.59.6-.25,1.23-.43,1.83-.65.63-.23,1.26-.46,1.88-.73.49-.21.86.01.86.57-.03,6.69-.06,13.37-.09,20.06,0,.7.08,1.39.5,2,.35.51.85.67,1.44.67,0,.07,0,.13.01.2Z"/>
  <path d="m116.11,131.35c-.17.08-.33.24-.5.24-2.08.02-4.16.01-6.24,0-.16,0-.31-.14-.47-.22,0-.05.02-.11.03-.16.26-.06.54-.09.77-.2.25-.12.48-.31.68-.5.66-.62.57-1.47.58-2.25.03-5.13-.01-10.26.03-15.39.01-1.33-.37-2.36-1.52-3.06-.37-.23-.34-.42.03-.57.61-.25,1.23-.49,1.86-.72.59-.22,1.18-.43,1.78-.64.15-.06.3-.13.46-.15.34-.06.53.05.52.44-.04.83-.09,1.67-.09,2.5,0,5.95,0,11.9,0,17.85,0,.68.1,1.36.5,1.91.2.27.57.44.89.6.19.1.43.1.65.15l.05.19Z"/>
  <path d="m196.37,129.63c-.36.3-.69.68-1.09.89-.96.51-1.94,1.02-3.08.99-.71-.02-1.43-.01-2.13-.11-.76-.1-1.6-1.09-1.8-1.75-.32-1.06-.27-2.13-.27-3.2,0-2.57,0-5.15,0-7.72,0-.63-.07-.7-.71-.7-.23,0-.46.02-.69,0-.36-.05-.5-.38-.25-.64,1.36-1.41,2.74-2.82,4.12-4.22.1-.1.34-.14.48-.1.09.03.17.26.17.4.02.8,0,1.61,0,2.41q0,.69.72.7c1.13,0,2.26,0,3.39,0,.34,0,.77-.12.8.45.02.55-.34.99-.86,1-1.1.01-2.2,0-3.29,0-.67,0-.76.09-.76.77,0,2.72-.01,5.44.01,8.16,0,.5.05,1.04.25,1.47.42.88,1.27,1.18,2.18,1.2.65.02,1.3-.1,1.95-.15.26-.02.53,0,.79,0,.02.05.04.1.06.15Z"/>
  <path d="m145.81,129.69c-.33.28-.62.63-.99.84-1.63.92-3.39,1.23-5.23.86-.87-.17-1.81-1.35-1.86-2.26-.05-.83-.09-1.66-.09-2.5-.01-2.64,0-5.28,0-7.91,0-.65-.13-.77-.77-.78-.28,0-.56.01-.83-.02-.09,0-.2-.11-.24-.19-.03-.06.03-.19.09-.25,1.12-1.16,2.25-2.32,3.37-3.49.27-.28.5-.58.78-.85.1-.1.36-.21.39-.17.12.13.24.32.24.48.02.82,0,1.64.01,2.46,0,.57.06.64.65.65,1.15,0,2.29,0,3.44,0,.33,0,.75-.1.81.4.07.52-.36,1.05-.86,1.05-1.02.01-2.03,0-3.05,0-1,0-1,0-1,1.02,0,2.61-.02,5.21.01,7.82.01.93.21,1.84,1.1,2.37.35.21.78.38,1.17.4.69.02,1.39-.09,2.09-.14.23-.02.46,0,.69,0,.02.07.05.14.07.21Z"/>
  <path d="m171.38,127.16c-.04.18-.03.39-.12.54-1,1.76-2.41,3.08-4.36,3.63-.93.26-1.98.21-2.96.13-1.59-.14-2.91-.94-3.95-2.12-.69-.77-1.13-1.7-1.45-2.72-.33-1.04-.38-2.08-.35-3.14.04-1.29.5-2.46,1.11-3.6.64-1.2,1.57-2.06,2.7-2.73.61-.36,1.31-.57,1.97-.85.05.06.1.12.14.18-.13.15-.23.36-.39.43-1,.42-1.46,1.28-1.88,2.18-.52,1.11-.67,2.31-.64,3.48.04,1.95.42,3.84,1.95,5.3,1.14,1.09,2.47,1.41,3.99,1.26.98-.1,1.92-.32,2.75-.87.27-.18.53-.38.76-.61.19-.19.34-.44.5-.66.08.05.16.11.24.16Z"/>
  <path d="m178.05,116.64c-.57.67-1.18,1.25-1.6,1.93-.32.51-.45,1.15-.57,1.75-.15.76-.28,1.55-.27,2.32.01.89.06,1.82.32,2.66.54,1.7,1.57,3.12,3.35,3.62,2.04.57,4.01.28,5.7-1.16.24-.2.47-.41.71-.61.04.03.09.06.13.09-.11.29-.18.61-.35.86-1.15,1.66-2.58,2.98-4.64,3.31-1.56.25-3.11.17-4.57-.64-1.32-.73-2.24-1.77-2.9-3.11-.86-1.76-.97-3.62-.58-5.45.44-2.07,1.52-3.83,3.46-4.92.45-.25.91-.48,1.38-.68.13-.06.32.01.42.02Z"/>
  <path d="m88.93,131.4c-.18.07-.35.19-.53.19-2.21.01-4.42.01-6.63,0-.19,0-.39-.11-.58-.17,0-.06,0-.13-.01-.19.23-.07.45-.16.68-.2.71-.11,1.16-.49,1.28-1.21.09-.53.19-1.06.19-1.59.02-2.28-.04-4.56.03-6.83.03-1.12-.47-1.85-1.28-2.48-.18-.14-.34-.29-.62-.53.51-.21.92-.39,1.34-.56.99-.39,2-.77,2.99-1.17.42-.17.67-.04.67.43,0,1.16,0,2.33,0,3.49,0,2.62-.02,5.24.02,7.87,0,.7.08,1.44.63,2,.33.33.68.61,1.19.61.2,0,.4.1.6.16l.04.19Z"/>
  <path d="m146.66,131.16c.14-.12.27-.3.44-.35,1.29-.35,1.52-1.02,1.53-2.16.03-2.74,0-5.47.01-8.21,0-.91-.6-1.38-1.24-1.86-.15-.11-.3-.3-.32-.47,0-.1.23-.27.39-.33,1.11-.42,2.22-.81,3.33-1.24.87-.33.97-.27.97.69,0,3.69,0,7.37,0,11.06,0,.76.21,1.45.77,1.99.19.18.45.29.68.41.13.06.3.04.42.11.14.08.26.22.38.34-.15.05-.3.15-.46.15-1.16.01-2.33,0-3.49,0-1.11,0-2.22,0-3.34,0-.03-.05-.06-.1-.09-.15Z"/>
  <path d="m107.45,130.16c-.16.25-.28.55-.48.75-.81.8-1.79,1.18-2.93.98-.17-.03-.3-.25-.46-.35-.22-.13-.5-.18-.69-.34-.67-.61-.98-1.38-.98-2.3.02-2.64-.05-5.28.03-7.92.04-1.58-1.28-2.73-2.54-2.84-.42-.04-.84-.12-1.25-.21-.13-.03-.23-.14-.46-.3.51-.23.9-.44,1.31-.59.97-.35,1.95-.61,3.01-.39,1.44.31,2.65,1.15,2.74,2.76.14,2.6.09,5.21.12,7.81,0,.43.02.85,0,1.28-.08,1.24.67,1.93,2,1.62.15-.04.31-.06.47-.09.04.04.08.08.12.13Z"/>
  <path d="m129.91,131.35c.49-.29.92-.48,1.27-.76,1.06-.83,1.46-3.05.02-4-.9-.59-1.88-1.08-2.83-1.58-1.21-.64-2.51-1.18-3.28-2.38-.31-.48-.53-1.08-.62-1.66-.2-1.32.19-2.5,1.2-3.4.63-.57,1.33-1.05,2.39-1.09-.13.21-.19.38-.3.48-.95.83-1.25,2.65-.23,3.66.73.72,1.64,1.07,2.5,1.54.47.25.92.58,1.42.73.59.18,1,.57,1.46.91,1.43,1.05,1.98,2.47,1.54,4.17-.4,1.53-1.33,2.65-2.9,3.2-.53.19-1,.3-1.64.2Z"/>
  <path d="m70.82,116.83c-.28.18-.55.39-.85.54-.89.45-1.38,1.24-1.72,2.11-.78,1.99-.9,4.08-.73,6.17.09,1.07.4,2.15.78,3.16.39,1.03,1.14,1.84,2.22,2.27.34.14.68.3,1.01.46.09.04.14.15.19.28-.6,0-1.18.28-1.78-.16-.36-.27-.88-.31-1.33-.47-1.31-.48-2.34-1.35-3.15-2.46-.8-1.11-1.2-2.4-1.31-3.77-.1-1.21.07-2.4.51-3.51.53-1.34,1.43-2.43,2.6-3.29.86-.64,1.81-1.08,2.82-1.39.23-.07.48-.06.72-.09,0,.05.01.11.02.16Z"/>
  <path d="m72.49,116.6c.54.07,1.08.1,1.6.22.55.13,1.09.31,1.61.54,1.1.48,2.16,1.14,2.78,2.15.79,1.29,1.46,2.68,1.43,4.29-.02,1.07-.07,2.12-.48,3.12-.48,1.17-1.16,2.22-2.18,2.99-.72.54-1.52.98-2.3,1.44-.16.1-.37.11-.56.16-.11.03-.28.03-.31.1-.22.46-.59.25-1,.14.28-.21.57-.39.82-.62.53-.49,1.16-.93,1.53-1.52.88-1.38,1.03-2.99,1.12-4.59.08-1.41.02-2.82-.33-4.19-.33-1.3-.91-2.5-2.09-3.27-.44-.28-.97-.42-1.46-.62-.08-.03-.15-.09-.23-.13.02-.07.03-.13.05-.2Z"/>
  <path d="m100.6,124.07c-.8.44-1.64.83-2.39,1.35-.63.44-1.03,1.1-1.01,1.91,0,.58-.04,1.13.23,1.72.33.71.88.98,1.51,1.06.52.07,1.07-.1,1.61-.15.14-.01.29,0,.57,0-.19.29-.28.55-.47.68-.45.33-1.01.54-1.41.91-.58.54-1.24.3-1.88.34-.3.02-.67.06-.9-.09-.93-.59-2-1.14-2.16-2.4-.16-1.27-.24-2.61.86-3.54.47-.4,1.14-.59,1.74-.82.68-.26,1.38-.49,2.07-.7.52-.16,1.05-.29,1.58-.43.01.05.03.11.04.16Z"/>
  <path d="m177.23,121.46c.69-.12,1.37-.29,2.06-.36.75-.08,1.5-.07,2.25-.12.59-.03.74-.16.63-.71-.14-.71-.37-1.41-.55-2.11-.16-.61-.59-1-1.1-1.32-.19-.11-.35-.27-.52-.41.01-.04.02-.08.04-.12.15-.01.31-.07.44-.04,1.31.32,2.52.82,3.46,1.86.54.61.99,1.25,1.22,2.03.09.31.13.66.07.97-.04.2-.29.52-.44.52-2.5.03-5.01.02-7.51.02-.01-.07-.02-.14-.03-.21Z"/>
  <path d="m162.9,121.59c1.31-.64,2.66-.53,3.97-.6.85-.05.99-.11.85-.93-.12-.68-.36-1.34-.56-2.01-.21-.69-.77-1.06-1.33-1.42-.09-.06-.17-.13-.39-.29.3-.04.47-.1.61-.07,1.84.44,3.43,1.25,4.29,3.06.23.49.38,1.03.52,1.56.12.45-.12.76-.57.77-2.39,0-4.78,0-7.17,0-.04,0-.09-.03-.21-.07Z"/>
  <path d="m87.48,119.07c.04-.29.02-.51.11-.65.64-.99,1.9-2.02,3.27-1.84.84.11,1.67.66,1.87,1.51.25,1.02-.06,1.99-.94,2.39-.47.22-1.2.31-1.62.09-.61-.31-.98-.98-.82-1.79.05-.24,0-.5,0-.75-.24.06-.5.08-.7.2-.35.21-.67.48-1.17.85Z"/>
  <path d="m153.06,118.45c.04-.16.04-.35.13-.47.56-.73,1.21-1.35,2.1-1.68.67-.25,1.58.07,2.15.55.59.5.78,1.07.75,1.8-.04.93-.66,1.62-1.74,1.8-.54.09-1.41-.28-1.72-1.12-.12-.33-.02-.73-.01-1.1,0-.13.09-.35.05-.38-.12-.08-.33-.15-.45-.1-.33.16-.63.39-.94.6-.07.04-.12.1-.19.15-.04-.02-.09-.03-.13-.05Z"/>
  <path d="m55.3,109.1c0,.8-.78,1.64-1.56,1.64-.84,0-1.72-.75-1.69-1.67.03-.83.8-1.66,1.61-1.66.73,0,1.75.84,1.64,1.68Z"/>
  <path d="m96.57,121.87c-1.04.05-1.57-.7-1.61-1.63-.04-.8.81-1.61,1.6-1.61.86,0,1.66.81,1.69,1.72.03.8-.77,1.53-1.68,1.53Z"/>
  <path d="m124.3,126.43c.17.41.36.82.52,1.23.39,1.02.97,1.91,1.75,2.66.3.29.69.48,1.03.72.1.07.18.19.26.29-.12.06-.25.17-.37.16-.39-.01-.78-.04-1.17-.11-.53-.1-1.07-.19-1.55-.41-.26-.12-.56-.47-.58-.75-.1-1.09-.1-2.18-.13-3.28,0-.17.06-.35.09-.53.05,0,.1,0,.15,0Z"/>
  <path d="m133.4,120.6c-.61-1.84-1.7-3.3-3.5-4.16.04-.07.08-.15.13-.22.53.08,1.07.14,1.59.25.55.12,1.1.27,1.62.47.16.06.33.33.35.52.07.86.09,1.73.11,2.59,0,.17-.06.35-.09.52-.06,0-.13.01-.19.02Z"/>
</svg>