<?xml version="1.0" encoding="UTF-8"?>
<svg id="Layer_1" data-name="Layer 1" xmlns="http://www.w3.org/2000/svg" viewBox="0 0 240 240">
  <path d="m143.92,114.18c.59-.89,1.14-1.71,1.68-2.53,2.71-4.12,5.42-8.24,8.13-12.36.29-.45.66-.69,1.23-.66.65.04,1.3.02,1.95,0,.41,0,.6.2.63.58.01.17.01.34.01.51,0,8.01,0,16.02,0,24.03,0,.15,0,.31,0,.46-.02.4-.22.64-.64.64-.99,0-1.98,0-2.97,0-.42,0-.63-.21-.66-.62-.02-.24-.03-.48-.03-.72,0-5.18,0-10.35,0-15.53,0-.21-.02-.43-.16-.68-.25.37-.51.73-.76,1.1-2.48,3.78-4.95,7.57-7.43,11.35-.61.92-1.35.93-1.96,0-2.58-3.92-5.15-7.85-7.72-11.77-.15-.22-.3-.45-.57-.66-.02.2-.06.4-.06.6,0,5.19,0,10.38,0,15.58,0,1.3-.04,1.34-1.35,1.34-.72,0-1.44,0-2.15,0-.62,0-.78-.18-.8-.8,0-.12,0-.24,0-.36,0-7.98,0-15.95,0-23.93,0-.17,0-.34,0-.51.02-.4.22-.62.65-.62.73,0,1.48-.06,2.2.03.33.04.73.32.93.6,1.43,2.1,2.81,4.24,4.2,6.36,1.78,2.71,3.56,5.41,5.35,8.12.07.11.16.21.32.42Z"/>
  <path d="m186.83,98.3c2.16-.12,4.23.41,6.25,1.21.44.17.65.45.64.92-.01.79,0,1.57,0,2.36,0,.56-.21.66-.75.46-1.05-.38-2.1-.85-3.19-1.08-2.24-.47-4.5-.59-6.68.4-1.65.76-2.47,3.3-.4,4.53,1.3.77,2.7,1.36,4.1,1.95,1.84.78,3.71,1.49,5.31,2.72,1.87,1.44,2.89,3.29,2.88,5.7,0,1.81-.42,3.44-1.6,4.84-1.03,1.22-2.39,1.93-3.9,2.32-3.91,1-7.78.85-11.56-.63-1.02-.4-1.08-.58-1.02-1.66.04-.72,0-1.43.02-2.15.01-.56.21-.69.7-.43,2.41,1.28,4.98,1.85,7.71,1.69,1.54-.09,3.03-.35,4.16-1.55,1.12-1.2,1.45-3.45-.3-4.73-1.23-.91-2.64-1.42-4.03-1.97-1.73-.69-3.48-1.31-5.05-2.33-1.41-.92-2.58-2.07-2.95-3.78-.77-3.61.64-6.56,4-7.89,1.8-.71,3.69-.98,5.65-.9Z"/>
  <path d="m97.98,111.54c.29.02.46.01.61.05,2.07.47,4.08.11,6.07-.46,2.25-.64,4.48-1.36,6.73-1.96,2.19-.58,4.43-.85,6.7-.45,1.69.3,3.18,1.01,4.31,2.35.13.16.22.36.41.67-.3-.03-.47,0-.61-.06-1.55-.5-3.12-.43-4.65,0-2.58.71-5.12,1.58-7.7,2.29-1.16.32-2.37.48-3.57.64-.41.06-.51.18-.51.56.01,1.73.02,3.45,0,5.18,0,.46.14.58.59.58,5.13-.01,10.26,0,15.39,0q.91,0,.91.91c0,.79,0,1.57,0,2.36,0,.65-.04.69-.71.69-6.14,0-12.28,0-18.41,0-.46,0-.92,0-1.38,0-.63,0-.71-.08-.71-.72,0-3.09-.01-6.18,0-9.28,0-.48-.13-.72-.59-.9-1.05-.41-1.93-1.09-2.64-1.97-.08-.1-.12-.23-.24-.47Z"/>
  <path d="m68.72,111.77c-.26-.06-.51-.12-.77-.19-1.73-.43-3.44-.2-5.11.28-2.31.67-4.58,1.46-6.9,2.11-1.29.36-2.63.55-4.02.83,0,.03-.03.17-.03.32,0,1.76.01,3.52-.01,5.28,0,.44.15.53.56.53,5.16-.01,10.32,0,15.49,0,.82,0,.84.02.84.83,0,.82,0,1.64,0,2.46,0,.6-.07.67-.69.67-6.62,0-13.23,0-19.85,0-.6,0-.68-.07-.68-.68,0-3.11-.01-6.22,0-9.33,0-.46-.13-.7-.57-.87-1.02-.39-1.87-1.05-2.58-1.88-.12-.14-.18-.32-.32-.58.31.03.47.03.64.06,2.05.47,4.04.1,6.01-.45,2.25-.63,4.47-1.35,6.73-1.96,2.19-.59,4.43-.86,6.69-.47,1.69.3,3.19.98,4.32,2.33.14.17.24.38.36.58-.04.05-.08.1-.12.14Z"/>
  <path d="m76.34,111.72c0-4.05,0-8.1,0-12.14,0-.89.04-.92.92-.92.94,0,1.88,0,2.82,0,.6,0,.68.08.68.68,0,2.22,0,4.44,0,6.66,0,4.75,0,9.5,0,14.24q0,.68.66.68c4.5,0,8.99,0,13.49,0,.77,0,.81.04.82.81,0,.84-.01,1.67,0,2.51,0,.45-.14.64-.62.64-6-.01-12,0-18,0-.63,0-.77-.15-.77-.86,0-4.1,0-8.2,0-12.3Z"/>
  <path d="m169.84,111.79c0,4.08,0,8.16,0,12.24,0,.74-.1.84-.82.84-.97,0-1.95-.01-2.92,0-.49,0-.68-.24-.71-.68-.01-.17,0-.34,0-.51,0-7.96,0-15.91,0-23.87,0-.22,0-.45.03-.66.05-.32.24-.51.59-.51,1.08,0,2.15,0,3.23,0,.51,0,.61.31.61.75,0,2.25,0,4.51,0,6.76,0,1.88,0,3.76,0,5.63Z"/>
  <path d="m101.44,109.96c0-.27,0-.44,0-.61,0-3.3,0-6.59,0-9.89,0-.77.04-.81.81-.81,6.55,0,13.09,0,19.64,0,.74,0,.76.02.76.79,0,.82-.02,1.64,0,2.46.02.49-.19.63-.63.62-1.21-.01-2.43,0-3.64,0-3.97,0-7.93,0-11.9,0-.71,0-.71,0-.71.71,0,1.33.03,2.67-.02,4-.01.38-.15.83-.4,1.1-1.01,1.14-2.38,1.49-3.93,1.63Z"/>
  <path d="m58.15,98.65c3.3,0,6.6,0,9.9,0,.68,0,.72.04.72.73,0,.87-.01,1.74,0,2.61,0,.35-.15.5-.48.51-.17,0-.34,0-.51,0-5.06,0-10.12,0-15.18,0q-.71,0-.71.69c0,1.35.03,2.7-.02,4.05-.01.37-.18.81-.43,1.09-.91,1.07-2.19,1.39-3.51,1.58-.11.02-.27-.2-.38-.33-.04-.05,0-.17,0-.25,0-3.31,0-6.63,0-9.94,0-.72.03-.75.76-.75,3.28,0,6.56,0,9.85,0Z"/>
  <path d="m145.79,136.95c.01-.18.03-.36.03-.54,0-1.01,0-2.01,0-3.02,0-.32.09-.47.43-.47,1.45.03,1.17-.18,1.18,1.13.02,1.74,0,3.48,0,5.22v.63c-.78.11-1.43.17-1.97-.59-.76-1.07-1.64-2.05-2.48-3.06-.1-.13-.22-.24-.43-.46-.02.3-.04.48-.04.66,0,1.01-.02,2.02,0,3.02,0,.39-.13.52-.5.49-.34-.02-.68,0-1.06,0-.01-.21-.03-.37-.03-.54,0-1.98,0-3.96,0-5.94,0-.4.09-.56.53-.57.6-.03,1.01.15,1.38.64.9,1.17,1.87,2.3,2.81,3.44.04-.01.09-.02.13-.03Z"/>
  <path d="m120.83,136.44c0-1.02,0-2.05,0-3.07,0-.32.09-.46.44-.45,1.13.02,2.26-.02,3.38.02,1.94.07,3.25,1.47,3.28,3.48.03,1.99-1.31,3.47-3.26,3.54-1.13.05-2.25.02-3.38.04-.37,0-.46-.14-.46-.48.02-1.02,0-2.05,0-3.07Zm1.62.01c0,.56.02,1.13,0,1.69-.01.36.13.48.48.47.43-.02.85,0,1.28,0,1.06-.04,1.68-.52,1.97-1.53.42-1.48-.54-2.77-2.07-2.77-.39,0-.79.01-1.18,0-.35-.02-.49.11-.48.47.02.56,0,1.12,0,1.69Z"/>
  <path d="m112.58,135.92v4.01h-1.59c-.01-.17-.03-.32-.03-.47,0-2,0-3.99-.01-5.99,0-.43.13-.54.55-.56.6-.03,1.01.14,1.39.64.79,1.04,1.66,2.04,2.49,3.05.12.14.24.28.45.53.03-.32.06-.49.06-.67,0-.99.02-1.98,0-2.97,0-.41.11-.58.55-.57,1.19.03,1.01-.12,1.02,1,0,1.79,0,3.58,0,5.38v.61c-.81.13-1.44.12-1.97-.63-.85-1.19-1.84-2.27-2.77-3.4-.05.02-.09.03-.14.05Z"/>
  <path d="m134.13,140.24c-2.39-.06-4.07-1.74-3.99-4.03.05-1.49,1.09-2.8,2.63-3.31,1.67-.55,3.58-.02,4.59,1.27,1.6,2.04.66,5.04-1.83,5.79-.45.14-.93.19-1.39.28Zm-2.37-3.79c0,1.3,1.1,2.42,2.37,2.4,1.27-.02,2.34-1.1,2.35-2.37.01-1.3-1.06-2.4-2.35-2.41-1.3,0-2.37,1.07-2.38,2.38Z"/>
  <path d="m104.16,140.24c-1.8-.07-3.32-1.09-3.81-2.64-.67-2.12.58-4.33,2.76-4.8,1.53-.33,2.94-.03,4.06,1.11,1.9,1.94,1.05,5.2-1.56,6.03-.46.15-.96.2-1.44.29Zm-.03-6.18c-1.29,0-2.34,1.1-2.33,2.42.01,1.26,1.11,2.35,2.36,2.36,1.26.01,2.38-1.13,2.37-2.42,0-1.29-1.11-2.37-2.41-2.37Z"/>
  <path d="m98.39,139.92h-5.71v-.54c0-1.96.01-3.92,0-5.89,0-.45.13-.6.58-.58,1.2.04,1-.13,1.01,1,.01,1.4.01,2.8,0,4.2,0,.38.12.51.5.5,1.02-.02,2.05.02,3.07-.02.46-.01.62.15.57.59-.03.23,0,.47,0,.74Z"/>
</svg>