<?xml version="1.0" encoding="UTF-8"?>
<svg id="Layer_1" data-name="Layer 1" xmlns="http://www.w3.org/2000/svg" viewBox="0 0 240 240">
  <path d="m174.01,124.06c-.15.03-.29.08-.43.08-1.14,0-2.28-.01-3.41-.03-.08,0-.15-.07-.27-.13-.03-.53-.07-1.07-.1-1.68-.15.05-.27.05-.34.12-1.81,1.62-3.99,2.23-6.36,2.3-1.56.04-3.09-.09-4.56-.68-.6-.24-1.16-.55-1.65-.98-1.11-.99-1.53-2.23-1.36-3.7.22-1.9,1.27-3.15,3.01-3.85,1.01-.41,2.06-.62,3.13-.76,2.24-.29,4.49-.15,6.73-.19.26,0,.52-.01.79-.03.05,0,.1-.05.15-.08.14-1.08-.33-2.12-1.26-2.66-.35-.2-.74-.36-1.13-.45-1.01-.22-2.03-.26-3.04-.04-.31.07-.62.18-.91.3-.75.31-1.21.89-1.46,1.62-.79.12-3.89.11-4.61-.02,0-.18-.04-.39,0-.57.34-1.31,1.13-2.29,2.31-2.94.8-.44,1.65-.74,2.54-.91,2.29-.42,4.58-.47,6.87-.03,1.01.2,1.97.53,2.84,1.09,1.32.86,2.1,2.07,2.38,3.62.12.66.16,1.33.16,2,0,2.74.02,5.49.03,8.23,0,.11-.04.22-.06.36Zm-4.61-6.69c-.22-.04-.41-.1-.6-.1-1.22,0-2.45-.01-3.67.01-.81.02-1.63.04-2.43.23-.54.13-1.07.28-1.54.6-1.06.71-1.22,2.08-.37,3.04.42.48.97.76,1.57.88,1.89.39,3.66.03,5.22-1.12,1.16-.86,1.78-2.03,1.81-3.55Z"/>
  <path d="m99.89,124.01c-.73.16-3.32.16-4.06,0-.23-.52,0-1.13-.2-1.69-.11.03-.21.03-.27.08-1.77,1.57-3.87,2.21-6.19,2.29-1.41.05-2.8-.04-4.16-.47-.79-.25-1.52-.6-2.15-1.15-.9-.79-1.43-1.76-1.39-2.99.01-.44.02-.88.11-1.3.28-1.34,1.09-2.3,2.28-2.95.83-.46,1.73-.72,2.65-.88,1.44-.25,2.89-.4,4.35-.38,1.17.01,2.34,0,3.5,0,.29,0,.57-.02.85-.04.15-1.05-.27-2.06-1.11-2.61-.29-.19-.61-.35-.94-.45-1.11-.33-2.25-.34-3.38-.12-1.02.2-1.85.71-2.26,1.73-.02.05-.07.09-.15.19-.47.07-1,.02-1.52.03-.5,0-.99.02-1.49,0-.51-.02-1.04.1-1.58-.11.13-.99.51-1.81,1.17-2.51.61-.65,1.37-1.08,2.2-1.39,1.18-.45,2.42-.67,3.68-.72.82-.03,1.63,0,2.45,0,1.18,0,2.32.21,3.44.58.52.18,1.03.41,1.51.69,1.45.85,2.28,2.14,2.52,3.8.09.6.14,1.22.14,1.83.02,2.69.03,5.37.04,8.06,0,.17-.03.34-.04.49Zm-4.57-6.62c-.19-.04-.3-.08-.41-.08-1.66,0-3.33-.01-4.99.05-.9.03-1.78.24-2.61.66-1.41.72-1.38,2.52-.34,3.37.39.32.84.55,1.32.65,1.93.38,3.72.03,5.3-1.18,1.11-.85,1.65-2,1.74-3.47Z"/>
  <path d="m80.05,117.63c-.42,0-.74.02-1.05.02-4.06,0-8.11,0-12.17,0-.31,0-.64-.05-.94.08-.03.11-.08.19-.07.27.12,1.36.72,2.45,1.9,3.17,1.14.69,2.4.9,3.7.81.55-.04,1.1-.16,1.62-.33.68-.22,1.27-.6,1.64-1.24.06-.1.14-.19.19-.26.94-.14,4.14-.11,4.75.04.04.41-.15.78-.31,1.14-.33.7-.86,1.24-1.5,1.67-1.16.78-2.47,1.18-3.82,1.43-1.74.32-3.48.35-5.23.17-1.19-.12-2.35-.4-3.46-.9-2.15-.97-3.48-2.6-4-4.89-.36-1.59-.33-3.19.1-4.76.61-2.21,1.99-3.72,4.09-4.59,1.39-.57,2.84-.86,4.34-.88.64-.01,1.28-.02,1.93,0,1.56.06,3.06.42,4.45,1.14,1.9.99,3.09,2.54,3.62,4.6.27,1.05.31,2.13.22,3.32Zm-14.21-2.77c.67.08,8.12.14,9.09.07.11,0,.22-.05.36-.09,0-.19,0-.37-.03-.53-.34-1.47-1.26-2.4-2.69-2.83-1.05-.32-2.13-.33-3.21-.15-.81.14-1.57.46-2.2,1-.76.65-1.22,1.46-1.32,2.52Z"/>
  <path d="m138.79,113.38c-.64.15-3.83.17-4.64.02-.03-.13-.06-.26-.1-.4-.2-.77-.68-1.29-1.43-1.53-1.19-.38-2.41-.44-3.62-.11-.3.08-.59.26-.85.44-.36.25-.5.62-.49,1.06,0,.49.21.86.65,1.05.46.19.93.36,1.41.44,1.23.22,2.48.39,3.71.59.89.14,1.8.23,2.65.53.44.16.88.33,1.28.56,1.81,1.04,2.19,2.94,1.91,4.44-.25,1.38-1.03,2.38-2.24,3.07-1.09.62-2.28.91-3.5,1.04-2.16.23-4.31.17-6.46-.15-.72-.11-1.43-.3-2.1-.6-1.66-.74-2.65-2.34-2.6-4.22.09-.03.2-.1.3-.1,1.43,0,2.86,0,4.24,0,.28.15.31.39.38.61.34,1.1,1.13,1.63,2.24,1.8,1,.15,1.98.11,2.96-.05.4-.06.78-.22,1.16-.38.21-.09.4-.25.56-.42.62-.67.46-1.55-.33-1.99-.55-.31-1.17-.37-1.77-.46-1.35-.2-2.71-.37-4.07-.56-.81-.12-1.59-.35-2.35-.66-.27-.11-.52-.25-.78-.39-2.58-1.39-2.65-4.9-.67-6.62.65-.57,1.38-.98,2.19-1.25,1.85-.62,3.77-.75,5.7-.64,1.14.07,2.26.23,3.34.62.69.25,1.34.57,1.9,1.05.91.78,1.44,1.75,1.45,2.97,0,.08-.04.17-.05.24Z"/>
  <path d="m48.03,118.61c1.57-.01,3.05,0,4.52,0,.17.42.12.76.04,1.1-.31,1.31-1.04,2.33-2.14,3.09-1.05.73-2.23,1.15-3.47,1.38-2.03.38-4.06.37-6.08-.13-1.09-.27-2.1-.71-3-1.39-1.12-.85-1.92-1.96-2.35-3.3-.59-1.85-.62-3.74-.11-5.61.6-2.2,2-3.72,4.07-4.64,1.22-.54,2.51-.77,3.82-.84,1.58-.09,3.15.06,4.68.48.79.22,1.54.55,2.22,1.02,1.43,1,2.18,2.38,2.34,4.16-.15.05-.28.13-.41.13-1.31,0-2.63,0-3.94,0-.08,0-.17-.04-.3-.08-.06-.2-.13-.41-.19-.63-.34-1.2-1.14-1.93-2.33-2.26-1.95-.54-4.28.29-5.14,2.68-.21.58-.35,1.17-.38,1.79-.06,1-.07,1.99.21,2.95.12.42.26.84.47,1.22.66,1.23,1.73,1.87,3.11,1.96.64.04,1.28.05,1.91-.13,1.17-.33,1.92-1.06,2.26-2.22.06-.22.12-.44.2-.74Z"/>
  <path d="m139.84,111.88c-.13-.85-.12-2.05,0-2.76.18-.03.37-.08.57-.08.9,0,1.81,0,2.71,0,.29,0,.58.03.9-.11.02-.19.07-.39.07-.59,0-1.05,0-2.1,0-3.15,0-.23.04-.45.06-.67.13-.04.21-.1.29-.1,1.23,0,2.45,0,3.68,0,.08,0,.16.05.29.1.02.19.07.38.07.58,0,1.02,0,2.04,0,3.06,0,.26.03.51.04.8.94.14,1.84.04,2.73.07.87.03,1.74-.07,2.59.06.17.71.18,1.97.01,2.76-.21.02-.43.06-.65.06-1.2,0-2.39,0-3.59,0-.29,0-.58.02-.81.02-.29.25-.23.53-.23.78,0,2.04,0,4.09,0,6.13,0,.26.04.52.06.78.08,1.01.75,1.81,2.04,1.88.69.04,1.4-.04,2.09-.08.31-.02.63-.16.94-.02.17.68.17,2.01,0,2.69-.09.03-.2.09-.31.1-1.31.1-2.61.27-3.93.22-.88-.03-1.75-.13-2.59-.36-1.45-.41-2.51-1.26-2.76-3.22-.08-.66-.13-1.34-.13-2.01-.02-1.98,0-3.97-.01-5.95,0-.28.07-.58-.13-.9-.16-.02-.36-.07-.55-.07-.85,0-1.69,0-2.54,0-.29,0-.57-.02-.9-.03Z"/>
  <path d="m203.71,111.86c-.92.11-1.79.03-2.66.05-.84.02-1.68-.05-2.55.05-.04.21-.09.38-.09.54,0,2.13,0,4.26,0,6.39,0,.23.03.47.06.7.17,1.22.86,1.88,2.09,1.92.7.02,1.4-.05,2.09-.09.29-.02.57-.13.89-.01.22.42.1.9.11,1.35,0,.43.07.87-.08,1.32-.11.04-.21.11-.32.12-1.34.11-2.67.28-4.01.23-.85-.04-1.68-.13-2.51-.35-1.66-.44-2.58-1.52-2.79-3.2-.08-.61-.12-1.22-.12-1.83-.02-2.04,0-4.08,0-6.13,0-.29-.02-.57-.03-.9-.24-.04-.43-.09-.62-.1-.9,0-1.81,0-2.71,0-.29,0-.57-.02-.88-.04-.21-.49-.11-.96-.12-1.41,0-.43-.07-.87.06-1.28.25-.2.52-.15.78-.15.88,0,1.75,0,2.63,0,.29,0,.57-.02.91-.03.04-.23.11-.42.11-.61.01-.99,0-1.98,0-2.98,0-.29.01-.58.02-.87.48-.24.96-.12,1.41-.14.47-.02.93,0,1.4,0,.46,0,.93,0,1.32,0,.27.25.23.49.23.72,0,1.02,0,2.04,0,3.06,0,.25-.06.53.15.8.83.11,1.71.03,2.57.05.87.02,1.74-.03,2.59.03.19.63.21,1.78.07,2.8Z"/>
  <path d="m58.91,124.08c-.24.02-.44.05-.64.05-1.08,0-2.16-.02-3.23-.04-.05,0-.1-.05-.2-.11-.01-.1-.05-.24-.05-.38,0-6.91,0-13.82,0-20.75.72-.25,1.42-.11,2.11-.13.66-.02,1.33-.04,1.95.02.27.28.18.55.18.8,0,2.04,0,4.08,0,6.12,0,4.46,0,8.92,0,13.39,0,.31.07.64-.11,1.03Z"/>
  <path d="m187.83,109.06c.03.19.06.33.06.48,0,.9,0,1.81,0,2.66-.26.29-.53.17-.78.14-1.02-.14-2.03-.11-3.05.06-2.1.35-3.41,1.59-3.79,3.68-.12.69-.18,1.39-.19,2.09-.03,1.52,0,3.03-.01,4.55,0,.29,0,.58,0,.87,0,.14-.03.28-.05.46-.44.17-.87.08-1.3.09-.47.01-.93.01-1.4,0-.43-.01-.87.06-1.34-.07-.03-.17-.09-.33-.1-.5-.01-.67,0-1.34,0-2.01,0-2.6,0-5.19,0-7.79,0-1.31-.05-2.62-.08-3.94,0-.23,0-.46,0-.68.11-.05.19-.12.27-.12,1.11-.01,2.22-.02,3.32-.01.11,0,.22.06.36.09.25.76.05,1.56.22,2.45.16-.21.25-.31.31-.42.91-1.64,2.38-2.33,4.19-2.39,1.11-.04,2.21-.04,3.36.3Z"/>
  <path d="m106.31,124.03c-.92.16-3.47.14-4.14-.03,0-.3-.02-.62-.02-.93,0-3.35,0-6.71,0-10.06,0-.99-.05-1.98-.07-2.97,0-.26,0-.52,0-.81.66-.22,1.33-.09,1.99-.11.64-.01,1.28-.05,1.93.03.2.41.16.82.17,1.22.01.38.01.75.02,1.26.17-.16.26-.21.31-.29.79-1.49,2.05-2.27,3.69-2.47.52-.06,1.05-.1,1.57-.08.61.02,1.22.11,1.83.19.17.02.33.1.48.15.16.67.17,2.47,0,3.27-.44.04-.9,0-1.36-.04-.91-.06-1.81-.02-2.69.17-2,.44-3.12,1.72-3.47,3.7-.12.69-.16,1.39-.18,2.09-.02,1.66,0,3.32,0,4.99,0,.23-.02.46-.04.72Z"/>
  <path d="m158.36,135.48c-.53.11-.96.11-1.42.01-.17-.79-.08-1.57-.08-2.35,0-.75-.05-1.5.03-2.26.41-.18.8-.14,1.16-.08.16.03.3.24.48.39,1.16-.66,2.34-.94,3.47.19.15-.11.29-.21.43-.31.64-.45,1.35-.53,2.09-.39.77.14,1.27.68,1.29,1.44.03,1.05,0,2.1-.01,3.15,0,.05-.04.1-.09.21-.42.11-.87.09-1.37,0-.03-.17-.09-.34-.09-.5-.01-.64,0-1.28,0-1.92,0-.2,0-.42-.04-.61-.04-.16-.14-.33-.27-.42-.71-.49-1.69-.04-1.77.82-.04.46-.02.93-.02,1.4,0,.38,0,.75,0,1.13-.52.27-1,.17-1.52.11-.02-.24-.06-.43-.06-.63,0-.7,0-1.4,0-2.1-.01-.62-.31-.89-.93-.9-.74,0-1.15.35-1.19,1.1-.03.52,0,1.05-.01,1.57,0,.29-.02.57-.03.93Z"/>
  <path d="m182.38,135.92c.47-.12.9-.08,1.33-.05.13,0,.26.11.37.2.64.53,1.35.47,2.06.19.17-.07.32-.26.41-.43.14-.25.2-.54.07-.89-.23.09-.43.18-.64.26-.8.29-1.6.29-2.39,0-.95-.35-1.55-1.24-1.5-2.24.04-.99.53-1.81,1.63-2.14.99-.29,1.95-.28,2.89.33.43-.56,1-.37,1.59-.3.03.19.07.36.08.52,0,1.28,0,2.57,0,3.85,0,.23-.03.47-.09.69-.14.54-.47.93-.98,1.16-.05.02-.1.05-.16.08-.78.32-2.82.35-3.62.04-.45-.17-.83-.43-1-.91-.03-.1-.03-.22-.04-.36Zm2.86-1.58c.17-.02.38-.03.57-.07.36-.08.64-.29.78-.63.39-.92-.14-1.81-1.13-1.89-.26-.02-.53-.01-.78.04-.65.15-1.02.68-.98,1.34.04.69.44,1.1,1.15,1.18.11.01.23.02.38.03Z"/>
  <path d="m124.55,135.15c-.08.12-.16.23-.26.37-.41.05-.83.08-1.25-.03-.04-.11-.09-.19-.09-.27,0-1.86-.01-3.73-.01-5.59,0-.14.03-.28.05-.41.6-.2.62-.2,1.41-.06.25.59,0,1.25.16,1.86.2.15.32-.03.47-.09.9-.41,1.8-.4,2.69.04.8.4,1.2,1.08,1.26,1.95.02.34.02.71-.07,1.04-.2.75-.69,1.27-1.43,1.53-.92.32-1.82.37-2.67-.23-.07-.05-.15-.07-.26-.11Zm1.4-.61c.88-.01,1.45-.58,1.42-1.42-.03-.79-.58-1.29-1.44-1.33-.82-.03-1.49.61-1.49,1.39,0,.78.65,1.36,1.51,1.35Z"/>
  <path d="m144.7,135.47c-.41.15-.8.12-1.16.06-.16-.02-.3-.22-.49-.37-.37.31-.83.47-1.33.54-.66.09-1.28-.03-1.86-.34-.86-.46-1.2-1.25-1.19-2.18.02-1,.46-1.8,1.4-2.25.77-.37,1.57-.39,2.37-.09.21.08.41.18.65.29.2-.67,0-1.32.16-1.97.46-.14.91-.12,1.4-.01.04.14.1.27.1.41,0,1.86,0,3.73,0,5.59,0,.08-.03.17-.06.33Zm-2.95-.94c.9.01,1.45-.5,1.47-1.35.03-.97-.77-1.38-1.46-1.39-.83,0-1.48.63-1.46,1.41.02.75.63,1.31,1.45,1.32Z"/>
  <path d="m172.31,135.53c-.59,0-1.18.22-1.62-.27-.53.14-1.03.29-1.53.41-.58.13-1.16.05-1.73-.13-.65-.21-1.01-.72-1-1.38,0-.66.37-1.16,1.07-1.31.51-.12,1.04-.14,1.56-.2.41-.04.81-.06,1.22-.11.21-.03.38-.15.41-.39.02-.21-.15-.48-.38-.53-.52-.11-1.05-.16-1.55.01-.22.08-.39.33-.64.56-.38.06-.83.11-1.33-.05.05-.53.28-.92.72-1.15.3-.16.65-.3.98-.32.7-.05,1.4-.03,2.1,0,.23,0,.46.08.68.16.7.24.97.6,1,1.36.02.32,0,.64,0,.96.01.75.03,1.51.05,2.38Zm-1.68-2.21c-.67.08-1.28.14-1.88.22-.16.02-.35.09-.47.2-.29.26-.15.75.24.93.57.26,1.53.06,1.95-.4.23-.25.33-.54.16-.95Z"/>
  <path d="m199.52,132.21h-1.28c-.07-.53.16-.89.54-1.13.31-.19.69-.36,1.05-.39.72-.06,1.46-.04,2.18-.02.23,0,.45.1.67.17.62.2.97.62.97,1.3,0,.26,0,.52,0,.79.02.84.04,1.68.05,2.56-.58.1-1.17.21-1.66-.22-.53.14-1.02.29-1.53.41-.55.13-1.11.05-1.64-.11-.7-.21-1.07-.74-1.06-1.43.02-.66.38-1.13,1.09-1.29.48-.11.98-.14,1.47-.19.43-.05.87-.06,1.3-.13.25-.04.38-.22.38-.41,0-.24-.13-.41-.33-.47-.54-.16-1.1-.19-1.63,0-.22.08-.38.34-.6.56Zm2.53,1.11c-.66.08-1.32.14-1.97.23-.34.05-.5.21-.53.47-.04.29.12.57.43.66.68.21,1.32.09,1.86-.38.28-.24.38-.56.21-.98Z"/>
  <path d="m147.07,133.63c.03.53.34.8.72.94.59.22,1.22.27,1.74-.16.3-.24.61-.32.96-.3.28.02.58-.06.89.13-.15.48-.5.77-.89,1.02-.43.27-.92.35-1.41.42-.77.12-1.51,0-2.23-.27-.74-.27-1.2-.81-1.38-1.57-.15-.64-.11-1.27.17-1.88.36-.8,1.06-1.17,1.86-1.28.66-.09,1.34-.08,2,0,.65.07,1.21.4,1.61.96.37.53.51,1.11.4,1.81-.26.17-.56.1-.84.11-.96,0-1.92,0-2.88,0-.22,0-.45.04-.7.07Zm2.85-1.04c-.07-.2-.09-.38-.19-.5-.67-.77-1.88-.72-2.51.1-.07.09-.07.25-.12.45.8,0,1.52,0,2.25,0,.17,0,.34-.03.58-.05Z"/>
  <path d="m178.69,130.59c.32.05.79.07,1.23.2,1.13.31,1.73,1.09,1.75,2.32.02,1.34-.64,2.15-1.89,2.47-.8.2-1.61.2-2.42.02-1.34-.29-2.02-1.17-2-2.48.02-1.29.63-2.15,2.14-2.44.34-.07.7-.05,1.19-.09Zm1.35,2.47c-.02-.41-.16-.85-.6-1.11-.59-.34-1.22-.34-1.82-.02-.55.3-.68.83-.63,1.42.05.61.4,1.04.99,1.17.3.07.64.08.94.03.74-.13,1.14-.66,1.13-1.49Z"/>
  <path d="m133.56,130.83c.56-.06,1.02-.09,1.53.03-.05.19-.07.35-.14.5-.74,1.58-1.48,3.17-2.22,4.75-.09.18-.18.36-.29.54-.21.34-.51.54-.92.6-.52.07-1.04.11-1.54-.03q-.1-.48,0-.98c.21-.02.44-.02.67-.06.54-.1.84-.61.62-1.12-.36-.8-.76-1.57-1.14-2.36-.22-.45-.44-.89-.65-1.34-.06-.12-.09-.26-.14-.44.52-.2,1-.13,1.52-.09.55.89.81,1.92,1.37,2.91.13-.18.22-.27.27-.39.24-.56.47-1.13.71-1.69.11-.27.24-.53.38-.82Z"/>
  <path d="m197.27,132.41c-.42.16-.83.11-1.23.07-.15-.01-.33-.13-.42-.26-.47-.64-1.12-.57-1.75-.44-.45.09-.76.42-.87.89-.08.32-.08.63,0,.95.11.43.38.71.79.87.76.28,1.39.08,1.9-.6.05-.07.11-.13.18-.22.45-.06.91-.08,1.41.03-.03.83-.43,1.41-1.15,1.7-1.15.46-2.34.47-3.49,0-.76-.32-1.18-.93-1.27-1.74-.02-.17-.04-.35-.04-.52.01-1.39.81-2.31,2.21-2.46.58-.06,1.16-.04,1.74,0,.5.03.96.23,1.35.56.36.31.65.66.65,1.19Z"/>
  <path d="m153.64,135.53h-1.29c-.05-.15-.13-.28-.13-.41,0-1.34,0-2.68,0-4.02,0-.05.04-.11.08-.21.41-.22.86-.11,1.34-.06.06.2.12.38.18.59.11-.05.2-.07.25-.12.55-.57,1.21-.78,2.01-.59.2.41.13.83.06,1.3-.18,0-.35.02-.51.03-.2,0-.41-.01-.61.01-.75.09-1.16.48-1.23,1.24-.04.43,0,.87-.02,1.31,0,.29.04.58-.13.93Z"/>
  <path d="m174.59,135.49c-.45.12-.88.09-1.35.03-.04-.14-.1-.27-.1-.4,0-1.86,0-3.72,0-5.58,0-.11.03-.22.06-.38.46-.13.91-.12,1.38,0,.04.11.1.22.1.33,0,1.89,0,3.78,0,5.67,0,.11-.06.22-.09.33Z"/>
  <path d="m190.57,135.49c-.48.11-.91.08-1.37.03-.04-.1-.12-.2-.12-.31,0-1.37,0-2.74,0-4.11,0-.05.04-.11.06-.16.59-.21.71-.21,1.41-.03.13.61.16,3.64.02,4.59Z"/>
  <path d="m189.16,129.11h1.33c.23.3.16.61.1.94-.46.21-.92.07-1.34.11-.2-.44-.21-.44-.09-1.05Z"/>
</svg>