<?xml version="1.0" encoding="UTF-8"?>
<svg id="Layer_1" data-name="Layer 1" xmlns="http://www.w3.org/2000/svg" viewBox="0 0 240 240">
  <defs>
    <style>
      .cls-1 {
        fill: #fff;
      }
    </style>
  </defs>
  <path d="m138.52,132.05c.15-.22-.12-.33-.14-.53.14-.12.27-.11.37.06.09.17,0,.32-.24.46,0,0,.01.01.01.01Z"/>
  <g>
    <path class="cls-1" d="m59.49,121.95c.1-.33.21-.62.28-.92.22-.85.66-1.58,1.17-2.26.23-.32.55-.58.84-.84.07-.06.26-.09.31-.05.08.08.1.22.12.35.01.07-.04.14-.06.21-.18.58-.36,1.15-.53,1.73-.12.4-.24.79-.32,1.2-.08.37.17.69.54.71.21,0,.45-.03.64-.12.49-.23.79-.65,1.04-1.11.02-.03,0-.08-.01-.15-.3.21-.35.7-.87.69.02-.19.01-.36.06-.51.25-.82.52-1.63.76-2.45.08-.26.13-.55.13-.82,0-.43-.42-.84-.97-.63-.49.18-.85.52-1.17.91-.36.44-.69.91-1.03,1.37-.03,0-.06-.02-.08-.03.03-.16.04-.33.09-.48.36-1.25.73-2.49,1.09-3.73.04-.15.07-.3.12-.52-.69.12-1.29.23-2,.35.21.1.32.16.43.21.1.47-.07.89-.19,1.31-.52,1.78-1.05,3.56-1.57,5.35-.02.08-.03.16-.04.27h1.2Z"/>
    <path class="cls-1" d="m48.42,122.17c.16-.11.29-.16.37-.25.73-.76,1.46-1.51,2.16-2.28.37-.41.59-.92.72-1.46.06-.22.07-.47.05-.7-.03-.26-.19-.46-.46-.53-.26-.07-.49,0-.63.2-.16.22-.17.49-.01.74.04.06.08.12.13.18.27.32.29.66.14,1.04-.23.58-.63,1.03-1.07,1.45-.04.04-.13.05-.23.09-.22-1.25-.25-2.5-.51-3.72-.78.96-1.42,1.99-2.2,2.94-.05-.98-.02-1.95-.31-2.88-.12,0-.21-.02-.29,0-.48.12-.96.25-1.48.39.54.22.63.33.69.89.03.31.07.62.06.93-.01.78-.05,1.56-.07,2.35,0,.17,0,.34.01.5.04.01.08.02.11.04.16-.2.33-.4.47-.61.54-.77,1.08-1.55,1.62-2.33.07-.1.16-.19.32-.36.14.63.16,1.18.22,1.71.06.54.12,1.08.18,1.68Z"/>
    <path class="cls-1" d="m70.58,114.47c-.71.12-1.31.22-1.98.33.47.23.52.3.41.72-.18.65-.38,1.3-.57,1.95-.36,1.23-.7,2.47-1.09,3.69-.19.6.23.98.8.92.55-.06,1.26-.67,1.44-1.29-.2.21-.37.42-.57.59-.06.06-.21.09-.27.06-.07-.04-.13-.17-.13-.25.01-.17.06-.35.11-.52.54-1.84,1.09-3.68,1.64-5.51.06-.19.11-.39.2-.7Z"/>
    <path class="cls-1" d="m56.24,117.73c-.04.19-.06.33-.1.46-.21.69-.43,1.38-.64,2.07-.1.32-.21.65-.26.98-.09.61.2.89.81.83.2-.02.4-.1.57-.2.36-.19.61-.51.83-.85.04-.06.03-.14.05-.24-.34.24-.43.75-1,.67.05-.27.07-.52.14-.75.25-.83.51-1.66.77-2.49.15-.49.15-.49.65-.51.03,0,.05-.02.13-.05.04-.13.09-.29.14-.47-.2-.04-.36-.06-.53-.1.03-.53.35-.97.34-1.59-.21.19-.35.31-.47.45-.47.52-1,.96-1.65,1.25-.12.05-.24.11-.34.2-.06.05-.08.16-.13.29.25.02.43.03.7.05Z"/>
    <path class="cls-1" d="m52.72,117.18c.4.24.41.27.32.69-.04.17-.08.34-.14.51-.28.93-.58,1.86-.83,2.79-.16.59.12.91.73.9.16,0,.32-.04.47-.1.54-.24.83-.7,1.1-1.19-.13.09-.22.21-.33.32-.14.16-.29.44-.52.33-.26-.13-.11-.42-.05-.64.37-1.18.75-2.36,1.12-3.54.03-.11.05-.22.09-.4-.7.11-1.33.22-1.96.32Z"/>
    <path class="cls-1" d="m54.32,115.94c.4,0,.73-.31.73-.72,0-.37-.37-.73-.75-.73-.4,0-.76.34-.76.71,0,.42.31.72.77.73Z"/>
    <path d="m117.61,151.73c-.99-.03-2.36-.11-3.63-.75-.79-.4-1.57-.83-2.34-1.26-1.36-.75-2.7-1.53-4.07-2.25-2.31-1.22-4.66-2.38-6.97-3.6-3.13-1.65-5.74-3.89-7.7-6.85-.93-1.4-1.51-2.93-1.81-4.58-.42-2.28-.86-4.55-1.32-6.82-.27-1.35-.64-2.67-1.09-3.97-.44-1.25-.64-2.55-.77-3.86-.19-1.87-.19-3.75,0-5.62.11-1,.24-2,.68-2.92.2-.42.43-.85.72-1.21,1.3-1.6,2.46-3.29,3.55-5.03,1.28-2.02,2.53-4.06,3.76-6.11,1.07-1.78,2.5-3.21,4.24-4.34,1.79-1.16,3.76-1.92,5.79-2.53.33-.1.65-.19.98-.28.93-.26,1.82-.59,2.68-1.05,1.95-1.03,3.98-1.88,6.15-2.35,1.72-.37,3.44-.35,5.13.14.58.17,1.12.46,1.68.69,1.45.62,2.95,1.04,4.5,1.32,1.28.24,2.57.41,3.84.67,2.01.41,3.91,1.15,5.79,1.95,1.73.74,3.36,1.66,4.85,2.83,1.87,1.48,3.22,3.33,3.98,5.58.57,1.68,1.33,3.28,2.12,4.87.93,1.86,1.91,3.7,2.75,5.6,1.01,2.26,1.74,4.61,2.06,7.08.42,3.18-.08,6.21-1.52,9.08-.45.9-.92,1.79-1.41,2.66-.74,1.3-1.28,2.69-1.9,4.05-1.05,2.3-2.14,4.58-3.48,6.72-.89,1.42-1.8,2.82-3.03,3.97-1.44,1.35-3.12,2.28-5.01,2.82-1.59.46-3.19.89-4.76,1.39-.87.28-1.71.67-2.53,1.05-2.34,1.1-4.77,1.91-7.3,2.43-1.39.29-2.8.45-4.61.47Zm-29.15-36.78c.06.94.11,1.89.19,2.83.11,1.28.32,2.56.75,3.77.58,1.62.95,3.29,1.3,4.96.39,1.88.71,3.77,1.07,5.65.23,1.24.54,2.45,1.18,3.55.62,1.06,1.32,2.07,2.14,2.99,1.64,1.84,3.56,3.33,5.74,4.48,1.31.69,2.64,1.32,3.95,2,1.59.83,3.16,1.67,4.74,2.52,1.53.83,3.06,1.68,4.58,2.52.52.29,1.08.5,1.67.58.7.09,1.41.15,2.12.16,1.33.01,2.65-.14,3.97-.38,2.28-.42,4.48-1.08,6.58-2.07,1.49-.7,2.99-1.35,4.57-1.81,1.32-.39,2.65-.73,3.97-1.12,1.76-.53,3.29-1.47,4.57-2.78,1.15-1.18,2.09-2.53,2.94-3.93,1.13-1.87,2.08-3.84,3-5.83.65-1.41,1.28-2.82,1.96-4.21.54-1.1,1.16-2.16,1.7-3.26.75-1.52,1.2-3.14,1.38-4.83.18-1.67.03-3.33-.3-4.98-.51-2.52-1.43-4.9-2.55-7.2-.81-1.66-1.66-3.29-2.49-4.95-.63-1.26-1.21-2.53-1.64-3.87-.55-1.71-1.53-3.15-2.8-4.4-1.07-1.05-2.32-1.87-3.64-2.59-1.61-.88-3.32-1.54-5.06-2.14-.85-.29-1.72-.53-2.6-.71-1.37-.28-2.76-.48-4.14-.74-1.86-.34-3.63-.95-5.33-1.77-.2-.09-.41-.18-.62-.24-1.6-.41-3.21-.44-4.83-.07-1.99.45-3.86,1.2-5.66,2.15-.48.25-.97.52-1.48.71-.78.28-1.58.5-2.37.73-1.53.45-3.03,1-4.45,1.75-2.19,1.15-4.01,2.7-5.3,4.84-1.23,2.03-2.48,4.06-3.74,6.08-1.08,1.73-2.22,3.42-3.51,5-.54.66-.87,1.4-1.07,2.21-.35,1.45-.43,2.92-.47,4.4Z"/>
    <path d="m59.49,121.95h-1.2c.02-.11.02-.19.04-.27.52-1.78,1.05-3.56,1.57-5.35.12-.42.29-.84.19-1.31-.11-.05-.22-.11-.43-.21.71-.12,1.31-.23,2-.35-.05.23-.08.38-.12.52-.36,1.25-.73,2.49-1.09,3.73-.05.16-.06.32-.09.48.03,0,.06.02.08.03.34-.46.67-.92,1.03-1.37.32-.39.68-.73,1.17-.91.55-.21.96.2.97.63,0,.27-.05.56-.13.82-.24.82-.51,1.63-.76,2.45-.05.16-.04.33-.06.51.52,0,.57-.48.87-.69,0,.07.03.12.01.15-.25.46-.56.88-1.04,1.11-.19.09-.42.13-.64.12-.37-.01-.62-.34-.54-.71.08-.4.2-.8.32-1.2.17-.58.35-1.16.53-1.73.02-.07.07-.15.06-.21-.02-.12-.04-.27-.12-.35-.05-.05-.24-.01-.31.05-.3.27-.61.53-.84.84-.51.69-.96,1.42-1.17,2.26-.08.3-.18.59-.28.92Z"/>
    <path d="m170.89,117.38c.07-.12.12-.19.14-.27.15-.52.3-1.05.45-1.57.08-.3.05-.55-.39-.72.7-.12,1.29-.22,1.95-.34-.06.24-.09.39-.14.54-.57,1.88-1.14,3.75-1.7,5.63-.05.15-.09.32-.1.47-.01.24.15.33.34.19.16-.13.28-.3.42-.45.04-.04.08-.07.19-.17-.04.14-.03.21-.06.24-.27.31-.53.63-.83.92-.2.19-.46.26-.74.23-.41-.03-.62-.26-.58-.67.02-.19.08-.37.12-.56.02-.12.04-.24.06-.36-.03-.01-.06-.03-.09-.04-.14.2-.27.41-.42.6-.2.25-.4.51-.63.74-.28.27-.63.4-1.02.24-.4-.17-.56-.5-.6-.91-.04-.52-.01-1.03.18-1.53.33-.85.76-1.64,1.51-2.2.26-.2.59-.33.9-.44.33-.12.64-.03.86.28.03.05.09.08.18.15Zm-2.4,3.04s.04.01.06.02c0,.03,0,.06,0,.09.02.22,0,.47.24.57.27.11.48-.04.65-.25.03-.03.06-.06.09-.1.55-.77.98-1.61,1.15-2.55.04-.21.03-.44-.01-.65-.09-.39-.41-.5-.74-.27-.12.08-.24.19-.31.31-.25.45-.52.89-.71,1.36-.19.47-.29.98-.43,1.47Z"/>
    <path d="m160.92,121.91c.04-.15.08-.27.11-.4.3-1.02.6-2.03.9-3.05.05-.17.08-.34.11-.52.07-.5.05-.52-.49-.74.74-.08,1.4-.29,2.13-.29-.18.76-.48,1.42-.61,2.11.03.02.06.03.09.05.08-.09.16-.19.24-.28.36-.43.71-.87,1.09-1.28.26-.28.6-.45.98-.58.41-.14.9.26.88.63,0,.28-.02.56-.1.83-.23.78-.49,1.55-.72,2.32-.07.22-.08.45-.12.71.49-.01.6-.44.9-.61-.26.53-.59,1-1.17,1.22-.13.05-.29.05-.44.05-.42-.02-.68-.34-.59-.76.09-.42.22-.83.34-1.24.15-.49.31-.99.46-1.48.03-.1.05-.2.08-.3.04-.16.09-.33-.08-.44-.17-.11-.33,0-.44.1-.27.23-.55.46-.76.73-.62.79-1.15,1.64-1.37,2.65-.16.7,0,.63-.84.63-.15,0-.3,0-.44,0-.03,0-.05-.02-.13-.05Z"/>
    <path d="m48.42,122.17c-.07-.6-.12-1.14-.18-1.68-.06-.53-.07-1.08-.22-1.71-.16.18-.25.26-.32.36-.54.77-1.08,1.55-1.62,2.33-.15.21-.32.41-.47.61-.04-.01-.08-.02-.11-.04,0-.17-.02-.34-.01-.5.02-.78.06-1.56.07-2.35,0-.31-.03-.62-.06-.93-.06-.57-.15-.67-.69-.89.52-.14,1-.27,1.48-.39.08-.02.17,0,.29,0,.29.94.26,1.9.31,2.88.78-.95,1.42-1.99,2.2-2.94.25,1.23.29,2.47.51,3.72.1-.04.18-.04.23-.09.44-.42.84-.87,1.07-1.45.15-.37.13-.72-.14-1.04-.05-.06-.09-.12-.13-.18-.16-.25-.15-.52.01-.74.14-.19.37-.27.63-.2.28.07.43.27.46.53.02.23,0,.48-.05.7-.13.54-.35,1.05-.72,1.46-.7.78-1.43,1.53-2.16,2.28-.09.09-.21.14-.37.25Z"/>
    <path d="m160.24,120.71c-.23.82-1.02,1.42-1.64,1.38-.47-.03-.64-.21-.56-.68.05-.26.11-.52.16-.78,0-.03-.02-.06-.04-.13-.08.08-.14.14-.2.21-.26.32-.5.65-.78.96-.11.13-.27.23-.43.3-.56.27-1.02.06-1.23-.52-.15-.43-.17-.87-.05-1.31.28-1.01.7-1.95,1.52-2.64.29-.24.64-.43.99-.56.46-.17.7-.03.91.43.03.06.07.13.1.18.05,0,.09,0,.1-.02.14-.46.47-.55.89-.5.13.01.26,0,.45,0-.04.17-.06.31-.1.44-.29.97-.59,1.95-.87,2.92-.06.21-.11.43-.13.65-.01.09.04.24.09.26.09.03.24.01.32-.05.16-.14.3-.32.5-.56Zm-3.49-.38c0,.1,0,.13,0,.16,0,.25.01.5.28.6.28.1.48-.07.65-.27.02-.02.04-.05.05-.07.41-.53.72-1.12.92-1.75.15-.48.25-.97.12-1.48-.11-.41-.39-.51-.72-.24-.06.05-.11.1-.15.16-.65.89-1.03,1.88-1.15,2.9Z"/>
    <path d="m183.36,120.54c-.15.19-.28.39-.45.57-.24.27-.47.57-.76.79-.59.43-1.21.18-1.4-.52-.13-.45-.11-.9,0-1.35.2-.75.52-1.44,1.01-2.05.35-.43.77-.77,1.29-.99.52-.21.82-.1,1.09.4.03.06.08.12.15.23.1-.19.18-.33.28-.53.34-.02.7-.04,1.12-.06-.04.18-.06.3-.1.42-.3,1.02-.6,2.03-.9,3.05-.03.11-.06.23-.09.34-.04.18-.15.41.09.51.21.09.35-.1.47-.25.09-.11.18-.22.31-.38-.16.76-.99,1.4-1.68,1.35-.4-.03-.58-.25-.52-.65.03-.19.09-.37.13-.56.02-.09.03-.19.04-.29-.03-.01-.05-.03-.08-.04Zm.71-2.44c-.03-.22-.04-.42-.09-.6-.11-.37-.41-.46-.71-.2-.14.12-.27.28-.37.44-.48.76-.76,1.59-.91,2.47-.03.16-.02.32,0,.48.02.18.11.34.29.41.2.07.35-.01.47-.15.77-.81,1.17-1.78,1.32-2.85Z"/>
    <path d="m70.51,120.34c.09-1.13.67-2.19,1.78-2.92.33-.21.71-.36,1.09-.47.24-.07.53-.06.78,0,.89.16,1.37.8,1.24,1.69-.22,1.52-.96,2.68-2.45,3.27-.23.09-.48.15-.73.18-1.02.11-1.71-.52-1.72-1.74Zm1.28.59c0,.12-.01.24,0,.35.03.25.16.44.41.53.26.08.47.01.63-.2.14-.19.29-.38.4-.58.46-.84.73-1.74.87-2.68.03-.23.04-.47,0-.71-.05-.4-.31-.58-.69-.46-.17.05-.36.17-.46.31-.67,1.04-1.08,2.19-1.18,3.43Z"/>
    <path d="m85.07,120.84c-.76.93-1.72,1.4-2.95,1.21-.49-.08-.82-.38-.97-.87-.15-.5-.12-1,.06-1.48.57-1.53,1.62-2.51,3.25-2.81.01,0,.03,0,.04,0,.4-.04.8-.01,1.03.36.23.36.13.75-.08,1.09-.42.69-1.05,1.11-1.82,1.32-.28.08-.58.14-.87.17-.25.03-.34.14-.33.37,0,.12,0,.24,0,.35.04.51.39.84.91.84.48,0,.89-.2,1.29-.43.12-.07.25-.14.37-.21.02.03.04.05.06.08Zm-2.45-1.3c.39.05.71-.08,1-.3.47-.37.73-.88.88-1.45.05-.19.07-.39-.13-.52-.19-.12-.37-.04-.54.07-.06.04-.12.08-.17.14-.48.55-.85,1.16-1.04,1.87-.01.05,0,.11,0,.19Z"/>
    <path d="m194.61,120.84c-.24.34-.56.61-.92.83-.56.35-1.17.48-1.83.4-.75-.09-1.24-.6-1.24-1.36,0-1.08.46-1.97,1.21-2.72.58-.58,1.28-.95,2.1-1.08.2-.03.42-.03.61,0,.58.12.8.52.6,1.09-.2.61-.63,1.02-1.18,1.32-.5.27-1.03.43-1.6.5-.32.04-.33.06-.36.38-.11,1.13.66,1.3,1.34,1.13.35-.09.67-.3,1-.46.07-.03.14-.08.21-.12.02.02.04.05.06.07Zm-2.5-1.36c.07.03.11.07.15.07.85.02,1.9-1.14,1.8-1.98-.03-.29-.22-.41-.5-.32-.1.03-.2.08-.27.14-.59.58-.94,1.3-1.18,2.09Z"/>
    <path d="m70.58,114.47c-.09.31-.14.5-.2.7-.55,1.84-1.09,3.68-1.64,5.51-.05.17-.1.34-.11.52,0,.09.06.22.13.25.07.03.21,0,.27-.06.19-.18.37-.38.57-.59-.18.62-.89,1.23-1.44,1.29-.57.06-.99-.32-.8-.92.39-1.22.73-2.46,1.09-3.69.19-.65.39-1.3.57-1.95.11-.41.06-.49-.41-.72.67-.11,1.27-.21,1.98-.33Z"/>
    <path d="m76.3,117.35c.47-.13.94-.26,1.41-.39.05-.01.11,0,.21,0,.42,1.2.49,2.45.53,3.74.11-.05.2-.07.25-.12.32-.36.66-.72.95-1.11.34-.46.39-.93.01-1.42-.26-.33-.25-.62-.05-.9.25-.35.69-.36.93,0,.09.14.16.33.16.49,0,.25-.04.5-.12.73-.22.64-.57,1.21-1.04,1.68-.64.65-1.33,1.25-2.01,1.87-.07.07-.17.11-.28.19-.03-.1-.06-.16-.06-.23-.04-.97-.07-1.95-.13-2.92-.02-.31-.1-.61-.16-.91-.07-.35-.25-.59-.6-.71Z"/>
    <path d="m179.55,120.82c-.63.86-1.45,1.38-2.58,1.24-.75-.09-1.24-.64-1.27-1.42-.04-1.05.38-1.92,1.07-2.68.55-.6,1.23-.96,2.04-1.06.42-.05.83,0,1.14.35.37.4.29,1.01-.16,1.31-.22.15-.5.12-.69-.06-.18-.17-.19-.39-.02-.64.11-.16.23-.3.35-.44-.1-.22-.27-.29-.48-.27-.3.03-.57.14-.79.35-.76.74-1.14,1.65-1.15,2.69,0,.89.67,1.39,1.52,1.12.36-.11.68-.33,1.02-.49Z"/>
    <path d="m56.24,117.73c-.27-.02-.45-.03-.7-.05.06-.13.07-.23.13-.29.1-.09.22-.15.34-.2.65-.29,1.17-.73,1.65-1.25.12-.14.27-.25.47-.45,0,.62-.31,1.07-.34,1.59.17.03.33.06.53.1-.05.18-.1.34-.14.47-.07.03-.1.05-.13.05-.5.01-.5.01-.65.51-.26.83-.52,1.66-.77,2.49-.07.23-.09.48-.14.75.58.08.66-.43,1-.67-.02.11-.02.19-.05.24-.22.34-.47.65-.83.85-.18.09-.38.18-.57.2-.61.07-.9-.22-.81-.83.05-.33.16-.66.26-.98.21-.69.43-1.38.64-2.07.04-.14.06-.28.1-.46Z"/>
    <path d="m189.23,118.06c-.44.33-.7.77-.88,1.23-.31.77-.58,1.54-.86,2.32-.04.11-.08.22-.11.34h-1.21c.05-.2.08-.37.13-.54.27-.92.54-1.84.8-2.76.06-.23.12-.46.15-.69.05-.39,0-.45-.39-.55-.06-.01-.11-.03-.18-.04.32-.18,1.72-.46,2.04-.4-.27.85-.54,1.7-.8,2.55.03.01.06.02.09.04.13-.25.26-.5.39-.75.19-.37.36-.75.58-1.09.15-.24.36-.46.58-.66.17-.15.39-.21.62-.09.21.12.25.31.25.53,0,.32-.09.61-.29.86-.17.21-.32.22-.52.03-.06-.05-.1-.11-.15-.16-.05-.05-.11-.09-.21-.17Z"/>
    <path d="m52.72,117.18c.63-.1,1.26-.21,1.96-.32-.04.18-.05.29-.09.4-.37,1.18-.75,2.36-1.12,3.54-.07.22-.22.51.05.64.23.11.37-.17.52-.33.1-.11.2-.24.33-.32-.27.49-.56.95-1.1,1.19-.14.06-.31.1-.47.1-.61.02-.89-.31-.73-.9.26-.94.55-1.86.83-2.79.05-.17.1-.34.14-.51.09-.43.08-.45-.32-.69Z"/>
    <path d="m54.32,115.94c-.46,0-.77-.31-.77-.73,0-.37.36-.71.76-.71.38,0,.75.35.75.73,0,.41-.33.73-.73.72Z"/>
    <path d="m90.99,115.25c.02-1.27.11-2.54.37-3.79.19-.89.51-1.71,1.11-2.43,1.47-1.8,2.73-3.75,3.96-5.72.91-1.47,1.79-2.95,2.7-4.43,1-1.63,2.36-2.9,3.98-3.9,1.56-.96,3.26-1.61,5.01-2.12.65-.19,1.31-.37,1.95-.59.32-.11.63-.26.93-.41,1.11-.52,2.2-1.08,3.34-1.54,1.52-.61,3.09-1.03,4.74-1,1.11.02,2.2.2,3.23.69,1.84.88,3.8,1.37,5.81,1.69,1.25.2,2.51.43,3.73.75,1.68.44,3.28,1.1,4.83,1.86,1.15.56,2.24,1.2,3.26,1.97,1.8,1.34,3.03,3.09,3.75,5.2.59,1.71,1.38,3.32,2.2,4.93.84,1.64,1.74,3.26,2.41,4.98.78,2,1.44,4.03,1.68,6.18.33,2.95-.25,5.73-1.65,8.34-.43.81-.89,1.6-1.3,2.42-.33.66-.64,1.33-.93,2.01-1.29,2.91-2.64,5.78-4.44,8.41-.69,1-1.45,1.94-2.37,2.74-1.38,1.2-2.99,1.93-4.75,2.38-1.79.45-3.58.93-5.27,1.7-.74.33-1.48.67-2.23.99-2.01.85-4.1,1.44-6.27,1.73-1.52.21-3.06.32-4.6.04-.59-.11-1.15-.28-1.67-.57-1.76-.97-3.51-1.97-5.28-2.91-2.04-1.08-4.09-2.13-6.15-3.17-1.96-.98-3.74-2.21-5.28-3.77-1.03-1.05-1.94-2.19-2.66-3.47-.43-.76-.78-1.56-.94-2.43-.29-1.51-.58-3.01-.87-4.52-.41-2.15-.85-4.28-1.57-6.36-.4-1.16-.56-2.39-.66-3.61-.06-.75-.08-1.5-.12-2.26Zm.2.45c.03.46.06,1.38.15,2.29.11,1.07.28,2.14.63,3.16.49,1.4.85,2.83,1.14,4.28.39,1.97.75,3.94,1.13,5.91.21,1.08.55,2.11,1.1,3.07.72,1.25,1.6,2.38,2.62,3.39,1.53,1.52,3.28,2.75,5.23,3.7,1.21.59,2.42,1.17,3.61,1.81,2.54,1.36,5.07,2.74,7.59,4.14.92.51,1.89.75,2.92.8,1.23.06,2.46,0,3.67-.2,2.63-.41,5.15-1.19,7.55-2.36.78-.38,1.6-.71,2.42-.98,1.21-.39,2.44-.71,3.66-1.07,1-.29,1.98-.6,2.89-1.11,1.6-.89,2.83-2.17,3.87-3.65,1.3-1.84,2.34-3.83,3.31-5.86.49-1.04.93-2.11,1.43-3.14.61-1.26,1.25-2.51,1.92-3.74,1.37-2.53,2.06-5.2,1.82-8.09-.2-2.37-.85-4.63-1.8-6.78-.96-2.16-2.08-4.24-3.1-6.37-.5-1.05-.92-2.14-1.38-3.21-.27-.62-.5-1.27-.81-1.87-.99-1.92-2.56-3.26-4.36-4.37-1.2-.74-2.47-1.32-3.78-1.85-1.88-.76-3.83-1.31-5.84-1.6-.99-.14-1.99-.32-2.96-.54-1.39-.32-2.71-.83-4-1.44-.17-.08-.36-.15-.54-.2-1.86-.48-3.7-.34-5.52.21-1.46.45-2.88,1.01-4.21,1.75-.82.45-1.69.77-2.59,1.03-1.45.41-2.88.88-4.25,1.52-2.32,1.08-4.24,2.61-5.57,4.84-1.21,2.01-2.46,4-3.71,5.99-.93,1.48-1.95,2.89-3.03,4.26-.31.39-.52.82-.66,1.29-.45,1.49-.55,3.02-.56,5.01Z"/>
    <path d="m134.19,131.27v.43h-4.62c0-.11-.02-.23-.03-.4.46-.02.88-.04,1.32-.06.02-.15.04-.26.04-.38.02-1.96.04-3.93.05-5.89,0-.87-.04-1.74-.06-2.61,0-.09-.02-.18-.04-.26-.07-.26-.17-.35-.44-.35-.86.01-1.71.07-2.55.29-.31.08-.58.21-.8.45-.18.19-.2.18-.54.13.08-.28.16-.56.25-.84-.27-.19-.54-.13-.83-.11-.15.19-.13.42-.14.64-.01,2.1-.03,4.2-.04,6.29,0,.92-.02,1.83-.03,2.75,0,.07,0,.15,0,.22-.02.17.03.38-.19.45-.19.06-.3-.1-.4-.21-.13-.14-.26-.29-.38-.43-1.86-2.22-3.71-4.45-5.57-6.67-.38-.45-.77-.9-1.15-1.35-.07-.08-.15-.14-.26-.24-.12.23-.13.44-.14.65-.06,1.77-.13,3.54-.18,5.31-.01.46.03.91.07,1.37.01.16.06.32.1.47.07.24.22.37.48.36.25,0,.5,0,.79,0,.02.14.04.26.06.35-.12.13-6.16.17-7.15.08-.01-.12-.02-.24-.04-.42h1.14c-.05-.22-.06-.38-.12-.53-.3-.85-.62-1.69-.92-2.54-.08-.22-.19-.34-.45-.33-1.14,0-2.28,0-3.42,0-.2,0-.38.03-.46.26-.32.93-.7,1.85-.84,2.84,0,.06,0,.12,0,.22.11.02.22.06.33.06.27.01.53,0,.8.03.26.02.27.04.24.41h-3.38c-.01-.11-.02-.22-.03-.35.12-.03.22-.07.31-.06.37.04.58-.16.71-.47.34-.75.68-1.51,1.02-2.26,1.03-2.31,2.06-4.61,3.08-6.92.04-.09.08-.19.12-.28.28-.66.72-.88,1.5-.7-.03.07-.05.14-.1.19-.31.32-.29.7-.16,1.08.18.55.37,1.09.57,1.63.5,1.34,1,2.68,1.52,4.02.38.97.79,1.94,1.23,2.89.38.83.41.82,1.32.82.31,0,.61-.01.95-.02.02-.64.04-1.23.06-1.81.09-2.02.18-4.04.26-6.06,0-.22,0-.44-.03-.66-.1-.72-.45-1.04-1.17-1.08-.15,0-.29-.01-.43-.02-.11-.36-.08-.43.24-.43.8-.01,1.6,0,2.4,0,.22,0,.35.12.48.27.77.95,1.53,1.92,2.32,2.86,1.04,1.23,2.1,2.44,3.16,3.66.22.26.45.51.68.76.09.1.2.19.38.36.03-.26.06-.42.05-.58-.01-1.64-.01-3.28-.05-4.92-.01-.48-.11-.97-.22-1.44-.1-.45-.23-.51-.69-.51-.23,0-.47,0-.73,0-.01-.15-.02-.26-.03-.41.18-.02.34-.04.5-.04.8,0,1.6.01,2.4.02.07,0,.15.01.22,0,.67-.16,1.36-.06,2.03-.05,1.89.03,3.79.07,5.68.08.81,0,1.62-.07,2.44-.07,1.12,0,2.25.02,3.37.02,1.52,0,3.05-.01,4.57-.02.06,0,.11.01.17.02-.03.47-.19.96-.43,1.31-.65-.58-1.48-.6-2.28-.7-.66-.08-1.33-.11-1.99-.15-.14,0-.29,0-.48,0-.02.2-.04.36-.04.51-.01,1.05-.02,2.1-.03,3.15,0,.49.02.51.48.51.96,0,1.92.01,2.88.02.47,0,.5-.02.56-.48.03-.22.06-.44.1-.7.14,0,.27-.01.41-.02v3.15h-.45c-.05-.46-.09-.89-.14-1.39-1.27-.03-2.5-.05-3.78-.05-.02.17-.04.31-.04.45,0,1.03-.01,2.07,0,3.1,0,.35.06.71.14,1.05.07.31.17.39.5.39.56,0,1.12-.03,1.68-.08.6-.06,1.21-.13,1.8-.27.55-.13,1.09-.36,1.66-.55-.16.44-.42.83-.68,1.21-.05.08-.2.11-.31.12-.19.02-.38,0-.58,0-2.23,0-4.47,0-6.7,0-.12,0-.24.02-.35-.01-.08-.02-.17-.11-.19-.19-.04-.14.05-.22.19-.23.19-.01.38-.01.58-.02.2,0,.41-.03.65-.04.01-.19.03-.35.03-.51,0-2.42-.02-4.85-.04-7.27,0-.43-.03-.86-.07-1.28-.05-.48-.62-.76-1.02-.5-.08.05-.12.16-.16.25-.05.14-.06.29-.11.43-.08.23-.22.26-.4.1-.1-.09-.16-.23-.27-.29-.16-.09-.35-.17-.54-.19-.81-.08-1.62-.15-2.43-.21-.3-.02-.35.04-.36.36-.03.87-.07,1.74-.07,2.61-.01,1.68-.01,3.37,0,5.05,0,.31.04.62.09.93.06.44.16.53.6.55.31.01.62,0,.98,0Zm-22.75-3.91c-.07-.48-1.37-4.13-1.55-4.35-.07.07-.17.12-.21.2-.59,1.36-1.17,2.72-1.79,4.15h3.55Z"/>
    <path d="m124.6,101.33v.86h-8.11v-8.23h8.1v6.77c-.58.09-1.14.13-1.6-.35-.17-.18-.38-.32-.55-.45-.07.02-.08.02-.09.03-.59.62-1.32.79-2.14.74-.49-.03-.98,0-1.46,0-.14,0-.29-.02-.46-.03v-4.99c.07-.02.14-.05.21-.05.7,0,1.39.02,2.09,0,1.4-.03,2.33,1.05,2.42,2.32.02.25-.02.5-.04.75-.04.37.03.48.45.6.13-.33.11-3.84-.02-4.22h-5.78c-.03.18-.07.35-.07.52,0,1.76,0,3.52,0,5.27,0,.13.02.26.03.44,2.35.06,4.68-.02,7.03.05Zm-5.45-3.95c0,.7,0,1.36,0,2.02,0,.21.11.29.31.29.47,0,.94,0,1.42-.02.28-.02.54-.11.7-.37-.37-.42-2.08-1.79-2.42-1.92Zm2.81.84c.19-.32.09-.74-.25-1.15-.37-.44-.96-.59-1.61-.36.64.52,1.25,1.01,1.86,1.51Z"/>
    <path d="m95.04,131.28c.34,0,.65,0,.95-.02.36-.01.41-.06.42-.41.01-.66.01-1.33,0-1.99,0-1.85,0-3.69-.02-5.54,0-.37-.03-.74-.07-1.11-.06-.52-.15-.59-.67-.6-.26,0-.53,0-.78,0-.1-.4-.08-.43.25-.45.3-.01.59,0,.89,0,1.63.01,3.25,0,4.88.04,1.06.03,2.02.4,2.88,1.03,1.14.83,1.71,1.97,1.84,3.34.07.72.04,1.44-.09,2.16-.37,2.05-1.95,3.5-3.9,3.87-.61.11-1.23.17-1.85.17-1.48,0-2.96-.04-4.44-.07-.32,0-.32-.01-.31-.44Zm3.02-5.06s-.02,0-.03,0c0,.86-.01,1.71,0,2.57.02.68.07,1.35.11,2.03.01.26.17.37.4.39.94.1,1.89.17,2.83,0,.96-.18,1.67-.71,2.12-1.58.68-1.34.65-2.76.31-4.15-.4-1.64-1.45-2.81-3.03-3.47-.67-.28-1.38-.43-2.12-.38-.5.03-.59.13-.59.61,0,1.33,0,2.66,0,3.99Z"/>
    <path d="m96.96,118.38c.02-.17.03-.3.04-.43.08-2.27.16-4.55.24-6.82.01-.44.05-.89,0-1.32-.09-.69-.44-.97-1.12-1.02-.13,0-.27,0-.4-.03-.07-.02-.14-.14-.15-.22,0-.05.08-.14.15-.18.06-.03.14-.02.22-.02.74,0,1.48,0,2.22,0,.29,0,.49.12.67.35,1.31,1.6,2.63,3.2,3.96,4.78.69.83,1.42,1.63,2.13,2.44.09.1.2.2.38.37.04-.24.09-.38.09-.51-.02-1.74-.03-3.49-.08-5.23-.01-.42-.11-.85-.21-1.26-.1-.41-.21-.47-.63-.48-.18,0-.36,0-.53,0-.28-.01-.28-.02-.28-.4.17-.01.34-.04.51-.04.95,0,1.89,0,2.84,0,.09,0,.19-.01.26.03.07.04.16.14.16.21,0,.07-.1.18-.17.2-.14.04-.29.02-.44.02-.1,0-.21,0-.31,0-.42.01-.46.04-.46.46-.02,1.02-.03,2.04-.04,3.06-.02,2.1-.03,4.2-.06,6.29,0,.2.07.46-.16.56-.27.12-.38-.16-.52-.32-2.04-2.42-4.07-4.85-6.1-7.27-.31-.37-.63-.74-.95-1.11-.05-.05-.11-.09-.19-.16-.05.1-.11.17-.12.24-.04.19-.07.38-.07.57-.05,1.79-.11,3.57-.14,5.36,0,.5.05,1,.12,1.5.05.36.17.44.54.47.26.02.53,0,.84,0,0,.18-.01.3-.02.44h-3.32c-.02-.08-.05-.13-.05-.18,0-.06.02-.11.03-.21.36-.02.73-.05,1.14-.08Z"/>
    <path d="m116.72,111.81c0,.17,0,.31,0,.46,0,.78-.02,1.56-.03,2.35,0,.32-.02.34-.44.32-.03-.33-.06-.66-.11-.99-.06-.42-.06-.43-.49-.44-.99-.02-1.98-.04-2.97-.06-.11,0-.23.02-.38.04-.01.18-.04.34-.04.49,0,1.08,0,2.16.02,3.23,0,.25.04.5.09.75.08.41.18.51.6.49.87-.05,1.74-.1,2.61-.19.86-.09,1.68-.33,2.51-.81-.06.16-.08.26-.12.34-.14.26-.32.5-.44.77-.11.26-.29.33-.55.33-1.86,0-3.73,0-5.59,0-.56,0-1.12,0-1.69,0-.1,0-.22.02-.31-.02-.08-.03-.16-.14-.16-.21,0-.07.1-.18.17-.2.16-.04.32-.02.49-.03.25,0,.5-.02.78-.03.02-.2.04-.36.04-.51-.02-2.69-.04-5.38-.07-8.06,0-.2-.04-.41-.08-.61-.07-.34-.16-.41-.51-.43-.13,0-.27,0-.4,0-.12,0-.23-.01-.38-.02-.01-.12-.03-.23-.04-.34.08-.03.14-.06.19-.06.35,0,.71-.01,1.06-.01,2.07,0,4.14,0,6.21,0,.26,0,.53,0,.85,0-.07.47-.22.88-.42,1.33-.89-.75-1.96-.66-2.97-.8-.44-.06-.88-.06-1.33-.08-.16,0-.31.03-.51.04v4.05c.16.02.33.06.51.06.95,0,1.89,0,2.84,0,.44,0,.44-.02.51-.43.02-.15.05-.29.07-.44.05-.33.06-.33.5-.27Z"/>
    <path d="m126.4,110.75c-.48.05-.51.06-.59-.29-.2-.84-.79-1.24-1.56-1.45-.55-.15-1.1-.21-1.66-.08-.8.18-1.2.77-1.32,1.54-.1.64.34,1.36.98,1.64.8.35,1.6.68,2.4,1.03.53.23,1.01.54,1.45.92.85.74,1.04,2.53.3,3.51-.63.85-1.47,1.3-2.52,1.39-1.23.11-2.42,0-3.56-.52-.31-.14-.47-.32-.46-.67.01-.57,0-1.15,0-1.75h.53c.02.11.06.22.07.34.08,1.2,1.09,1.88,1.96,1.97.46.05.96.06,1.41-.05,1.09-.26,1.63-1.08,1.46-2.22-.07-.46-.36-.79-.73-1.01-.39-.23-.81-.42-1.24-.58-.7-.27-1.4-.54-2.06-.92-1.41-.82-1.69-3.15-.33-4.38.95-.86,2.09-1.05,3.31-.95.56.05,1.1.2,1.61.47.28.15.47.34.47.68,0,.45.05.91.07,1.38Z"/>
    <path d="m138.79,108.37c-.1.46-.16.93-.39,1.42-.14-.12-.25-.19-.33-.28-.17-.23-.41-.35-.68-.38-.85-.08-1.71-.15-2.56-.21-.07,0-.14.02-.26.04-.03.37-.07.73-.07,1.09-.02,2.36-.03,4.73-.03,7.09,0,.33.09.67.15,1,.04.21.18.28.39.28.37,0,.73,0,1.12,0v.42h-4.63v-.43h1.31c.01-.19.03-.32.03-.46.02-2.41.05-4.82.07-7.22,0-.47-.06-.94-.1-1.41-.01-.13-.06-.25-.1-.37-.57,0-1.12-.02-1.66,0-.32.01-.64.09-.96.14-.4.07-.76.22-1.07.5-.11.1-.26.17-.45.29-.02-.17-.06-.27-.04-.35.11-.37.23-.73.35-1.1.05-.17.18-.21.34-.21.5.02,1.01.01,1.51.05,2.41.16,4.82.09,7.23.05.24,0,.47-.03.71-.04.03,0,.05.02.13.06Z"/>
    <path d="m140.69,108.78c-.09-.43-.07-.45.31-.46.99,0,1.98,0,2.97,0,.21,0,.41,0,.62,0,.13,0,.23.06.23.21,0,.17-.09.23-.25.23-.31,0-.61.01-.95.02-.01.2-.02.34-.02.49,0,2.54,0,5.08,0,7.62,0,.38.05.76.09,1.14.03.25.18.36.43.35.16,0,.33,0,.49,0,.33.01.33.02.3.45-.12,0-.25.03-.38.03-1.11,0-2.22,0-3.33,0-.07,0-.15,0-.22,0-.17,0-.24-.11-.24-.26,0-.16.12-.18.24-.19.28-.02.55-.03.87-.04.01-.2.03-.36.03-.52,0-2.6,0-5.2-.01-7.8,0-.28-.04-.56-.08-.84-.06-.34-.16-.43-.5-.45-.19-.01-.38,0-.6,0Z"/>
    <path d="m115.49,135.24c-.03.2-.06.38-.08.56-.03,0-.05,0-.08,0-.04-.13-.09-.26-.14-.42-.75-.21-1.5-.04-2.3,0-.07.56-.14,1.1-.22,1.68.24.01.43.02.62.03.18,0,.35,0,.53,0q.66,0,1.03-.46c-.05.38-.1.75-.15,1.13-.02,0-.05,0-.07,0-.04-.15-.07-.31-.12-.52-.61-.03-1.22-.08-1.88,0-.11.73-.22,1.45-.33,2.2.2.05.35.09.5.13,0,0,0,.02,0,.03h-1.51s0-.04,0-.06c.15-.02.3-.05.51-.08.08-.41.17-.84.24-1.27.12-.74.23-1.49.34-2.23.07-.51.05-.54-.49-.7h3.62Z"/>
    <path d="m121.02,136.97c.13-.1.26-.09.34.03.08.13.18.29.17.43-.02.36-.26.58-.58.72-.16.07-.34.11-.51.14-.21.04-.31.15-.34.35,0,.06-.02.12-.02.18-.02.24-.05.51.21.62.25.12.39-.12.55-.27.05-.05.09-.09.19-.09-.14.15-.26.32-.41.44-.32.26-.71.12-.82-.28-.01-.04-.01-.09-.02-.13-.08-.64.49-1.77,1.05-2.09.06-.03.14-.04.21-.06-.37.33-.7.68-.75,1.24.48-.07.83-.27,1.02-.67.15-.31.06-.46-.29-.56Z"/>
    <path d="m129.84,136.98c.29.37.25.75-.14,1.01-.22.14-.48.22-.73.29-.19.05-.33.12-.35.33-.03.26-.14.53.09.75.14.13.29.13.44.01.18-.15.35-.29.54-.45-.2.21-.38.45-.61.62-.34.25-.73.06-.78-.35-.02-.22-.03-.45.03-.66.15-.55.44-1.03.86-1.42.2-.19.41-.28.68-.12-.11,0-.24-.02-.34.02-.33.14-.7.77-.7,1.17.82-.19,1.06-.48,1.02-1.21Z"/>
    <path d="m127.81,141.22c-.57.15-.88.04-1.13-.46-.17-.34-.27-.71-.42-1.06-.06-.16-.16-.3-.26-.49-.19.12-.33.22-.47.31-.12.08-.25.13-.33-.04-.07-.14.03-.25.16-.26.74-.06,1.1-.69,1.63-1.06.1-.07.21-.14.32-.21,0,0,0,0,0,0-.09.11-.17.23-.27.33-.3.28-.61.54-.95.84.57.36.7.93.86,1.5.12.43.41.62.89.62h-.01Z"/>
    <path d="m116.83,136.92c-.06.19-.08.37-.16.53-.23.46-.48.91-.72,1.36-.09.16-.16.33-.25.54.45.05.57-.33.83-.48-.25.54-.58.75-1.06.69-.12-.2,0-.37.08-.53.23-.46.48-.91.72-1.36.08-.15.15-.31.25-.51h-.38c.19-.15.37-.32.69-.24Z"/>
    <path d="m123.8,139.33l.39-.28c-.2.29-.39.6-.81.61-.12-.23-.01-.41.06-.57.23-.51.47-1.02.7-1.53.06-.12.07-.27.12-.45-.19.03-.32.06-.44.08q.31-.34.72-.23c.04.35-.12.65-.25.95-.14.32-.31.64-.45.96-.06.13-.09.26-.13.4.03.02.06.05.09.07Z"/>
    <path d="m117.37,139.58c.03-.15.05-.31.1-.45.19-.53.38-1.05.58-1.57.06-.17.12-.34-.18-.48.21-.09.34-.14.47-.2.26.42-.28.8.01,1.2-.13.25-.26.53-.42.79-.16.25-.16.6-.45.75l-.11-.04Z"/>
    <path d="m122.83,137.16c-.2.1-.31.15-.44.22.23-.24.4-.53.84-.5-.16.45-.3.83-.44,1.22.08.02.13.03.18.03-.25.46-.5.93-.76,1.39-.03.06-.13.08-.28.08.05-.14.09-.29.15-.43.19-.48.4-.95.59-1.43.06-.16.1-.32.17-.58Z"/>
    <path d="m127.3,137.95c.05-.1.1-.2.17-.34-.11-.02-.2-.03-.29-.06-.22-.06-.48-.08-.65-.21-.35-.27-.68-.27-1.04-.06h0c.37-.48.78-.56,1.3-.24.25.15.49.3.72.45.15-.2.25-.34.37-.48.02-.02.12.04.24.09-.22.38-.46.67-.84.83,0,0,0,0,0,0Z"/>
    <path d="m119.4,137.49c-.08-.12-.15-.22-.24-.35-.09.03-.2.06-.4.13.15-.15.22-.25.31-.32.2-.13.46-.09.54.09.1.21.02.36-.22.45Z"/>
    <path d="m125.49,137.29c.02.13.03.26.05.43.09-.05.16-.1.23-.11.07-.01.15.02.23.03-.02.09-.02.21-.08.26-.19.16-.43.07-.47-.17-.02-.14.02-.28.04-.43,0,0,0-.01,0-.01Z"/>
    <path d="m117.29,135.61c-.19.11-.29.2-.4.21-.12.02-.23-.06-.22-.21.01-.15.12-.25.27-.22.09.02.17.1.34.22Z"/>
    <path d="m117.73,137.38c-.06.08-.11.16-.17.24-.02-.01-.04-.02-.05-.04.05-.08.11-.16.16-.24.02,0,.04.02.06.03Z"/>
  </g>
</svg>