<?xml version="1.0" encoding="UTF-8"?>
<svg id="Layer_1" data-name="Layer 1" xmlns="http://www.w3.org/2000/svg" viewBox="0 0 240 240">
  <path d="m108.83,115.56v7.34h-3.07v-19.39c.16-.01.29-.04.42-.04,3.05,0,6.1,0,9.15.01,1.24,0,2.43.27,3.49.95,1.43.93,2.21,2.3,2.44,3.94.28,2.04-.01,4-1.64,5.45-.63.56-1.49.87-2.25,1.27-.2.1-.44.13-.78.22,1.79,2.24,3.52,4.42,5.31,6.67.12-.29.21-.48.28-.67,2.13-5.75,4.27-11.49,6.38-17.25.17-.45.36-.64.86-.61.77.05,1.56.04,2.33,0,.48-.03.7.13.87.6,2.13,5.81,4.28,11.61,6.42,17.42.17.45.33.9.53,1.46-1.09,0-2.09.02-3.09-.02-.13,0-.3-.26-.37-.44-.53-1.42-1.05-2.84-1.54-4.27-.14-.41-.32-.57-.78-.57-2.23.02-4.47.02-6.7,0-.45,0-.64.15-.78.56-.49,1.43-1.02,2.85-1.52,4.28-.12.35-.3.47-.67.47-1.61-.02-3.23,0-4.84-.02-.24,0-.56-.17-.71-.36-1.77-2.17-3.52-4.35-5.26-6.54-.27-.34-.53-.49-.97-.48-1.14.03-2.29.01-3.52.01Zm.01-2.81c.15.02.3.05.45.05,1.9,0,3.8.02,5.7-.01,1.74-.03,2.89-1.13,3.05-2.87.17-1.87-.78-3.74-3.14-3.73-1.9.01-3.8-.01-5.7-.01-.11,0-.22.04-.36.07v6.51Zm21.71-5.89h-.13c-.97,2.69-1.94,5.39-2.93,8.14h5.95c-.98-2.75-1.94-5.45-2.9-8.14Z"/>
  <path d="m78.2,122.93c-1.02,0-2,.02-2.99-.02-.14,0-.33-.23-.39-.4-.55-1.45-1.09-2.91-1.61-4.37-.13-.37-.29-.52-.7-.51-2.25.02-4.51.02-6.76,0-.41,0-.57.15-.7.52-.51,1.45-1.06,2.88-1.57,4.32-.12.35-.3.47-.67.47-4.26-.01-8.51-.01-12.77,0-.37,0-.57-.06-.57-.5.01-6.2,0-12.4.01-18.59,0-.1.02-.19.04-.33h3.08v16.66c.29.01.5.03.7.03,2.43,0,4.86,0,7.29.01.46,0,.67-.13.84-.58,1.91-5.21,3.86-10.4,5.76-15.61.17-.45.38-.59.84-.57.85.04,1.71.02,2.56,0,.29,0,.45.07.56.36,2.32,6.26,4.64,12.51,6.97,18.77.03.09.04.19.06.34Zm-9-15.59s-.1,0-.15,0c-.94,2.53-1.89,5.06-2.85,7.63h5.81c-.96-2.59-1.88-5.12-2.81-7.64Z"/>
  <path d="m149.55,103.47c3.23,0,6.39,0,9.56,0,.54,0,1.08.09,1.62.19,3.39.64,4.52,3.78,4.4,6.01-.08,1.56-.49,2.98-1.65,4.11-.66.64-1.43,1.05-2.3,1.31-.22.06-.44.12-.8.22,2.03,2.55,4,5.02,6.07,7.63-.93,0-1.74-.07-2.53.02-.92.1-1.48-.25-2.03-.97-1.57-2.05-3.22-4.04-4.86-6.03-.17-.2-.5-.36-.76-.37-1.16-.04-2.33-.02-3.57-.02v7.33h-3.13v-19.41Zm3.09,9.24c.08.04.11.07.15.07,2.12,0,4.23.03,6.35-.02,1.24-.03,2.07-.77,2.45-1.91.18-.55.23-1.18.22-1.77-.04-1.59-1.15-2.78-2.72-2.84-2-.08-4-.04-6-.08-.46,0-.48.25-.48.59,0,1.83,0,3.65,0,5.48,0,.17.03.34.04.48Z"/>
  <path d="m189.96,111.42v2.75h-10.08v5.98c.23.01.48.04.72.04,3.13,0,6.26.01,9.39,0,.53,0,.73.14.69.69-.05.54-.02,1.09,0,1.63,0,.29-.09.42-.4.42-4.45,0-8.9-.01-13.35-.02-.04,0-.07-.02-.15-.05v-19.37c.2,0,.4-.03.61-.03,4.16,0,8.32,0,12.47-.01.55,0,.71.17.67.69-.04.46-.03.93,0,1.4.03.48-.14.64-.63.63-3.01-.02-6.02,0-9.04,0-.31,0-.61,0-.96,0v5.26h10.06Z"/>
  <path d="m87.53,103.5c.22-.01.39-.04.56-.04,2.74,0,5.48,0,8.22.01.54,0,1.09.07,1.62.17,3.52.64,4.82,3.92,4.44,6.69-.46,3.33-2.53,5.1-6.02,5.2-1.67.05-3.34.01-5.01.02-.21,0-.42,0-.68,0v7.36c-1.01,0-1.97,0-2.93-.01-.08,0-.18-.17-.21-.28-.04-.15-.02-.31-.02-.46,0-5.99,0-11.97,0-17.96,0-.23.02-.45.03-.71Zm3.14,9.3c1.75,0,3.44,0,5.13,0,2.12-.01,3.23-1.07,3.33-3.18.07-1.62-.81-3.41-2.98-3.41-1.75,0-3.5-.02-5.24-.02-.07,0-.14.04-.24.07v6.55Z"/>
  <path d="m141.67,103.48h3.01v19.41h-3.01v-19.41Z"/>
  <path d="m171.87,122.91h-3.03v-19.39h3.03v19.39Z"/>
  <path d="m85.55,129.73h1.09c.44,1.63.88,3.24,1.32,4.86l.12-.02c.36-1.47.73-2.93,1.06-4.4.09-.4.27-.5.63-.47.35.03.7-.1.83.46.28,1.29.64,2.56.97,3.83.05.18.11.37.27.56.44-1.6.87-3.2,1.31-4.82h.99c-.02.17-.02.32-.06.46-.51,1.89-1.05,3.78-1.52,5.68-.12.48-.39.48-.76.48-.36,0-.6-.04-.7-.48-.33-1.4-.72-2.78-1.09-4.16-.04-.14-.09-.27-.25-.4-.32,1.35-.65,2.7-.97,4.04-.03.11-.05.23-.08.34-.15.6-.66.87-1.23.63-.1-.04-.18-.19-.22-.3-.57-2.07-1.13-4.15-1.71-6.29Z"/>
  <path d="m153.19,134.31v-4.56h1.08v6.51c-1.04.22-1.1.19-1.62-.64-.71-1.14-1.42-2.27-2.13-3.41-.1-.16-.21-.3-.44-.43v4.53h-1.09v-6.51c1-.22,1.07-.19,1.6.65.72,1.15,1.44,2.3,2.16,3.46.1.16.21.31.31.46.04-.02.08-.03.12-.05Z"/>
  <path d="m125.22,136.29v-6.47c1.3,0,2.57-.07,3.83.02.77.06,1.28.79,1.36,1.61.1.95-.29,1.71-1.06,2.08-.15.07-.32.13-.57.23.66.85,1.3,1.65,1.97,2.52-.78.13-1.38.13-1.79-.58-.25-.43-.65-.78-.92-1.2-.37-.6-.86-.79-1.59-.57v2.36h-1.24Zm1.24-3.44c.69,0,1.31.03,1.92,0,.57-.04.76-.48.8-.98.05-.56-.25-1.09-.69-1.12-.67-.05-1.34-.01-2.03-.01v2.12Z"/>
  <path d="m157.86,136.32v-6.68c1.17.07,2.32.05,3.43.23,1.14.18,2.01,1.35,2.09,2.63.04.55,0,1.13-.14,1.67-.35,1.34-1.31,2.09-2.7,2.14-.87.03-1.74,0-2.69,0Zm1.14-3.29c0,.41,0,.81,0,1.22,0,1.16,0,1.14,1.17,1.09.88-.04,1.53-.34,1.86-1.2.75-1.93-.25-3.45-2.29-3.46-.08,0-.16,0-.23,0-.37-.04-.53.1-.51.49.02.62,0,1.24,0,1.86Z"/>
  <path d="m83.08,131.54c-.5.03-.96.28-1.26-.42-.3-.68-1.82-.78-2.33-.24-.4.43-.29,1,.28,1.22.65.25,1.33.41,1.99.65,1.26.45,1.72,1.1,1.43,2.2-.11.42-.43.91-.8,1.12-1.14.68-2.35.59-3.5,0-.68-.35-.93-.99-.91-1.79h1.05c.29,1.04,1.52,1.6,2.49,1.09.26-.14.52-.53.52-.81,0-.26-.29-.65-.55-.76-.63-.28-1.33-.41-1.98-.65-1.1-.4-1.45-.86-1.44-1.79,0-.6.25-1.06.77-1.34,1.1-.58,2.22-.64,3.35-.08.62.31.94.83.9,1.59Z"/>
  <path d="m117.19,136.29v-6.55h4.69v.94h-3.46v1.77h3.1v.95h-3.1v1.99h3.51v.91h-4.75Z"/>
  <path d="m108.56,136.3c.22-.52.31-.96.55-1.28.95-1.27,1.96-2.51,2.94-3.77.11-.15.21-.3.39-.56h-3.43v-.95h4.88c.13.45.07.83-.25,1.22-1.05,1.27-2.07,2.57-3.1,3.86-.12.15-.22.3-.41.55h3.9v.93h-5.48Z"/>
  <path d="m146.15,136.25c-.97.22-1.02.19-1.34-.66-.48-1.26-.12-1.01-1.48-1.03-.52,0-1.16-.15-1.53.09-.34.22-.4.88-.58,1.35-.23.6-.69.27-1.14.32.34-.93.66-1.8.99-2.67.43-1.16.9-2.31,1.29-3.49.16-.49.47-.46.85-.47.36,0,.59.03.74.45.67,1.9,1.38,3.78,2.08,5.67.05.14.08.29.12.44Zm-4.06-2.61h2.04c-.33-.95-.63-1.83-.94-2.7-.05,0-.09,0-.14,0-.31.88-.63,1.75-.97,2.71Z"/>
  <path d="m104.38,136.31h-1.21v-5.62h-2.07v-.94h5.22c.27.8.18.93-.61.94-.42,0-.84,0-1.33,0v5.63Z"/>
  <path d="m138.07,135.4v.88h-4.45v-6.53h1.12c0,.82,0,1.63,0,2.44,0,.89.02,1.79,0,2.68-.01.41.14.54.54.53.91-.02,1.82,0,2.8,0Z"/>
  <path d="m97.13,129.74h1.08v6.56h-1.08v-6.56Z"/>
</svg>