<?xml version="1.0" encoding="UTF-8"?>
<svg id="Layer_1" data-name="Layer 1" xmlns="http://www.w3.org/2000/svg" viewBox="0 0 240 240">
  <path d="m30.99,111.43c.15-.13.29-.14.42-.15.68-.05,1.36-.1,2.03-.12,1.47-.04,2.94-.08,4.41-.09.85,0,1.69,0,2.54.04,1.2.06,2.41.13,3.61.27,1.1.13,2.02.58,2.72,1.45.72.9.97,1.92.7,3.04-.2.82-.68,1.46-1.4,1.9-.39.24-.83.4-1.25.59-.08.04-.15.07-.27.12.1.04.16.08.23.1.74.26,1.48.51,2.22.78.43.16.83.37,1.21.63.67.47,1.08,1.1,1.21,1.91.12.77.1,1.53-.11,2.28-.22.79-.69,1.39-1.38,1.84-.64.42-1.36.67-2.1.86-1.04.26-2.1.42-3.17.5-1.36.09-2.73.17-4.09.24-.45.02-.91,0-1.37.01-.8.01-1.6.04-2.4.03-.97-.01-1.93-.05-2.9-.1-.27-.01-.54-.08-.8-.15-.18-.05-.2-.17-.05-.29.14-.1.3-.19.45-.26.25-.12.51-.23.76-.35,0-.04.02-.07.02-.1,0-.42-.02-.85-.03-1.27-.02-2.4-.04-4.8-.06-7.19-.01-1.2-.04-2.4-.06-3.6-.01-.72-.02-1.44-.02-2.16,0-.14-.06-.2-.17-.25-.22-.1-.45-.22-.67-.33-.07-.04-.14-.09-.24-.15Zm3.93,14.15c.11,0,.19,0,.27,0,.67,0,1.34-.02,2.01-.02,1.46,0,2.93,0,4.39-.02.7,0,1.41-.05,2.1-.2.69-.15,1.33-.41,1.87-.88.69-.61.94-1.55.64-2.42-.27-.78-.82-1.32-1.52-1.73-.66-.38-1.38-.54-2.13-.58-1.24-.06-2.47-.12-3.71-.15-1.23-.02-2.46,0-3.69,0-.07,0-.14,0-.22.01v5.98Zm0-7.47c.12,0,.2,0,.29,0,.93,0,1.85,0,2.78,0,1.24,0,2.48-.06,3.71-.2.92-.11,1.73-.43,2.35-1.15.53-.61.79-1.31.65-2.1-.17-1.02-.84-1.61-1.8-1.88-.67-.19-1.36-.2-2.04-.23-1-.04-2-.07-2.99-.1-.92-.02-1.84-.04-2.76-.06-.06,0-.12,0-.19.01v5.7Z"/>
  <path d="m171.53,111.49c.25-.09.51-.1.77-.12.43-.03.86-.03,1.29-.05,2.62-.1,5.24-.05,7.87-.05.7,0,1.41.05,2.11.1.8.05,1.52.34,2.21.74.46.27.89.56,1.25.95.55.59.83,1.28.85,2.08.01.49-.02.97-.14,1.45-.19.75-.58,1.38-1.18,1.87-.62.51-1.34.84-2.09,1.1-.43.15-.86.29-1.29.44-.06.02-.11.04-.18.11.09.03.17.06.26.08.22.05.44.09.65.15.47.11.87.34,1.22.67.39.37.71.8,1,1.25.49.79.96,1.59,1.44,2.38.25.41.51.81.79,1.2.28.4.67.66,1.15.78.27.07.55.12.82.19.15.04.29.1.43.16.06.03.11.08.16.12-.04.14-.15.17-.25.19-.23.05-.47.1-.71.11-.98.03-1.95-.03-2.91-.23-.78-.16-1.42-.55-1.94-1.15-.39-.45-.71-.95-1.01-1.45-.5-.84-1.05-1.65-1.68-2.39-.23-.27-.48-.51-.74-.75-.44-.4-.98-.57-1.56-.6-.58-.03-1.17-.04-1.75-.04-.95,0-1.9,0-2.85,0-.09,0-.17,0-.28,0,0,.09-.02.16-.02.23.03.77.06,1.53.09,2.3.02.63.03,1.26.06,1.89.01.31.06.62.1.93.05.34.23.55.59.58.21.02.4.1.55.26.19.2.16.42-.11.5-.2.06-.4.1-.61.12-1.28.08-2.56.08-3.83,0-.26-.02-.52-.06-.78-.12-.24-.06-.27-.21-.08-.37.13-.1.28-.18.44-.23.24-.07.39-.22.43-.46.05-.28.1-.57.12-.85.03-.54.05-1.09.05-1.63,0-2.4,0-4.8,0-7.19,0-.96,0-1.92-.02-2.88-.01-.49-.07-.99-.11-1.48-.03-.35-.18-.63-.52-.77-.03-.01-.06-.03-.08-.05,0-.02.02-.04.03-.06Zm3.72,7.9c.27-.01.52-.03.77-.04,1.32-.07,2.65-.12,3.97-.21.64-.04,1.29-.13,1.92-.23.88-.14,1.62-.55,2.18-1.24.79-.99.99-2.09.46-3.25-.46-1.01-1.31-1.55-2.38-1.73-.94-.16-1.89-.21-2.84-.23-1.25-.02-2.51,0-3.76-.01-.11,0-.22,0-.33,0v6.95Z"/>
  <path d="m126.66,119.88c.1-.04.18-.09.27-.11.4-.05.81-.11,1.21-.14.46-.03.93-.05,1.39-.05.93,0,1.87.02,2.8.13.14.02.28.05.42.09.07.02.14.07.25.13-.11.07-.17.13-.25.16-.18.06-.37.11-.55.16-.12.03-.25.05-.37.08-.47.12-.62.28-.64.76-.02.34,0,.69-.01,1.03-.02.6-.05,1.2-.08,1.8-.03.52-.28.94-.65,1.29-.5.47-1.05.86-1.66,1.18-.9.48-1.86.81-2.85,1.05-1.21.3-2.45.43-3.7.51-.66.04-1.33-.01-1.99-.08-.78-.08-1.56-.17-2.32-.34-1.64-.36-3.18-.95-4.51-2.02-1.04-.84-1.97-1.79-2.58-2.99-.99-1.93-1.01-3.9-.14-5.87.64-1.45,1.66-2.59,2.92-3.52,1.52-1.12,3.24-1.78,5.08-2.14,1.61-.31,3.24-.32,4.87-.19,1.27.11,2.52.34,3.72.76.51.18,1.01.4,1.51.61.53.23.85.63.98,1.19.18.75.34,1.51.41,2.29.02.18,0,.37-.04.54-.03.14-.11.16-.23.08-.06-.04-.11-.09-.16-.14-.12-.15-.25-.3-.34-.46-.34-.6-.8-1.09-1.34-1.52-.9-.73-1.88-1.32-2.99-1.69-.64-.22-1.3-.31-1.98-.36-.84-.07-1.68-.04-2.51.04-1.69.17-3.22.74-4.54,1.81-1.24,1-2.14,2.24-2.51,3.82-.46,1.97-.07,3.79,1.11,5.43.95,1.31,2.24,2.17,3.75,2.71.99.35,2.01.52,3.05.54,1.77.03,3.46-.35,5.07-1.07.35-.15.66-.35.94-.61.36-.34.6-.74.72-1.22.18-.68.22-1.37.13-2.07-.03-.27-.12-.53-.26-.77-.17-.3-.42-.5-.78-.53-.09,0-.18-.02-.26-.03-.15-.03-.29-.07-.39-.27Z"/>
  <path d="m144.94,127.42c-.13.04-.26.09-.39.11-.87.11-1.75.14-2.63.09-.39-.02-.78-.05-1.17-.08-.17-.01-.33-.05-.49-.09-.05,0-.1-.02-.13-.05-.05-.05-.13-.13-.12-.18,0-.06.1-.1.16-.15,0,0,.02,0,.02,0,.45,0,.71-.3.94-.61.28-.39.55-.78.79-1.2.87-1.57,1.72-3.16,2.57-4.74.82-1.54,1.63-3.1,2.45-4.64.63-1.18,1.26-2.35,1.89-3.53.07-.13.14-.25.21-.38.23-.41.58-.64,1.04-.68.5-.04,1.01-.03,1.51-.04.13,0,.18.08.23.18.35.64.7,1.28,1.05,1.91,1.77,3.19,3.53,6.39,5.31,9.58.57,1.02,1.16,2.03,1.83,2.98.13.18.27.36.41.53.13.15.28.25.48.31.14.04.29.11.4.2.24.2.19.45-.11.54-.2.06-.41.1-.61.11-1.15.02-2.3.04-3.45.04-.38,0-.76-.05-1.15-.09-.09,0-.19-.03-.28-.07-.24-.1-.3-.32-.14-.52.08-.1.18-.16.3-.18.09-.01.17-.02.26-.04.26-.06.4-.2.4-.46,0-.22-.03-.45-.1-.66-.11-.31-.25-.61-.4-.89-.26-.48-.55-.94-.82-1.41-.06-.11-.14-.15-.27-.15-.73.01-1.45.02-2.18.03-.54,0-1.09.03-1.63.04-1.34.02-2.69.04-4.03.06-.65,0-1.31.02-1.97.04-.21.36-.42.7-.61,1.05-.19.36-.38.72-.54,1.09-.09.22-.15.46-.17.69-.04.33.11.57.42.71.16.07.32.14.48.23.11.06.22.14.24.34Zm1.21-6.06h.24c1.88,0,3.76,0,5.63,0,.41,0,.81-.03,1.22-.06.17-.01.33-.05.49-.1.17-.05.19-.1.14-.26-.04-.11-.08-.21-.13-.31-.79-1.52-1.58-3.05-2.38-4.57-.31-.58-.65-1.14-.98-1.7-.09-.15-.2-.3-.32-.47-.09.12-.16.21-.21.31-1.34,2.32-2.45,4.75-3.71,7.17Z"/>
  <path d="m67.77,124.66c.2-.35.38-.63.53-.93.73-1.36,1.48-2.73,2.19-4.1.98-1.87,1.93-3.75,2.89-5.63.21-.41.4-.84.56-1.27.19-.5.12-.64-.36-.87-.17-.08-.35-.16-.52-.24-.08-.04-.15-.08-.24-.12.07-.11.17-.11.26-.12,1.06-.09,2.12-.16,3.18-.07.29.02.59.03.88.06.15.01.29.05.44.08,0,.02,0,.04,0,.05-.09.05-.18.12-.29.16-.35.13-.62.37-.82.67-.37.56-.75,1.12-1.06,1.71-1.03,1.94-2.04,3.89-3.04,5.85-1.2,2.34-2.38,4.69-3.56,7.03-.1.19-.2.38-.29.58-.05.1-.11.14-.22.14-.45,0-.9,0-1.34,0-.24,0-.44-.11-.59-.28-.18-.21-.37-.42-.51-.66-.36-.59-.72-1.19-1.05-1.8-.97-1.81-1.92-3.63-2.89-5.44-.98-1.84-1.98-3.67-2.98-5.5-.27-.5-.59-.97-.89-1.45-.08-.13-.18-.24-.27-.36-.15-.2-.34-.33-.6-.35-.21-.01-.4-.1-.55-.32.15-.04.27-.09.39-.1.37-.04.75-.08,1.12-.09.61-.02,1.23-.04,1.85-.03.79.01,1.58.05,2.37.09.12,0,.25.03.39.1-.08.06-.15.13-.23.18-.21.11-.44.2-.66.29-.42.18-.49.33-.35.77.08.23.17.46.29.68.81,1.57,1.61,3.14,2.43,4.71,1.01,1.93,2.04,3.85,3.07,5.78.14.26.29.51.46.82Z"/>
  <path d="m103.48,124.22c-.03.11-.04.23-.09.33-.22.52-.45,1.04-.69,1.55-.2.44-.43.87-.64,1.32-.08.17-.18.23-.36.23-.85-.01-1.69,0-2.54,0-2.25,0-4.51.01-6.76,0-1.25,0-2.51-.06-3.76-.1-.31-.01-.62-.06-.93-.09-.05,0-.1,0-.14-.03-.05-.03-.14-.08-.14-.11,0-.07.06-.14.11-.2.03-.03.09-.04.13-.05.3-.07.53-.25.75-.46.22-.21.29-.5.31-.79.06-.66.11-1.32.13-1.98.03-.92.02-1.84.03-2.76,0-.46.03-.91.03-1.37-.01-1.43-.03-2.86-.05-4.29-.01-.76-.05-1.52-.08-2.28,0-.23-.04-.46-.06-.69,0-.12-.05-.24-.15-.32-.22-.18-.44-.34-.66-.51-.07-.06-.14-.11-.22-.17,0-.02,0-.04.01-.06.1-.03.21-.06.31-.07.3-.03.61-.05.91-.06.98,0,1.97,0,2.95,0,.21,0,.41.03.62.05.08,0,.16.04.31.08-.12.08-.18.13-.25.17-.21.11-.42.23-.64.33-.12.06-.19.13-.18.27,0,.22-.03.45-.03.67,0,.94,0,1.87-.01,2.81-.01,1.46-.03,2.92-.05,4.39-.01,1.19-.03,2.38-.04,3.57,0,.58-.02,1.15-.03,1.73,0,.07,0,.14.01.22.08,0,.15.01.22.01,1.8,0,3.6,0,5.4,0,.89,0,1.79-.02,2.68-.05.34-.01.69-.05,1.02-.11.39-.06.74-.23,1.08-.45.34-.22.69-.43,1.04-.64.12-.07.26-.11.39-.17.02.02.04.03.06.05Z"/>
  <path d="m203.56,111.71c-.25-.07-.5-.14-.75-.22.07-.11.18-.11.28-.12.46-.03.92-.08,1.39-.09.93-.01,1.87,0,2.81,0,.17,0,.33.04.5.06.04,0,.07.03.14.07-.09.06-.16.11-.22.14-.22.12-.44.24-.66.34-.12.06-.16.13-.16.26,0,.67,0,1.34,0,2.01-.02,1.34-.05,2.68-.06,4.03-.02,1.53-.02,3.05-.04,4.58-.01,1.18-.04,2.36-.06,3.55,0,.04,0,.08,0,.12.48.29,1.06.4,1.46.8-.06.17-.18.2-.28.22-.21.04-.42.08-.64.1-1.01.07-2.03.09-3.04.02-.4-.03-.8-.06-1.19-.11-.17-.02-.35-.06-.48-.2,0-.12.09-.17.17-.21.14-.06.28-.13.42-.17.25-.07.39-.25.43-.49.04-.23.09-.46.09-.69.02-1.22.04-2.45.05-3.67,0-.94-.03-1.89-.04-2.83-.01-1.28-.02-2.56-.03-3.84,0-.86-.02-1.73-.03-2.59,0-.36-.03-.72-.05-1.11Z"/>
</svg>