<?xml version="1.0" encoding="UTF-8"?>
<svg id="Layer_1" data-name="Layer 1" xmlns="http://www.w3.org/2000/svg" viewBox="0 0 240 240">
  <path d="m171.56,127.01c.33-.06.66-.12.99-.19,0-.02,0-.04,0-.05-.54-.04-1.08-.02-1.6-.13-.56-.12-1.13-.3-1.63-.57-.59-.32-.57-.87,0-1.23.45-.28.94-.51,1.48-.79-.2-.11-.36-.21-.52-.3-.36-.21-.69-.45-.69-.91,0-.46.35-.67.69-.86.38-.2.77-.38,1.24-.61-.22-.12-.37-.2-.52-.28-1.17-.61-1.65-1.6-1.6-2.88.05-1.24.63-2.16,1.81-2.59,2.34-.84,4.66-.82,6.91.32.37.19.62.14.97-.05.58-.32,1.22-.55,1.84-.78.3-.11.49.04.48.38,0,.33,0,.66,0,.99,0,.26-.12.37-.39.36-.59-.02-1.19,0-1.77,0,.12.49.27.93.34,1.38.19,1.19-.36,2.27-1.41,2.87-1.37.78-2.87.85-4.4.77-.22-.01-.45-.02-.66.04-.13.04-.22.21-.33.31.11.1.2.25.32.27.38.07.77.09,1.16.13,1.77.18,3.54.33,5.3.56.43.06.87.32,1.22.6.75.61.72,1.45-.05,2.05-.9.7-1.95.93-3.08.88-.34-.01-.67-.03-1.01.02.4.1.79.19,1.19.29-2.1,0-4.19,0-6.29,0Zm1.16-8.79c.03.41.04.77.08,1.13.07.64.45,1.05,1.09,1.1.44.04.9.04,1.34-.01.61-.06.95-.37.99-.97.05-.74.07-1.49,0-2.23-.03-.31-.27-.69-.54-.88-.7-.5-1.51-.49-2.25-.12-.27.13-.49.52-.59.83-.12.37-.09.8-.12,1.15Zm1.75,6.18c-.35,0-.96-.05-1.54.03-.23.03-.55.31-.61.54-.08.33.29.39.55.44,1.5.3,3,.31,4.5.06.29-.05.67-.14.61-.51-.03-.16-.42-.34-.66-.36-.86-.09-1.73-.13-2.84-.2Z"/>
  <path d="m20.34,115.25h3.32v1.24c.23-.1.39-.15.54-.23.95-.48,1.87-1,2.95-1.14.79-.1,1.55-.05,2.3.2.96.32,1.41.94,1.44,2.03.03,1.26.02,2.51.03,3.77,0,.76-.02,1.53,0,2.29.01.37-.08.55-.5.54-.87-.02-1.73-.01-2.6,0-.36,0-.49-.1-.49-.48.02-1.88.02-3.77.01-5.65,0-.95-.49-1.37-1.43-1.18-.54.11-1.05.32-1.57.49-.38.12-.51.38-.51.78,0,1.85-.03,3.71-.02,5.56,0,.41-.13.51-.51.5-.99-.02-1.97,0-2.96,0v-8.71Z"/>
  <path d="m220.41,123.87c-3.34.02-6.67.04-10.01.07-.59,0-.52,0-.61-.59-.13-.9.24-1.42.94-1.96,1.66-1.27,3.23-2.66,4.84-4,.28-.23.56-.46.8-.78h-5.93c0-.41-.02-.78.02-1.15.01-.1.22-.25.33-.25,3.2,0,6.4.02,9.61.04v1.62c-2.26,1.9-4.52,3.8-6.78,5.7l.07.13h6.7v1.17Z"/>
  <path d="m166.44,111.93c0,.31.01.62-.04.92-.03.14-.19.37-.3.37-1.04.03-2.08.02-3.16.02v-1.3c1.17,0,2.33,0,3.5,0Z"/>
  <path d="m76.38,111.93c.02.28.05.56.07.84.02.26-.07.39-.35.39-.94,0-1.88,0-2.82.02-.26,0-.33-.12-.32-.36.01-.3,0-.6,0-.89,1.14,0,2.27,0,3.41,0Z"/>
  <path d="m144.79,116.08c.02-.19.06-.33.06-.48,0-.9.02-1.79,0-2.69,0-.38.06-.57.52-.54.74.05,1.49.01,2.24.03.7.01.7.02.7.7.01,2.66.03,5.32.04,7.99,0,.81-.03,1.62-.02,2.42,0,.32-.11.42-.42.42-.75,0-1.5,0-2.24.03-.4.01-.6-.09-.52-.53.03-.17,0-.34,0-.56-.6.28-1.12.56-1.67.78-1.32.52-2.67.59-4.03.14-1.21-.4-1.8-1.15-1.84-2.41-.04-1.15-.04-2.3-.02-3.45.04-1.87,1.36-2.75,3-2.85,1.27-.07,2.45.26,3.6.77.17.08.35.14.59.24Zm.06,3.47s-.02,0-.02,0c0-.67.01-1.35,0-2.02,0-.15-.09-.37-.21-.44-.75-.44-1.56-.61-2.41-.39-.68.17-1,.58-1.01,1.29-.02,1.08-.02,2.15,0,3.23,0,.76.43,1.21,1.19,1.31.67.09,1.31-.01,1.93-.28.4-.17.58-.41.55-.85-.03-.61,0-1.23,0-1.84Z"/>
  <path d="m190.5,115.27c1.12,0,2.18,0,3.24,0,.31,0,.27.21.27.41,0,2.24,0,4.49,0,6.73,0,.39-.01.78,0,1.17,0,.24-.07.36-.33.35-.87,0-1.74,0-2.6.02-.4.01-.56-.12-.45-.53.04-.14.02-.29.04-.53-.42.18-.76.32-1.09.47-1.38.66-2.81.92-4.32.59-1.03-.23-1.76-.78-1.74-2.14.03-2.05,0-4.1,0-6.15,0-.36.09-.47.49-.45.85.05,1.7.03,2.56,0,.34,0,.44.11.44.44-.01,1.75,0,3.5-.03,5.25-.03,1.45.48,1.89,1.89,1.53.47-.12.94-.32,1.36-.56.15-.08.25-.39.25-.6.02-1.78.02-3.56.02-5.34,0-.22,0-.44,0-.67Z"/>
  <path d="m207.83,120.05h-7.58c.06.58.06,1.1.18,1.59.05.2.32.39.53.5.79.37,1.62.38,2.45.16.42-.11.7-.35.87-.76.05-.12.24-.27.37-.27,1.02-.02,2.03-.01,3.08-.01-.01.71-.32,1.22-.83,1.63-.72.59-1.56.87-2.46,1.01-1.87.28-3.73.32-5.52-.4-.41-.17-.81-.38-1.18-.63-.7-.46-1.02-1.16-1.04-1.98-.02-.87-.02-1.74,0-2.6.03-1.04.47-1.87,1.43-2.31,2.6-1.21,5.26-1.25,7.91-.18,1.21.49,1.86,1.41,1.78,2.77-.03.46,0,.93,0,1.49Zm-7.52-1.38c.15.01.28.03.41.03.76,0,1.52.02,2.28.01.42,0,1.02.12,1.22-.1.22-.24.07-.82.11-1.24.05-.57-.24-.93-.72-1.1-.91-.33-1.85-.36-2.74.05-.24.11-.5.4-.54.64-.08.55-.03,1.12-.03,1.72Z"/>
  <path d="m33.63,117.72c.34-1.43,1.41-1.96,2.6-2.27,1.96-.52,3.93-.51,5.9,0,.24.06.48.16.71.26.99.41,1.47,1.17,1.47,2.24,0,1.53,0,3.05,0,4.58,0,.46.04.92.06,1.42-1.03,0-2.03.05-3.02-.03-.26-.02-.5-.41-.75-.63.02-.04.04-.08.06-.12-.11.04-.21.08-.32.13-1.65.76-3.38.95-5.17.65-.29-.05-.58-.15-.85-.26-1.31-.55-1.59-2-.6-3,.72-.73,1.67-1.04,2.62-1.28,1.32-.33,2.64-.62,3.97-.91.36-.08.56-.22.49-.62-.03-.18,0-.36-.01-.54-.03-.8-.24-1.05-1.04-1.2-.67-.12-1.33-.15-1.98.12-.44.19-.73.46-.67.98.05.43-.14.57-.57.55-.79-.04-1.58-.02-2.38-.03-.16,0-.32-.02-.53-.04Zm7.18,1.78c-1.05-.08-3.29.84-3.92,1.61-.39.47-.16,1.15.48,1.32,1.06.28,2.1.19,3.09-.28.15-.07.32-.3.33-.47.04-.71.02-1.43.02-2.17Z"/>
  <path d="m91.62,119.46c.04-.59.04-1.19.12-1.78.1-.76.58-1.29,1.22-1.68.93-.56,1.96-.78,3.03-.87,1.61-.13,3.2-.08,4.73.48,1.38.51,2.03,1.42,2.05,2.88.01.69,0,1.38.02,2.06.04,1.59-.71,2.53-2.18,3.01-.95.31-1.98.48-2.98.54-1.28.07-2.56-.08-3.8-.51-1.51-.52-2.11-1.33-2.16-2.92-.01-.4,0-.81,0-1.21h-.04Zm7.61.03s-.02,0-.02,0c0-.7.03-1.41-.02-2.1-.02-.25-.15-.55-.33-.73-.64-.66-2.01-.79-2.89-.3-.47.26-.79.64-.78,1.21,0,1.31.01,2.63,0,3.94,0,.44.24.73.56.97.78.58,2.27.54,3.05-.04.3-.23.43-.51.43-.88,0-.69,0-1.37,0-2.06Z"/>
  <path d="m135.09,119.6c-.02.46-.04.93-.06,1.39-.05,1.23-.67,2.09-1.82,2.46-2.32.74-4.68.95-7.04.15-1.48-.5-2.13-1.36-2.17-2.92-.02-.9-.02-1.79.03-2.69.07-1.15.68-1.9,1.77-2.27,2.31-.78,4.65-.9,7-.19,1.4.43,2.24,1.33,2.24,2.87,0,.4,0,.81,0,1.21.02,0,.03,0,.05,0Zm-7.56-.19s.01,0,.02,0c0,.69-.02,1.38,0,2.06.02.71.28,1.07.96,1.22.5.11,1.04.14,1.55.11.99-.06,1.42-.47,1.45-1.46.05-1.31.01-2.63.01-3.95,0-.41-.21-.72-.55-.92-.93-.55-1.89-.59-2.85-.06-.4.22-.61.55-.61,1.02,0,.66,0,1.32,0,1.97Z"/>
  <path d="m58.71,119.44c.05-.64.06-1.28.16-1.91.13-.81.62-1.38,1.35-1.74,1-.49,2.07-.67,3.16-.76,1.41-.13,2.81-.02,4.17.42,1.06.35,1.88.98,2.14,2.15.08.37.02.55-.42.54-.84-.03-1.68,0-2.51.02-.29,0-.42-.05-.45-.38-.1-1.15-.48-1.54-1.66-1.65-.42-.04-.87-.04-1.29.05-.66.15-1.07.64-1.08,1.32-.03,1.36-.03,2.72,0,4.08.02.63.5.99,1.04,1.17,1.31.45,2.9-.07,3.02-1.81,0-.1.19-.28.29-.28.96,0,1.91.03,2.87.05.25,0,.28.13.26.35-.13,1.26-.89,2.03-2.01,2.4-2.36.78-4.74.78-7.08-.06-1.25-.45-1.85-1.4-1.89-2.72-.01-.42,0-.84,0-1.26-.02,0-.04,0-.06,0Z"/>
  <path d="m89.49,117.37c-.96.13-1.79.25-2.62.34-.11.01-.32-.12-.36-.23-.47-1.21-2.01-1.55-3.04-1.24-.2.06-.39.17-.55.3-.57.47-.51,1.15.16,1.44.92.39,1.87.71,2.81,1.04.63.22,1.28.4,1.91.63.32.12.63.28.91.47,1.08.77,1.13,1.91.14,2.8-.67.61-1.51.81-2.37.98-1.61.31-3.21.26-4.79-.22-1.13-.34-1.94-1.12-2.8-2.04.78-.14,1.46-.25,2.15-.37.21-.04.42-.11.62-.08.18.02.44.11.49.24.61,1.39,2.26,1.7,3.49,1.32.52-.16.69-.42.69-.96,0-.43-.25-.67-.6-.8-.97-.35-1.95-.65-2.92-1-.84-.3-1.69-.6-2.48-1-.63-.32-.96-.91-.9-1.67.05-.61.41-1.02.86-1.35.66-.49,1.44-.72,2.24-.84,1.39-.21,2.77-.25,4.12.21,1.11.37,1.96,1.1,2.82,2.04Z"/>
  <path d="m116.31,116.4c.26-.11.48-.17.68-.28.99-.52,2-.97,3.13-.99.49,0,.98.05,1.46.15.62.13.98.59,1.21,1.16.1.23.04.38-.2.45-.78.21-1.56.41-2.34.59-.1.02-.3-.12-.36-.23-.27-.49-.67-.7-1.19-.57-.7.18-1.4.41-2.08.65-.12.04-.24.27-.24.41-.01,1.9,0,3.8,0,5.7,0,.4-.1.55-.53.53-.88-.04-1.77-.02-2.65,0-.27,0-.36-.1-.36-.37,0-2.62.01-5.24,0-7.85,0-.34.08-.48.45-.47.85.03,1.71.03,2.56,0,.37-.01.48.12.44.47-.02.19,0,.38,0,.67Z"/>
  <path d="m50.75,116.43c.45-.19.8-.31,1.13-.48,1.04-.54,2.12-.88,3.3-.85,1.15.03,1.87.47,2.18,1.33.09.24.05.37-.2.43-.8.2-1.59.4-2.39.58-.11.02-.31-.04-.36-.12-.38-.67-.69-.86-1.4-.69-.59.15-1.17.37-1.72.63-.16.07-.29.38-.29.57-.02,1.86-.02,3.71,0,5.57,0,.41-.09.59-.55.57-.85-.04-1.71-.01-2.56,0-.28,0-.43-.07-.43-.4.01-2.57.01-5.15,0-7.72,0-.41.09-.59.55-.57.73.04,1.47,0,2.2.01.2,0,.41.04.65.07-.04.34-.07.64-.11,1.09Z"/>
  <path d="m151.43,115.28h3.29v1.17c.3-.13.53-.21.74-.32.99-.5,2-.97,3.14-.98.47,0,.96.02,1.42.12.65.13,1.07.56,1.24,1.22.07.28-.03.41-.31.47-.81.18-1.62.38-2.47.58-.03-.05-.09-.14-.14-.23-.31-.55-.77-.79-1.39-.62-.54.15-1.08.34-1.62.51-.36.11-.47.35-.47.71,0,1.85-.01,3.71,0,5.56,0,.36-.09.5-.47.49-.97-.03-1.94,0-2.95,0v-8.67Z"/>
  <path d="m76.45,115.35c0,.47,0,.93,0,1.39,0,2.26-.01,4.51,0,6.77,0,.31-.09.43-.4.43-.91,0-1.82,0-2.73.02-.27,0-.36-.1-.36-.37,0-2.66,0-5.32.01-7.98,0-.12.16-.35.25-.35.99-.02,1.97,0,2.96.02.09,0,.17.04.28.07Z"/>
  <path d="m162.95,119.59c0-1.3,0-2.6,0-3.91,0-.31.1-.42.41-.42.91,0,1.83,0,2.74-.02.37,0,.32.25.32.46,0,1.62.01,3.23,0,4.85,0,.99-.01,1.98,0,2.96,0,.31-.09.45-.44.44-.84-.02-1.68-.01-2.51,0-.37,0-.52-.09-.51-.51.03-1.29.01-2.57.01-3.86Z"/>
</svg>