<?xml version="1.0" encoding="UTF-8"?>
<svg id="Layer_1" data-name="Layer 1" xmlns="http://www.w3.org/2000/svg" viewBox="0 0 240 240">
  <path d="m48.95,119.1c0-.16,0-.3,0-.44,0-.88,0-1.76,0-2.63,0-.23-.03-.47-.06-.7-.02-.16-.11-.29-.24-.39-.22-.17-.46-.25-.74-.26-.09,0-.19,0-.28,0-.09,0-.13-.02-.13-.12,0-.1.03-.14.14-.14,1.33,0,2.67,0,4,0,.1,0,.18.01.16.14,0,.09-.03.11-.12.12-.19,0-.38.02-.57.06-.46.11-.67.37-.7.84-.02.27-.02.54-.02.81,0,2.07,0,4.14,0,6.21,0,.25.01.49.02.74.03.52.27.79.79.88.15.02.3.03.45.03.1,0,.14.03.14.13,0,.1-.03.14-.14.14-1.34,0-2.68,0-4.02,0-.1,0-.15-.03-.15-.13,0-.11.05-.14.16-.14.2,0,.4-.02.6-.06.37-.08.6-.31.65-.7.02-.14.04-.28.04-.42,0-1.09,0-2.19,0-3.28,0-.02,0-.05,0-.08h-4.66s-.02.02-.02.04c0,1.17.02,2.35.02,3.52,0,.67.27.93,1.06,1.02.07,0,.15,0,.22,0,.08,0,.16,0,.15.12,0,.11-.04.15-.16.15-1.07-.01-2.14-.02-3.21-.02-.26,0-.51.01-.77.01-.21,0-.24-.04-.17-.25.19-.01.39-.01.58-.04.51-.08.75-.33.79-.84.02-.22.03-.44.03-.66,0-2.2,0-4.4,0-6.59,0-.2-.01-.39-.03-.59-.04-.51-.28-.77-.79-.86-.13-.02-.27-.02-.41-.03-.09,0-.2.04-.19-.13,0-.17.11-.13.2-.13.2,0,.39,0,.59,0,1.08,0,2.16,0,3.24,0,.05,0,.11,0,.16,0,.09,0,.15.02.14.13,0,.11-.06.12-.15.13-.26.03-.52.05-.76.13-.32.1-.49.34-.51.68-.01.19-.03.37-.03.56,0,.97,0,1.94,0,2.91,0,.11.02.16.14.16,1.46,0,2.92,0,4.39,0,.03,0,.07,0,.12,0Z"/>
  <path d="m211.36,121.97s0-.1,0-.14c0-1.87,0-3.74,0-5.61,0-.27-.03-.54-.05-.81-.03-.35-.24-.57-.57-.64-.22-.05-.45-.05-.67-.06-.09,0-.17,0-.16-.13,0-.11.05-.14.16-.14,1.08,0,2.17,0,3.25,0,.12,0,.13.07.13.15,0,.1-.05.11-.13.11-.12,0-.25,0-.37.01-.62.07-.86.32-.91.94-.02.3-.04.61-.04.91,0,2.61,0,5.21,0,7.82,0,.05,0,.11,0,.16,0,.05-.03.14-.06.15-.07.01-.16,0-.22-.03-.08-.06-.14-.15-.2-.23-.44-.54-.89-1.09-1.33-1.63-.88-1.08-1.75-2.15-2.63-3.23-.5-.61-1-1.22-1.5-1.84-.31-.38-.61-.75-.92-1.13-.01-.01-.03-.02-.06-.05,0,.08-.01.14-.01.19,0,1.91,0,3.83,0,5.74,0,.34.03.68.05,1.01.04.49.39.68.76.74.2.03.41.03.61.04.04.23.03.25-.16.25-1.04,0-2.08,0-3.12,0-.22,0-.23-.02-.19-.26.11,0,.23,0,.35,0,.74-.03,1-.32,1.05-.96.01-.18.02-.36.02-.54,0-2.29,0-4.57,0-6.86,0-.14-.06-.23-.14-.33-.34-.41-.73-.73-1.26-.83-.15-.03-.31-.04-.47-.04-.12,0-.14-.05-.14-.15,0-.11.04-.14.15-.14.81,0,1.63,0,2.44,0,.08,0,.18.05.24.11,1.76,2.16,3.51,4.32,5.26,6.48.23.28.45.57.67.85.03.04.07.08.11.12.01,0,.02,0,.03-.01Z"/>
  <path d="m176.76,115.03v3.93s.07.01.1.01c.84,0,1.69,0,2.53-.03.42-.01.79-.15.97-.57.09-.22.12-.46.19-.69.02-.06.03-.15.08-.18.11-.07.21,0,.21.13,0,1.07,0,2.15,0,3.22,0,.08,0,.16-.12.16-.12,0-.17-.03-.18-.15-.01-.16-.05-.32-.08-.48-.11-.55-.4-.78-.97-.85-.29-.04-.59-.04-.88-.04-.56,0-1.13,0-1.69,0-.04,0-.09,0-.14,0,0,.11-.01.21-.01.31,0,1,0,1.99,0,2.99,0,.24.02.49.04.73.03.28.19.44.47.44.76.01,1.51.02,2.27.01.25,0,.5-.02.75-.06.57-.09.97-.45,1.3-.89.2-.27.37-.58.55-.87.1-.16.15-.19.36-.13-.01.04-.02.09-.04.13-.26.73-.52,1.46-.76,2.19-.05.16-.13.2-.28.2-2.09,0-4.18,0-6.27,0-.38,0-.76,0-1.13,0-.1,0-.16-.01-.15-.13,0-.12.06-.12.16-.13.25-.03.5-.04.73-.11.34-.11.51-.37.53-.74.01-.3.03-.61.03-.91,0-2.05,0-4.1,0-6.15,0-.31-.01-.62-.05-.92-.05-.43-.29-.65-.72-.7-.18-.02-.35-.03-.53-.03-.09,0-.14-.02-.14-.12,0-.1.04-.13.13-.13.24,0,.48,0,.72,0,2.22,0,4.44,0,6.67,0,.28,0,.28,0,.29.28.03.59.06,1.19.1,1.78,0,.07.02.15-.09.14-.09,0-.2.05-.22-.11-.04-.22-.1-.44-.17-.65-.18-.54-.57-.84-1.14-.86-.78-.02-1.57-.02-2.35-.02-.28,0-.57,0-.85,0-.05,0-.1,0-.17,0Z"/>
  <path d="m118.86,119.79s-.01.07-.01.1c0,1.01.01,2.01.02,3.02,0,.2.02.39.04.59.05.41.31.68.75.74.21.03.43.03.64.04.05.23.03.25-.2.25-1.3,0-2.59,0-3.89,0,0,0-.02,0-.03,0-.23,0-.24-.01-.21-.24.21-.01.43-.01.64-.05.47-.07.72-.35.76-.82.02-.25.03-.5.03-.75,0-2.23,0-4.46,0-6.7,0-.22-.03-.44-.06-.66-.02-.18-.13-.31-.28-.41-.3-.21-.63-.23-.97-.21-.12,0-.14-.04-.14-.15,0-.09.05-.12.13-.12.18,0,.36,0,.54,0,1.08,0,2.17,0,3.25,0,.6,0,1.2.07,1.79.22,1.07.28,1.91,1.33,1.94,2.43.02.59-.07,1.16-.4,1.66-.46.69-1.12,1.05-1.92,1.18-.76.13-1.5.05-2.25-.1-.06-.01-.12-.03-.19-.04Zm3.14-2.49c-.04-.25-.05-.51-.13-.75-.25-.77-.71-1.34-1.56-1.49-.44-.08-.87-.02-1.3.07-.13.03-.17.08-.17.21,0,1.3,0,2.61,0,3.91,0,.1.02.14.13.16.29.03.57.08.86.11.75.08,1.34-.19,1.77-.82.29-.42.38-.9.4-1.4Z"/>
  <path d="m30.46,124.29c.01.25.01.25-.23.25-1.26,0-2.51,0-3.77,0-.06,0-.13,0-.19,0-.09,0-.13-.03-.13-.13,0-.1.05-.12.14-.12.18,0,.35,0,.53-.03.48-.08.7-.36.74-.91.02-.31.04-.62.04-.93,0-2.09,0-4.17,0-6.26,0-.22-.04-.45-.05-.67-.02-.39-.26-.61-.61-.7-.19-.05-.4-.05-.6-.07-.08,0-.19.02-.19-.12,0-.13.07-.14.18-.14,1.24,0,2.47,0,3.71,0,.61,0,1.21.06,1.8.22.95.26,2.04,1.19,1.95,2.7-.02.35-.08.69-.22,1.02-.34.77-.94,1.24-1.73,1.47-.61.18-1.24.17-1.87.1-.31-.04-.61-.09-.93-.14,0,.02-.02.06-.02.09,0,.97,0,1.93,0,2.9,0,.23.02.46.04.69.06.43.3.68.73.74.21.03.43.03.65.05Zm-1.44-7.01s0,0,0,0c0,.65,0,1.3,0,1.96,0,.12.03.17.15.18.17.02.35.07.52.07.33.01.68.05.99-.01.74-.16,1.16-.69,1.36-1.39.17-.57.13-1.15-.08-1.7-.24-.65-.65-1.12-1.35-1.29-.48-.12-.96-.07-1.44.04-.11.02-.15.07-.15.18,0,.65,0,1.3,0,1.96Z"/>
  <path d="m103.6,119.82c0,.06,0,.14,0,.22,0,.95,0,1.9,0,2.86,0,.21.02.42.05.63.06.41.31.65.74.71.16.02.33.03.5.03.09,0,.16,0,.16.13,0,.12-.06.14-.17.14-.48-.01-.96-.02-1.44-.02-.84,0-1.69,0-2.53.01-.2,0-.22-.03-.17-.24.2-.01.4-.01.6-.04.49-.07.75-.33.77-.83.03-.83.04-1.67.04-2.5,0-1.38,0-2.76,0-4.14,0-.42,0-.84-.04-1.26-.05-.51-.39-.79-.91-.81-.12,0-.24,0-.35,0-.09,0-.16-.01-.15-.12,0-.11.05-.14.15-.14.61,0,1.23,0,1.84,0,.81,0,1.62,0,2.43.03.51.02,1.02.1,1.51.28,1.06.39,1.77,1.43,1.74,2.57-.03,1.07-.5,1.87-1.45,2.34-.64.32-1.34.39-2.05.32-.42-.04-.84-.11-1.27-.16Zm0-.44c.43.09.85.15,1.28.14.74-.01,1.43-.5,1.68-1.2.22-.59.23-1.19.06-1.79-.22-.74-.66-1.26-1.44-1.44-.46-.11-.91-.07-1.37.04-.25.06-.21.04-.21.27,0,1.25,0,2.5,0,3.75,0,.07,0,.15,0,.23Z"/>
  <path d="m145.3,119.8c0,.1,0,.19,0,.28,0,.88,0,1.76,0,2.63,0,.26.02.53.06.79.05.42.31.67.75.73.15.02.3.02.45.03.09,0,.21-.04.2.13,0,.17-.11.14-.22.14-.22,0-.43-.01-.65-.01-1.1,0-2.21,0-3.31,0-.1,0-.16,0-.16-.13,0-.09.02-.14.12-.13.13,0,.27,0,.4,0,.62-.08.88-.37.9-1.02.02-.91.02-1.82.02-2.74,0-1.53,0-3.05,0-4.58,0-.14-.01-.28-.03-.42-.07-.5-.38-.78-.89-.8-.11,0-.23,0-.34,0-.09,0-.19.02-.19-.12,0-.13.07-.15.18-.14.39,0,.78,0,1.18,0,1.02,0,2.04,0,3.06.03.61.02,1.21.11,1.77.39,1.3.66,1.83,2.18,1.24,3.54-.32.73-.88,1.18-1.63,1.42-.64.21-1.3.21-1.96.13-.29-.03-.57-.1-.85-.14-.03,0-.06,0-.1,0Zm0-2.52s0,0,0,0c0,.66,0,1.31,0,1.97,0,.09.02.14.11.15.31.04.61.09.92.11.98.06,1.77-.47,2-1.39.17-.65.15-1.3-.14-1.93-.28-.61-.74-.99-1.4-1.12-.43-.08-.85-.05-1.27.05-.23.06-.22,0-.22.29,0,.62,0,1.25,0,1.87Z"/>
  <path d="m73.68,119.55c0-1.2,0-2.4,0-3.61,0-.16-.01-.31-.03-.47-.06-.39-.35-.66-.77-.71-.16-.02-.33-.03-.5-.03-.1,0-.14-.03-.14-.13,0-.11.06-.13.15-.13.2,0,.39,0,.59,0,1.2,0,2.39,0,3.59,0,.04,0,.08,0,.12,0,.11,0,.15.06.14.15,0,.05-.08.1-.13.11-.25.04-.5.04-.74.09-.45.09-.77.37-.79.92,0,.16-.01.31-.01.47,0,2.23,0,4.46,0,6.7,0,.19.03.39.06.58.05.26.23.42.49.43.61.03,1.21.04,1.82.05.36,0,.72-.01,1.07-.06.65-.08,1.12-.46,1.47-.98.22-.32.38-.68.55-1.03.05-.09.08-.15.2-.1.12.05.06.13.04.19-.24.8-.5,1.59-.74,2.38-.05.16-.12.2-.27.2-2.11,0-4.22,0-6.33,0-.38,0-.76,0-1.13,0-.1,0-.14-.03-.14-.13,0-.1.04-.13.14-.13.18,0,.36,0,.54-.03.44-.07.68-.32.74-.77.02-.13.02-.26.02-.4,0-1.19,0-2.37,0-3.56Z"/>
  <path d="m157.78,114.72v-.23c.05,0,.1-.02.15-.02,1.41,0,2.82,0,4.22,0,.05,0,.12,0,.15.04.03.03.04.11.03.15-.01.04-.08.07-.12.07-.26.04-.52.05-.77.09-.46.09-.71.36-.75.83-.03.3-.03.6-.03.9,0,2.01,0,4.02,0,6.03,0,.3.03.6.07.89.04.27.21.43.49.44.61.03,1.22.04,1.84.04.35,0,.71-.02,1.06-.06.56-.07.99-.38,1.34-.81.3-.36.51-.78.68-1.21.04-.11.09-.14.2-.1.12.04.07.11.05.19-.25.81-.5,1.62-.75,2.43-.04.13-.1.17-.24.17-2.49,0-4.97,0-7.46,0-.12,0-.18-.03-.17-.15,0-.08.03-.11.12-.11.12,0,.25,0,.37,0,.49-.04.92-.23.94-.91,0-.06,0-.13,0-.19,0-2.46,0-4.93,0-7.39,0-.1-.01-.21-.02-.31-.02-.47-.38-.67-.77-.74-.2-.03-.41-.03-.62-.05Z"/>
  <path d="m92.75,124.27c.02.26,0,.26-.22.26-1.16,0-2.32-.01-3.49-.02-.14,0-.27,0-.41,0-.22,0-.22,0-.21-.26.05,0,.1,0,.15,0,.14,0,.29,0,.42-.02.61-.1.83-.36.86-.98.01-.27,0-.55,0-.82,0-2.18,0-4.36,0-6.53,0-.16-.01-.32-.03-.48-.03-.27-.17-.45-.4-.58-.25-.13-.52-.16-.8-.15-.09,0-.18.02-.18-.12,0-.14.08-.14.19-.14,1.32,0,2.65,0,3.97,0,.09,0,.18,0,.18.13,0,.09-.03.13-.13.13-.18,0-.36,0-.54.03-.38.06-.7.25-.73.73-.01.18-.03.36-.03.54,0,2.41,0,4.83,0,7.24,0,.11.01.22.02.32.02.2.13.36.3.47.25.16.53.23.82.23.08,0,.16,0,.26,0Z"/>
  <path d="m194.91,124.27c.04.25.03.27-.19.27-1.31,0-2.63,0-3.94,0-.09,0-.18.01-.18-.13,0-.1.03-.14.14-.14.17,0,.33,0,.5-.03.5-.08.74-.33.78-.84.02-.22.03-.45.03-.68,0-2.15,0-4.3,0-6.45,0-.29-.03-.59-.05-.88-.02-.29-.2-.47-.45-.59-.24-.11-.5-.13-.76-.11-.1,0-.15,0-.15-.13,0-.12.05-.13.15-.13,1.33,0,2.66,0,3.99,0,.06,0,.15.02.18.06.07.1,0,.18-.13.2-.24.02-.49.04-.72.09-.29.07-.49.26-.51.57-.03.31-.06.62-.06.92,0,2.15,0,4.31,0,6.46,0,.28.04.56.06.84.02.2.12.35.29.45.24.15.5.22.78.23.09,0,.18,0,.27,0Z"/>
  <path d="m59.91,124.28c.2-.01.4-.02.6-.05.12-.02.25-.06.36-.12.22-.1.36-.27.39-.52.02-.2.06-.41.06-.61,0-2.38,0-4.76,0-7.14,0-.14-.02-.28-.03-.43-.02-.3-.19-.49-.46-.61-.25-.11-.51-.13-.78-.12-.09,0-.15,0-.15-.12,0-.11.04-.14.14-.14,1.34,0,2.69,0,4.03,0,.11,0,.16.03.16.15,0,.12-.08.11-.16.11-.2.01-.4,0-.58.05-.49.1-.67.32-.7.82-.02.33-.03.66-.03.99,0,1.98,0,3.96,0,5.95,0,.36.03.72.05,1.07.02.22.14.38.33.49.28.16.58.21.89.2.08,0,.17-.02.17.11,0,.13-.06.15-.17.15-1.06,0-2.13-.02-3.19-.02-.26,0-.51.01-.77.01-.21,0-.24-.04-.17-.24Z"/>
</svg>