<?xml version="1.0" encoding="UTF-8"?>
<svg id="Layer_1" data-name="Layer 1" xmlns="http://www.w3.org/2000/svg" viewBox="0 0 240 240">
  <path d="m178.62,109.97c.12,0,.24-.02.35-.02.86,0,1.72,0,2.59,0,.25,0,.41.07.56.28,3.47,4.77,6.96,9.54,10.44,14.31.07.09.14.18.25.33v-14.89h3.16v20.09c-.12,0-.23.01-.33.01-.87,0-1.75,0-2.62,0-.25,0-.39-.08-.53-.28-3.01-4.13-6.03-8.25-9.04-12.37-.46-.63-.93-1.27-1.39-1.9-.06-.08-.13-.16-.25-.31v14.83h-3.18v-20.09Z"/>
  <path d="m60.25,115.4c-.51-.42-.96-.8-1.41-1.17-1.21-1-2.62-1.47-4.18-1.5-2.33-.04-4.28.81-5.7,2.68-2.35,3.11-1.8,7.91,1.16,10.32,1.13.92,2.45,1.38,3.9,1.45,1.53.08,2.99-.19,4.3-1.02,1.58-.99,2.47-2.45,2.85-4.25,0-.03,0-.06-.01-.14-.13,0-.25,0-.38,0-1.76,0-3.51,0-5.27,0-.32,0-.4-.1-.39-.4.02-.81,0-1.62,0-2.42v-.34c3.22,0,6.4,0,9.59,0,.51,4.42-1.48,9.23-6.61,11.11-5.31,1.95-10.79-.37-13.08-5.25-2.3-4.89-.45-10.86,4.09-13.5,4.51-2.62,10.54-1.64,13.62,2.57-.88.65-1.76,1.3-2.48,1.83Z"/>
  <path d="m111.12,110.07c.08,0,.14-.02.19-.02,2.83,0,5.67-.03,8.5.02,3.22.05,5.99,2.76,6.22,5.97.15,2.01-.36,3.78-1.79,5.23-.77.78-1.69,1.33-2.74,1.65-.06.02-.12.04-.21.08,2.09,2.29,4.16,4.56,6.28,6.89-.19.01-.29.03-.39.03-1.11,0-2.22,0-3.33,0-.23,0-.38-.07-.53-.24-1.89-2.07-3.79-4.12-5.68-6.19-.19-.2-.37-.28-.64-.27-.89.02-1.79,0-2.73,0,0,.15,0,.28,0,.4,0,1.97,0,3.94,0,5.92,0,.28-.06.39-.37.39-.82-.02-1.64,0-2.46,0-.11,0-.21,0-.34,0v-19.85Zm3.2,3.23s-.03.07-.03.1c0,2.14,0,4.29,0,6.43,0,.18.09.21.24.21,1.72,0,3.45.02,5.17-.02,1.42-.04,2.63-1.04,3.05-2.4.64-2.09-.94-4.29-3.12-4.33-1.7-.03-3.4,0-5.1,0-.06,0-.13.01-.19.02Z"/>
  <path d="m92.09,110.06h13.6v3.15h-10.42v5.18h9.64v3.16h-9.64v5.17h10.42v3.17c-.12,0-.23.02-.34.02-4.31,0-8.62,0-12.93,0-.28,0-.37-.07-.36-.36,0-6.39,0-12.78,0-19.17,0-.11.01-.21.02-.34Z"/>
  <path d="m165.98,129.92c-1.12,0-2.18,0-3.24-.01-.09,0-.2-.17-.25-.28-.56-1.35-1.12-2.7-1.67-4.06-.09-.22-.2-.28-.43-.28-2.75,0-5.49,0-8.24,0-.25,0-.35.09-.44.31-.53,1.35-1.08,2.69-1.62,4.05-.09.22-.2.29-.42.28-.93-.01-1.85,0-2.78,0-.1,0-.19,0-.33-.02.05-.13.09-.24.13-.35,2.57-6.4,5.14-12.8,7.7-19.2.1-.24.21-.32.47-.31.95.02,1.9.01,2.84,0,.21,0,.32.05.4.26,2.58,6.44,5.17,12.88,7.75,19.31.03.08.06.16.11.3Zm-6.53-7.78c-1.05-2.67-2.1-5.31-3.18-8.04-1.08,2.74-2.12,5.37-3.18,8.04h6.36Z"/>
  <path d="m69.51,110.07h3.16c0,.16,0,.29,0,.43,0,3.74,0,7.48,0,11.22,0,2.79,1.84,5.02,4.58,5.48,3.19.54,5.92-1.67,6.35-4.61.05-.34.06-.69.06-1.03,0-3.68,0-7.37,0-11.05,0-.14,0-.27,0-.43h3.16c0,.12.02.23.02.34,0,3.74,0,7.48,0,11.22,0,4.19-2.94,7.78-7.04,8.63-5.12,1.06-10.17-2.86-10.3-8.08-.1-3.96-.03-7.93-.03-11.89,0-.06.01-.13.03-.22Z"/>
  <path d="m132.13,110.07h3.12v16.65h8.74v3.17h-11.86v-19.83Z"/>
  <path d="m169.75,110.07h3.13v19.87h-3.13v-19.87Z"/>
</svg>