<?xml version="1.0" encoding="UTF-8"?>
<svg id="Layer_1" data-name="Layer 1" xmlns="http://www.w3.org/2000/svg" viewBox="0 0 240 240">
  <path d="m53,102.47c.11-2.21.22-4.52.33-6.73-.44.11-.88.11-1.32.22-.44,0-.88.11-1.21.11-.44,0-.88,0-1.21-.11-.55-.11-.99-.11-1.43-.22.11,2.32.22,4.52.33,6.73s.11,4.52.11,6.73v14.33c0,2.09-.11,3.97-.22,5.62-.11,1.65-.44,3.09-.88,4.3-.44,1.21-1.1,2.21-1.98,2.87s-2.09.99-3.53.99l.44,1.43c1.54,0,2.98-.33,4.3-.88,1.32-.55,2.43-1.32,3.42-2.43.99-.99,1.65-2.21,2.21-3.53s.77-2.76.77-4.3v-18.52c-.22-2.09-.22-4.3-.11-6.62m24.15,16.87c0,1.43-.11,2.87-.44,4.19-.22,1.32-.66,2.54-1.32,3.64-.66,1.1-1.43,1.87-2.54,2.54-.99.66-2.32.99-3.86.99s-2.87-.33-3.86-.99c-.99-.66-1.87-1.43-2.54-2.54-.66-1.1-1.1-2.32-1.32-3.64s-.33-2.76-.33-4.19.11-2.87.44-4.19.66-2.54,1.32-3.64,1.43-1.87,2.54-2.54c.99-.66,2.32-.99,3.86-.99s2.87.33,3.86.99,1.87,1.43,2.54,2.54c.66,1.1,1.1,2.32,1.32,3.64.22,1.32.33,2.76.33,4.19m3.53,6.06c.77-1.65,1.1-3.64,1.1-6.06s-.33-4.41-1.1-6.06-1.76-2.98-2.98-4.08c-1.21-.99-2.54-1.76-4.08-2.21-1.54-.44-2.98-.66-4.52-.66s-2.98.22-4.52.66c-1.54.44-2.87,1.21-4.08,2.21s-2.21,2.32-2.98,4.08c-.77,1.65-1.1,3.64-1.1,6.06s.33,4.41,1.1,6.06,1.76,2.98,2.98,4.08c1.21.99,2.54,1.76,4.08,2.21,1.54.44,2.98.66,4.52.66s3.09-.22,4.52-.66c1.54-.44,2.87-1.1,4.08-2.21,1.21-1.1,2.21-2.43,2.98-4.08m16.43-16.87c0-.88.11-1.54.33-1.87-.33-.11-.66-.22-.88-.22h-.77c-2.54,0-4.85,1.87-6.95,5.62h-.11v-2.09c0-.77.11-1.76.22-2.98-.33.11-.77.11-1.1.22-.33,0-.66.11-.99.11s-.77,0-1.1-.11c-.33,0-.66-.11-1.1-.22.11,2.32.22,4.3.22,6.06v13.89c0,1.98-.11,3.64-.22,4.85.66-.11,1.43-.11,2.21-.11.66,0,1.43,0,2.09.11-.11-.77-.22-1.76-.22-2.98v-11.14c0-.99.11-1.98.33-2.87.22-.88.55-1.65.99-2.32s.99-1.21,1.65-1.54,1.43-.55,2.21-.55c.55,0,.99.11,1.54.22.55.22.88.33.99.55l.33-.22c.22-.77.22-1.54.33-2.43m12.24,23.04c2.87,0,4.85.44,6.06,1.21,1.21.88,1.87,2.32,1.87,4.41,0,1.21-.22,2.21-.77,3.09-.44.88-1.1,1.54-1.87,2.09s-1.65.99-2.65,1.21c-.99.33-1.98.44-3.09.44s-2.09-.11-3.09-.33c-.99-.22-1.76-.66-2.43-1.1-.66-.55-1.21-1.21-1.65-1.98-.44-.88-.55-1.87-.55-3.09,0-2.21.66-3.75,2.09-4.63,1.43-.88,3.42-1.32,6.06-1.32m-6.62-16.76c0-2.09.55-3.86,1.54-5.07.99-1.32,2.54-1.87,4.41-1.87,1.65,0,3.09.55,4.08,1.76.99,1.1,1.54,2.87,1.54,5.07,0,.99-.11,1.87-.33,2.76-.22.88-.55,1.65-.99,2.32s-1.1,1.21-1.76,1.65-1.54.55-2.54.55c-1.98,0-3.53-.66-4.52-1.87-.99-1.32-1.43-3.09-1.43-5.29m1.21,12.79c-.44-.44-.66-1.1-.66-1.98,0-.66.22-1.32.77-1.76s1.1-.66,1.76-.66h2.87c2.98,0,5.29-.77,7.06-2.21s2.65-3.53,2.65-6.17c0-1.32-.33-2.65-.99-3.86s-1.54-2.21-2.65-2.76l.11-.11c.99,0,1.87.11,2.87.22s1.98.22,2.98.22c0-.22-.11-.33-.11-.55v-1.1c0-.22,0-.33.11-.55-.88.22-2.32.22-4.19.22h-1.54c-.66,0-1.32-.11-2.09-.11-.99-.11-1.76-.11-2.32-.11h-1.87c-1.32,0-2.65.22-3.86.55-1.21.33-2.32.88-3.2,1.54-.88.66-1.65,1.54-2.21,2.65s-.77,2.32-.77,3.75c0,1.87.44,3.53,1.32,4.74.88,1.32,2.21,2.21,3.75,2.98v.11c-.44.11-.88.22-1.32.44-.44.22-.88.55-1.21.99-.33.33-.66.77-.88,1.32-.22.44-.33.99-.33,1.65,0,.99.33,1.87.88,2.65s1.32,1.21,2.43,1.54v.11c-.66.22-1.32.44-1.98.77s-1.21.77-1.76,1.43c-.55.55-.99,1.32-1.32,1.98-.33.77-.55,1.65-.55,2.54,0,2.32.99,4.19,2.98,5.51s4.63,1.98,8.05,1.98c2.21,0,4.08-.33,5.62-.99,1.54-.66,2.87-1.54,3.86-2.54.99-.99,1.76-2.09,2.21-3.42.44-1.21.66-2.54.66-3.75,0-.88-.22-1.76-.55-2.54s-.88-1.43-1.54-1.98-1.65-1.1-2.76-1.43-2.54-.55-4.08-.55c-.99,0-1.98-.11-2.87-.11-.99,0-1.87,0-2.87-.11-1.21.11-1.98-.11-2.43-.55m38.37-8.27c0,1.43-.11,2.87-.44,4.19s-.66,2.54-1.32,3.64-1.43,1.87-2.54,2.54c-.99.66-2.32.99-3.86.99s-2.87-.33-3.86-.99c-.99-.66-1.87-1.43-2.54-2.54s-1.1-2.32-1.32-3.64-.44-2.76-.44-4.19.11-2.87.44-4.19c.22-1.32.66-2.54,1.32-3.64s1.43-1.87,2.54-2.54c.99-.66,2.32-.99,3.86-.99s2.87.33,3.97.99c.99.66,1.87,1.43,2.54,2.54.66,1.1,1.1,2.32,1.32,3.64s.33,2.76.33,4.19m3.53,6.06c.77-1.65,1.1-3.64,1.1-6.06s-.33-4.41-1.1-6.06-1.76-2.98-2.98-4.08c-1.21-.99-2.54-1.76-4.08-2.21-1.54-.44-2.98-.66-4.52-.66s-2.98.22-4.52.66c-1.54.44-2.87,1.21-4.08,2.21s-2.21,2.32-2.98,4.08c-.77,1.65-1.1,3.64-1.1,6.06s.33,4.41,1.1,6.06,1.76,2.98,2.98,4.08c1.21.99,2.54,1.76,4.08,2.21,1.54.44,2.98.66,4.52.66s3.09-.22,4.52-.66c1.54-.44,2.87-1.1,4.08-2.21,1.21-1.1,2.21-2.43,2.98-4.08m23.15-6.95c0,1.87-.22,3.53-.55,5.07-.33,1.54-.88,2.76-1.54,3.86s-1.43,1.87-2.43,2.54c-.88.55-1.87.88-2.98.88-5.07,0-7.61-3.53-7.61-10.47,0-2.21.22-3.97.66-5.51.44-1.43.99-2.65,1.76-3.64.77-.88,1.54-1.54,2.54-1.98s1.98-.55,3.09-.55c.88,0,1.76.22,2.65.66s1.65,1.1,2.21,1.87c.66.88,1.21,1.87,1.54,3.09.44,1.1.66,2.54.66,4.19m3.64,5.73c.66-1.65.88-3.53.88-5.51,0-1.65-.22-3.2-.66-4.63-.44-1.43-1.1-2.76-1.98-3.86s-1.98-1.98-3.31-2.65-2.87-.99-4.74-.99-3.53.44-4.96,1.32c-1.43.88-2.76,2.21-3.97,4.08h-.11c0-1.65.11-3.42.11-5.4s.11-3.86.11-5.73.11-3.53.11-5.07c.11-1.54.11-2.65.22-3.31-.44.11-.99.11-1.32.22-.44,0-.77.11-1.21.11-.55,0-1.32-.11-2.32-.22.11.88.11,1.87.22,3.2,0,1.21.11,2.54.11,3.86s.11,2.76.11,4.08v17.2c0,1.43,0,2.76-.11,4.08,0,1.32-.11,2.65-.11,3.75,0,1.21-.11,2.21-.22,3.09h.99c1.1-.99,2.21-1.98,3.53-3.09.66.99,1.76,1.87,3.09,2.54,1.32.66,2.87,1.1,4.52,1.1s3.2-.33,4.63-.99c1.43-.66,2.65-1.54,3.75-2.76,1.21-1.32,2.09-2.76,2.65-4.41m22.49-27.01c.44-.33.66-.88.66-1.54,0-.55-.22-.99-.55-1.21-.44-.33-.77-.44-1.1-.44-.77,0-1.54.44-2.32,1.21l-7.72,7.83h2.21l7.72-4.96c.33-.22.66-.44,1.1-.88m-1.1,19.85c-1.1,0-2.32.11-3.42.11h-6.95c-1.21,0-2.32-.11-3.42-.11.11-.99.22-1.98.55-2.98.33-1.1.77-2.09,1.32-2.98.55-.88,1.32-1.65,2.21-2.21s1.98-.88,3.31-.88,2.43.33,3.31.88,1.54,1.32,1.98,2.21c.44.88.77,1.87.99,2.98,0,1.1.11,2.09.11,2.98m4.3,0c0-1.43-.22-2.87-.66-4.08-.44-1.32-1.1-2.43-1.98-3.42s-1.98-1.76-3.42-2.32c-1.32-.55-2.98-.88-4.74-.88-3.86,0-6.84,1.21-8.93,3.64-1.98,2.43-3.09,5.84-3.09,10.14,0,1.76.33,3.42.88,4.85.66,1.54,1.43,2.76,2.65,3.86,1.1,1.1,2.43,1.98,4.08,2.54,1.54.55,3.31.88,5.18.88,1.65,0,3.31-.33,4.85-.88s2.87-1.32,3.86-2.09l.33-2.54-.22-.11c-.44.55-.99.99-1.54,1.43-.66.44-1.21.88-1.98,1.21-.66.33-1.43.55-2.09.77-.77.22-1.43.33-2.09.33-1.43,0-2.76-.22-3.86-.77s-2.09-1.21-2.87-1.98c-.77-.88-1.32-1.87-1.76-3.09-.44-1.21-.55-2.43-.55-3.86v-1.43c1.1,0,2.32-.11,3.42-.11h9.04c1.87,0,3.75.11,5.62.11,0-.33.11-.66.11-.99-.22-.55-.22-.88-.22-1.21"/>
</svg>