<?xml version="1.0" encoding="UTF-8"?>
<svg id="Layer_1" data-name="Layer 1" xmlns="http://www.w3.org/2000/svg" viewBox="0 0 240 240">
  <path d="m200.23,120.13c.79.45,1.44,1.01,1.89,1.77,1.62,2.69.33,7.33-3.8,7.96-.89.14-1.79.21-2.68.23-2.37.03-4.74.01-7.11.02-.53,0-.56-.03-.56-.57,0-5.83,0-11.65.01-17.48,0-.5.06-.56.55-.56,2.53,0,5.06-.02,7.59.01,1.24.02,2.47.23,3.54.9,2.62,1.64,3.23,5.41.66,7.61-.03.02-.04.06-.09.12Zm-8.81,1.96v4.74s.07.04.09.04c1.92-.02,3.84,0,5.77-.07.96-.03,1.71-.72,1.94-1.61.26-1.01-.04-2.01-.78-2.56-.57-.42-1.25-.53-1.93-.55-1.64-.04-3.28-.01-4.92-.01-.05,0-.09.02-.16.03Zm0-7.38v4.14c.16,0,.29,0,.42,0,1.17,0,2.34.02,3.51,0,.59-.01,1.18-.06,1.76-.16.73-.13,1.28-.56,1.42-1.32.15-.79.08-1.56-.59-2.13-.16-.13-.35-.24-.55-.3-.31-.09-.63-.16-.94-.16-1.63-.04-3.25-.05-4.88-.08-.05,0-.09.01-.16.02Z"/>
  <path d="m94.64,114.69v4.34c.17,0,.32,0,.48,0,2.85,0,5.7,0,8.56,0,.56,0,.59.03.59.58,0,.69,0,1.38,0,2.07,0,.48-.05.53-.53.53-2.85,0-5.7,0-8.56,0-.16,0-.32,0-.51,0v4.67c.15,0,.3.02.46.02,3.2,0,6.4,0,9.59,0,.59,0,.63.05.63.63,0,.69,0,1.38,0,2.07,0,.43-.07.49-.5.49-4.38,0-8.77,0-13.15,0-.44,0-.48-.04-.48-.5,0-5.87,0-11.73,0-17.6,0-.35.11-.49.47-.49,4.26,0,8.52,0,12.78,0,.36,0,.48.14.47.49-.02.74-.02,1.48,0,2.22,0,.35-.13.48-.48.47-3.11,0-6.22,0-9.33,0-.15,0-.29,0-.47,0Z"/>
  <path d="m40.97,122.21c0,1.52,0,2.98,0,4.43,0,.07.01.14.03.27.17,0,.32,0,.48,0,3.19,0,6.37,0,9.56,0,.57,0,.61.04.61.61,0,.7,0,1.41,0,2.11,0,.32-.09.47-.45.47-4.41,0-8.82,0-13.22,0-.33,0-.43-.13-.43-.44,0-5.9,0-11.8,0-17.7,0-.33.13-.44.44-.43,4.27,0,8.54,0,12.82,0,.29,0,.42.1.42.41-.01.77-.02,1.53,0,2.3,0,.36-.13.47-.48.47-3.1-.01-6.2,0-9.3,0-.14,0-.29,0-.46,0v4.34c.16,0,.32,0,.47,0,2.85,0,5.7,0,8.56,0,.52,0,.57.04.57.57,0,.69,0,1.38,0,2.07,0,.46-.08.54-.54.54-2.86,0-5.73,0-8.59,0-.15,0-.29,0-.49,0Z"/>
  <path d="m131.02,130.11c-.65,0-1.31,0-1.96,0-2.17.02-3.81-.99-5-2.73-.41-.6-.64-1.35-.89-2.05-.18-.49-.04-.63.47-.64.86,0,1.73,0,2.59,0,.25,0,.41.08.5.34.3.86.94,1.42,1.75,1.75,1.56.64,3.17.71,4.78.2.79-.25,1.46-.68,1.72-1.53.21-.72,0-1.34-.59-1.81-.55-.43-1.2-.63-1.86-.79-1.62-.41-3.26-.77-4.88-1.21-1.43-.39-2.66-1.13-3.48-2.41-1.17-1.83-.81-4.34.8-6.02,1.09-1.14,2.47-1.7,3.98-1.92,1.84-.26,3.66-.13,5.42.56,2.08.82,3.32,2.35,3.79,4.52.09.42-.02.55-.45.55-.83,0-1.65.02-2.48,0-.16,0-.42-.12-.47-.25-.45-1.25-1.42-1.85-2.63-2.15-1.31-.33-2.61-.3-3.88.19-.93.36-1.49,1.11-1.49,1.97,0,.63.28,1.07.86,1.35,1.11.53,2.31.76,3.5,1.03,1.26.29,2.53.57,3.75.98,1.5.49,2.68,1.43,3.29,2.94.81,2.02.12,4.42-1.65,5.85-.73.59-1.56.98-2.45,1.25-.15.04-.32.04-.47.04-.86,0-1.73,0-2.59,0h0Z"/>
  <path d="m151.96,125.91c-1.04,0-2.07,0-3.11,0-.26,0-.39.09-.47.34-.36,1.13-.76,2.26-1.12,3.4-.11.33-.25.48-.62.47-.83-.03-1.65,0-2.48,0-.41,0-.48-.11-.34-.5,2.14-5.9,4.28-11.8,6.41-17.7.11-.29.26-.4.57-.4.75.02,1.51.01,2.26,0,.29,0,.44.1.54.38,2.27,5.91,4.54,11.81,6.82,17.72.15.39.09.48-.34.48-.89,0-1.78-.01-2.67.01-.32,0-.45-.12-.56-.4-.43-1.15-.89-2.3-1.31-3.45-.1-.29-.25-.37-.54-.36-1.01.02-2.02,0-3.04,0v.02Zm-.01-10.39s-.06,0-.09.01c-.75,2.37-1.5,4.75-2.26,7.15h4.67c-.78-2.41-1.55-4.79-2.32-7.17Z"/>
  <path d="m180.65,130.09c-.44,0-.89-.02-1.33,0-.3.02-.44-.1-.54-.37-.42-1.17-.87-2.33-1.29-3.5-.09-.25-.2-.34-.47-.34-2.06.01-4.12,0-6.18,0-.28,0-.41.07-.5.35-.37,1.16-.78,2.31-1.15,3.47-.1.31-.25.4-.56.39-.79-.02-1.58,0-2.37,0-.54,0-.6-.08-.42-.58,1.73-4.81,3.46-9.61,5.19-14.42.38-1.06.78-2.12,1.15-3.19.1-.3.27-.4.57-.39.74.01,1.48.01,2.22,0,.32,0,.48.11.6.41,2.25,5.87,4.51,11.74,6.77,17.61.18.47.11.56-.4.56-.43,0-.86,0-1.3,0Zm-6.71-14.55h-.08c-.76,2.36-1.52,4.74-2.29,7.13h4.67c-.78-2.41-1.54-4.77-2.3-7.13Z"/>
  <path d="m62.77,126.91c.22,0,.38,0,.54,0,2.75,0,5.51,0,8.26,0,.61,0,.61,0,.61.63,0,.72,0,1.43,0,2.15,0,.3-.1.41-.41.41-3.99,0-7.98,0-11.97,0-.36,0-.45-.16-.45-.47,0-1.4,0-2.79,0-4.19,0-4.43,0-8.87,0-13.3,0-.6.02-.62.62-.62.77,0,1.53,0,2.3,0,.45,0,.48.03.48.48,0,4.8,0,9.61,0,14.41,0,.15,0,.29,0,.49Z"/>
  <path d="m79.28,120.78c0-2.91,0-5.83,0-8.74,0-.49.02-.52.52-.52.8,0,1.61,0,2.41,0,.34,0,.49.1.49.47,0,5.88,0,11.76,0,17.63,0,.34-.11.49-.47.48-.79-.02-1.58,0-2.37,0q-.58,0-.58-.57c0-2.91,0-5.83,0-8.74h0Z"/>
</svg>