<?xml version="1.0" encoding="UTF-8"?>
<svg id="Layer_1" data-name="Layer 1" xmlns="http://www.w3.org/2000/svg" viewBox="0 0 240 240">
  <polygon points="84.41 110.09 77.72 120.11 71.03 110.09 68.22 110.09 68.22 129.9 71.14 129.9 71.14 115.49 77.42 124.7 77.97 124.7 84.25 115.47 84.25 129.9 87.22 129.9 87.22 110.09 84.41 110.09"/>
  <path d="m168.64,121.69h5.78v4.1c-1.46,1.09-3.24,1.68-5.06,1.69-4.24,0-7.09-3-7.09-7.53,0-4.13,2.98-7.37,6.79-7.37,2.75,0,4.26.99,5.5,2.07l.32.28,1.92-2.27-.32-.27c-2.21-1.86-4.34-2.62-7.35-2.62-5.57,0-9.93,4.5-9.93,10.29s4.14,10.18,10.07,10.18h0c2.91,0,5.72-1.07,7.9-3.01l.15-.12v-8.17h-8.68v2.76Z"/>
  <path d="m130.62,121.54c0,3.77-1.88,5.85-5.3,5.85s-5.38-2.18-5.38-5.98v-11.32h-2.97v11.45c0,5.34,3.18,8.66,8.31,8.66s8.33-3.3,8.33-8.82v-11.28h-2.98v11.45Z"/>
  <path d="m102.28,127.41c-4.03,0-7.06-3.19-7.06-7.47s3.01-7.36,7.01-7.36,7.07,3.19,7.07,7.47-3.01,7.36-7.01,7.36m0-17.65c-5.68,0-10.12,4.5-10.12,10.29s4.33,10.18,10.07,10.18h0c5.68,0,10.12-4.49,10.12-10.29s-4.33-10.18-10.07-10.18"/>
  <path d="m146.95,113.89l3.68,8.23h-7.37l3.7-8.23Zm-1.24-3.93l-9.03,19.95h3.11l2.25-5.01h9.79l2.22,5.01h3.22l-9.03-19.95h-2.55Z"/>
  <polygon points="182.99 110.09 182.99 129.9 197.68 129.9 197.68 127.11 185.96 127.11 185.96 121.31 196.32 121.31 196.32 118.52 185.96 118.52 185.96 112.88 197.54 112.88 197.54 110.09 182.99 110.09"/>
  <path d="m53.01,113.89l3.67,8.23h-7.36l3.7-8.23Zm-1.24-3.93l-9.03,19.95h3.11l2.25-5.01h9.79l2.22,5.01h3.22l-9.03-19.95h-2.54Z"/>
</svg>