<?xml version="1.0" encoding="UTF-8"?>
<svg id="Layer_1" data-name="Layer 1" xmlns="http://www.w3.org/2000/svg" viewBox="0 0 240 240">
  <defs>
    <style>
      .cls-1 {
        fill: #2f2d2d;
      }
    </style>
  </defs>
  <path class="cls-1" d="m53.88,131.78c3.7,0,6.05-1.97,6.05-5,0-3.29-3.17-4.65-6.29-5.85-1.6-.62-8.19-2.44-8.19-7.09,0-3.84,3.66-7.14,10.05-7.14,1.36.01,2.72.18,4.04.5.64.16,1.32.36,1.85.43.2,1.35.49,2.9.88,5.23-1.54-2.93-4.54-4.8-7.85-4.88-3.45,0-5.26,2.01-5.26,4.3,0,2.86,2.58,4.14,6.29,5.46,3.21,1.12,8.33,2.71,8.33,7.52,0,4.5-4.63,7.79-10.82,7.79-1.56,0-3.12-.2-4.63-.59-1.22-.31-2.1-.62-2.68-.8-.4-1-.92-3.43-1.41-5.53,0,0,3.62,5.65,9.65,5.65"/>
  <path class="cls-1" d="m140.76,131.78c3.69,0,6.04-1.97,6.04-5,0-3.29-3.17-4.65-6.29-5.85-1.61-.62-8.19-2.44-8.19-7.09,0-3.84,3.65-7.14,10.05-7.14,1.36.01,2.72.18,4.05.5.62.16,1.31.36,1.84.43.2,1.35.49,2.9.88,5.23-1.54-2.93-4.55-4.8-7.86-4.88-3.45,0-5.26,2.01-5.26,4.3,0,2.86,2.58,4.14,6.29,5.46,3.22,1.12,8.33,2.71,8.33,7.52,0,4.5-4.63,7.79-10.82,7.79-1.56,0-3.11-.2-4.62-.59-1.23-.31-2.1-.62-2.69-.8-.39-1-.92-3.43-1.41-5.53,0,0,3.63,5.65,9.66,5.65"/>
  <path class="cls-1" d="m73.15,112.92c0-4.42-2.55-5.61-2.55-5.61h19.6c.05.66.26,3.11.5,5.28-.8-1.18-1.79-2.22-2.94-3.07-1.67-.81-3.53-1.13-5.36-.93h-3.71c-1.36,0-1.45.08-1.45,1.19v8.82h4.92c2.1.21,4.21-.24,6.04-1.29v4.05s-1.49-1.32-6.04-1.32h-4.92v6.84c0,2.2.29,3.36,1.21,3.83,1.62.44,3.3.59,4.97.45,2.11.11,4.21-.27,6.14-1.11,1.3-.92,2.46-2.01,3.46-3.24-.25,1.08-1.22,4.6-1.6,5.63h-21.33c2.04-1.09,3.24-3.29,3.04-5.59v-13.93"/>
  <path class="cls-1" d="m124.85,132.74h-1.27l-20.35-20.38h-.1v9.86c-.06,2.46.08,4.92.4,7.36.44,1.86,2.88,2.9,2.88,2.9h-8.38s2.27-1.31,2.77-2.9c.35-2.44.49-4.9.4-7.36v-8.39c0-2.79-.18-3.32-.93-4.3-.72-.91-1.61-1.66-2.63-2.21h5.47l19.71,19.52h.1s.06-5.2,0-9.26c-.06-4-.28-6.14-.39-7.36-.14-1.45-2.7-2.9-2.7-2.9h7.32c-.96.72-1.65,1.74-1.96,2.9-.15,1.21-.27,3.35-.33,7.36s0,15.17,0,15.17"/>
  <path class="cls-1" d="m173.41,129.64c-.4-.92-1.75-3.95-3.12-6.74h-9.89c-.5,1-1.74,4.03-2.44,5.65-.67,1.44-.05,3.15,1.38,3.82.07.03.15.07.23.09h-7.76c1.8-1.2,3.23-2.87,4.15-4.84l9.57-20.71,1.6-.2,3.45,7.36c2.29,4.91,4.44,9.83,6.34,13.79.89,1.91,2.32,3.51,4.12,4.61h-9.13s2.26-1.12,1.5-2.82m-12.39-8.21h8.63l-4.29-9.53h-.11l-4.24,9.53Z"/>
  <path class="cls-1" d="m192.9,127.41c0,4.22,2.66,5.05,2.66,5.05h-9.39s2.66-.84,2.66-5.05v-15.03c0-4.22-2.66-5.06-2.66-5.06h9.35s-2.6.84-2.6,5.06v15.03"/>
</svg>