<?xml version="1.0" encoding="UTF-8"?>
<svg id="Layer_1" data-name="Layer 1" xmlns="http://www.w3.org/2000/svg" viewBox="0 0 240 240">
  <path d="m123.45,121.73c.55-1.09,1.05-2.07,1.54-3.05.82-1.64,1.64-3.28,2.44-4.93.14-.3.31-.42.65-.42,1.29.02,2.58,0,3.86,0q.06.47-1.13.6v10.81c.37.02.75.04,1.14.06.13.38.05.56-.37.56-1.49-.01-2.98-.01-4.48,0-.4,0-.47-.18-.36-.55.2-.02.41-.04.67-.07v-8.39s-.06-.02-.08-.03c-.09.17-.18.34-.26.51-1.32,2.65-2.64,5.3-3.96,7.95-.13.26-.18.57-.62.57-.41,0-.46-.3-.59-.54-1.65-3.23-3.29-6.47-4.94-9.71-.1-.2-.21-.4-.41-.56,0,.17-.03.35-.03.52,0,2.71,0,5.41,0,8.12,0,.15,0,.29.01.44.07.87.32,1.11,1.19,1.16.14,0,.29,0,.47,0,.01.19.02.34.04.54h-4.45v-.49c.24-.05.47-.08.69-.14.66-.18,1.01-.57,1.01-1.24.01-3.11,0-6.21,0-9.32,0-.03-.02-.07-.05-.16-.37-.02-.77-.03-1.22-.06,0-.17-.02-.34-.03-.58,1.7,0,3.35-.01,5,.02.14,0,.33.24.41.41,1.16,2.38,2.31,4.77,3.46,7.16.11.24.24.47.41.81Z"/>
  <path d="m182.73,113.37c.14.43,0,.59-.4.57-.4-.02-.79,0-1.29,0v4.67c2.13-1.52,4.14-2.95,6.15-4.38-.02-.07-.04-.14-.05-.22-.41-.04-.82-.07-1.3-.12,0-.15-.02-.32-.03-.52h5.63c.01.16.02.31.03.48-.09.03-.16.07-.22.07-1.61-.13-2.93.5-4.15,1.47-1.01.8-2.09,1.51-3.2,2.3.5.55.97,1.07,1.45,1.58,1.61,1.73,3.21,3.47,4.84,5.18.17.18.48.28.74.31.43.05.86.01,1.29.01.14.4.07.59-.36.58-2.07-.01-4.15-.01-6.22,0-.4,0-.47-.17-.36-.57h1.25c-1.69-1.9-3.28-3.67-4.87-5.44-.48.16-.63.45-.62.92.03,1.31,0,2.62.01,3.92,0,.18.02.36.03.58h1.53c.01.2.02.35.03.48-.06.04-.09.08-.12.08-1.93.01-3.86.01-5.78.03-.41,0-.37-.24-.3-.58h1.4v-10.86c-.34,0-.66-.02-.98,0-.43.03-.54-.16-.42-.57h6.3Z"/>
  <path d="m71.07,113.26v3.86c-.37.13-.59.09-.76-.33-.8-1.96-2.6-3.16-4.73-3.15-.6,0-1.2.06-1.79.13-.28.03-.56.14-.83.26-.6.27-1.02.72-1.04,1.41-.02.65.33,1.14.89,1.39.69.31,1.41.6,2.14.76,1.31.28,2.65.43,3.98.67.45.08.89.2,1.31.36,1.71.62,2.4,1.95,1.94,3.72-.46,1.78-1.77,2.64-3.42,3.08-2.03.54-4.03.25-6.03-.25-.54-.14-1.1-.25-1.66-.31-.47-.05-.94,0-.98.64h-.58v-4.75c.36-.11.57-.03.74.4,1.3,3.25,4.87,4.51,7.96,3.52.78-.25,1.34-.75,1.41-1.62.07-.88-.39-1.52-1.15-1.8-1.08-.4-2.22-.67-3.34-.94-.94-.23-1.89-.35-2.84-.56-.37-.08-.73-.23-1.08-.38-2.39-.99-2.19-3.78-.74-5.02.96-.83,2.11-1.19,3.34-1.32,1.64-.17,3.26-.06,4.82.59.33.14.71.21,1.06.21.23,0,.47-.18.69-.31.18-.11.34-.27.5-.41.06.05.11.11.17.16Z"/>
  <path d="m42.23,125.56v-4.8c.38-.14.6-.03.76.38,1.28,3.23,4.85,4.51,7.96,3.52.78-.25,1.34-.76,1.41-1.62.07-.87-.39-1.52-1.15-1.8-1.1-.4-2.25-.68-3.4-.96-.97-.23-1.96-.38-2.94-.59-.35-.08-.69-.23-1.02-.38-2.24-1-2.08-3.66-.73-4.9.97-.89,2.16-1.27,3.42-1.4,1.64-.17,3.27-.06,4.82.59.26.11.56.15.85.2.5.08.92,0,1-.6h.58v3.92c-.41.13-.59.01-.76-.37-.9-2.02-2.49-3.08-4.7-3.11-.74-.01-1.49.09-2.21.24-.38.08-.77.34-1.06.62-.58.54-.6,1.43,0,1.93.49.4,1.09.77,1.7.91,1.41.34,2.86.53,4.28.79.57.11,1.15.22,1.7.4,2.19.71,2.95,2.72,1.8,4.74-.79,1.38-2.09,1.96-3.56,2.25-1.88.37-3.72.09-5.55-.38-.49-.12-.99-.23-1.49-.29-.45-.05-.92-.11-1.11.51-.03.1-.35.12-.6.19Z"/>
  <path d="m205.56,113.38v3.37c-.27.01-.61.2-.61-.28,0-1.51-1.05-2.27-2.33-2.41-1.14-.12-2.31-.03-3.5-.03v4.56c2.26.26,3.09.12,3.12-2.28.17,0,.34-.02.56-.02v5.72c-.18.01-.35.02-.57.03-.09-.86.05-1.87-.83-2.3-.65-.31-1.45-.29-2.25-.44v5.54c1.39-.07,2.78-.05,4.13-.24,1.35-.19,2.07-1.11,2.22-2.46.03-.25.04-.51.06-.82.17-.01.34-.02.56-.04v4.05h-11.67v-.55h1.31v-10.86h-1.3c-.01-.21-.03-.37-.04-.56h11.15Z"/>
  <path d="m80.46,124.67c1.38,0,2.7.1,3.99-.03,1.53-.16,2.4-1.26,2.45-2.79,0-.16,0-.32,0-.52.21-.01.38-.03.6-.04v4.02h-11.7v-.52h1.33v-10.82c-.45-.02-.88-.04-1.33-.06,0-.18-.02-.34-.03-.52h11.17v3.34c-.18.02-.35.04-.51.06-.04-.06-.07-.09-.07-.12-.14-1.62-.72-2.37-2.33-2.58-1.16-.15-2.35-.03-3.55-.03v4.55c2.05.53,2.86-.05,3.15-2.28h.59v5.69c-.18.01-.36.02-.58.04-.04-.39-.06-.74-.11-1.09-.15-.99-.75-1.51-1.74-1.52q-1.32-.02-1.32,1.3c0,1.32,0,2.65,0,3.94Z"/>
  <path d="m174.31,124.8v.56c-.28,0-.55,0-.82,0-1.55,0-3.09,0-4.64,0-.39,0-.61-.08-.42-.57h1.13c-.52-1.04-.99-1.99-1.48-2.93-.05-.1-.28-.15-.43-.15-1.42,0-2.84,0-4.26.03-.17,0-.41.14-.49.29-.33.61-.62,1.23-.9,1.86-.3.68-.2.84.53.89.18.01.36.02.57.03.15.33.15.55-.31.54-1.04,0-2.07-.01-3.11,0-.42,0-.5-.17-.38-.56.14,0,.28-.03.42-.02.49,0,.8-.21,1.03-.66,1.76-3.51,3.54-7,5.3-10.5.14-.28.23-.52.65-.52.41,0,.48.25.61.5,1.82,3.51,3.65,7.02,5.45,10.55.24.48.5.77,1.06.66.14-.03.29,0,.49,0Zm-8.52-8.33c-.75,1.53-1.45,2.95-2.15,4.38h4.28c-.72-1.48-1.4-2.88-2.13-4.38Z"/>
  <path d="m95.99,124.8c0-1.22.01-2.38-.01-3.53,0-.18-.16-.36-.26-.53-1.27-2.08-2.56-4.14-3.81-6.23-.28-.46-.57-.71-1.12-.62-.19.03-.4,0-.65,0-.02-.18-.03-.33-.05-.52h6.41c.14.39.04.59-.4.56-.29-.02-.57,0-1,0,1.21,1.96,2.35,3.82,3.5,5.68.07-.03.13-.04.15-.07,1.04-1.51,2.1-3.01,3.12-4.54.5-.75.33-1-.59-1.03-.23,0-.46,0-.72,0v-.61h4.52c0,.17.02.33.02.51-.13.02-.23.06-.33.06-.79-.03-1.34.36-1.76.99-1.17,1.76-2.34,3.5-3.49,5.27-.17.25-.26.6-.27.9-.03,1.21-.01,2.42-.01,3.67h1.31c.08.3.21.59-.25.59-1.85,0-3.71,0-5.6,0-.02-.19-.04-.34-.06-.56h1.37Z"/>
  <path d="m155.47,113.97v-.61h4.53c0,.15.02.32.04.59-1.37-.25-1.92.69-2.52,1.62-1,1.56-2.07,3.07-3.08,4.63-.17.25-.27.6-.27.9-.03,1.2-.01,2.39-.01,3.65h1.35v.58h-5.91v-.54h1.35c0-1.21,0-2.36-.01-3.52,0-.16-.15-.32-.25-.48-1.27-2.08-2.56-4.14-3.8-6.23-.29-.5-.6-.78-1.19-.67-.17.03-.36,0-.58,0-.02-.18-.03-.33-.05-.53h6.42v.53c-.45.02-.89.04-1.42.07,1.19,1.93,2.34,3.79,3.53,5.73.29-.41.53-.74.76-1.08.84-1.23,1.69-2.45,2.51-3.7.42-.64.26-.9-.52-.94-.27-.01-.54,0-.86,0Z"/>
  <path d="m37.41,113.28v.57h-1.2v11.02h1.22c.02.31.11.57-.31.57-1.83,0-3.67,0-5.54,0-.01-.19-.02-.34-.04-.56h1.29v-11h-1.25v-.6h5.83Z"/>
  <path d="m142.36,125.36c-.95,0-1.81,0-2.68,0-1,0-2,.01-3-.01-.13,0-.26-.19-.39-.29.13-.09.25-.23.38-.24.34-.04.69-.01,1.09-.01v-10.87c-.34,0-.66-.01-.99,0-.42.02-.58-.12-.42-.57h5.97c0,.16.01.33.02.54-.43.02-.82.04-1.24.06v10.82h1.2c.02.18.03.34.06.59Z"/>
</svg>