<?xml version="1.0" encoding="UTF-8"?>
<svg id="Layer_1" data-name="Layer 1" xmlns="http://www.w3.org/2000/svg" viewBox="0 0 240 240">
  <path d="m49.23,111.67c0,.3,0,.6,0,.9,0,4.21,0,8.42,0,12.63,0,.26,0,.51.02.76.02.19-.04.24-.22.24-1.22,0-2.44,0-3.66,0-.36,0-.72,0-1.1,0v-1.23c-.09.05-.14.07-.17.11-.67.75-1.54,1.14-2.5,1.32-.73.13-1.47.24-2.21.22-1.47-.04-2.87-.37-4.08-1.26-1.16-.85-1.8-2.03-2.04-3.43-.12-.69-.17-1.39-.09-2.09.31-2.6,1.84-4.35,4.44-4.95.74-.17,1.49-.27,2.25-.22.92.06,1.83.15,2.69.51.54.23,1,.55,1.38.99.03.03.06.05.12.1.01-.08.02-.14.02-.19,0-1.43,0-2.86,0-4.29,0-.04,0-.07-.01-.11,1.72,0,3.44,0,5.17,0Zm-5.12,8.98h-.03c0-.13,0-.27,0-.4-.03-.75-.54-1.63-1.36-1.92-.65-.23-1.32-.29-1.99-.22-.59.06-1.13.26-1.57.68-.76.72-.87,1.62-.68,2.58.16.81.64,1.34,1.42,1.61.72.25,1.45.3,2.19.16.98-.18,1.69-.69,1.92-1.71.06-.25.07-.52.1-.78Z"/>
  <path d="m127.77,111.67c-.01.11-.03.21-.03.32,0,3.27.01,6.55.02,9.82,0,1.38,0,2.76,0,4.14,0,.19-.05.25-.24.25-1.56,0-3.12,0-4.68,0-.2,0-.27-.06-.27-.26,0-4.48,0-8.96.01-13.43,0-.28.02-.55.02-.83,1.72,0,3.44,0,5.17,0Z"/>
  <path d="m170.32,111.67c0,.56.01,1.12.02,1.68,0,.08,0,.16,0,.24.02.16-.04.23-.22.23-1.55,0-3.1-.01-4.65,0-.21,0-.28-.05-.27-.27.02-.53,0-1.06,0-1.6,0-.09.02-.19.03-.28,1.69,0,3.38,0,5.08,0Z"/>
  <path d="m89.7,126.17c0-.36,0-.69,0-1.03,0-1.63,0-3.25,0-4.88,0-.31-.01-.63-.06-.94-.11-.71-.37-.89-1.07-1.01-.38-.06-.76,0-1.12.16-.56.24-.82.69-.88,1.26-.03.37-.03.74-.03,1.11,0,1.69,0,3.39,0,5.08,0,.2-.05.26-.26.26-1.55,0-3.1,0-4.66,0-.07,0-.14,0-.24-.01,0-.12,0-.23,0-.34,0-3.56,0-7.12,0-10.68,0-.18.07-.2.22-.2,1.43,0,2.85,0,4.28,0,.48,0,.49,0,.5.49,0,.23-.02.47-.02.7,0,.1,0,.19,0,.29.02,0,.04.01.07.02.06-.06.13-.11.18-.17.85-.95,1.94-1.44,3.19-1.58.81-.09,1.63-.06,2.43.13.9.22,1.59.73,2.06,1.52.02.04.04.07.08.13.05-.04.11-.06.14-.1.79-1,1.85-1.48,3.1-1.65,1.03-.14,2.04-.07,3.02.24,1.34.43,2.1,1.39,2.31,2.77.05.34.09.69.09,1.04,0,2.39,0,4.77,0,7.16,0,.2-.06.26-.26.25-1.56,0-3.12,0-4.68,0-.19,0-.25-.05-.25-.24,0-2.03,0-4.06,0-6.08,0-.2-.02-.39-.06-.59-.12-.6-.5-.94-1.14-.96-.32,0-.65.04-.95.12-.61.16-.85.65-.96,1.22-.04.21-.05.43-.05.65,0,1.78,0,3.56,0,5.34,0,.17,0,.34,0,.53h-4.99Z"/>
  <path d="m158.15,116.21c0-.37,0-.71,0-1.04,0-.15.05-.21.2-.21,1.54,0,3.09,0,4.63,0,.14,0,.18.05.18.18,0,.42,0,.83,0,1.25,0,2.87,0,5.73,0,8.6,0,.56-.09,1.1-.3,1.62-.38.99-1.12,1.62-2.09,2.01-.9.36-1.84.53-2.8.64-1.31.15-2.63.11-3.94.08-1.46-.04-2.91-.22-4.3-.74-.97-.37-1.83-.91-2.36-1.84-.09-.16-.16-.34-.25-.53.06-.02.1-.03.13-.03,1.78,0,3.56,0,5.34.02.11,0,.22.07.33.12.18.09.35.21.54.28,1,.34,2.02.4,3.04.16,1.01-.24,1.48-.85,1.51-1.87,0-.11.02-.22.02-.33,0-.09-.02-.17-.03-.29-.09.04-.14.05-.17.08-.7.57-1.54.8-2.41.93-.62.09-1.24.18-1.86.17-1.2-.02-2.4-.13-3.55-.55-1.3-.48-2.37-1.24-2.88-2.56-.74-1.9-.67-3.75.6-5.43.68-.9,1.65-1.43,2.71-1.8,1.19-.41,2.42-.55,3.67-.47,1.19.07,2.34.33,3.36,1,.23.15.43.34.69.54Zm-3.15,1.71c-.4.06-.8.09-1.19.18-1.02.22-1.68.97-1.73,1.92-.05,1.09.48,1.87,1.53,2.2.93.29,1.87.26,2.8.01.66-.17,1.18-.55,1.44-1.21.14-.35.14-.72.12-1.09-.03-.66-.34-1.15-.9-1.49-.64-.39-1.35-.46-2.08-.51Z"/>
  <path d="m189.63,118.29c.3-1.51,1.07-2.63,2.59-3.15.9-.31,1.84-.45,2.78-.52.96-.07,1.92-.13,2.88-.12,1.33,0,2.66.11,3.96.42.65.16,1.26.4,1.8.79.78.55,1.2,1.33,1.3,2.25.1.85.12,1.71.14,2.57.02,1.42.01,2.85,0,4.27,0,.41.1.78.28,1.13.03.07.06.14.11.24-.09,0-.16.02-.22.02-1.59,0-3.18,0-4.77,0-.27,0-.29-.03-.31-.3-.02-.26-.06-.52-.11-.84-.47.4-.94.7-1.46.9-.74.29-1.51.47-2.3.54-.7.07-1.41.13-2.11.12-.98,0-1.95-.1-2.89-.38-1.06-.31-1.9-.89-2.3-1.96-.28-.76-.37-1.55-.13-2.36.27-.92.88-1.53,1.74-1.92.82-.36,1.69-.55,2.58-.62.81-.06,1.63-.09,2.44-.13,1.06-.06,2.11-.11,3.17-.18.18-.01.36-.07.52-.15.62-.31.67-1.13.06-1.46-.37-.2-.81-.33-1.23-.36-.76-.06-1.54-.1-2.29.15-.49.16-.86.43-1.04.93-.03.07-.15.15-.22.15-1.64,0-3.28-.02-4.92-.04,0,0-.01,0-.04-.02Zm6.55,5.68c.6-.06,1.1-.08,1.58-.18,1.3-.27,2.2-.96,2.16-2.38-.01-.34,0-.34-.35-.31-.07,0-.15,0-.22.02-.71.08-1.41.17-2.12.25-.67.08-1.34.12-2.01.22-.51.07-.87.44-.9.83-.05.69.16,1.11.72,1.29.4.13.82.19,1.14.25Z"/>
  <path d="m105.16,118.3c.03-.14.04-.27.08-.39.39-1.48,1.3-2.45,2.81-2.88.99-.28,2-.41,3.01-.47.9-.05,1.81-.1,2.71-.08,1.42.03,2.83.15,4.19.6,1.32.43,2.21,1.29,2.46,2.68.1.55.12,1.12.12,1.67.02,1.43,0,2.86.01,4.29,0,.41-.01.84.05,1.24.07.4.22.79.35,1.2-.03,0-.09.01-.15.01-1.6,0-3.19,0-4.79,0-.18,0-.25-.06-.28-.22-.05-.29-.11-.58-.17-.89-.04.01-.09.01-.11.04-.72.67-1.6,1-2.53,1.19-1.41.29-2.83.39-4.27.24-.75-.08-1.48-.2-2.19-.45-1.4-.5-2.15-1.57-2.18-3.04-.01-.68.06-1.32.44-1.91.46-.73,1.16-1.14,1.96-1.37.67-.19,1.37-.33,2.07-.39,1.12-.11,2.24-.13,3.37-.19.73-.04,1.47-.08,2.2-.13.09,0,.19-.03.28-.05.45-.11.64-.32.69-.74.04-.39-.13-.74-.52-.88-.42-.15-.86-.27-1.3-.31-.65-.05-1.3-.04-1.95.1-.57.12-.98.42-1.19.96-.05.13-.12.18-.26.18-.43-.01-.87-.02-1.3-.02-1.14,0-2.28,0-3.42,0-.05,0-.1,0-.18,0Zm6.83,5.64c.15-.01.39-.03.63-.05.54-.05,1.07-.15,1.57-.39.59-.28,1.01-.71,1.15-1.35.07-.28.05-.58.08-.87.02-.18-.05-.22-.23-.2-.81.11-1.63.2-2.45.29-.61.07-1.21.1-1.82.18-.44.06-.85.21-1.04.67-.23.58.02,1.18.59,1.45.45.21.93.26,1.51.27Z"/>
  <path d="m129.19,120.57c-.04-.78.06-1.54.31-2.28.4-1.21,1.17-2.1,2.3-2.71.76-.41,1.59-.64,2.43-.8,1.22-.23,2.46-.34,3.7-.3,1.6.06,3.2.21,4.7.82,1.49.6,2.53,1.63,2.96,3.21.38,1.43.39,2.85-.05,4.26-.43,1.39-1.36,2.33-2.66,2.92-1.05.47-2.16.68-3.3.8-1.07.11-2.14.17-3.21.08-1.56-.12-3.11-.3-4.53-1.04-1.27-.66-2.06-1.67-2.43-3.03-.17-.64-.25-1.29-.21-1.94Zm11.36-.02s-.03,0-.04-.01c-.02-.24-.02-.48-.07-.72-.18-.87-.63-1.54-1.52-1.82-.93-.29-1.88-.32-2.81,0-.64.22-1.12.63-1.36,1.28-.25.67-.23,1.35-.13,2.05.14.95.69,1.55,1.61,1.82.78.23,1.59.25,2.38.07.8-.18,1.44-.62,1.69-1.43.12-.4.17-.82.25-1.23Z"/>
  <path d="m55.91,121.77c.11.71.45,1.23,1.05,1.53,1.36.69,2.76.71,4.16.08.19-.08.33-.26.5-.38.09-.07.21-.15.31-.15,1.71-.01,3.43,0,5.14,0,.04,0,.07.01.14.02-.04.13-.07.24-.13.35-.57,1.22-1.54,2.01-2.77,2.53-1.02.43-2.09.67-3.19.76-.72.06-1.45.13-2.18.12-1.45-.03-2.88-.18-4.27-.64-1.18-.39-2.2-1-2.96-2-.47-.62-.76-1.33-.91-2.09-.34-1.82-.11-3.53,1.12-5,.71-.84,1.63-1.37,2.65-1.74.9-.32,1.84-.47,2.79-.58.96-.12,1.92-.08,2.88,0,1.23.11,2.45.33,3.58.85,1.71.79,2.8,2.11,3.21,3.95.11.51.16,1.03.23,1.55.03.22.03.44.04.65,0,.1-.02.18-.16.18-1.26,0-2.52,0-3.77,0-2.36,0-4.72,0-7.08,0-.12,0-.24.02-.39.03Zm3.11-2.56h0c.92,0,1.84,0,2.76,0,.38,0,.41-.04.29-.39,0-.03-.02-.05-.03-.08-.26-.7-.8-1.11-1.48-1.33-.93-.3-1.88-.28-2.83-.09-.91.19-1.52.72-1.75,1.64-.06.25-.07.25.2.25.95,0,1.9,0,2.84,0Z"/>
  <path d="m188.14,119.45c-.16,0-.25,0-.35,0-1.6,0-3.21,0-4.81,0-.13,0-.24,0-.26-.18-.14-.89-.78-1.3-1.58-1.47-.85-.19-1.72-.18-2.57.06-.98.27-1.66,1.09-1.77,2.1-.06.55-.05,1.09.14,1.62.34.96,1.06,1.46,2.02,1.65.63.13,1.27.14,1.9,0,.91-.19,1.57-.68,1.82-1.6.05-.18.17-.16.28-.16,1.48,0,2.96,0,4.44,0,.23,0,.47,0,.73,0-.1.64-.23,1.24-.49,1.82-.78,1.71-2.21,2.56-3.98,2.94-.74.16-1.51.22-2.26.32-1.26.16-2.51.08-3.76-.05-1.07-.11-2.12-.35-3.1-.79-1.65-.75-2.71-1.98-3.03-3.79-.21-1.19-.19-2.37.2-3.52.49-1.44,1.51-2.4,2.9-2.99,1.05-.44,2.15-.69,3.28-.79.8-.07,1.61-.14,2.42-.12,1.52.05,3.03.2,4.48.73.77.28,1.42.72,1.99,1.29.61.62.96,1.37,1.17,2.19.06.23.11.46.18.74Z"/>
  <path d="m68.8,126.17c0-.08,0-.16,0-.24,0-3.57,0-7.14,0-10.7,0-.21.05-.28.27-.27,1.5,0,3,0,4.5,0,.2,0,.25.06.24.25-.02.54-.02,1.08-.03,1.62,0,.08.02.16.04.24.03.02.07.04.1.06.04-.07.06-.15.11-.21.57-.71,1.26-1.29,2.08-1.69,1.03-.5,2.13-.64,3.26-.55.22.02.44.04.66.06.33.03.33.03.33.37,0,1.28,0,2.55,0,3.83,0,.12,0,.24,0,.39-.4-.08-.77-.16-1.14-.24-1.16-.24-2.33-.25-3.45.16-1.06.39-1.66,1.16-1.77,2.29-.03.3-.04.61-.04.92,0,1.19,0,2.38,0,3.57,0,.13-.04.17-.16.17-1.63,0-3.25,0-4.88,0-.03,0-.06,0-.11-.02Z"/>
  <path d="m165.23,126.19v-11.22c.08,0,.15,0,.22,0,1.58,0,3.16,0,4.74-.02.18,0,.17.09.17.21,0,.69,0,1.37,0,2.06,0,2.9,0,5.81.01,8.71,0,.23-.07.28-.28.28-1.53,0-3.06,0-4.59,0-.08,0-.16,0-.26,0Z"/>
</svg>