<?xml version="1.0" encoding="UTF-8"?>
<svg id="Layer_1" data-name="Layer 1" xmlns="http://www.w3.org/2000/svg" viewBox="0 0 240 240">
  <path d="m159.68,113.44h2.59c0,.28.01.55,0,.82-.07,1.44.63,2.46,1.75,3.24.95.66,2.03,1.03,3.19,1.03,1.31,0,2.62,0,3.91-.16,1.12-.14,2.1-.71,2.87-1.57,1.38-1.54,1.3-3.55-.2-4.97-1.16-1.09-2.58-1.48-4.13-1.56-1.24-.06-2.49-.09-3.71-.3-3.21-.57-5.74-3.6-5.61-6.63.08-1.9,1.04-3.35,2.48-4.5,3.26-2.59,8.78-2.46,11.92.27,1.49,1.3,2.28,3.14,2.14,5.17-.76,0-1.54.02-2.31-.02-.12,0-.29-.24-.32-.39-.52-2.83-2.29-4.3-5.2-4.36-1.95-.04-3.73.31-5.13,1.82-1.17,1.26-1.2,3.31-.05,4.6,1.15,1.29,2.62,1.8,4.31,1.87,1.24.05,2.49.08,3.71.27,1.57.24,2.92,1.01,4.01,2.18,2.91,3.15,2.03,7.63-1.88,9.73-1.23.66-2.55,1.03-3.95,1.05-2.07.04-4.13.12-6.13-.68-2.92-1.18-4.65-3.88-4.28-6.91Z"/>
  <path d="m62.14,97.07h16.2v2.43h-13.61v8.29h9.9v2.47h-9.9c-.02.27-.05.48-.05.69,0,2.31.02,4.63-.01,6.94,0,.57.19.68.72.68,4.04-.02,8.08-.01,12.12-.01.26,0,.52,0,.83,0v2.43h-16.18v-23.92Z"/>
  <path d="m105.83,118.61v2.4h-16.24v-23.92h2.44c.02.28.05.58.05.87,0,6.55,0,13.1,0,19.65,0,1.13-.09.99.97,1,3.97,0,7.95,0,11.92,0h.86Z"/>
  <path d="m117.08,97.07h2.5c0,.31,0,.58,0,.85,0,6.61,0,13.22,0,19.84q0,.85.86.85c3.99,0,7.99,0,11.98,0,.28,0,.56,0,.93,0,0,.75.01,1.44-.01,2.13,0,.11-.19.24-.32.3-.11.05-.26.02-.39.02-4.95,0-9.91,0-14.86,0-.21,0-.43-.02-.69-.03v-23.95Z"/>
  <path d="m147.61,120.97h-2.45v-23.88h2.45v23.88Z"/>
  <path d="m68.07,134.26c1.39,1.17,1.8,2.42,1.23,3.73-.43.99-1.19,1.6-2.27,1.76-.24.04-.48.03-.72.03-1.35,0-2.7,0-4.11,0v-10.66c.71,0,1.45,0,2.18,0,.52,0,1.05.01,1.57,0,1.24-.03,2.16.51,2.72,1.6.57,1.11.41,2.2-.34,3.2-.08.1-.15.21-.25.34Zm-4.81,4.42c1.23,0,2.43.06,3.61-.02.89-.06,1.53-.87,1.57-1.74.04-.82-.49-1.72-1.31-1.8-1.28-.12-2.58-.03-3.88-.03v3.59Zm0-8.49v3.68c1,0,1.96.03,2.91,0,.99-.04,1.75-.88,1.74-1.85,0-.94-.75-1.77-1.72-1.81-.95-.05-1.91,0-2.94,0Z"/>
  <path d="m76.75,129.14c1.57,0,3.1-.06,4.62.02,1.34.07,2.42,1.35,2.5,2.77.08,1.36-.91,2.7-2.28,2.96-.73.14-1.49.13-2.37.19,1.75,1.56,3.42,3.05,5.21,4.64-.83.05-1.47.18-2.09-.41-1.28-1.22-2.62-2.37-3.94-3.55-.14-.13-.3-.24-.58-.47,0,.85,0,1.56,0,2.27,0,.44,0,.87,0,1.31q0,.96-1.06.83v-10.58Zm1.12,1.06v3.69c1.05,0,2.05.02,3.05,0,1.04-.02,1.79-.76,1.83-1.75.03-1.03-.67-1.86-1.74-1.92-1.02-.05-2.05-.01-3.14-.01Z"/>
  <path d="m177.6,139.71c-.59.18-.92-.03-1.24-.45-1.88-2.44-3.78-4.86-5.67-7.29-.15-.2-.32-.39-.62-.52v8.27h-1.05v-10.52c.57-.2.92,0,1.25.44,1.87,2.44,3.77,4.86,5.66,7.29.15.2.32.38.61.52v-8.26h1.04v10.53Z"/>
  <path d="m90.53,134.42c0-2.95,2.34-5.3,5.27-5.3,2.93,0,5.28,2.35,5.28,5.29,0,2.95-2.36,5.32-5.27,5.32-2.91,0-5.29-2.39-5.28-5.31Zm1.07.03c0,2.31,1.91,4.21,4.21,4.23,2.28.02,4.23-1.94,4.22-4.23-.01-2.35-1.93-4.27-4.25-4.26-2.3.02-4.19,1.94-4.18,4.26Z"/>
  <path d="m113.55,129.12c2.93.01,5.28,2.37,5.28,5.3,0,2.91-2.39,5.31-5.29,5.3-2.91,0-5.28-2.4-5.28-5.32,0-2.94,2.37-5.3,5.29-5.29Zm4.22,5.36c.02-2.31-1.85-4.24-4.16-4.29-2.3-.05-4.28,1.9-4.29,4.22,0,2.32,1.92,4.25,4.26,4.26,2.24,0,4.16-1.92,4.19-4.19Z"/>
  <path d="m126.07,129.15h.98v4.52c.31-.28.46-.41.61-.56,1.1-1.09,2.23-2.15,3.27-3.3.59-.66,1.23-.81,2.17-.6-1.65,1.54-3.24,3.04-4.98,4.67,2.13,2.03,4.04,3.85,5.96,5.68-.84.27-1.45.27-2.04-.36-1.43-1.5-2.95-2.91-4.47-4.39-.36.17-.51.49-.5.96.02,1.18,0,2.36.01,3.54,0,.38-.17.48-.52.48-.35,0-.57-.05-.57-.49.01-3.3.01-6.59.01-9.89,0-.06.03-.12.07-.26Z"/>
  <path d="m161.71,129.2c-.8,1.1-1.49,2.23-2.35,3.19-1.3,1.45-1.89,3.06-1.62,5,.08.58,0,1.18.02,1.76.01.41-.06.64-.56.64-.48,0-.52-.24-.52-.62.01-1.29.03-2.57-.01-3.86-.02-.4-.15-.86-.38-1.19-1.01-1.45-2.07-2.87-3.11-4.29-.14-.19-.27-.39-.41-.59.98-.27,1.17-.21,1.72.54.88,1.21,1.77,2.43,2.71,3.71.18-.21.32-.36.44-.53.73-1,1.51-1.98,2.17-3.03.45-.72.98-.98,1.91-.74Z"/>
  <path d="m141.45,129.16h1.01v.8c0,2.68.01,5.37-.01,8.05,0,.54.15.71.7.7,1.72-.03,3.44-.01,5.21-.01v1.07c-.47,0-.92,0-1.37,0-1.68,0-3.36,0-5.04,0-.35,0-.57-.05-.57-.49.01-3.3.01-6.59.02-9.89,0-.06.03-.12.06-.25Z"/>
</svg>