<?xml version="1.0" encoding="UTF-8"?>
<svg id="Layer_1" data-name="Layer 1" xmlns="http://www.w3.org/2000/svg" viewBox="0 0 240 240">
  <path d="m141.75,106.26c-.06.15-.14.3-.19.45-1.87,4.93-3.73,9.85-5.59,14.78-.12.32-.31.63-.36.96-.08.53-.37.63-.84.59-.53-.05-1.18.14-1.55-.11-.37-.25-.46-.92-.64-1.41-1.59-4.33-3.16-8.67-4.75-13-.29-.8-.62-1.58-1.02-2.36-.01.07-.03.13-.03.2,0,3.9,0,7.81.01,11.71,0,.34.02.69.07,1.03.1.72.48,1.08,1.21,1.12.57.03,1.15,0,1.76,0v2.78h-9.49c0-.6,0-1.22,0-1.83,0-.93,0-.92.92-.94.48-.01.97-.02,1.44-.12.5-.11.8-.48.81-1.01.02-.75.01-1.5.01-2.24.01-3.81.02-7.62.05-11.43.01-1.61-.33-1.99-1.95-2.02-.08,0-.16,0-.23,0-1.02,0-1.06.19-1.05-1.08,0-.54,0-1.09,0-1.69.19,0,.37-.02.55-.02,2.95-.01,5.9-.02,8.85-.04.39,0,.61.11.75.51,1.22,3.32,2.47,6.63,3.71,9.94.34.92.66,1.85.98,2.77.06.16.12.31.24.59.28-.8.5-1.47.75-2.13.94-2.49,1.9-4.98,2.83-7.47.48-1.27.91-2.55,1.4-3.82.06-.15.3-.33.46-.33,2.15-.03,4.31-.04,6.46-.05.78,0,1.56.02,2.34,0,.35,0,.5.09.48.48-.03.59,0,1.19,0,1.78,0,.53-.05.58-.6.56-.41-.01-.81-.05-1.22-.04-.96.02-1.42.46-1.42,1.42,0,4.72,0,9.43.02,14.15,0,.87.49,1.31,1.4,1.33.55.01,1.09.01,1.64.02.03,0,.06.02.1.04v2.66c-.12.01-.21.03-.3.03-3.54,0-7.09,0-10.63.04-.47,0-.59-.14-.56-.59.04-.56.02-1.12,0-1.69-.02-.4.12-.57.54-.54.39.03.78,0,1.17,0,1.09-.03,1.57-.51,1.57-1.59,0-2.64,0-5.28,0-7.92,0-1.48,0-2.96,0-4.45-.04,0-.08-.02-.12-.03Z"/>
  <path d="m94.47,123.04h-11.49v-2.8c.62,0,1.19.02,1.77,0,.91-.04,1.36-.46,1.36-1.37.03-3.29.03-6.59.04-9.88,0-.87,0-1.74,0-2.75-.11.21-.19.33-.24.45-.85,2.2-1.69,4.39-2.53,6.59-1.12,2.93-2.22,5.86-3.34,8.78-.37.98-.39.97-1.43.99q-1.16.02-1.55-1.03c-1.86-5.06-3.71-10.12-5.57-15.18-.09-.25-.22-.49-.43-.7,0,.72,0,1.45,0,2.17,0,3.25-.01,6.49-.01,9.74,0,.34.02.69.07,1.03.12.77.49,1.11,1.28,1.17.45.03.91.06,1.36.04.34-.01.43.13.43.44,0,.67-.01,1.34,0,2.01,0,.3-.15.32-.38.32-2.28,0-4.56,0-6.84,0-.75,0-1.5,0-2.28,0v-2.74c.11-.01.23-.04.35-.04.41-.01.81-.01,1.22-.03,1.19-.04,1.62-.44,1.62-1.63.02-4.43.02-8.87,0-13.3,0-1.54-.37-1.87-1.93-1.92-.33,0-.66.01-.98-.03-.12-.01-.3-.17-.3-.27-.02-.79-.01-1.59-.01-2.48.43,0,.83,0,1.23,0,2.72,0,5.43.01,8.15,0,.46,0,.65.11.82.58.75,2.13,1.55,4.24,2.34,6.36.81,2.17,1.63,4.35,2.45,6.52.02.05.04.1.12.26.14-.35.25-.6.34-.85,1.32-3.51,2.64-7.03,3.96-10.55.23-.61.45-1.23.62-1.86.09-.33.27-.47.59-.47.52,0,1.03,0,1.55,0,2.53,0,5.05,0,7.64,0,0,.9,0,1.75-.01,2.6,0,.08-.21.2-.32.21-.56.03-1.12,0-1.68.04-.71.04-.98.27-1.11.96-.04.23-.06.46-.06.7,0,4.51,0,9.02,0,13.54,0,1.1.44,1.56,1.55,1.61.44.02.87.03,1.31.03.24,0,.35.07.35.31,0,.25,0,.5,0,.75,0,.56,0,1.12,0,1.71Z"/>
  <path d="m114.89,113.42h2.79c0,.2,0,.38,0,.56-.05,2.68-.11,5.37-.15,8.05-.01,1.01,0,1.01-1.02,1.01-6.42,0-12.83,0-19.25.01-.46,0-.68-.05-.61-.6.07-.6.03-1.22.02-1.82,0-.31.13-.39.42-.39.65,0,1.31,0,1.96-.09.67-.1.84-.38.84-1.07,0-.47,0-.94,0-1.41,0-4.15,0-8.31,0-12.46,0-1.33-.43-1.76-1.76-1.79-.34,0-.69-.01-1.03,0-.33,0-.47-.11-.45-.47.03-.75,0-1.5,0-2.29h20.83c0,.2.02.36.02.53,0,2.54-.02,5.09,0,7.63,0,.42-.1.59-.54.57-.54-.03-1.09-.02-1.64.01-.34.02-.48-.11-.51-.44-.06-.67-.13-1.34-.2-2-.1-.97-.48-1.84-1.11-2.58-.49-.58-1.18-.79-1.88-.81-2.17-.04-4.34-.02-6.51-.02-.03,0-.06.02-.12.05v6.42c1.12-.01,2.22.11,3.31-.19.61-.17.89-.64.96-1.2.08-.66.1-1.34.1-2,0-.33.1-.46.42-.45.64.01,1.28.02,1.92,0,.32,0,.39.12.39.42,0,1.53,0,3.06,0,4.59,0,1.76,0,3.53-.01,5.29,0,.15-.01.3-.02.44-.78,0-1.51-.01-2.24,0-.34,0-.46-.09-.46-.45,0-.65,0-1.31-.1-1.96-.15-.97-.67-1.42-1.65-1.47-.78-.05-1.56-.03-2.34,0-.11,0-.3.18-.3.28,0,2.25,0,4.49.01,6.74,0,.01.02.02.08.1h.45c1.75,0,3.5,0,5.25,0,1.74,0,3.03-.94,3.6-2.59.42-1.21.42-2.48.53-3.74,0-.12.02-.24.03-.39Z"/>
  <path d="m163.87,123.74c-3.48-.04-6.54-1.04-8.82-3.84-1.29-1.58-1.95-3.42-2.31-5.4-.55-3.07-.23-6.03,1.12-8.85,1.57-3.27,4.26-5,7.76-5.56,2.33-.37,4.64-.23,6.86.65,2.94,1.16,4.89,3.28,5.88,6.26,1.14,3.43,1.18,6.88-.21,10.25-1.65,4.01-4.73,6.1-9.03,6.43-.33.03-.65.04-.98.06-.09,0-.19,0-.28,0Zm5.72-12.54c-.02-2.09-.39-4.08-1.46-5.93-1.84-3.17-6.78-3.41-8.62-.09-.38.69-.73,1.42-.97,2.17-.7,2.23-.68,4.52-.44,6.82.16,1.53.61,2.96,1.38,4.28.76,1.3,1.88,2.14,3.38,2.34,2.76.35,4.75-.87,5.82-3.44.82-1.98.91-4.06.92-6.15Z"/>
  <path d="m123.18,135.22c.67.93,1.31,1.82,2.01,2.79-.5,0-.89.03-1.28-.02-.15-.02-.32-.18-.42-.32-.47-.64-.9-1.31-1.39-1.94-.13-.16-.39-.26-.6-.31-.21-.05-.43.01-.65.01-.62,0-.63,0-.63.65,0,.62,0,1.24,0,1.92-.39,0-.74.05-1.05-.02-.13-.03-.28-.34-.28-.52-.02-1.5,0-2.99,0-4.49,0-.7,0-1.4.03-2.1,0-.13.18-.36.27-.36,1.22,0,2.43,0,3.64.09,1.21.1,2.01.91,2.17,2.03.15,1.03-.41,1.94-1.5,2.44-.07.03-.14.06-.3.14Zm-3-1.01c.77,0,1.53.03,2.28,0,.72-.04,1.12-.43,1.15-1.05.03-.63-.41-1.31-1.03-1.36-.78-.07-1.58-.02-2.4-.02v2.44Z"/>
  <path d="m101.29,135.62c0,.71-.01,1.35,0,1.99.01.32-.09.44-.42.43-.89-.01-.89,0-.89-.88,0-2.07,0-4.15,0-6.22,0-.21-.03-.42.28-.41,1.09.04,2.19,0,3.27.12,1.41.15,2.2,1.07,2.25,2.43.04,1.16-.81,2.18-2.1,2.43-.5.1-1.02.09-1.53.12-.26.02-.52,0-.85,0Zm-.02-1.26c.71,0,1.35.05,1.98-.01.68-.07,1.11-.57,1.14-1.16.04-.72-.26-1.18-1.02-1.33-.6-.12-1.23-.09-1.85-.09-.08,0-.23.2-.23.3-.02.76-.01,1.52-.01,2.29Z"/>
  <path d="m115.53,138.02c-.38,0-.69.03-1-.01-.15-.02-.33-.17-.4-.31-.19-.36-.3-.76-.49-1.11-.09-.15-.3-.32-.47-.33-1-.03-2-.03-3,0-.14,0-.31.14-.4.27-.12.16-.16.37-.24.55-.51,1.05-.18.98-1.64.9.03-.12.04-.24.09-.34.98-2.26,1.97-4.51,2.94-6.77.11-.25.22-.44.54-.4.37.04.78-.1,1,.4.99,2.3,2,4.6,2.99,6.9.02.05.03.11.07.26Zm-5.16-3.01h2.61c-.42-.99-.81-1.91-1.2-2.82-.05-.01-.1-.03-.16-.04-.41.93-.82,1.87-1.26,2.86Z"/>
  <path d="m134.85,136.06c.37.22.7.44,1.06.62.6.29,1.25.38,1.91.25.46-.09.72-.38.75-.84.03-.42-.14-.76-.59-.89-.63-.18-1.25-.37-1.87-.57-1.36-.42-1.9-1.21-1.64-2.55.16-.82,1-1.47,1.99-1.6.96-.13,1.85.11,2.7.57.36.2.47.43.17.76-.14.16-.26.34-.32.41-.71-.22-1.32-.42-1.95-.59-.17-.05-.37-.02-.56,0-.44.07-.77.28-.83.76-.05.46.18.79.61.94.47.17.96.28,1.43.44.35.12.7.27,1.04.41,1.61.65,1.24,2.75.2,3.45-1.35.9-3.66.37-4.63-.54-.18-.17-.17-.31,0-.47.17-.17.34-.36.53-.57Z"/>
  <path d="m130.33,138.02h-1.18c-.02-.13-.04-.25-.04-.37,0-2.17,0-4.34,0-6.5,0-.2.07-.54.16-.56.33-.06.68-.03,1.01,0,.04,0,.1.18.1.28,0,2.35,0,4.71,0,7.06,0,.01-.02.02-.06.09Z"/>
</svg>