<?xml version="1.0" encoding="UTF-8"?>
<svg id="Layer_1" data-name="Layer 1" xmlns="http://www.w3.org/2000/svg" viewBox="0 0 240 240">
  <path d="m97.38,148.55c5.89-7.71,11.69-15.3,17.48-22.9-.01-.02-.03-.04-.04-.06-.52.37-1.02.77-1.56,1.11-2.05,1.27-4.11,2.53-6.18,3.76-.5.3-1.06.5-1.62.66-.49.14-.84.41-1.18.77-1.85,1.98-3.86,3.76-6.31,4.97-1.49.74-3.05,1.18-4.75.94-2.28-.33-3.66-1.88-3.72-4.19,0-.27,0-.55,0-.92-.2.17-.35.29-.5.42-1.65,1.39-3.32,2.75-5.23,3.79-.95.51-1.93.94-3.02,1.01-1.86.12-2.88-1.04-2.5-2.86.23-1.1.79-2.06,1.46-2.95,1.78-2.37,3.57-4.74,5.34-7.12.35-.47.67-.98.89-1.51.45-1.08,0-1.66-1.13-1.4-.88.21-1.76.49-2.58.88-2.69,1.27-4.78,3.31-6.78,5.44-2.51,2.68-4.73,5.58-6.79,8.61-.19.28-.38.38-.71.38-1.32-.02-2.65,0-4.12,0,3.15-3.83,6.23-7.57,9.3-11.3-.02-.02-.03-.05-.05-.07-.11.06-.22.12-.33.17-1.98,1.06-3.96,2.11-5.93,3.18-.21.11-.4.27-.55.45-2.85,3.23-6.16,5.83-10.23,7.37-2.37.89-4.81,1.3-7.31.73-3.57-.82-5.54-3.31-5.66-6.99-.1-3.09.81-5.93,2.13-8.65.6-1.24,1.33-2.42,2-3.62.1-.18.21-.35.38-.63-.29,0-.48,0-.67,0-3.12-.03-6.16-.49-9.02-1.78-2.31-1.04-4.28-2.53-5.25-4.96-1.38-3.46-.78-6.71,1.41-9.66,1.87-2.52,4.43-4.17,7.24-5.46,3.41-1.57,7.01-2.47,10.71-3.01,4.3-.63,8.6-.64,12.91-.18.06,0,.12.03.23.06-.23.43-.44.68-1,.62-2.67-.29-5.34-.24-8.01-.04-3.52.27-6.98.88-10.35,1.94-3.05.96-5.92,2.26-8.36,4.39-2.99,2.6-4.18,6.53-3.03,10.05.84,2.57,2.69,4.21,5.05,5.32,2.66,1.24,5.49,1.68,8.41,1.55.44-.02.71-.2.97-.55,4.61-6.14,9.99-11.47,16.46-15.65,3.99-2.57,8.2-4.7,12.84-5.86,1.28-.32,2.61-.49,3.92-.65.64-.08,1.31,0,1.96.09,1.52.22,2.39,1.43,2.23,3.02-.13,1.29-.67,2.42-1.36,3.49-1.6,2.48-3.69,4.51-6.01,6.29-6.64,5.1-14.18,8.18-22.31,9.93-1.2.26-2.41.41-3.61.66-.29.06-.61.25-.79.47-2.44,3.09-4.54,6.38-5.91,10.09-.44,1.2-.78,2.43-.82,3.72-.09,2.66,1.24,4.14,3.9,4.34,2.3.17,4.47-.35,6.53-1.27,4.57-2.04,8.15-5.2,10.52-9.65.61-1.15,1.09-2.35,1.27-3.65.02-.14.03-.27.05-.41.16-2.12-1.25-2.81-2.84-2.7-1.67.11-3.19.71-4.64,1.5-3.34,1.84-6.19,4.25-8.33,7.45-.1.14-.21.28-.27.44-.2.53-.57.68-1.16.5.14-.27.26-.55.41-.81,2.72-4.49,6.4-7.88,11.34-9.79,1.3-.5,2.66-.76,4.06-.51,2.13.39,3.45,1.88,3.56,4.03.11,2.07-.58,3.94-1.56,5.72-.08.15-.17.3-.25.45,0,0,.01.03.04.1.59-.31,1.19-.6,1.76-.94,1.71-1,3.42-2.01,5.12-3.03.26-.15.47-.4.66-.64,4-5.13,8.01-10.26,12.44-15.03,2.14-2.3,4.34-4.55,6.82-6.48,1.19-.92,2.42-1.79,3.94-2.1,1.31-.27,2,.34,1.92,1.67-.07,1.22-.54,2.31-1.09,3.37-1.77,3.37-4.25,6.15-7.13,8.59-3.18,2.69-6.59,5.07-10.07,7.36-.63.42-1.32.77-1.9,1.25-.56.46-1.01,1.05-1.45,1.63,1.06-.52,2.09-1.09,3.17-1.55,1.58-.68,3.2-1.18,4.96-.96,1.59.2,2.44,1.3,1.99,2.84-.29.98-.72,1.96-1.31,2.79-1.41,2-2.95,3.91-4.41,5.88-.6.81-1.16,1.66-1.7,2.53-.23.37-.46.85-.08,1.25.41.43.91.19,1.28-.06,1.4-.95,2.8-1.89,4.12-2.94,1.56-1.25,2.97-2.66,4.27-4.21,1.84-2.18,3.89-4.16,6.27-5.77,1.56-1.05,3.21-1.92,5.08-2.21.85-.13,1.77-.18,2.61-.02,2.15.42,3.25,2.34,2.74,4.62-.15.68-.39,1.36-.67,2-.27.63-.64,1.21-1.03,1.92.49-.25.92-.44,1.32-.68,5.66-3.33,10.57-7.55,14.85-12.53.96-1.11,1.83-2.29,2.75-3.43.1-.13.25-.3.38-.3,1.03-.02,2.06-.01,3.2-.01-3.07,4.03-6.06,7.97-9.06,11.9.02.03.04.06.07.09.31-.22.62-.44.93-.65,1.68-1.13,3.37-2.22,5.31-2.85.75-.24,1.51-.36,2.28-.07.89.34,1.36,1.06,1.07,1.95-.28.84-.64,1.69-1.14,2.41-1.63,2.37-3.36,4.68-5.02,7.03-.58.81-1.11,1.66-1.61,2.53-.23.4-.55.92-.17,1.35.38.43.89.09,1.3-.07,2.36-.98,4.46-2.4,6.44-4,.78-.63,1.47-1.41,2.09-2.2,2.42-3.09,5.17-5.79,8.63-7.7,1.58-.88,3.25-1.54,5.11-1.48,1.45.05,2.68.57,3.35,1.95.24.5.32,1.08.48,1.67.19-.26.4-.53.6-.81.45-.63.89-1.27,1.36-1.89.1-.14.28-.29.43-.3,1.01-.03,2.03-.01,3.17-.01-.27.37-.48.65-.69.93-2.39,3.19-4.79,6.37-7.15,9.59-.66.9-1.19,1.89-1.74,2.87-.19.34-.3.74-.34,1.13-.09.69.25.98.93.8.43-.11.85-.29,1.24-.51,2.12-1.2,3.94-2.79,5.69-4.46,2.19-2.09,4.23-4.32,5.86-6.88.44-.69.8-1.44,1.21-2.19-1.07-.59-1.1-1.5-.86-2.43.39-1.47,1.22-2.55,2.81-2.83.88-.16,1.51.2,1.61,1.09.08.74-.06,1.5-.12,2.25-.01.18-.1.36-.16.59.75.06,1.46.09,2.17.16,1.72.17,2.25,1.04,1.39,2.51-.87,1.5-1.96,2.88-2.91,4.34-1.32,2.04-2.62,4.09-3.89,6.16-.23.37-.34.83-.42,1.27-.09.51.16.82.66.72.7-.13,1.43-.3,2.05-.65,2.82-1.58,5.37-3.51,7.59-5.86,1.28-1.35,2.42-2.84,3.71-4.17,1.56-1.62,3.31-3.04,5.34-4.04,1.49-.73,3.03-1.23,4.74-.82,1.82.44,2.69,1.46,2.8,3.34,0,.06.02.13.04.3.26-.34.47-.6.66-.88,5.56-7.69,11.12-15.38,16.67-23.07.24-.34.53-.65.72-1.01.34-.68.86-.88,1.59-.81.7.07,1.41.01,2.2.01-.14.22-.23.38-.33.52-6.4,8.97-12.82,17.94-19.21,26.93-1.66,2.33-3.23,4.72-4.81,7.12-.39.6-.67,1.29-.92,1.96-.11.29-.14.81.02.94.21.18.73.21.99.07,1.13-.61,2.29-1.22,3.3-2,2.6-1.98,4.93-4.27,6.99-6.81.42-.52.85-.51,1.43-.4-.09.14-.13.25-.21.33-2.54,3.02-5.23,5.88-8.42,8.23-1.31.96-2.7,1.81-4.32,2.14-.53.11-1.1.11-1.64.07-.87-.08-1.37-.54-1.55-1.41-.1-.48-.1-.99-.15-1.53-.46.31-.93.63-1.42.93-1.63,1-3.31,1.88-5.25,2.04-2.61.21-4.29-1.44-4.17-4.06.01-.22.03-.44.06-.75-.15.09-.26.15-.36.22-2.13,1.57-4.31,3.07-6.8,4-.9.34-1.9.54-2.86.56-1.71.03-2.65-1.22-2.29-2.91.27-1.29.93-2.42,1.68-3.47,1.36-1.91,2.78-3.78,4.15-5.69.51-.71.97-1.46,1.42-2.21.21-.34.23-.7-.2-.92-.43-.22-.88-.13-1.12.2-3.27,4.59-6.87,8.86-11.41,12.27-1.4,1.05-2.87,1.98-4.57,2.49-.52.16-1.08.25-1.62.27-1.69.05-2.72-.93-2.82-2.62-.01-.2-.02-.4-.03-.59-1.07.68-2.08,1.38-3.16,1.98-1.41.79-2.92,1.35-4.58,1.24-2.36-.14-3.64-1.52-3.67-3.88,0-.31,0-.62,0-.99-.13.09-.25.16-.37.24-2.24,1.62-4.52,3.18-7.13,4.16-.65.24-1.36.4-2.05.47-1.64.18-2.78-1.08-2.34-2.66.26-.93.67-1.86,1.22-2.65,1.51-2.19,3.13-4.3,4.68-6.45.51-.71.98-1.46,1.45-2.2.12-.19.23-.39.29-.6.05-.2.02-.42.03-.64-.21,0-.45-.08-.63,0-.54.23-1.07.48-1.57.78-3.97,2.46-7.44,5.49-10.33,9.16-4.09,5.17-8.11,10.39-12.18,15.58-.14.18-.44.32-.67.33-.96.04-1.93.02-3.06.02Zm-43.93-32.49s.04.08.06.12c1.17-.28,2.35-.51,3.5-.85,8.23-2.42,15.52-6.58,22.12-12.01,1.76-1.45,3.43-3.01,4.67-4.94.3-.47.53-1.01.66-1.56.16-.65-.26-1.14-.92-1.13-.58,0-1.17.08-1.74.22-2.8.7-5.38,1.93-7.89,3.31-7.43,4.1-13.88,9.42-19.51,15.75-.32.36-.63.72-.94,1.08Zm79.43,18.62c-.04,1.65.57,2.25,1.76,2.17.29-.02.58-.1.85-.19,2.21-.76,4.04-2.13,5.82-3.59,2.29-1.87,4.25-4.03,5.63-6.67.39-.75.69-1.55.63-2.42-.06-.9-.65-1.59-1.55-1.65-.52-.04-1.07.05-1.57.2-1.37.42-2.55,1.21-3.67,2.08-2.87,2.23-5.36,4.81-7.11,8.04-.41.76-.64,1.62-.8,2.03Zm39.93,2.07c.64-.2,1.3-.34,1.9-.61,1.61-.72,2.98-1.8,4.23-3.03,2.08-2.04,3.98-4.22,5.25-6.87.33-.68.52-1.48.55-2.23.05-1.17-.81-1.9-1.98-1.79-.51.05-1.02.19-1.49.38-1.57.65-2.88,1.7-4.12,2.83-2.26,2.08-4.28,4.37-5.56,7.2-.33.73-.52,1.58-.57,2.38-.06,1.08.65,1.66,1.78,1.73Zm-66.97-9.92c.57-.92.96-2.14.94-2.92-.03-.93-.45-1.46-1.36-1.61-.33-.06-.72-.1-1.02.01-.95.34-1.94.64-2.8,1.16-3.26,1.98-5.92,4.61-8.07,7.76-.65.96-1.2,1.98-1.4,3.14-.29,1.65.79,2.65,2.41,2.23.12-.03.23-.07.34-.11,2.14-.74,3.95-2.01,5.64-3.48.72-.63,1.39-1.31,2.08-1.97-1.23-1.2-1.29-2.3-.22-3.42.95-1,2.1-1.34,3.45-.8Zm-22.98-8.51s.05.05.08.08c.07-.04.15-.08.21-.13,4.14-2.88,8-6.08,11.37-9.83,1.72-1.91,3.32-3.93,4.47-6.25.21-.43.36-.9.49-1.36.08-.3-.09-.51-.4-.38-.47.19-.99.37-1.37.69-1.06.9-2.12,1.82-3.08,2.83-3.53,3.7-6.68,7.72-9.81,11.76-.66.86-1.31,1.72-1.97,2.59Z"/>
</svg>