<?xml version="1.0" encoding="UTF-8"?>
<svg id="Layer_1" data-name="Layer 1" xmlns="http://www.w3.org/2000/svg" viewBox="0 0 240 240">
  <defs>
    <style>
      .cls-1 {
        fill-rule: evenodd;
      }
    </style>
  </defs>
  <g id="Symbols">
    <g id="header_desktop" data-name="header/desktop">
      <path id="logo-white" class="cls-1" d="m124.72,119.83h-8.25v2.09h5.47c-.3,3.53-2.81,4.66-5.82,4.87-3.78.27-6.78-2.97-6.86-6.64-.08-3.72,3-6.93,6.86-6.9,2.6.03,4.77,1.52,5.76,3.16l2.04-1.07c-.99-2.49-4.26-4.34-7.8-4.42-5.28-.13-9.62,4.15-9.54,9.23.08,5,4.37,9.02,9.54,8.94,7.69-.13,9.11-6.45,8.6-9.26h0Zm44.88,1.74l2.3-6,2.31,6h-4.61Zm1.45-10.09l-7.15,17.07h2.84l1.9-4.84h6.46l1.9,4.84h2.84l-7.15-17.07h-1.63Zm-72.45,16c-.8,0-1.39-.56-1.39-1.36,0-.64.4-1.02,1.15-1.53,0,0,.05-.03.11-.08.19.21,1.63,1.93,1.85,2.17-.62.54-1.15.8-1.72.8h0Zm.46-6.45c.51,0,.83.29.83.75,0,.4-.24.75-.72,1.04,0,0-.13.08-.24.13-.13-.16-.43-.48-.43-.48-.19-.21-.27-.43-.27-.67,0-.45.35-.78.83-.78h0Zm4.1,4.52l.08-.13-.89-.94s-.83,1.04-1.02,1.28c-.24-.27-1.37-1.61-1.61-1.87,1.02-.64,1.47-1.31,1.47-2.14,0-1.18-.86-1.95-2.17-1.95s-2.2.8-2.2,1.95c0,.59.19,1.07.62,1.53,0,0,.11.11.21.21-1.26.75-1.88,1.61-1.88,2.62,0,1.52,1.12,2.57,2.76,2.57.96,0,1.85-.38,2.6-1.04.19.21.78.91.78.91h1.77s-1.37-1.6-1.55-1.82c.38-.32.72-.72,1.02-1.18h0Zm25.8-3.99l2.31-6,2.31,6h-4.61Zm1.45-10.09l-7.16,17.07h2.84l1.9-4.84h6.46l1.9,4.84h2.84l-7.16-17.07h-1.63Zm13.99,15.04h-1.58v-5.81h1.66c1.8,0,4.5.05,4.5,2.81.03,2.54-2.12,3.02-4.58,3h0Zm-1.58-12.95h.43c2.06-.05,4.31-.16,4.31,2.41s-2.12,2.6-4.34,2.65h-.4v-5.06Zm5.55,5.73c1.15-.78,1.88-1.77,1.88-3.13.05-3.96-2.65-4.58-5.44-4.65h-4.77v17.07h5.52c3.51,0,6.05-1.2,6.24-4.6.13-2.06-1.39-4.2-3.43-4.68h0Zm46.06,4.92l-11.95-12.74h-1.66v17.07h2.52v-12.5l11.71,12.5h1.88v-17.07h-2.49v12.74Zm-37.11,2.3h-1.58v-5.81h1.66c1.8,0,4.5.05,4.5,2.81.03,2.54-2.09,3.02-4.58,3h0Zm-1.58-12.95h.43c2.06-.05,4.31-.16,4.31,2.41s-2.12,2.6-4.34,2.65h-.4v-5.06Zm5.55,5.73c1.15-.78,1.88-1.77,1.88-3.13.05-3.96-2.65-4.58-5.44-4.65h-4.77v17.07h5.52c3.51,0,6.05-1.2,6.24-4.6.13-2.06-1.37-4.2-3.43-4.68h0Zm-97.8-7.81h-2.57l-.03,17.07h7.42v-2.09h-4.82v-14.98Zm139.98,10.09l2.3-6,2.31,6h-4.61Zm3.14-10.09h-1.69l-7.16,17.07h2.84l1.9-4.84h6.46l1.93,4.84h2.84l-7.13-17.07Zm-151.07,13.27c-1.34,1.28-3.03,1.95-4.85,1.95s-3.51-.67-4.85-1.95c-1.31-1.28-2.01-2.89-2.01-4.68s.7-3.45,2.01-4.74c1.29-1.26,3-1.93,4.85-1.93s3.54.67,4.85,1.93c1.31,1.26,2.01,2.92,2.01,4.74.03,1.79-.7,3.4-2.01,4.68h0Zm1.9-11.05c-1.79-1.69-4.23-2.6-6.73-2.6s-4.93.94-6.7,2.6c-1.82,1.69-2.79,3.93-2.79,6.37s.96,4.63,2.79,6.34c1.8,1.69,4.21,2.62,6.7,2.62s4.93-.94,6.73-2.62c1.79-1.69,2.76-3.91,2.76-6.34s-.94-4.68-2.76-6.37h0Zm18.54-2.76c-1.34.03-2.12.24-3.35.75-3.89,1.66-5.89,4.95-5.52,9.04.32,3.59,2.14,6.02,5.52,7.52,1.21.54,1.98.75,3.32.8,1.37.08,2.2-.03,3.48-.48.99-.35,1.58-.56,2.39-1.23v-2.35s-1.39.94-2.39,1.31c-1.29.46-2.12.64-3.48.48-1.39-.16-2.2-.48-3.32-1.26-.94-.64-1.42-1.12-1.98-2.09-.53-.94-.67-1.55-.75-2.62-.21-2.62.54-4.63,2.73-6.21,1.12-.8,1.93-1.12,3.32-1.26,1.37-.13,2.2.05,3.48.51.99.35,1.5.72,2.39,1.26v-2.25c-.75-.64-1.05-.8-2.39-1.34-1.1-.46-2.36-.64-3.46-.59h0Zm6.62,17.61h8.84v-2.06h-6.16v-5.86h6v-2.06h-6v-5h6.16v-2.09h-8.84v17.07Zm-44.93-8.08c-.13,3.48-2.63,5.97-6,5.97h-2.6v-12.76l2.63.03c3.59.05,6.14,3,5.98,6.77h0Zm-5.98-8.96h-5.36v17.04h5.36c5.63,0,8.87-4.01,8.73-8.75-.13-4.58-3.7-8.29-8.73-8.29h0Z"/>
    </g>
  </g>
</svg>