<?xml version="1.0" encoding="UTF-8"?>
<svg id="Layer_1" data-name="Layer 1" xmlns="http://www.w3.org/2000/svg" viewBox="0 0 240 240">
  <path d="m172.82,122.78v6.16h-2.86s-.02-.05-.03-.07c.11-.04.22-.08.33-.11.65-.21.83-.45.83-1.12,0-4.01,0-8.03,0-12.04,0-.22-.12-.45-.18-.68h1.89v.95c.1-.07.15-.09.19-.12,2.07-1.77,4.78-1.1,5.7,1.46.65,1.79.45,3.53-.81,5.01-1,1.18-2.33,1.61-3.85,1.22-.42-.11-.79-.42-1.21-.66Zm4.44-4.02c.02-.81-.25-1.73-.83-2.55-.48-.69-1.42-1.02-2.22-.78-.82.25-1.39.9-1.4,1.67-.01,1.42-.03,2.85.02,4.27.05,1.48,1.37,2.19,2.67,1.47.48-.26.82-.66,1.09-1.13.48-.85.66-1.78.67-2.95Z"/>
  <path d="m141.5,122.79c-.09.08-.17.17-.27.24-1.14.85-2.72.8-3.78-.15-.24-.21-.36-.18-.61,0-1.58,1.11-3.29,1.17-4.99.38-1.79-.82-2.36-3.72-.25-5.06.43-.27.92-.45,1.41-.68-.09-.11-.19-.24-.3-.37-.95-1.11-.96-2.66,0-3.67.91-.96,2.68-1.08,3.77-.29.84.61,1.35,2.47.07,3.33-.47.32-.98.57-1.52.88.98,1.25,2,2.53,3.08,3.91.23-.5.47-.89.59-1.31.22-.74.38-1.5.53-2.26.05-.24.11-.34.37-.33.69.02,1.39,0,2.08,0,.11,0,.21.02.31.11-.27.1-.55.16-.8.29-.78.43-1.37,1.07-1.86,1.8-.36.54-.69,1.1-1.01,1.66-.05.08-.04.27.02.32.39.37.78.76,1.22,1.07.53.37,1.13.45,1.73.1.04-.03.1-.03.15-.04.01.02.03.04.04.06Zm-4.47-.38s0-.05-.02-.07c-1.17-1.45-2.33-2.89-3.51-4.33-.05-.06-.24-.09-.32-.05-.59.32-.97.81-1.09,1.48-.24,1.34.72,3.07,1.98,3.58,1,.41,2.27.14,2.96-.61Zm-.93-7.53c-.05-.63-.22-1.22-.72-1.66-.76-.67-1.79-.33-2.02.66-.12.5-.04,1,.21,1.43.33.55.71,1.07,1.1,1.59.05.06.25.07.35.03.84-.42,1.02-1.19,1.08-2.04Z"/>
  <path d="m88.41,112.31c-.05-.12-.09-.21-.12-.29-.55-1.63-1.71-2.53-3.38-2.76-2.03-.28-3.55.46-4.45,2.31-1.51,3.11-1.59,6.24.29,9.26.38.6.9,1.16,1.47,1.6,1.62,1.25,3.88.94,5.19-.64.51-.62.88-1.31,1.09-2.08.05-.2.12-.39.26-.57,0,.1.03.2.03.3,0,.84.01,1.67,0,2.51,0,.14-.09.34-.2.39-1.38.71-2.83,1.23-4.4,1.28-2.46.07-4.32-1.05-5.73-2.99-2.73-3.75-1.26-9.35,2.97-11.18,2.39-1.03,4.66-.79,6.7.94.25.21.39.45.37.79-.02.34-.01.68-.02,1.02,0,.02-.02.04-.07.12Z"/>
  <path d="m160.13,123.59h-3.95c.06-.06.08-.1.11-.12.57-.24.66-.44.44-1-.5-1.31-1-2.62-1.48-3.93-.09-.23-.2-.32-.45-.32-1.39.01-2.78.01-4.17,0-.24,0-.35.08-.43.3-.51,1.37-1.03,2.73-1.54,4.1-.2.54-.16.64.4.86.03,0,.04.04.1.1h-1.87s.01-.07.02-.07c.61-.09.9-.48,1.11-1.04,1.59-4.29,3.21-8.57,4.81-12.86.06-.17.09-.35.36-.35.28,0,.32.18.39.36,1.56,4.09,3.12,8.18,4.66,12.27.29.76.56,1.49,1.55,1.6-.02.03-.04.07-.06.1Zm-5.29-6.07c-.71-1.87-1.4-3.69-2.13-5.62-.73,1.93-1.42,3.75-2.12,5.62h4.25Z"/>
  <path d="m45.24,120.95c.45-1.19.86-2.27,1.27-3.36.87-2.29,1.73-4.58,2.6-6.87q.35-.91-.54-1.36h2.31s.01.03.02.05c-.06.03-.13.06-.19.08-.62.14-1,.52-1.22,1.11-1.2,3.19-2.41,6.38-3.62,9.58-.39,1.03-.78,2.07-1.17,3.1-.07.17-.1.34-.37.34-.26,0-.3-.16-.37-.34-1.53-4.01-3.08-8.02-4.59-12.04-.39-1.05-1.02-1.73-2.19-1.78-.03,0-.05-.03-.15-.1h5.02l.02.06c-.12.03-.25.06-.37.09-.47.12-.65.41-.5.87.21.63.46,1.26.7,1.88,1.06,2.76,2.11,5.52,3.17,8.27.04.11.09.21.18.41Z"/>
  <path d="m63.54,123.57h-2.38c.47-.25.36-.68.36-1.06,0-2.32,0-4.64,0-6.96,0-.29-.02-.54-.33-.7h2.33v1.37c.1-.1.15-.13.18-.17.74-1.15,1.83-1.56,3.15-1.46.22.02.45.04.66.08,1.37.27,2.08,1.14,2.08,2.52,0,1.86,0,3.72,0,5.58,0,.32.01.59.35.77h-2.48c.5-.19.42-.61.42-1-.01-1.88-.02-3.77-.04-5.65,0-.25-.03-.49-.08-.74-.13-.69-.48-.99-1.18-1.04-1.83-.13-3.31,1.21-3.34,3.05-.02,1.58-.02,3.15,0,4.73,0,.22.18.44.29.67Z"/>
  <path d="m119.75,114.85h1.89v.53h-1.92c0,.17,0,.29,0,.42,0,2.35,0,4.71,0,7.06,0,.29-.03.58.3.74h-2.36c.34-.21.35-.52.35-.86,0-2.39,0-4.78,0-7.17v-.46c-.22.06-.41.11-.66.17.08-.1.11-.15.16-.19.35-.32.52-.7.51-1.19-.02-.98.06-1.95.53-2.85.88-1.68,2.8-2.53,4.53-2.02,1.18.35,1.38,1.29,1.34,2.16,0,.05-.02.09-.04.14-.12.26-.55.39-1.02.3-.33-.06-.54-.22-.54-.58,0-.32,0-.64,0-.95-.02-.47-.24-.74-.69-.86-.67-.18-1.46.06-1.82.69-.26.46-.49.99-.52,1.51-.08,1.11-.02,2.23-.02,3.42Z"/>
  <path d="m59.4,122.99c-.34.45-.83.57-1.34.59-1.03.04-1.79-.34-2.03-1.41-.43.31-.81.63-1.22.89-.58.36-1.24.5-1.93.49-.84-.02-1.58-.29-1.92-1.12-.36-.86-.23-1.7.39-2.41.64-.74,1.53-1.05,2.45-1.21.73-.13,1.47-.17,2.26-.26-.05-.94.13-1.91-.16-2.87-.04-.13-.11-.26-.2-.37-.55-.74-2.44-.69-2.94.09-.11.18-.15.42-.18.63-.03.28,0,.56-.01.85-.02.45-.34.71-.81.7-.6-.01-.81-.2-.83-.72-.02-.64.26-1.14.75-1.52.91-.7,1.96-.87,3.07-.81.37.02.75.09,1.11.19,1.16.35,1.83,1.26,1.83,2.47,0,1.48,0,2.97,0,4.45,0,.12,0,.24,0,.35.03.98.52,1.32,1.46,1.04.07-.02.15-.03.22-.05Zm-3.34-4.05c-.97.01-1.84.09-2.65.5-.43.22-.77.54-.89,1.03-.24.94.22,1.87,1.08,2.19.86.32,1.81-.08,2.23-.97.41-.87.13-1.8.23-2.75Z"/>
  <path d="m183.21,118.44c0,1.56.32,2.95,1.49,3.99.79.71,1.71.9,2.71.45.46-.2.73-.58.98-.98.18-.29.18-.29.6-.2-.42.71-1,1.21-1.75,1.53-2.87,1.21-5.8-.6-6-3.71-.11-1.67.44-3.09,1.74-4.15,1.23-1.01,2.64-1.07,4.06-.5,1.32.52,2.06,1.56,2.23,2.98.02.18,0,.37,0,.6h-6.08Zm4.42-.43c-.03-.92-.18-1.77-.74-2.49-.69-.87-1.92-.92-2.6-.07-.59.74-.67,1.64-.78,2.56h4.12Z"/>
  <path d="m108.85,118.54c-.01,1.12.14,2.16.75,3.07.29.43.65.85,1.07,1.15,1.18.84,2.63.48,3.36-.77q.17-.3.6-.21c-.37.62-.85,1.11-1.5,1.4-1.48.67-2.97.75-4.37-.21-1.45-1-2-2.46-1.88-4.17.14-1.96,1.41-3.61,3.12-4.04,2.25-.57,4.72.68,4.95,3.28.04.51.04.51-.47.51-1.73,0-3.46,0-5.19,0-.14,0-.28,0-.45,0Zm.32-.46c1.34,0,2.63,0,3.92,0,.06,0,.17-.13.17-.19-.04-.83-.19-1.64-.73-2.31-.79-.99-2.23-.87-2.82.25-.36.68-.5,1.44-.54,2.26Z"/>
  <path d="m105.12,118.5h-6.22c.04.44.05.84.11,1.24.19,1.18.67,2.2,1.65,2.94,1.04.79,2.66.66,3.42-.67.21-.37.22-.36.71-.29-.41.69-.96,1.21-1.69,1.5-1.55.61-3.08.63-4.43-.47-1.41-1.14-1.89-2.69-1.57-4.43.33-1.84,1.34-3.22,3.24-3.64,2.01-.45,4.31.57,4.73,3,.04.25.03.51.05.83Zm-1.81-.44c.07-.84-.24-1.91-.71-2.5-.74-.92-2.08-.88-2.74.09-.14.2-.22.44-.28.68-.14.56-.26,1.13-.39,1.73h4.13Z"/>
  <path d="m190.84,109.19h2.81v.47c0,4.37,0,8.74,0,13.1,0,.34.03.63.4.8h-2.49c.52-.2.4-.65.4-1.05,0-3.98,0-7.96,0-11.94,0-.81-.16-1.02-.94-1.25-.06-.02-.12-.05-.19-.07,0-.02,0-.05.01-.07Z"/>
  <path d="m94.35,123.57h-2.48c.48-.22.38-.64.38-1.01,0-4.01,0-8.03,0-12.04,0-.74-.18-.98-.88-1.18-.08-.02-.15-.05-.22-.13h2.82c0,.15,0,.3,0,.45,0,4.34,0,8.69,0,13.03,0,.35-.03.71.47.82-.03.03-.06.05-.09.08Z"/>
  <path d="m164.62,123.57h-2.42c.1-.12.25-.25.3-.41.06-.17.04-.37.04-.56,0-2.33,0-4.66,0-6.99,0-.32-.05-.59-.38-.76h2.04v1.72s.06.02.08.02c.05-.12.1-.23.16-.35.57-1.23,1.58-1.81,2.83-1.63.61.09,1.03.41,1.18,1.01.09.36.11.74.14,1.11,0,.1-.03.21-.09.3-.16.26-.66.37-1.07.25-.34-.1-.46-.33-.45-.67,0-.29.01-.59,0-.88-.03-.62-.5-.95-1.04-.66-.38.2-.73.52-.99.87-.52.7-.71,1.53-.71,2.4-.01,1.5,0,2.99,0,4.49,0,.32.03.59.37.75Z"/>
  <path d="m196.57,120.58c.21.45.37.87.59,1.25.61,1.06,1.56,1.53,2.77,1.48.69-.03,1.27-.52,1.41-1.18.18-.8-.08-1.49-.76-1.8-.55-.25-1.14-.43-1.72-.64-.22-.08-.44-.16-.67-.23-1-.35-1.58-1.03-1.63-2.12-.05-1.06.38-1.88,1.3-2.41,1.1-.64,2.76-.48,3.73.34.06.05.14.12.14.19.01.51,0,1.02,0,1.53-.03,0-.06,0-.09.01-.04-.09-.08-.18-.12-.27-.09-.22-.17-.44-.27-.65-.63-1.38-1.88-1.5-3-1.05-.56.22-.83.67-.86,1.27-.03.56.22,1,.73,1.22.58.26,1.18.46,1.78.67.4.15.81.26,1.2.42.9.38,1.59.98,1.63,2.02.04,1.1-.46,1.96-1.42,2.5-1.09.62-2.22.54-3.34.1-.51-.2-.96-.54-1.43-.81,0-.6,0-1.21.01-1.85Z"/>
</svg>