<?xml version="1.0" encoding="UTF-8"?>
<svg id="Layer_1" data-name="Layer 1" xmlns="http://www.w3.org/2000/svg" viewBox="0 0 240 240">
  <path d="m197.15,111.61v.75h-2.72v15.76h2.7v.77h-12.78v-.74h2.6c.03-.26.06-.46.06-.66,0-2.21-.01-4.43.01-6.64,0-.5-.12-.68-.66-.68-3.18.02-6.36.02-9.54,0-.47,0-.65.13-.64.62.02,2.24.02,4.47,0,6.71,0,.48.15.66.63.63.69-.03,1.38,0,2.07,0,.22.54.14.81-.48.8-3.92-.01-7.84-.01-11.76,0-.55,0-.7-.21-.51-.78h2.64v-15.79c-.71,0-1.39-.02-2.08,0-.56.02-.78-.17-.57-.77h12.79c.21.55.05.79-.57.77-.69-.03-1.37,0-2.11,0v6.95h10.77c0-.83,0-1.63,0-2.43,0-1.24-.04-2.49.02-3.73.03-.66-.21-.84-.83-.79-.61.05-1.23.01-1.88.01v-.75h12.82Z"/>
  <path d="m86.47,129.15c-4.16-.06-7.85-.69-11.3-2.43-1.36-.69-2.54-1.58-3.39-2.87-2.12-3.19-1.17-7.29,2.25-9.51,2.32-1.51,4.92-2.31,7.62-2.73,4.59-.7,9.1-.42,13.48,1.22,1.69.63,3.32,1.4,4.57,2.76,3.1,3.37,2.22,8.36-1.88,10.71-2.81,1.61-5.86,2.42-9.07,2.7-.87.08-1.75.12-2.28.15Zm7.79-8.75c-.1-1.58-.31-3.11-1.06-4.5-1.61-3-4.33-3.89-7.5-3.8-2.22.06-4.2.85-5.53,2.67-2.22,3.03-2.25,6.34-.77,9.68.31.71.86,1.38,1.45,1.9,2.65,2.33,5.73,2.37,8.9,1.41,2.05-.62,3.37-2.06,3.93-4.11.29-1.05.39-2.16.57-3.25Z"/>
  <path d="m66.13,111.48c0,2.3,0,4.42-.01,6.54,0,.14-.16.28-.24.41-.18-.14-.43-.25-.51-.43-1.3-2.84-3.48-4.66-6.46-5.51-3.59-1.02-7.01.02-9.03,2.68-2.98,3.93-1.67,10.3,2.56,12.41,3.44,1.72,8.61.61,11.24-2.49.66-.78,1.12-1.73,1.7-2.59.14-.21.37-.35.56-.52l.16.15v6.75c-.34-.1-.63-.14-.87-.26-.8-.41-1.57-.87-2.38-1.27-.19-.09-.52-.13-.68-.03-2.2,1.44-4.64,1.82-7.2,1.75-2.98-.08-5.94-.33-8.77-1.34-1.92-.69-3.64-1.68-4.82-3.42-2.02-2.99-1.5-7.03,1.2-9.42,1.92-1.7,4.24-2.57,6.7-3.09,3.35-.7,6.71-.98,10.04.06.9.28,1.73.74,2.61,1.07.28.1.67.12.93,0,.78-.35,1.5-.8,2.27-1.18.27-.13.59-.17,1-.28Z"/>
  <path d="m161.35,122.18v6.73c-.38-.13-.68-.2-.95-.33-.76-.39-1.49-.82-2.26-1.2-.2-.1-.53-.16-.68-.06-2.25,1.5-4.77,1.85-7.4,1.76-2.79-.09-5.58-.28-8.23-1.23-1.2-.43-2.4-.99-3.43-1.74-3.9-2.84-4-8.41-.26-11.45,2.08-1.69,4.53-2.52,7.12-2.99,3.27-.59,6.55-.78,9.76.34.74.26,1.45.59,2.14.95.38.2.65.2,1.02,0,.74-.43,1.49-.82,2.26-1.2.25-.13.55-.16.92-.26.02.32.04.55.04.77,0,1.82,0,3.64,0,5.46,0,.24-.14.48-.21.72-.21-.19-.5-.35-.61-.59-1.91-4.25-7.2-6.72-11.55-5.36-3.63,1.13-5.74,4.45-5.44,8.54.35,4.72,3.76,7.65,8.54,7.32,3.99-.28,6.83-2.25,8.54-5.86.1-.2.35-.33.54-.49l.15.18Z"/>
  <path d="m136.03,128.13c-.02.33-.03.55-.04.8h-16.09v-.77h3.49c-.63-.71-1.13-1.29-1.65-1.86-.66-.74-1.21-1.74-2.03-2.12-.83-.37-1.94-.13-2.93-.13-2.83,0-5.67,0-8.5-.01-.46,0-.77.12-1.05.49-.9,1.16-1.84,2.29-2.86,3.55h3.57c.02.29.03.5.05.77h-7.72c-.01-.22-.03-.42-.04-.61.09-.05.15-.11.21-.11.74-.01,1.48-.05,2.21-.01.49.02.8-.15,1.1-.53,4.19-5.24,8.39-10.46,12.59-15.69.73-.91.73-.91,1.49-.07,4.71,5.24,9.43,10.48,14.12,15.73.35.39.7.59,1.24.56.92-.04,1.83-.01,2.85-.01Zm-17.07-4.98c-1.94-2.12-3.79-4.14-5.7-6.23-1.65,2.08-3.27,4.11-4.95,6.23h10.65Z"/>
</svg>