<?xml version="1.0" encoding="UTF-8"?>
<svg id="Layer_1" data-name="Layer 1" xmlns="http://www.w3.org/2000/svg" viewBox="0 0 240 240">
  <path d="m142.63,80.4c-.67.51-1.08.82-1.56,1.18.86,1.59,1.13,3.26.69,5.18-.55-.22-1.09-.35-1.52-.64-.83-.57-1.58-1.27-2.4-1.86-.67-.48-1.49-.78-2.07-1.34-.36-.35-.56-1.05-.54-1.58.02-.95.06-1.98.46-2.8.39-.8.23-1.85,1.19-2.45.43-.27.57-1.01.89-1.62-.12-.16-.34-.44-.71-.91.56.19.89.38,1.24.4.38.03.83.02,1.14-.17,1.11-.65,2.17-.42,2.9.61.23.33.64.56,1.02.74.47.23.98.36,1.47.52.5.17.96.46.84,1.03-.05.21-.55.33-.88.51.06.1.16.25.27.44-.24.14-.46.26-.85.48.35.22.63.4.91.58-.5.22-.92.34-1.28.57-.84.53-.99,1.25-.9,2.27.16,1.78,0,3.58.03,5.38,0,.34.1.75.3,1.01,1.09,1.39,2.46,2.45,4.05,3.23.28.14.66.13.99.1.41-.03.82-.13,1.23-.2.03.08.05.15.08.23-.14.08-.27.21-.43.24-1.64.35-3.29.71-4.94,1.02-.5.09-.71.31-.68.8.01.23.04.49-.06.68-1.15,2.11-.71,4.25-.03,6.33.41,1.26.63,2.51.73,3.81.1,1.29.47,2.42,1.73,3.12.37.2.54.75.92,1.33-.55.04-.85.08-1.15.08-8.71,0-17.42,0-26.12,0-.49,0-1.02.08-1.15-.74h4.97c-.25-.34-.36-.52-.5-.69-.42-.49-.76-.93.09-1.36.13-.07.19-.49.13-.7-.42-1.62-1.5-2.72-2.84-3.66-1.13-.79-1.09-1.31-.04-2.24.96-.86,1.91-1.74,2.86-2.62.18-.17.3-.4.45-.6-.04-.06-.09-.12-.13-.18-.22.12-.49.2-.67.38-1.56,1.61-3.58,2.77-4.7,4.81-1.25,2.26-1.87,4.55-.41,6.97.08.13.08.31.13.56h-10.71c-.03-.08-.06-.16-.09-.24.41-.15.82-.43,1.24-.44,2.14-.04,4.29-.02,6.47-.02.03-.64.06-1.21.09-1.94-.51-.3-.3-.86-.16-1.46.36-1.52.66-3.06,1-4.58.07-.31.21-.6.32-.89.11.03.22.05.32.08-.16,1.09-.31,2.19-.5,3.28-.09.51-.32,1.01-.36,1.52-.09,1.1-.17,2.21-.11,3.3.02.28.61.53.94.79.11-.09.21-.17.32-.26-.15-.41-.19-.96-.48-1.19-.44-.35-.41-.7-.34-1.13.36-2.08.68-4.18,1.13-6.24.11-.48.67-.86,1.16-1.46-1.76.29-3.37.47-4.58,1.66-.35.34-.39.98-.61,1.47-.2.44-.36,1-.72,1.25-.52.35-1.12.25-1.63-.29-.85-.89-1.02-.86-2.71.09.72,1.78.7,3.54-.43,5.18-.77,1.11-1.83,1.74-3.17,1.93-2.85.41-4.8-1.69-5.17-5.57-.6-.15-1.22-.29-1.83-.44-.03-.09-.06-.19-.1-.28.92-.44,1.91-.78,2.74-1.34.83-.57,1.51-1.36,2.27-2.07-.74.05-1.59.05-2.42.17-.5.07-.84.05-1.01-.49-.42-1.32-1.13-1.81-2.68-1.6-3.24.44-6.38-.29-9.44-1.44-1.35-.51-2.81-.7-4.19.1-.97.57-1.22,1.26-.85,2.09,1.06,0,2.09-.17,3.03.05.83.19,1.7.68,2.3,1.28.67.67,1.36,1.1,2.27,1.24.36.05.7.19,1.05.5-.59.16-1.18.32-1.81.49.62,2.61.02,4.81-2.23,6.35-1.69,1.15-3.52,1.19-5.25.11-2.24-1.4-2.98-3.52-2.49-6.14-.65-.14-1.28-.28-1.92-.43-.03-.09-.07-.17-.1-.26,1.95-.18,3.29-1.31,4.5-2.73-.24-1.9.09-2.55,1.94-3.45.69-.34,1.15-.78,1.19-1.56.05-.9.1-1.79.11-2.69,0-.54-.25-.89-.77-1.13-.57-.26-1.14-.59-1.62-1-.4-.35-.78-.81-.96-1.3-.14-.37-.1-.97.13-1.26.16-.2.78-.08,1.18-.03.24.03.46.21.73.33.07-.27.13-.48.25-.93.41.42.81.67.99,1.04.31.62.75.91,1.42.96,1.85.14,3.7.28,5.55.44,2.7.24,4.88,1.25,6.13,3.88.64,1.35,1.56,2.58,2.44,3.8.76,1.06,1.76,1.85,3.09,2.1,2.72.52,5.29-.78,6.54-3.34.93-1.9,1.78-3.84,2.76-5.71.71-1.37,1.69-2.54,3.17-3.27-.15.2-.32.39-.46.6-.92,1.37-1.89,2.71-2.71,4.13-.25.42-.24,1.12-.09,1.62.2.68.52,1.39,1,1.89.47.49,1.16.87,1.82,1.04.99.24,1.18-.09,1.3-1.1.17-1.46.37-2.93.78-4.33.36-1.25,1.23-2.22,2.48-2.76.21-.09.4-.24.58-.37,2.17-1.56,4.48-1.69,6.93-.75-.79,1.09-1.7,2.06-2.28,3.2-.92,1.82-1.65,3.75-2.4,5.66-.18.47-.33.79-.88.9-.73.14-1.45.39-2.22.6v-2c-1.54.21-.85,1.28-.86,2.17-.61.14-1.22.27-1.89.43-.11-.43-.19-.78-.3-1.2-1.09.27-2.18.15-2.94-.7-.69-.78-1.19-1.74-1.8-2.66-.17.4-.36.9-.59,1.38-.61,1.28-1.16,2.59-1.87,3.81-.81,1.4-2.2,2-3.79,2.29.69.61,1.31.52,2.06.3,2.39-.69,4.78-1.53,7.23-1.87,6.15-.86,11.81-3.18,17.5-5.45.08-.03.16-.05.22-.07.82,1.17,1.62,2.32,2.49,3.56-1.41.37-2.85.64-4.33.15-.66-.22-1.28-.59-1.95-.74-.72-.16-1.48-.22-2.22-.18-.51.02-.92.24-.93.98,0,.48-.39,1.02-.75,1.41-.61.66-1.33,1.21-1.99,1.82-.81.76-.93,1.36-.3,2.29.43.64,1.05,1.16,1.49,1.8.27.4.44.91.5,1.39.13,1,.16,2.02.23,3.1h18.38c.1-.53.53-1.07-.3-1.5-.16-.08-.14-.59-.15-.91-.02-1.02-.41-1.86-.95-2.73-.48-.76-.75-1.7-.94-2.59-.37-1.68-1.16-2.7-2.98-3.15-2.25-.56-3.51-2.3-4.08-4.56-.15-.59.06-.79.52-1.06,1.97-1.15,3.9-2.36,5.86-3.53.18-.11.48-.1.7-.05,1.86.48,2.47.1,2.52-1.78.04-1.78-.07-3.57-.11-5.6Zm-47.41,9.88c-.12-.12-.24-.24-.37-.35-1.62-1.37-3.58-1.53-5.57-1.57-2.53-.05-5.06-.08-7.24-1.67-.21-.15-.58-.07-.87-.1.02.32-.06.7.09.95.57.97,1.47,1.65,2.54,1.83,1.41.24,2.87.31,4.3.27,2.39-.07,4.8-.59,7.12.62Zm45.29,7.09c-.11.07-.21.15-.32.22.13.46.24.94.4,1.39.96,2.8,1.93,5.6,2.88,8.41.25.76.75.46,1.32.36-1.22-.4-.88-1.48-1.14-2.28-.04-.11-.08-.22-.12-.33-.51-1.34-1.05-2.68-1.53-4.03-.35-.98-.62-1.99-.96-2.97-.1-.28-.35-.52-.53-.77Zm6.27-5.82c-1.19-.86-2.3-1.66-3.65-2.63.28,1.16.51,2.12.76,3.17.94-.18,1.89-.36,2.88-.55Zm-33.81,7.49c-.05-.06-.1-.13-.15-.19-1.27.37-2.54.74-3.93,1.14.87.62,1.47,1.02,2.48.89,1.33-.16.97-1.33,1.6-1.84Zm6.71-11.63c-1.5.98-2.33,4.04-1.73,6.24.65-.2,1-.49.9-1.29-.22-1.71-.11-3.4.83-4.95Zm21.11-6.16c1.77-1.17,1.87-1.48,1.1-3h-1.68c.19,1.02.37,1.95.57,3Zm-58.03,23.49c-.1-.06-.2-.11-.3-.17-.43.36-.87.72-1.3,1.09-1.17,1-1.15,1.17.24,1.95.07.04.16.03.37.07.33-.98.66-1.96,1-2.94Zm1.36-.03l-.3.13c.09.61.18,1.22.27,1.83.23,1.45.51,1.56,1.72.67.07-.05.11-.13.26-.3-.65-.77-1.3-1.55-1.95-2.33Zm15.85.87c.88-.41,1.59-.71,2.27-1.07.07-.04,0-.56-.07-.59-.73-.2-1.47-.34-2.4-.54.08.84.13,1.42.21,2.2Zm6.08,1.83c-.62-.77-1.08-1.35-1.56-1.92-.09-.11-.31-.22-.42-.18-.11.04-.22.26-.22.4.03.79.09,1.58.16,2.54.72-.3,1.3-.54,2.04-.85Zm-18.88-11.9c-.83-.68-1.76-1.45-2.7-2.22.12-.12.23-.25.35-.37-.25.66-.49,1.32-.74,1.98,1.13.22,2.18.44,3.08.62Zm-5.11,8.06c0-.11.01-.22.02-.34-.79-.3-1.57-.65-2.38-.9-.57-.18-.6.34-.6.69,0,.37-.3,1.03.39,1.01.86-.04,1.72-.3,2.58-.46Zm1.35,1.36h-.3c-.3.85-.65,1.7-.87,2.58-.15.63.46.59.81.57.29-.01.82-.29.81-.4-.09-.92-.29-1.84-.46-2.75Zm20.1.39c-.13-.02-.26-.03-.39-.05-.46.75-.92,1.5-1.49,2.42.72.21,1.29.38,2.01.6-.05-1.13-.09-2.05-.13-2.96Zm3.97-.25c-.07-.84-.13-1.46-.19-2.2-.86.34-1.54.58-2.19.86-.12.05-.23.24-.26.39-.01.07.16.23.27.27.7.22,1.42.41,2.37.68Zm-22.74-1.55c0,.1-.01.2-.02.3.79.3,1.57.66,2.39.89.64.18.6-.43.6-.77,0-.29-.26-.84-.37-.83-.87.08-1.73.26-2.59.41Zm18.13,1.53c-.08-.09-.16-.18-.25-.27-.79.35-1.57.69-2.51,1.1.45.57.8,1.02,1.25,1.6.57-.91,1.04-1.67,1.5-2.43Zm-16.41,1.8c.33-.49.56-.75.69-1.06.07-.17.04-.55-.05-.59-.83-.37-1.69-.68-2.55-1-.05.09-.09.17-.14.26.64.76,1.28,1.51,2.04,2.4Zm-4.23-2.6c-.05-.09-.1-.18-.15-.27-.67.13-1.35.29-2.03.37-.76.09-.96.43-.6,1.1.12.22.25.43.46.78.82-.7,1.57-1.34,2.32-1.97Zm25.1,1.15c-1.01-.29-1.83-.52-2.65-.76-.06.1-.12.2-.18.3.58.7,1.15,1.4,1.82,2.22.37-.64.65-1.13,1.02-1.76Zm28.46-9.83c1.3,1.35,3.6,1.91,4.86,1.15-.28-.23-.55-.63-.75-.6-1.43.23-2.79.07-4.1-.55Zm-35.66,7.35h2.21c.05-.09.1-.18.15-.27-.46-.34-.9-.9-1.4-.97-.65-.09-.91.54-.95,1.24Zm-15.63-.18c.06.12.12.24.18.37.81-.14,1.63-.25,2.43-.42.17-.04.29-.33.43-.5-.19-.11-.38-.31-.57-.32-.43,0-.89,0-1.28.15-.43.16-.8.48-1.2.73Zm58.25-23.14c.46-.54,1.58-.71,1.01-1.71-.1-.18-.79-.25-1.03-.1-.85.54.05,1.18.02,1.81Zm-38.96,22.98c1.11-.13,1.18-1.11,1.72-1.81q-1.96.1-1.72,1.81Zm-19.58-.87c.94.07,1.69-.45,1.92-1.27h-1.51c-.13.39-.26.8-.41,1.27Zm17.73-.29c-.04.08-.08.17-.13.25.46.36.93.72,1.39,1.08.03-.49.07-.98.09-1.46,0-.04-.06-.09-.13-.17-.39.1-.81.2-1.22.3Zm-20.49.3c.05-.07.11-.13.16-.2-.43-.29-.84-.71-1.32-.82-.22-.05-.58.49-.88.77.06.08.11.17.17.25h1.86Zm-.45-1.15c.74.46.84,1.41,1.9,1.16-.09-.48-.17-.91-.26-1.38-.53.07-.95.13-1.64.22Zm26.09,1.96c-.05-.14-.1-.28-.15-.42-.78.26-1.56.52-2.33.8-.07.03-.13.26-.1.36.03.09.24.2.32.17.76-.29,1.51-.61,2.26-.92Zm-23.46-2.3c.41-.35.66-.57.92-.79-.33-.18-.66-.45-1.01-.5-.19-.03-.44.31-.67.48.21.22.41.44.76.82Zm.82.18h-1.51c.2.52.37.94.54,1.37.28-.39.55-.78.97-1.37Zm22.45.11c.61,1.03.81,1.04,2,.16-.7-.05-1.29-.1-2-.16Zm-.11,1.14c-.36-.35-.58-.56-.88-.85-.32.5-.55.85-.78,1.21.04.05.08.1.13.15.42-.14.85-.28,1.53-.51Z"/>
  <path d="m143.58,137.41h2.83v3.2h-8.77v-3.16h2.66v-15.9c-.83,2.09-1.59,4-2.35,5.92-1.19,3.02-2.38,6.03-3.55,9.06-.22.57-.45.9-1.16.87-.65-.03-1.02-.15-1.28-.83-1.76-4.57-3.57-9.12-5.36-13.67-.13-.34-.27-.68-.54-1v15.49h2.65v3.24h-8.73v-3.17h2.72v-16.5h-2.71v-3.28c.21-.02.46-.05.71-.06,2.12,0,4.24.02,6.35-.02.6-.01.86.2,1.06.74,1.65,4.29,3.32,8.57,5.05,13.01.45-1.15.85-2.16,1.25-3.18,1.28-3.29,2.55-6.59,3.86-9.87.11-.28.47-.65.72-.65,2.44-.05,4.87-.03,7.38-.03v3.29h-2.79v16.5Z"/>
  <path d="m62.56,137.43c.03-.3.07-.47.07-.64,0-2.29,0-4.58,0-6.94h-9.8v7.56h2.68v3.23h-8.65v-3.21h2.68v-16.47h-2.67v-3.29h8.63v3.25h-2.68v5.55h9.75v-5.53h-2.66v-3.26h8.64v3.24h-2.66v16.45h2.68v3.23h-8.66v-3.18h2.64Z"/>
  <path d="m101.4,130.22v7.24h2.64v3.2h-8.59v-3.15h2.65v-16.58h-2.64v-3.25c.26-.02.51-.06.76-.06,3.89,0,7.78-.06,11.67.04,1.18.03,2.46.29,3.5.83,3.26,1.71,3.82,6.88,1.11,9.37-.4.36-.89.62-1.36.94,1.96,1.13,2.47,3.03,2.39,5.21-.04,1.1,0,2.2,0,3.42h2.77v3.26h-6.05c0-2.17,0-4.31,0-6.45,0-.49,0-.99-.03-1.48-.09-1.37-.96-2.45-2.31-2.51-2.14-.1-4.28-.03-6.5-.03Zm.01-3.26c1.05,0,2.06,0,3.06,0,1.42-.02,2.85.05,4.25-.09,1.49-.15,2.58-1.63,2.46-3.09-.14-1.77-1.12-2.77-2.8-2.82-1.01-.03-2.03,0-3.05-.01-1.3,0-2.59,0-3.93,0v6.02Z"/>
  <path d="m72.81,117.66h17.7v6.37h-2.96v-3.02h-8.64v5.49h7.3v3.27h-7.32v7.6h8.48v-4.29h3.18v7.55h-17.77v-3.2h2.77v-16.47h-2.75v-3.3Z"/>
  <path d="m168.37,140.65h-17.78v-3.19h2.74v-16.48h-2.73v-3.3h17.75v6.34h-3.04v-3.02h-8.59v5.51h7.28v3.27h-7.29v7.58h8.53v-4.3h3.14v7.59Z"/>
  <path d="m173.76,132.54c.86,0,1.67-.05,2.47.03.2.02.45.44.52.72.46,1.99,1.3,3.68,3.34,4.45,1.77.67,3.59.67,5.36.01,1.51-.56,2.31-1.72,2.4-3.31.09-1.55-.61-2.79-2.03-3.34-1.47-.57-3.06-.84-4.6-1.25-.98-.26-1.98-.45-2.93-.79-2.68-.97-3.97-2.77-4.08-5.55-.1-2.47,1.35-4.63,3.8-5.72,2.87-1.26,5.79-.87,8.83,1.24.05-.48.1-.91.15-1.38h2.85v6.66h-2.94c-.5-2.14-1.86-3.54-4.01-3.92-1.07-.19-2.27-.09-3.31.2-1.24.35-2.04,1.36-2.09,2.72-.05,1.36.76,2.3,1.97,2.68,1.68.52,3.43.82,5.14,1.22.39.09.79.18,1.18.29,3.71,1.1,5.36,3.36,5.24,7.18-.1,3.23-2.22,5.69-5.68,6.46-3.11.69-5.98.1-8.58-2.01-.02.33-.04.57-.06.82-.01.23-.03.46-.04.74h-2.93v-8.14Z"/>
  <path d="m157.53,109.26v1.54h-80.45v-1.66c1.62.14,3.19.31,4.76.4,1.03.06,2.06.06,3.08,0,.71-.03,1.42-.27,2.13-.28,4.5-.03,9-.02,13.49,0,.51,0,1.02.19,1.53.22,1,.05,2,.07,2.99.04.6-.02,1.19-.25,1.78-.25,16.51-.01,33.02-.01,49.54-.01.35,0,.69,0,1.14,0Z"/>
  <path d="m153.75,88.62c-.04-.19-.06-.4-.14-.57-.37-.88-.3-.94.68-1.06.34-.04.72-.34.96-.62.54-.61,1.01-.51,1.54,0,.77.73.86,1.16.32,1.82-.38.46-.86.83-.63,1.59.07.22-.32.58-.4.71.49,1.3.99,2.54,1.41,3.8.3.88.1,1.67-.72,2.21-.53.35-.67.77-.49,1.41.3,1.08.51,2.19.77,3.33-.24.07-.39.13-.56.16-1.1.17-1.49.96-1.3,2.07.22,1.28.28,2.59.3,3.88.02.7-1.37,1.47-2.41,1.36.18-.21.31-.37.44-.52.61-.72.6-1.59.55-2.46-.07-1.44-.25-2.85-1.12-4.11-.68.36-.9.75-.65,1.5.35,1.06.55,2.16.81,3.25.15.61.29,1.22.43,1.82-.14-.01-.31-.09-.4-.03-1.68,1.02-3.52.38-5.28.51-.24.02-.51-.32-.76-.49.03-.08.07-.17.1-.25,1.12,0,2.23,0,3.35,0,1.17,0,1.61-.5,1.31-1.62-.31-1.14-.71-2.26-1.14-3.37-.36-.94-.39-1.81.03-2.77.7-1.58,1.25-3.16,1.27-4.99.02-1.74.65-3.45,1.99-4.57-.12-.61-.22-1.09-.32-1.57.26.44.52.88.86,1.44-.23.3-.6.77-.97,1.24.45-.16.82-.37,1.18-.6.85-.56,1.1-1.69.55-2.51-.09-.14-.12-.33-.23-.45-.16-.17-.35-.38-.56-.43-.11-.03-.31.23-.44.39-.13.15-.22.33-.33.5Zm-1.38,8.5c-.54,1.32-.98,2.45-1.45,3.57-.36.84-.15,1.56.46,2.47.54-1.4,1.02-2.66,1.54-4,.66,1.39.41,3.08,1.66,4.15-.04-.44-.08-.88-.15-1.56.26.32.37.45.57.71.17-.85.32-1.58.47-2.28-.64-.39-1.03-1.84-.74-2.47.09-.19.13-.43.09-.63-.02-.09-.35-.22-.42-.17-.17.13-.32.33-.38.54-.1.31-.13.64-.17.89-.5-.41-.95-.79-1.47-1.22Zm.78-1.36c-.25.37-.45.67-.67.99q1.07.34,1.51-.21c-.24-.22-.49-.45-.84-.77Zm-1.56,7.51c-.1.13-.2.26-.29.39.26.22.52.44.78.67.04-.21.18-.48.1-.63-.1-.19-.38-.29-.58-.42Z"/>
  <path d="m122.36,155.69c1.43,2.11,2.81,4.16,4.32,6.39-.83,0-1.43.05-2.02-.03-.22-.03-.45-.31-.59-.53-.8-1.21-1.54-2.46-2.37-3.65-.73-1.04-1.64-1.81-3.17-1.46v5.63h-1.82v-13.24c1.54.07,3.08.02,4.58.24,1.52.23,2.56,1.22,2.84,2.8.28,1.61-.22,2.92-1.68,3.78-.07.04-.13.1-.09.06Zm-3.77-5.16v4.05c1.26.02,2.56.28,3.37-.93.48-.71.47-1.59-.05-2.3-.85-1.14-2.11-.79-3.32-.83Z"/>
  <path d="m112.54,162.02q-1.93.18-2.6-1.49-.93-2.31-3.38-2.31c-.81,0-1.63-.04-2.44.02-.26.02-.62.27-.73.51-.37.78-.72,1.59-.96,2.42-.21.76-.62,1.03-1.37.91-.28-.04-.58,0-.96,0,.13-.33.22-.6.33-.86,1.62-3.91,3.24-7.81,4.85-11.72.18-.43.33-.73.9-.72.57,0,.81.22,1.01.71,1.68,3.94,3.39,7.88,5.08,11.82.09.21.16.42.26.72Zm-6.24-10.47h-.2c-.59,1.62-1.18,3.22-1.78,4.86h3.91c-.67-1.68-1.3-3.27-1.93-4.86Z"/>
  <path d="m92.08,156.32v5.7h-1.81v-13.18c1.99.15,4.02-.34,5.98.39,1.63.61,2.43,2.31,2.11,4.23-.27,1.58-1.61,2.72-3.48,2.85-.89.06-1.78.01-2.8.01Zm.04-1.66c.66,0,1.23,0,1.81,0,.32,0,.64-.02.95-.07.95-.15,1.57-.87,1.62-1.86.05-1.08-.46-1.91-1.46-2.04-.95-.12-1.93-.03-2.91-.03v4Z"/>
  <path d="m139.25,158.76c1.05,1.05,2.13,1.78,3.57,1.76.88,0,1.64-.27,1.99-1.11.37-.88-.09-1.62-.75-2.14-.77-.61-1.65-1.08-2.45-1.65-.61-.43-1.25-.86-1.75-1.41-1.37-1.53-.91-3.92.89-4.91,1.7-.94,3.4-.75,5.07.1.2.1.37.42.4.66.06.48.02.98.02,1.51-.75-.35-1.41-.75-2.13-.98-.5-.16-1.09-.18-1.61-.11-.71.09-1.38.38-1.53,1.2-.15.78.23,1.37.84,1.77.79.53,1.63,1,2.45,1.49,1.04.62,1.95,1.38,2.32,2.59.84,2.8-1.38,5.13-4.44,4.67-.2-.03-.4-.08-.6-.12-2.22-.45-2.56-.91-2.3-3.33Z"/>
  <path d="m130.8,86.23c-.28,1.84-.04,3.59.9,5.43-3.01,1.11-5.95,2.19-8.99,3.31,0-.33-.03-.47,0-.6.74-2.96,2.01-5.66,4.01-7.99.46-.54.94-.73,1.67-.52.71.21,1.48.24,2.4.37Z"/>
  <path d="m139.25,87.4c-2.05,1.24-4.04,2.45-6.17,3.74,0-1.88-.01-3.49.01-5.1,0-.24.12-.56.3-.69.88-.62,1.16-1.46,1.01-2.49-.02-.17.03-.37-.05-.5-.64-1.02-.42-2.05-.27-3.16.1-.67,0-1.35.33-2.01.22-.43.27-.94.45-1.6-.08-.09-.31-.36-.55-.64.96-.05,1.86-.09,2.76-.13-1.87,1.41-2.26,3.47-2.43,5.61-.05.6.08,1.21.08,1.82,0,.82.09,1.45,1.12,1.68.49.11.91.69,1.3,1.11.66.69,1.27,1.41,2.11,2.35Z"/>
  <path d="m131.5,148.9h1.71v13.11h-1.71v-13.11Z"/>
  <path d="m155.97,114.49c1.91,0,3.82-.02,5.73.02.26,0,.58.21.78.41.41.43.75.93,1.24,1.55-2.15,0-4.12.15-6.05-.08-.68-.08-1.26-1.06-1.88-1.63.06-.09.12-.18.19-.27Z"/>
  <path d="m100.19,108.65h-13.16c-.03-.09-.06-.18-.09-.27.42-.16.83-.46,1.25-.47,3.62-.04,7.24-.04,10.86,0,.42,0,.84.28,1.26.43-.04.1-.09.21-.13.31Z"/>
  <path d="m132.28,85.93v5.06c-.92-1.33-1.17-2.75-.9-4.3.1-.57.34-.82.9-.76Z"/>
  <path d="m79.92,108.69c-.92,0-1.67.04-2.4-.02-.21-.02-.39-.32-.71-.6,1.71-.38,2.33-.25,3.11.62Z"/>
  <path d="m155.2,108.69c.49-.66,1.77-1.01,2.2-.71.09.07.18.28.14.36-.08.15-.24.33-.38.34-.6.04-1.2.02-1.96.02Z"/>
</svg>