<svg xmlns="http://www.w3.org/2000/svg" xmlns:xlink="http://www.w3.org/1999/xlink" version="1.1" width="527.189pt" height="316.786pt" viewBox="0 0 527.189 316.786">
<defs>
<clipPath id="clip_0">
<path transform="matrix(1,0,0,-1,-171.159,453.904)" d="M0 0H841.89V595.276H0Z"/>
</clipPath>
<clipPath id="clip_1">
<path transform="matrix(1,0,0,-1,-171.159,453.904)" d="M0 0H841.89V595.276H0Z"/>
</clipPath>
<clipPath id="clip_2">
<path transform="matrix(1,0,0,-1,-171.159,453.904)" d="M0 0H841.89V595.276H0Z"/>
</clipPath>
<clipPath id="clip_3">
<path transform="matrix(1,0,0,-1,-171.159,453.904)" d="M0 0H841.89V595.276H0Z"/>
</clipPath>
</defs>
<text fill="#939598" xml:space="preserve" transform="matrix(1 0 -0 1 -171.159 453.904)" font-size="8" font-family="Segoe"><tspan y="-13.1182" x="804.8287 808.94869">10</tspan></text>
<g clip-path="url(#clip_0)">
<text fill="#808285" xml:space="preserve" transform="matrix(1.024695 0 -0 .97590008 -171.159 453.904)" font-size="5.1234757" font-family="Segoe"><tspan y="-11.183522" x="35.788896 40.302679 42.920774 45.661836 48.536108 51.277166 54.14631 56.88737 58.409044 61.59072 64.12172 66.99087 68.041179 69.56285 72.09384 73.14416 74.54799 77.18658 79.825168 82.46376 85.10235 86.23975 87.64359 90.86626 91.91657 92.96688 94.37071 96.64554 98.2415 100.82886 103.359859 104.88152 105.93184 108.2579 110.84525 112.249088 114.52391 117.39818 120.139247 122.41407 125.00143 127.870578 129.39225 131.38016 132.784 135.315 138.05606 140.9252 142.32904 144.9164 147.04674 149.6341 151.9089 154.64997 156.17163 157.22194 160.09622 162.83728 164.82518 166.22902 168.76003 170.35034 172.9377 174.34154 175.8632 178.60427 181.19162 182.59546 183.64577 186.38683 187.88185 190.46921 191.51952 192.56983 195.15718 197.43199 198.95366 201.69472 204.22573 205.27603 206.67987 209.54903 211.13782 214.01209 216.88123 219.46858 221.31253 222.8342 225.15514 226.55898 229.30515 230.71924 232.12308 234.74118 237.48223 240.3565 243.09757 245.9667 248.70777 250.22943 253.41112 255.94213 258.81129 259.8616 261.38328 263.91429 264.9646 266.36845 268.89945 271.6405 274.50965 275.91349 278.4445 281.18556 283.5065 284.91035 287.6514 290.39247 292.92347 295.66453 297.1862 299.92726 302.80155 304.45387 305.5042 307.4921 310.07945 312.94859 314.35243 316.62727 319.50154 322.37068 324.6916 325.7419 328.48298 331.3521 332.75596 335.63023 337.32099 338.72483 341.594 344.18135 345.82444 346.87477 349.06919 351.60017 353.12187 354.17219 357.04646 359.7875 361.19136 364.65995 365.71028 366.76063 367.81095 369.21479 371.4896 374.23066 375.28099 379.49247 380.5428 383.28385 385.81486 387.31297 389.90034 391.30418 392.3545 395.09556 396.4994 397.5497 400.13706 403.0062 405.5372 406.58753 407.99137 410.52238 412.7972 414.31889 415.3692 418.24348 420.98454">&#x00a9;ThoughtCapital 2016. All creative concepts and executions are the intellectual property of ThoughtCapital and any unauthorised copying or derivation will culminate in legal action.</tspan></text>
</g>
<g clip-path="url(#clip_1)">
<path transform="matrix(1,0,0,-1,228.17569,108.5358)" d="M0 0C.045-1.928-.655-3.851-2.101-5.3-3.242-6.442-4.678-7.111-6.185-7.322V-7.331C-8.566-7.591-10.856-8.613-12.658-10.413L-12.587-10.337C-14.384-12.14-15.409-14.433-15.665-16.812L-15.671-16.814C-15.883-18.319-16.559-19.757-17.7-20.896-19.146-22.348-21.067-23.041-23-23H-22.814C-24.744-22.976-26.693-22.211-28.189-20.706-29.379-19.526-30.104-18.056-30.373-16.546H-30.376C-30.72-14.15-31.829-11.821-33.696-9.954L-33.654-9.998C-35.522-8.131-37.849-7.021-40.245-6.679V-6.673C-41.756-6.404-43.221-5.677-44.406-4.493-45.909-2.995-46.675-1.049-46.698 .883L-46.695 .704C-46.739 2.633-46.043 4.549-44.594 6.001-43.455 7.144-42.016 7.816-40.511 8.029V8.038C-38.13 8.289-35.838 9.312-34.038 11.111L-34.105 11.041C-32.311 12.844-31.289 15.132-31.029 17.513H-31.024C-30.815 19.023-30.139 20.458-28.995 21.597-27.55 23.047-25.626 23.742-23.698 23.698L-23.881 23.701C-21.951 23.681-20.005 22.909-18.503 21.407-17.319 20.224-16.59 18.763-16.324 17.247H-16.315C-15.973 14.851-14.867 12.523-13 10.656L-13.04 10.697C-11.174 8.83-8.844 7.725-6.454 7.377-4.936 7.109-3.477 6.384-2.288 5.192-.787 3.696-.021 1.753 .006-.181" fill="#92c2e9"/>
<path transform="matrix(1,0,0,-1,228.17569,108.5358)" stroke-width="1.978" stroke-linecap="butt" stroke-miterlimit="4" stroke-linejoin="miter" fill="none" stroke="#ffffff" d="M0 0C.045-1.928-.655-3.851-2.101-5.3-3.242-6.442-4.678-7.111-6.185-7.322V-7.331C-8.566-7.591-10.856-8.613-12.658-10.413L-12.587-10.337C-14.384-12.14-15.409-14.433-15.665-16.812L-15.671-16.814C-15.883-18.319-16.559-19.757-17.7-20.896-19.146-22.348-21.067-23.041-23-23H-22.814C-24.744-22.976-26.693-22.211-28.189-20.706-29.379-19.526-30.104-18.056-30.373-16.546H-30.376C-30.72-14.15-31.829-11.821-33.696-9.954L-33.654-9.998C-35.522-8.131-37.849-7.021-40.245-6.679V-6.673C-41.756-6.404-43.221-5.677-44.406-4.493-45.909-2.995-46.675-1.049-46.698 .883L-46.695 .704C-46.739 2.633-46.043 4.549-44.594 6.001-43.455 7.144-42.016 7.816-40.511 8.029V8.038C-38.13 8.289-35.838 9.312-34.038 11.111L-34.105 11.041C-32.311 12.844-31.289 15.132-31.029 17.513H-31.024C-30.815 19.023-30.139 20.458-28.995 21.597-27.55 23.047-25.626 23.742-23.698 23.698L-23.881 23.701C-21.951 23.681-20.005 22.909-18.503 21.407-17.319 20.224-16.59 18.763-16.324 17.247H-16.315C-15.973 14.851-14.867 12.523-13 10.656L-13.04 10.697C-11.174 8.83-8.844 7.725-6.454 7.377-4.936 7.109-3.477 6.384-2.288 5.192-.787 3.696-.021 1.753 .006-.181"/>
<path transform="matrix(1,0,0,-1,204.8298,82.8483)" d="M0 0C4.31 0 7.804 3.494 7.804 7.804 7.804 12.114 4.31 15.608 0 15.608-4.31 15.608-7.804 12.114-7.804 7.804-7.804 3.494-4.31 0 0 0" fill="#92c2e9"/>
<path transform="matrix(1,0,0,-1,118.7724,108.5358)" d="M0 0C.045-1.928-.655-3.851-2.101-5.3-3.242-6.442-4.678-7.111-6.185-7.322V-7.331C-8.566-7.591-10.856-8.613-12.658-10.413L-12.587-10.337C-14.384-12.14-15.409-14.433-15.665-16.812L-15.671-16.814C-15.883-18.319-16.559-19.757-17.7-20.896-19.146-22.348-21.067-23.041-23-23H-22.814C-24.744-22.976-26.693-22.211-28.189-20.706-29.379-19.526-30.104-18.056-30.373-16.546H-30.376C-30.72-14.15-31.829-11.821-33.696-9.954L-33.654-9.998C-35.522-8.131-37.849-7.021-40.245-6.679V-6.673C-41.756-6.404-43.221-5.677-44.406-4.493-45.909-2.995-46.675-1.049-46.698 .883L-46.695 .704C-46.739 2.633-46.043 4.549-44.594 6.001-43.455 7.144-42.016 7.816-40.511 8.029V8.038C-38.13 8.289-35.838 9.312-34.038 11.111L-34.105 11.041C-32.311 12.844-31.289 15.132-31.029 17.513H-31.024C-30.815 19.023-30.139 20.458-28.995 21.597-27.55 23.047-25.626 23.742-23.698 23.698L-23.881 23.701C-21.951 23.681-20.005 22.909-18.503 21.407-17.319 20.224-16.59 18.763-16.324 17.247H-16.315C-15.973 14.851-14.867 12.523-13 10.656L-13.04 10.697C-11.174 8.83-8.844 7.725-6.454 7.377-4.936 7.109-3.477 6.384-2.288 5.192-.787 3.696-.021 1.753 .006-.181" fill="#92c2e9"/>
<path transform="matrix(1,0,0,-1,118.7724,108.5358)" stroke-width="1.978" stroke-linecap="butt" stroke-miterlimit="4" stroke-linejoin="miter" fill="none" stroke="#ffffff" d="M0 0C.045-1.928-.655-3.851-2.101-5.3-3.242-6.442-4.678-7.111-6.185-7.322V-7.331C-8.566-7.591-10.856-8.613-12.658-10.413L-12.587-10.337C-14.384-12.14-15.409-14.433-15.665-16.812L-15.671-16.814C-15.883-18.319-16.559-19.757-17.7-20.896-19.146-22.348-21.067-23.041-23-23H-22.814C-24.744-22.976-26.693-22.211-28.189-20.706-29.379-19.526-30.104-18.056-30.373-16.546H-30.376C-30.72-14.15-31.829-11.821-33.696-9.954L-33.654-9.998C-35.522-8.131-37.849-7.021-40.245-6.679V-6.673C-41.756-6.404-43.221-5.677-44.406-4.493-45.909-2.995-46.675-1.049-46.698 .883L-46.695 .704C-46.739 2.633-46.043 4.549-44.594 6.001-43.455 7.144-42.016 7.816-40.511 8.029V8.038C-38.13 8.289-35.838 9.312-34.038 11.111L-34.105 11.041C-32.311 12.844-31.289 15.132-31.029 17.513H-31.024C-30.815 19.023-30.139 20.458-28.995 21.597-27.55 23.047-25.626 23.742-23.698 23.698L-23.881 23.701C-21.951 23.681-20.005 22.909-18.503 21.407-17.319 20.224-16.59 18.763-16.324 17.247H-16.315C-15.973 14.851-14.867 12.523-13 10.656L-13.04 10.697C-11.174 8.83-8.844 7.725-6.454 7.377-4.936 7.109-3.477 6.384-2.288 5.192-.787 3.696-.021 1.753 .006-.181"/>
<path transform="matrix(1,0,0,-1,95.42639,82.8483)" d="M0 0C4.31 0 7.804 3.494 7.804 7.804 7.804 12.114 4.31 15.608 0 15.608-4.31 15.608-7.804 12.114-7.804 7.804-7.804 3.494-4.31 0 0 0" fill="#92c2e9"/>
</g>
<path transform="matrix(1,0,0,-1,237.9473,142.6784)" stroke-width="1" stroke-linecap="butt" stroke-miterlimit="4" stroke-linejoin="miter" fill="none" stroke="#838d94" d="M0 0V-66.502"/>
<g clip-path="url(#clip_2)">
<path transform="matrix(1,0,0,-1,-171.159,453.904)" d="M398.034 300.076H391.00599V257.66999H398.034ZM365.614 257.79 388.39 300.068H380.565L361.588 264.84 342.612 300.068H334.785L357.559 257.79ZM346.37 257.79 324.004 300.068H315.187L292.823 257.79H300.487L305.358 267.253H333.832L338.703 257.79ZM330.429 273.556H308.759L319.66 294.039ZM288.395 288.156 294.76 290.432C289.115 297.752 281 301.411 270.41 301.411 263.054 301.411 256.883 299.522 251.9 295.746 246.177 291.426 243.318 285.859 243.318 279.047 243.318 272.117 246.139 266.512 251.784 262.23 256.727 258.491 262.937 256.623 270.41 256.623 275.745 256.623 280.327 257.409 284.161 258.987 287.996 260.564 291.432 263.123 294.469 266.665L288.455 269.995C284.171 265.359 278.294 263.043 270.819 263.043 264.63 263.043 259.716 264.514 256.077 267.455 252.437 270.395 250.617 274.259 250.617 279.047 250.617 283.679 252.456 287.491 256.134 290.491 259.812 293.487 264.573 294.987 270.41 294.987 278.118 294.987 284.113 292.708 288.395 288.156" fill="#6a747b"/>
</g>
<text fill="#0089cf" xml:space="preserve" transform="matrix(1.024695 0 -0 .97590008 -171.159 453.904)" font-size="80.95091" font-family="HelveticaNeueLTStd"><tspan y="-262.8718" x="406.70533 448.71888 489.19435 511.6987 553.7122">cares</tspan></text>
<text fill="#838d94" xml:space="preserve" transform="matrix(1.0049876 0 -0 .9950372 -171.159 453.904)" font-size="20.09975" font-family="HelveticaNeue"><tspan y="-214.22869" x="257.04258 269.45014 282.17329 294.61906 307.34217 320.43519 326.08323 338.80635 351.9918 359.58955 365.21546 370.95396 381.90434 394.39836 406.0763 413.674 421.37025 434.09336 442.10914 455.21418 467.97554 481.09465 493.89817 501.49589 513.9597 527.4145 540.17587 552.63967 564.80807 572.4821 578.1784 591.32168">changing lives through education</tspan></text>
<g clip-path="url(#clip_3)">
<path transform="matrix(1,0,0,-1,147.11542,101.22739)" d="M0 0C.051-2.039-.688-4.062-2.214-5.591-3.419-6.8-4.938-7.513-6.528-7.735V-7.744C-9.042-8.009-11.459-9.092-13.359-10.991L-13.285-10.914C-15.183-12.814-16.262-15.235-16.534-17.749H-16.543C-16.762-19.331-17.476-20.857-18.682-22.06-20.21-23.59-22.238-24.324-24.273-24.278H-24.08C-26.117-24.256-28.174-23.445-29.757-21.86-31.007-20.604-31.777-19.062-32.062-17.465H-32.065C-32.427-14.936-33.596-12.481-35.568-10.51L-35.525-10.551C-37.496-8.583-39.951-7.411-42.477-7.053V-7.044C-44.074-6.763-45.622-5.995-46.871-4.743-48.457-3.161-49.268-1.107-49.294 .931L-49.289 .743C-49.335 2.779-48.598 4.808-47.072 6.335-45.867 7.541-44.35 8.25-42.76 8.472V8.481C-40.245 8.75-37.829 9.832-35.928 11.732L-36.002 11.658C-34.105 13.557-33.022 15.979-32.751 18.489H-32.746C-32.526 20.08-31.815 21.594-30.606 22.8-29.078 24.33-27.05 25.058-25.013 25.015H-25.206C-23.169 24.99-21.114 24.182-19.528 22.597-18.279 21.348-17.511 19.803-17.232 18.205H-17.221C-16.861 15.679-15.69 13.218-13.721 11.25L-13.764 11.294C-11.795 9.323-9.333 8.151-6.808 7.787V7.784C-5.211 7.503-3.666 6.732-2.413 5.48-.83 3.901-.02 1.844 .008-.194" fill="#5bacdf"/>
<path transform="matrix(1,0,0,-1,147.11542,101.22739)" stroke-width="2.088" stroke-linecap="butt" stroke-miterlimit="4" stroke-linejoin="miter" fill="none" stroke="#ffffff" d="M0 0C.051-2.039-.688-4.062-2.214-5.591-3.419-6.8-4.938-7.513-6.528-7.735V-7.744C-9.042-8.009-11.459-9.092-13.359-10.991L-13.285-10.914C-15.183-12.814-16.262-15.235-16.534-17.749H-16.543C-16.762-19.331-17.476-20.857-18.682-22.06-20.21-23.59-22.238-24.324-24.273-24.278H-24.08C-26.117-24.256-28.174-23.445-29.757-21.86-31.007-20.604-31.777-19.062-32.062-17.465H-32.065C-32.427-14.936-33.596-12.481-35.568-10.51L-35.525-10.551C-37.496-8.583-39.951-7.411-42.477-7.053V-7.044C-44.074-6.763-45.622-5.995-46.871-4.743-48.457-3.161-49.268-1.107-49.294 .931L-49.289 .743C-49.335 2.779-48.598 4.808-47.072 6.335-45.867 7.541-44.35 8.25-42.76 8.472V8.481C-40.245 8.75-37.829 9.832-35.928 11.732L-36.002 11.658C-34.105 13.557-33.022 15.979-32.751 18.489H-32.746C-32.526 20.08-31.815 21.594-30.606 22.8-29.078 24.33-27.05 25.058-25.013 25.015H-25.206C-23.169 24.99-21.114 24.182-19.528 22.597-18.279 21.348-17.511 19.803-17.232 18.205H-17.221C-16.861 15.679-15.69 13.218-13.721 11.25L-13.764 11.294C-11.795 9.323-9.333 8.151-6.808 7.787V7.784C-5.211 7.503-3.666 6.732-2.413 5.48-.83 3.901-.02 1.844 .008-.194"/>
<path transform="matrix(1,0,0,-1,122.47229,73.7059)" d="M0 0C4.55 0 8.238 3.688 8.238 8.238 8.238 12.787 4.55 16.475 0 16.475-4.55 16.475-8.238 12.787-8.238 8.238-8.238 3.688-4.55 0 0 0" fill="#5bacdf"/>
<path transform="matrix(1,0,0,-1,201.81711,100.809909)" d="M0 0C.048-2.035-.691-4.065-2.218-5.594-3.422-6.8-4.937-7.506-6.529-7.729V-7.738C-9.042-8.012-11.459-9.092-13.362-10.991L-13.286-10.911C-15.183-12.814-16.265-15.235-16.535-17.745L-16.541-17.749C-16.765-19.337-17.479-20.854-18.683-22.057-20.21-23.59-22.238-24.321-24.278-24.277H-24.082C-26.119-24.253-28.176-23.445-29.755-21.856-31.011-20.611-31.776-19.059-32.06-17.465H-32.063C-32.427-14.936-33.598-12.478-35.568-10.507L-35.523-10.553C-37.496-8.583-39.952-7.411-42.481-7.05V-7.044C-44.076-6.76-45.622-5.992-46.873-4.743-48.459-3.161-49.268-1.107-49.292 .931L-49.289 .743C-49.335 2.779-48.601 4.802-47.072 6.335-45.869 7.541-44.35 8.25-42.762 8.475V8.484C-40.248 8.75-37.829 9.829-35.929 11.729L-36 11.655C-34.106 13.558-33.027 15.972-32.752 18.486H-32.748C-32.527 20.08-31.813 21.594-30.606 22.797-29.081 24.327-27.05 25.061-25.015 25.015L-25.208 25.018C-23.17 24.996-21.116 24.182-19.531 22.597-18.281 21.348-17.511 19.806-17.23 18.205H-17.221C-16.861 15.676-15.693 13.218-13.722 11.248L-13.764 11.291C-11.795 9.32-9.335 8.154-6.813 7.787-5.21 7.504-3.67 6.739-2.415 5.48-.831 3.901-.022 1.851 .006-.191" fill="#5bacdf"/>
<path transform="matrix(1,0,0,-1,201.81711,100.809909)" stroke-width="2.088" stroke-linecap="butt" stroke-miterlimit="4" stroke-linejoin="miter" fill="none" stroke="#ffffff" d="M0 0C.048-2.035-.691-4.065-2.218-5.594-3.422-6.8-4.937-7.506-6.529-7.729V-7.738C-9.042-8.012-11.459-9.092-13.362-10.991L-13.286-10.911C-15.183-12.814-16.265-15.235-16.535-17.745L-16.541-17.749C-16.765-19.337-17.479-20.854-18.683-22.057-20.21-23.59-22.238-24.321-24.278-24.277H-24.082C-26.119-24.253-28.176-23.445-29.755-21.856-31.011-20.611-31.776-19.059-32.06-17.465H-32.063C-32.427-14.936-33.598-12.478-35.568-10.507L-35.523-10.553C-37.496-8.583-39.952-7.411-42.481-7.05V-7.044C-44.076-6.76-45.622-5.992-46.873-4.743-48.459-3.161-49.268-1.107-49.292 .931L-49.289 .743C-49.335 2.779-48.601 4.802-47.072 6.335-45.869 7.541-44.35 8.25-42.762 8.475V8.484C-40.248 8.75-37.829 9.829-35.929 11.729L-36 11.655C-34.106 13.558-33.027 15.972-32.752 18.486H-32.748C-32.527 20.08-31.813 21.594-30.606 22.797-29.081 24.327-27.05 25.061-25.015 25.015L-25.208 25.018C-23.17 24.996-21.116 24.182-19.531 22.597-18.281 21.348-17.511 19.806-17.23 18.205H-17.221C-16.861 15.676-15.693 13.218-13.722 11.248L-13.764 11.291C-11.795 9.32-9.335 8.154-6.813 7.787-5.21 7.504-3.67 6.739-2.415 5.48-.831 3.901-.022 1.851 .006-.191"/>
<path transform="matrix(1,0,0,-1,177.17401,73.6951)" d="M0 0C4.55 0 8.238 3.688 8.238 8.238 8.238 12.787 4.55 16.475 0 16.475-4.55 16.475-8.238 12.787-8.238 8.238-8.238 3.688-4.55 0 0 0" fill="#5bacdf"/>
<path transform="matrix(1,0,0,-1,175.45722,97.15448)" d="M0 0C.054-2.146-.724-4.279-2.331-5.892-3.599-7.155-5.198-7.905-6.871-8.139V-8.145C-9.518-8.434-12.06-9.57-14.062-11.567L-13.982-11.492C-15.982-13.492-17.118-16.037-17.404-18.679H-17.41C-17.644-20.351-18.397-21.955-19.665-23.218-21.272-24.831-23.406-25.604-25.555-25.555H-25.349C-27.492-25.526-29.656-24.679-31.323-23.007-32.64-21.692-33.447-20.066-33.748-18.381H-33.751C-34.132-15.722-35.363-13.138-37.438-11.063L-37.393-11.106C-39.466-9.031-42.055-7.801-44.715-7.421V-7.415C-46.392-7.119-48.022-6.311-49.338-4.993-51.01-3.324-51.859-1.165-51.886 .98L-51.882 .782C-51.93 2.928-51.158 5.061-49.548 6.668-48.283 7.937-46.684 8.687-45.011 8.921V8.931C-42.365 9.213-39.818 10.353-37.82 12.346L-37.895 12.271C-35.901 14.274-34.762 16.816-34.475 19.459H-34.471C-34.238 21.137-33.488 22.731-32.215 24-30.612 25.611-28.474 26.383-26.328 26.334L-26.534 26.338C-24.388 26.305-22.225 25.455-20.558 23.789-19.24 22.475-18.429 20.845-18.136 19.163H-18.128C-17.746 16.505-16.519 13.914-14.443 11.843L-14.487 11.891C-12.416 9.814-9.823 8.583-7.171 8.2V8.197C-5.483 7.902-3.858 7.09-2.54 5.775-.873 4.107-.021 1.945 .008-.204" fill="#0089cf"/>
<path transform="matrix(1,0,0,-1,175.45722,97.15448)" stroke-width="2.198" stroke-linecap="butt" stroke-miterlimit="4" stroke-linejoin="miter" fill="none" stroke="#ffffff" d="M0 0C.054-2.146-.724-4.279-2.331-5.892-3.599-7.155-5.198-7.905-6.871-8.139V-8.145C-9.518-8.434-12.06-9.57-14.062-11.567L-13.982-11.492C-15.982-13.492-17.118-16.037-17.404-18.679H-17.41C-17.644-20.351-18.397-21.955-19.665-23.218-21.272-24.831-23.406-25.604-25.555-25.555H-25.349C-27.492-25.526-29.656-24.679-31.323-23.007-32.64-21.692-33.447-20.066-33.748-18.381H-33.751C-34.132-15.722-35.363-13.138-37.438-11.063L-37.393-11.106C-39.466-9.031-42.055-7.801-44.715-7.421V-7.415C-46.392-7.119-48.022-6.311-49.338-4.993-51.01-3.324-51.859-1.165-51.886 .98L-51.882 .782C-51.93 2.928-51.158 5.061-49.548 6.668-48.283 7.937-46.684 8.687-45.011 8.921V8.931C-42.365 9.213-39.818 10.353-37.82 12.346L-37.895 12.271C-35.901 14.274-34.762 16.816-34.475 19.459H-34.471C-34.238 21.137-33.488 22.731-32.215 24-30.612 25.611-28.474 26.383-26.328 26.334L-26.534 26.338C-24.388 26.305-22.225 25.455-20.558 23.789-19.24 22.475-18.429 20.845-18.136 19.163H-18.128C-17.746 16.505-16.519 13.914-14.443 11.843L-14.487 11.891C-12.416 9.814-9.823 8.583-7.171 8.2V8.197C-5.483 7.902-3.858 7.09-2.54 5.775-.873 4.107-.021 1.945 .008-.204"/>
<path transform="matrix(1,0,0,-1,149.51819,68.6131)" d="M0 0C4.789 0 8.671 3.882 8.671 8.671 8.671 13.46 4.789 17.343 0 17.343-4.789 17.343-8.671 13.46-8.671 8.671-8.671 3.882-4.789 0 0 0" fill="#0089cf"/>
</g>
<text fill="#939598" xml:space="preserve" transform="matrix(1.0488088 0 -0 .9534626 -171.159 453.904)" font-size="18.87856" font-family="Segoe"><tspan y="-37.75712" x="34.324655 42.971036 53.561906 64.133899 74.72477 79.8975 89.33678 97.28465 107.85664 111.726749 122.31762 128.54753 137.87355 143.48049 147.35059 157.94147 168.0415 173.21422 182.93669">Logo Exploration 04</tspan></text>
</svg>
