<?xml version="1.0" encoding="UTF-8"?>
<svg id="Layer_1" data-name="Layer 1" xmlns="http://www.w3.org/2000/svg" xmlns:xlink="http://www.w3.org/1999/xlink" viewBox="0 0 850 350">
  <defs>
    <style>
      .cls-1 {
        mask: url(#mask);
      }

      .cls-2 {
        font-family: HelveticaNeue-Bold, 'Helvetica Neue';
        font-size: 11px;
        font-weight: 700;
      }

      .cls-2, .cls-3, .cls-4 {
        fill: #fff;
      }

      .cls-5 {
        letter-spacing: -.02em;
      }

      .cls-6 {
        letter-spacing: -.07em;
      }

      .cls-7 {
        letter-spacing: -.07em;
      }

      .cls-3, .cls-8, .cls-9, .cls-10, .cls-11, .cls-12, .cls-13, .cls-14, .cls-15, .cls-4, .cls-16, .cls-17, .cls-18, .cls-19, .cls-20, .cls-21 {
        stroke-width: 0px;
      }

      .cls-3, .cls-21 {
        fill-rule: evenodd;
      }

      .cls-22 {
        mask: url(#mask-1);
      }

      .cls-9 {
        fill: #4d4d4d;
      }

      .cls-10 {
        fill: #262626;
      }

      .cls-11 {
        fill: #2e2e2e;
      }

      .cls-12 {
        fill: #0a0a0a;
      }

      .cls-13 {
        fill: #070707;
      }

      .cls-14 {
        fill: #207db5;
      }

      .cls-15 {
        fill: #dfdfdf;
      }

      .cls-16 {
        fill: #030303;
      }

      .cls-17 {
        fill: #040404;
      }

      .cls-18 {
        fill: #010101;
      }

      .cls-19 {
        fill: #060606;
      }

      .cls-20 {
        fill: #020202;
      }
    </style>
    <mask id="mask" x="495.48" y="132.92" width="90.52" height="18.36" maskUnits="userSpaceOnUse">
      <g id="b">
        <path id="a" class="cls-3" d="m495.48,132.92h90.52v18.36h-90.52v-18.36Z"/>
      </g>
    </mask>
    <mask id="mask-1" x="495.48" y="132.92" width="90.52" height="18.36" maskUnits="userSpaceOnUse">
      <g id="d">
        <path id="c" class="cls-3" d="m495.48,132.92h90.52v18.36h-90.52v-18.36Z"/>
      </g>
    </mask>
  </defs>
  <rect class="cls-14" x="19" y="15.5" width="112" height="48"/>
  <rect class="cls-15" x="19" y="63.5" width="112" height="48"/>
  <rect class="cls-15" x="19" y="118.5" width="112" height="48"/>
  <rect class="cls-15" x="136" y="63.5" width="112" height="48"/>
  <rect class="cls-15" x="136" y="118.5" width="112" height="48"/>
  <rect class="cls-15" x="252" y="63.5" width="112" height="48"/>
  <rect class="cls-15" x="252" y="118.5" width="112" height="48"/>
  <rect class="cls-15" x="485" y="63.5" width="112" height="48"/>
  <rect class="cls-15" x="485" y="118.5" width="112" height="48"/>
  <rect class="cls-15" x="602" y="63.5" width="112" height="48"/>
  <rect class="cls-15" x="602" y="118.5" width="112" height="48"/>
  <rect class="cls-15" x="719" y="63.5" width="112" height="48"/>
  <rect class="cls-15" x="719" y="118.5" width="112" height="48"/>
  <rect class="cls-15" x="252.5" y="174" width="112" height="48"/>
  <rect class="cls-15" x="368" y="63.5" width="112" height="48"/>
  <rect class="cls-15" x="368" y="118.5" width="112" height="48"/>
  <rect class="cls-15" x="369.5" y="174" width="112" height="48"/>
  <rect class="cls-15" x="369.5" y="230" width="112" height="48"/>
  <rect class="cls-15" x="370" y="286.5" width="112" height="48"/>
  <text class="cls-2" transform="translate(37.86 43.96)"><tspan x="0" y="0">DE</tspan><tspan class="cls-6" x="15.28" y="0">P</tspan><tspan x="21.8" y="0">A</tspan><tspan class="cls-5" x="29.34" y="0">R</tspan><tspan x="37.08" y="0">TMENT</tspan></text>
  <rect class="cls-14" x="136" y="15.5" width="112" height="48"/>
  <text class="cls-2" transform="translate(171.56 43.96)"><tspan x="0" y="0">CHAINS</tspan></text>
  <rect class="cls-14" x="252" y="15.5" width="112" height="48"/>
  <text class="cls-2" transform="translate(276.57 43.96)"><tspan x="0" y="0">SPECIALITY</tspan></text>
  <rect class="cls-14" x="368" y="15.5" width="112" height="48"/>
  <text class="cls-2" transform="translate(389.71 43.96)"><tspan x="0" y="0">DRUGSTORE</tspan></text>
  <rect class="cls-14" x="485" y="15.5" width="112" height="48"/>
  <text class="cls-2" transform="translate(499.17 43.96)"><tspan x="0" y="0">PURE-PL</tspan><tspan class="cls-6" x="48.89" y="0">A</tspan><tspan x="55.62" y="0">YERS</tspan></text>
  <rect class="cls-14" x="602" y="15.5" width="112" height="48"/>
  <text class="cls-2" transform="translate(619.44 43.96)"><tspan x="0" y="0">E-COMMERCE</tspan></text>
  <rect class="cls-14" x="719" y="15.5" width="112" height="48"/>
  <text class="cls-2" transform="translate(725.02 43.96)"><tspan x="0" y="0">S</tspan><tspan class="cls-7" x="7.14" y="0">PA</tspan><tspan x="20.38" y="0">’S &amp; SKINCARE</tspan></text>
  <path class="cls-8" d="m59.37,99.91v-31.12h31.43v31.12h-31.43Zm11.69-13.8s-.03,0-.04-.01c-.02-.07-.04-.14-.06-.21-.7-2.58-1.4-5.17-2.09-7.75-.05-.17-.12-.22-.29-.22-1,0-2,0-3,0h-.23c.02.09.04.15.05.21.22.74.43,1.47.65,2.21,1.02,3.43,2.04,6.86,3.06,10.3.04.12.09.15.21.15,1.03,0,2.06,0,3.09,0,.13,0,.19-.05.22-.17.12-.38.25-.76.38-1.14.64-1.88,1.28-3.75,1.92-5.63.05-.16.12-.31.19-.5.03.08.04.12.05.17.71,2.36,1.42,4.72,2.12,7.08.04.14.1.18.24.18,1.02,0,2.05,0,3.07,0,.12,0,.17-.03.21-.15.2-.64.41-1.28.61-1.92,1.07-3.36,2.14-6.71,3.22-10.07.07-.23.14-.46.22-.7-.05,0-.08-.02-.11-.02-1.07,0-2.15,0-3.22,0-.06,0-.14.07-.16.13-.09.25-.16.51-.24.77-.62,2.12-1.24,4.25-1.87,6.37-.09.32-.2.64-.32,1-.03-.08-.04-.12-.05-.16-.8-2.64-1.6-5.28-2.4-7.92-.04-.14-.1-.2-.25-.2-.76,0-1.52,0-2.29,0-.12,0-.19.03-.23.15-.19.58-.39,1.16-.58,1.74-.58,1.76-1.15,3.52-1.73,5.28-.11.34-.25.68-.37,1.02Z"/>
  <path class="cls-8" d="m73.94,105.21c.04-.08.07-.13.08-.18.16-.5.33-.99.49-1.49.03-.11.08-.15.2-.16.51-.01.51-.02.65.46.12.41.24.81.36,1.22,0,.03.03.05.06.11.04-.09.07-.15.09-.21.14-.46.28-.92.4-1.38.04-.14.09-.21.25-.2.2.01.41,0,.65,0-.11.38-.22.73-.33,1.08-.18.58-.38,1.16-.56,1.75-.04.13-.09.19-.23.18-.1-.01-.21,0-.32,0-.35,0-.34,0-.44-.34-.13-.42-.25-.84-.4-1.32-.09.24-.17.44-.24.63-.1.29-.2.59-.29.89-.03.1-.08.14-.18.14-.22,0-.5.07-.66-.04-.14-.1-.16-.38-.22-.59-.22-.73-.44-1.46-.65-2.19-.01-.05-.02-.1-.04-.18.27,0,.52,0,.77,0,.03,0,.08.09.09.14.14.51.27,1.01.41,1.52.01.04.03.08.05.16Z"/>
  <path class="cls-8" d="m61.41,104.79c-.07.19-.16.37-.22.56-.1.29-.2.58-.29.87-.04.11-.11.17-.24.16-.15-.01-.3-.01-.45,0-.12,0-.18-.04-.21-.15-.26-.84-.52-1.68-.78-2.52-.03-.09-.05-.19-.08-.31.26,0,.49,0,.72,0,.1,0,.14.06.17.16.13.51.27,1.02.43,1.59.07-.07.14-.12.16-.18.07-.24.13-.48.2-.72.06-.2.11-.4.19-.58.12-.27.39-.38.67-.28.06.02.11.1.13.16.15.47.29.94.44,1.41.02.07.06.14.12.27.03-.11.05-.16.07-.22.14-.48.29-.97.42-1.45.03-.12.09-.17.22-.17.21.01.42,0,.66,0-.06.19-.12.36-.17.52-.25.76-.51,1.53-.75,2.29-.05.15-.13.21-.28.19-.14-.01-.29-.01-.43,0-.12,0-.17-.04-.2-.16-.13-.47-.27-.94-.41-1.42-.02,0-.04,0-.06-.01Z"/>
  <path class="cls-8" d="m65.42,103.26c.23.04.44.06.63.12.74.23,1.13.87,1.03,1.67-.09.78-.69,1.37-1.43,1.42-.59.04-1.12-.13-1.53-.56-.78-.81-.46-2.1.61-2.5.22-.08.47-.11.69-.16Zm-.02,2.43c.46,0,.8-.36.8-.85,0-.47-.29-.77-.73-.77-.5,0-.88.3-.88.7,0,.55.33.92.81.92Z"/>
  <path class="cls-8" d="m78.88,103.28c.39,0,.74.11,1.06.32.51.35.71.85.64,1.44-.07.6-.38,1.07-.95,1.31-.72.31-1.57.1-2.05-.46-.79-.93-.34-2.3.86-2.56.15-.03.3-.04.44-.06Zm.81,1.59c0-.48-.29-.8-.74-.81-.51,0-.88.3-.88.74,0,.48.38.91.83.91.45,0,.79-.35.79-.84Z"/>
  <path class="cls-8" d="m68.92,106.42c-.58,0-1.1-.16-1.42-.67-.53-.84-.29-2.11,1.01-2.4.65-.15,1.27-.05,1.74.47.43.47.51,1.05.3,1.65-.22.61-.74.86-1.35.96-.03,0-.06,0-.09,0-.06,0-.12,0-.19,0Zm.02-.72c.47,0,.79-.34.8-.83,0-.47-.31-.8-.76-.8-.51,0-.86.3-.86.74,0,.49.36.88.82.88Z"/>
  <path class="cls-8" d="m87.65,103.38c.24,0,.46,0,.67,0,.04,0,.08.08.12.12.01.02,0,.05,0,.07,0,.89,0,1.78-.01,2.67,0,.03,0,.06-.01.11h-.78v-1.2c-.35,0-.68,0-1,0-.04,0-.1.09-.1.14-.01.29-.01.59,0,.88,0,.14-.03.2-.19.2-.2-.01-.4,0-.62,0,0-.08,0-.14,0-.2,0-.87,0-1.73,0-2.6,0-.15.03-.22.2-.2.15.01.3.01.45,0,.13,0,.16.05.15.17,0,.27,0,.55,0,.82,0,.05.06.14.09.14.33.01.67,0,1.03,0v-1.14Z"/>
  <path class="cls-8" d="m82.52,105.18c.3.4.59.78.91,1.19-.36,0-.66,0-.95,0-.05,0-.1-.06-.13-.11-.17-.26-.33-.52-.49-.77-.03-.05-.07-.09-.15-.18v1.05h-.78s-.02-.05-.02-.08c0-.96,0-1.92,0-2.9.65-.08,1.28-.12,1.87.22.27.15.43.38.41.68-.02.33-.12.64-.47.79-.06.03-.12.06-.19.11Zm-.68-1.21c-.1-.02-.16.03-.15.15,0,.16,0,.32,0,.48,0,.05.06.12.11.12.23.03.44-.14.45-.37.02-.22-.16-.39-.41-.4Z"/>
  <path class="cls-8" d="m89.1,105.49c.23.17.47.29.75.29.15,0,.28-.04.31-.21.03-.17-.04-.28-.2-.34-.15-.05-.31-.11-.47-.14-.69-.13-.8-.9-.46-1.33.39-.5,1.24-.66,1.76-.3.04.03.07.13.05.18-.07.17-.16.33-.24.49-.15-.05-.3-.11-.44-.14-.07-.02-.16-.01-.24.01-.2.07-.22.21-.06.32.13.09.28.15.43.23.04.02.09.03.14.05.32.1.56.26.6.64.04.4-.07.74-.42.98-.48.33-1.24.32-1.72,0-.09-.06-.1-.11-.05-.2.09-.17.17-.34.26-.52Z"/>
  <path class="cls-8" d="m84.03,106.38c0-.2,0-.36,0-.53,0-.52,0-1.05,0-1.57,0-.17-.07-.22-.22-.22-.09,0-.18,0-.26.01-.13.02-.18-.02-.18-.16,0-.53-.01-.53.52-.53.44,0,.87,0,1.31,0,.08,0,.16,0,.26.02,0,.2,0,.39,0,.57,0,.04-.09.09-.14.09-.16.01-.32,0-.5,0,0,.22,0,.41,0,.6,0,.51,0,1.02,0,1.54,0,.15-.03.21-.2.19-.18-.03-.37,0-.59,0Z"/>
  <path class="cls-8" d="m70.95,103.39h.79c0,.31,0,.61,0,.91,0,.41,0,.81,0,1.22,0,.14.04.19.18.18.21,0,.41,0,.62,0,.05,0,.13.06.13.1.01.18,0,.37,0,.57h-1.73v-2.97Z"/>
  <path class="cls-4" d="m71.06,86.11c.12-.34.26-.67.37-1.02.58-1.76,1.15-3.52,1.73-5.28.19-.58.39-1.16.58-1.74.04-.13.11-.16.23-.15.76,0,1.52,0,2.29,0,.16,0,.21.05.25.2.8,2.64,1.6,5.28,2.4,7.92.01.04.03.08.05.16.12-.36.22-.68.32-1,.62-2.12,1.24-4.25,1.87-6.37.08-.26.15-.52.24-.77.02-.06.11-.12.16-.13,1.07,0,2.15,0,3.22,0,.03,0,.06,0,.11.02-.07.24-.14.47-.22.7-1.07,3.36-2.14,6.71-3.22,10.07-.2.64-.41,1.28-.61,1.92-.04.12-.09.15-.21.15-1.02,0-2.05,0-3.07,0-.14,0-.2-.04-.24-.18-.7-2.36-1.41-4.72-2.12-7.08-.01-.04-.03-.08-.05-.17-.07.19-.14.34-.19.5-.64,1.88-1.28,3.75-1.92,5.63-.13.38-.26.76-.38,1.14-.04.12-.09.17-.22.17-1.03,0-2.06,0-3.09,0-.12,0-.17-.03-.21-.15-1.02-3.43-2.04-6.86-3.06-10.3-.22-.74-.43-1.47-.65-2.21-.02-.06-.03-.12-.05-.21h.23c1,0,2,0,3,0,.18,0,.25.05.29.22.69,2.58,1.39,5.17,2.09,7.75.02.07.04.14.06.21.01,0,.03,0,.04.01Z"/>
  <g>
    <path class="cls-8" d="m163.69,136.68c1.43,0,3.13.55,4.55,1.79,2.04,1.78,2.15,4.85.2,6.73-2.03,1.96-4.5,2.37-7.18,1.82-1.32-.27-2.47-.9-3.41-1.86-1.75-1.78-1.8-4.38-.13-6.24,1.48-1.64,3.37-2.24,5.97-2.24Zm-5.22,5.14c0,2.78,2.01,4.73,4.89,4.73,2.59,0,4.44-1.86,4.45-4.47.01-2.87-1.87-4.75-4.75-4.75-2.73,0-4.59,1.82-4.59,4.49Z"/>
    <path class="cls-8" d="m208.65,147.07h-1.97c.13-1.77.03-3.53.07-5.32h-6.3c.09,1.77-.15,3.53.15,5.3h-2.06c.06-.39.16-.76.16-1.13.01-2.68.01-5.37,0-8.05,0-.32-.1-.65-.15-1.01h2.07c-.05.39-.15.79-.16,1.2-.02.97,0,1.94,0,2.95h6.29c-.07-1.39.14-2.78-.14-4.16h2.07c-.06.37-.16.73-.16,1.08-.01,2.7-.01,5.4,0,8.1,0,.33.08.66.13,1.04Z"/>
    <path class="cls-8" d="m219.36,136.83c.69,0,1.39-.02,2.08.02.17,0,.35.18.49.32,2.16,2.21,4.32,4.43,6.48,6.64.08.08.17.16.32.3.01-.23.03-.39.03-.55,0-1.79.01-3.59,0-5.38,0-.44-.11-.88-.17-1.32h1.22c-.06.4-.16.79-.17,1.18-.01,2.92,0,5.84,0,8.76,0,.16-.02.32-.03.6-2.89-2.95-5.69-5.82-8.49-8.68-.04,0-.08.02-.13.02.07,2.76-.11,5.53.09,8.32h-1.11c.06-.39.17-.78.17-1.17.02-2.32,0-4.65.02-6.97,0-.79.11-1.61-.79-2.09Z"/>
    <path class="cls-8" d="m194.5,139.73c-.29-.38-.48-.66-.71-.91-1.98-2.22-6.45-1.92-8.12.54-1.81,2.67-.16,6.47,3.09,7.08,1.23.23,2.45.22,3.62-.29.9-.39,1.58-1.05,2.19-1.84-.05.58-.09,1.16-.17,1.74-.01.1-.14.24-.24.28-2.78,1.15-5.57,1.38-8.32-.06-3.57-1.87-3.72-6.28-.31-8.43,1.76-1.11,3.72-1.34,5.73-1.08.91.12,1.79.41,2.68.66.16.05.37.27.39.43.09.57.1,1.15.16,1.87Z"/>
    <path class="cls-8" d="m172.67,144.34c.22.36.35.6.51.82.86,1.24,2.41,1.75,3.81,1.28.83-.28,1.36-.95,1.4-1.78.04-.84-.39-1.38-1.13-1.71-.78-.34-1.58-.66-2.34-1.04-.53-.27-1.07-.56-1.51-.95-1.08-.97-.99-2.6.22-3.41,1.63-1.11,3.4-1.11,5.19-.39.12.05.22.25.23.39.05.46.06.92.09,1.53-.16-.22-.24-.32-.32-.43-.77-1.11-2.27-1.63-3.49-1.23-.7.23-1.13.8-1.14,1.48,0,.46.17.85.59,1.06,1.01.5,2.03.98,3.04,1.46.32.16.66.29.96.48,1.59.97,1.75,3.05.33,4.25-1.36,1.14-2.93,1.29-4.6.91-1.85-.42-1.88-.47-1.86-2.33,0-.08,0-.16.02-.4Z"/>
    <path class="cls-8" d="m154.37,136.85v1.02c-1.58-.68-3.24-.24-4.9-.47v3.68c1.17-.09,2.35.2,3.53-.21v1.05c-1.15-.42-2.33-.09-3.47-.22-.24.75-.15,4.85.12,5.36h-2.12c.05-.45.13-.89.13-1.34.01-2.56.01-5.12,0-7.69,0-.39-.11-.78-.17-1.19h6.88Z"/>
    <path class="cls-8" d="m213.34,136.84h2.09c-.05.41-.15.82-.15,1.22-.01,2.65-.01,5.29,0,7.94,0,.35.09.69.14,1.06h-2.06c.06-.38.17-.76.17-1.13.01-2.68.01-5.36,0-8.04,0-.34-.12-.67-.18-1.05Z"/>
    <path class="cls-8" d="m233.9,136.84h2.1c-.05.4-.15.79-.15,1.18-.01,2.66-.01,5.33,0,7.99,0,.34.09.69.15,1.06h-2.03c.05-.43.13-.86.14-1.29.01-2.61.01-5.22,0-7.84,0-.35-.12-.71-.19-1.1Z"/>
  </g>
  <g>
    <g>
      <path class="cls-8" d="m288.25,94.34c.25.31.37.68.37,1.11,0,.56-.19,1.05-.56,1.42s-.93.56-1.55.56h-2.79v-6.75h2.29c.56,0,1.05.19,1.42.5s.5.74.5,1.24c0,.56-.25.99-.68,1.3.43.06.74.31.99.62Zm-3.78-2.97v2.1h1.42c.37,0,.68-.12.87-.31.19-.19.31-.43.31-.74s-.12-.56-.31-.74c-.19-.19-.5-.31-.87-.31,0,0-1.42,0-1.42,0Zm2.97,4.95c.25-.25.37-.56.37-.93s-.12-.68-.37-.93c-.25-.25-.56-.37-1.05-.37h-1.92v2.48h1.92c.43.12.8,0,1.05-.25Z"/>
      <path class="cls-8" d="m294.87,91.37h-3.53v2.04h2.66v.74h-2.66v2.54h3.65v.74h-4.46v-6.75h4.33v.68Z"/>
      <path class="cls-8" d="m309.17,94.71c0,.87-.25,1.55-.74,2.04-.5.5-1.11.74-1.92.74s-1.42-.25-1.92-.74c-.5-.5-.74-1.18-.74-2.04v-4.02h.8v4.09c0,.68.19,1.18.5,1.49.37.31.8.5,1.36.5s.99-.19,1.36-.5.5-.8.5-1.49v-4.09h.8v4.02h0Z"/>
      <path class="cls-8" d="m316.35,91.37h-2.35v6h-.8v-6h-2.35v-.68h5.51s0,.68,0,.68Z"/>
      <path class="cls-8" d="m320.87,94.59v2.79h-.8v-2.79l-2.35-3.9h.93l1.86,3.16,1.86-3.16h.87l-2.35,3.9Z"/>
      <path class="cls-8" d="m299.27,90.69l-2.85,6.68h.8l.56-1.36h3.28l.56,1.36h.93l-2.85-6.68h-.43Zm-1.11,4.64l1.36-3.28,1.36,3.28h-2.72Z"/>
    </g>
    <g>
      <polygon class="cls-8" points="265.9 86.61 265.9 83.76 269.56 83.76 269.56 82.21 265.9 82.21 265.9 79.92 270.73 79.92 270.73 78.31 264.17 78.31 264.17 88.22 270.92 88.22 270.92 86.61 265.9 86.61"/>
      <path class="cls-8" d="m280.45,79.67c-.99-.87-2.29-1.36-3.9-1.36h-3.16v9.9h3.16c1.61,0,2.91-.5,3.9-1.36.99-.93,1.49-2.1,1.49-3.59-.06-1.49-.56-2.66-1.49-3.59Zm-.31,3.59c0,.99-.31,1.79-.99,2.41-.62.62-1.55.93-2.6.93h-1.36v-6.68h1.36c1.11,0,1.98.31,2.66.93.56.56.93,1.42.93,2.41Z"/>
      <path class="cls-8" d="m289.11,82.89v1.55h2.97v.93c-.62.93-1.61,1.42-2.79,1.42-.99,0-1.86-.31-2.54-.99-.62-.68-.99-1.55-.99-2.54s.31-1.86.93-2.48c.62-.68,1.42-.99,2.48-.99,1.18,0,2.1.5,2.85,1.49l.06.06,1.24-1.05-.06-.06c-.99-1.36-2.35-2.04-4.09-2.04-1.49,0-2.72.5-3.71,1.49-.93.93-1.49,2.17-1.49,3.59s.5,2.66,1.49,3.65c.99.99,2.23,1.49,3.71,1.49.99,0,1.92-.25,2.72-.68.8-.5,1.42-1.11,1.86-1.92h0v-2.85h-4.64v-.06Z"/>
      <path class="cls-8" d="m322.6,83.82c-.37-.43-.99-.8-1.79-1.18l-1.11-.5c-.5-.25-.8-.43-1.05-.62-.19-.19-.25-.37-.25-.68,0-.37.12-.62.37-.8s.62-.31.99-.31c.8,0,1.49.37,1.98,1.11l.06.06,1.24-.93-.06-.06c-.31-.56-.74-.99-1.3-1.3-.56-.31-1.18-.43-1.86-.43-.87,0-1.61.25-2.23.74s-.93,1.18-.93,1.98c0,.62.19,1.18.62,1.61s.99.8,1.67,1.11l1.05.5c.5.25.87.43,1.05.62.19.19.31.43.31.74,0,.37-.12.68-.43.93s-.68.37-1.18.37c-.93,0-1.79-.5-2.48-1.49l-.06-.06-1.24.93.06.06c.37.68.93,1.18,1.55,1.55s1.36.56,2.17.56c.93,0,1.73-.25,2.41-.8.62-.56.93-1.24.93-2.1.06-.62-.12-1.18-.5-1.61Z"/>
      <path class="cls-8" d="m300.32,78.31h-.8l-4.27,9.9h1.86l.68-1.61h4.27l.68,1.61h1.86l-4.27-9.9Zm1.11,6.75h-2.97l1.49-3.71,1.49,3.71Z"/>
      <path class="cls-8" d="m311.95,84.13c.56-.25.99-.56,1.3-1.05.37-.43.56-1.05.56-1.67,0-.93-.31-1.67-.93-2.23s-1.42-.87-2.41-.87h-3.65v9.9h1.73v-3.78h1.67l2.79,3.78h1.92l-2.97-4.09Zm.06-2.72c0,.43-.12.8-.43,1.05s-.68.43-1.18.43h-1.86v-3.03h1.86c.5,0,.93.12,1.18.43.31.31.43.68.43,1.11Z"/>
    </g>
    <rect class="cls-8" x="329.9" y="75.84" width="21.54" height="21.54"/>
  </g>
  <g>
    <path class="cls-8" d="m303.32,146.6c-.04-2.65.6-5.12,1.74-7.53-.7.23-1.31.53-1.88.92-1.07.72-1.9,1.65-2.53,2.78-.48.86-.77,1.78-.9,2.76-.04.31-.08.62-.1.93,0,.1-.03.15-.13.13-.04,0-.09,0-.13,0-2.69,0-5.39,0-8.08,0-.21,0-.27-.04-.27-.26.03-1.13.16-2.24.4-3.34.3-1.38.78-2.68,1.41-3.96-.42.11-.79.29-1.16.48-.82.43-1.53.99-2.16,1.67-.93,1.02-1.58,2.19-1.91,3.53-.13.56-.23,1.13-.21,1.71,0,.13-.03.17-.17.17-2.77,0-5.54,0-8.32,0-.16,0-.19-.07-.17-.2.07-.6.08-1.2.15-1.8.1-.84.26-1.67.47-2.49.19-.72.44-1.41.73-2.09.44-1.04.99-2.02,1.65-2.94.38-.53.78-1.04,1.21-1.52.33-.37.66-.72,1.02-1.06.94-.89,1.95-1.67,3.08-2.32.96-.55,1.97-1.01,3.02-1.35.95-.31,1.93-.54,2.93-.66.56-.07,1.13-.16,1.7-.15.15,0,.3-.05.45-.06.19,0,.22.05.22.23,0,1.61,0,3.21,0,4.82,0,.09,0,.17,0,.26.08.03.1-.04.14-.08,1.02-1.01,2.11-1.93,3.32-2.7,1.37-.86,2.83-1.49,4.4-1.91.73-.2,1.47-.34,2.21-.45.44-.06.89-.13,1.35-.12.21,0,.41,0,.61-.05.18-.04.26.01.26.23-.01,1.62,0,3.25,0,4.87v.28c.19-.21.34-.37.5-.52,1.13-1.13,2.39-2.07,3.78-2.85,1.34-.74,2.77-1.25,4.26-1.59.73-.17,1.47-.28,2.22-.33.51-.04,1.02-.09,1.53-.08,2.11.03,4.15.4,6.11,1.21,1.4.58,2.71,1.32,3.93,2.23.8.6,1.52,1.31,2.2,2.04.84.92,1.54,1.94,2.15,3.03.56,1,1.03,2.05,1.36,3.16.23.75.41,1.51.52,2.29.12.82.2,1.64.2,2.46,0,.16-.04.2-.2.2-2.7,0-5.41,0-8.11,0-.27,0-.35-.08-.35-.37,0-1.17-.29-2.28-.84-3.3-.49-.93-1.16-1.74-1.96-2.43-.5-.42-1.03-.78-1.61-1.07-.75-.37-1.54-.63-2.38-.71-.45-.04-.9-.11-1.35-.09-1.39.06-2.7.4-3.9,1.16-1.08.69-1.97,1.55-2.65,2.62-.52.82-.86,1.72-1.02,2.69-.07.44-.16.88-.15,1.33,0,.19-.12.17-.25.17-.78,0-1.55,0-2.33,0-2.01,0-4.02,0-6.03,0Z"/>
    <path class="cls-8" d="m306.17,152c-.03-.58.15-1.18.59-1.7.19-.22.45-.37.74-.45.48-.14.96-.15,1.42,0,.69.2,1.06.71,1.19,1.4.07.38.06.38-.33.38-.35,0-.35,0-.45-.4-.06-.23-.12-.47-.35-.6-.65-.37-1.82-.33-2.03.81-.09.52-.09,1.05.06,1.56.16.54.5.74,1,.81.18.02.37.01.56-.02.54-.1.74-.48.81-.95.02-.14.07-.16.18-.16.12,0,.24.01.36,0,.17-.02.2.06.19.2-.04.63-.34,1.12-.9,1.38-.73.33-1.47.35-2.18-.12-.49-.33-.68-.82-.81-1.36-.05-.22-.04-.44-.05-.76Z"/>
    <path class="cls-8" d="m297.52,152.76c0-.12-.03-.16-.16-.16-.28,0-.57,0-.85,0-.08,0-.18.03-.22-.09.05,0,.1,0,.15-.01.43-.06.95-.3.99-.83.02-.26.02-.5-.01-.75-.05-.38-.23-.66-.58-.86-.3-.17-.63-.18-.95-.2-.49-.03-.98,0-1.48-.01-.21,0-.27.04-.27.26.01,1.26,0,2.52,0,3.78,0,.53,0,.53.54.53.18,0,.19-.07.19-.21,0-.38,0-.76,0-1.14,0-.12.03-.16.16-.16.54,0,1.07,0,1.61,0,.12,0,.17.03.16.16,0,.27,0,.54,0,.8,0,.57,0,.57.57.55.12,0,.16-.03.16-.16,0-.5,0-1,0-1.5Zm-2.52-.52c-.13,0-.13-.06-.13-.16,0-.25,0-.5,0-.75,0-.09,0-.17,0-.26,0-.62,0-.65.62-.58.27.03.54,0,.8.09.16.05.28.13.33.28.11.35.11.7,0,1.05-.05.18-.22.24-.36.27-.41.08-.83.06-1.25.06Z"/>
    <path class="cls-8" d="m285.23,154.24c-.08-.24-.17-.49-.24-.73-.32-1.03-.65-2.06-.97-3.09-.17-.56-.17-.56-.72-.56h-.16c-.41,0-.42,0-.54.39-.38,1.23-.76,2.46-1.15,3.68-.18.58-.16.62.44.54.12-.01.21-.08.24-.19.05-.24.17-.46.21-.69.05-.3.24-.3.43-.26.32.08.64.07.94.03.53-.07.46-.05.61.4.01.04.04.08.05.12.15.56.15.56.73.54.16,0,.18-.07.14-.19Zm-2.45-1.63c-.1,0-.15-.02-.12-.13.2-.63.39-1.26.59-1.89,0-.01.03-.02.06-.04.21.69.43,1.37.64,2.07-.4,0-.79,0-1.17,0Z"/>
  </g>
  <g>
    <path class="cls-8" d="m388.55,84.84c.15-.09.07-.25.15-.34.86,1.21.8,2.96-.18,4.35-.95,1.36-2.3,1.97-3.93,2.04-.28.01-.38-.1-.38-.37-.01-.53.16-1,.36-1.48.16-.39.33-.78.5-1.16.24-.54.06-.97-.33-1.51,0,.66-.23,1.05-.68,1.34-.33.21-.28.62-.38.95-.05.18-.16.29-.33.29-.19,0,0-.24-.18-.27-.14.17-.16.54-.53.4-.29-.11-.26-.39-.27-.63-.01-.19-.04-.4,0-.58.18-.68-.25-1.18-.49-1.74-.08-.19-.26-.15-.41-.16-1-.08-2-.15-3.02-.31.45-.05.9-.1,1.34-.15.51-.06,1.02-.16,1.52-.17.58,0,.68-.31.63-.78-.02-.15-.04-.3-.05-.44.25-.07.37.33.47.22.4-.44,1.09-.35,1.45-.83.12-.16.2-.34.5-.15.27.16.56-.14.69-.36.19-.33.36-.25.58-.09.14.11.25.26.41.33.21.09.34.75.69.13.02-.03.17,0,.25.01.42.07.59.57.98.61.56.05.4.55.63.86Z"/>
    <path class="cls-8" d="m448.69,88.21c1.13.79,2.31,1.3,3.6,1.57.46.09.91.1,1.37.06.47-.04.84-.27.94-.72.1-.44-.29-.65-.62-.81-.83-.4-1.72-.62-2.59-.91-.57-.19-1.12-.43-1.63-.75-1.33-.86-1.29-2.3.09-3.08,1.19-.67,2.49-.73,3.81-.57.76.09,1.48.32,2.18.62.3.13.47.31.5.66.04.45.14.9.24,1.48-.7-.77-1.46-1.24-2.35-1.49-.75-.21-1.5-.22-2.25-.06-.34.07-.69.19-.72.59-.02.39.24.63.6.79.76.33,1.59.46,2.36.75.28.11.56.2.84.31,1.13.46,1.65,1.16,1.61,2.16-.04.91-.74,1.67-1.85,1.99-1.49.44-2.92.06-4.37-.26-.94-.21-1.49-.67-1.57-1.65-.02-.22-.12-.43-.2-.69Z"/>
    <path class="cls-8" d="m441.75,83.2h3.42c-1.12.68-2,1.48-2.87,2.29-.4.37-1.02.74-1.08,1.18-.06.45.6.84.97,1.23.96,1.03,1.89,2.09,3.2,2.88h-3.64c.3-.45.05-.83-.2-1.19-.67-.97-1.55-1.72-2.57-2.57.14,1.32-.26,2.54.44,3.71h-2.55c.54-1.52.54-6.22-.02-7.53h2.58c-.28.49-.46.99-.43,1.55.03.54,0,1.09,0,1.74,1.07-.71,1.98-1.47,2.76-2.38.24-.28.04-.61-.02-.92Z"/>
    <path class="cls-8" d="m432.18,85.16c-.94-.59-1.8-1.02-2.8-1.07-1.24-.07-2.3.55-2.86,1.7-.48,1-.31,2.05.48,2.93.91,1.01,2.27,1.32,3.58.85.61-.22,1.11-.6,1.67-1.01-.17.68-.32,1.3-.47,1.91-.04.15-.1.28-.3.32-1.77.3-3.51.33-5.17-.51-.93-.47-1.61-1.19-2.03-2.14-.61-1.38-.19-2.87,1.13-3.95,1.47-1.2,3.18-1.42,4.99-1.2.45.06.97.04,1.33.27.4.25.21.84.32,1.27.05.17.06.34.11.64Z"/>
    <path class="cls-8" d="m401.57,85.16c-.64-.42-1.26-.73-1.94-.94-1.51-.47-3.06.2-3.73,1.6-.86,1.78.64,3.46,1.94,3.82,1.22.34,2.3.02,3.29-.69.16-.11.3-.23.54-.42-.19.74-.35,1.38-.51,2.02-.03.13-.1.21-.24.24-1.94.32-3.85.36-5.58-.74-1.1-.69-1.84-1.69-1.9-3.02-.08-1.62.9-2.67,2.21-3.4,1.59-.89,3.31-.83,5.05-.53.51.09.67.31.69.78.02.4.11.8.18,1.27Z"/>
    <path class="cls-8" d="m406.06,83.18h2.37c-.65,1.04-.36,2.18-.43,3.27-.06.89.01,1.8.02,2.69,0,.19-.04.39.27.39,1.49.03,2.96,0,4.37-.89-.21.68-.39,1.29-.58,1.89-.04.15-.16.17-.29.17-1.94,0-3.88,0-5.72,0,.37-2.53.39-5.03,0-7.53Z"/>
    <path class="cls-8" d="m395.08,90.89c-.99,0-1.98-.01-2.97,0-.35,0-.5-.06-.49-.46.02-2.38.02-4.77,0-7.15,0-.34.09-.45.44-.44,1.11.02,2.23,0,3.45,0-1.69.86-2.9,1.96-2.95,3.91-.05,1.92.88,3.23,2.53,4.12Z"/>
    <path class="cls-8" d="m387.45,90.89c3.44-1.42,3.76-6.29-.13-8.03,1.25,0,2.36,0,3.48,0,.37,0,.27.25.27.44,0,1.69,0,3.39,0,5.08,0,.71-.02,1.41,0,2.12.01.32-.08.42-.41.42-1.02-.02-2.04,0-3.22,0Z"/>
    <path class="cls-8" d="m416.95,83.22h2.23c-.37,2.5-.37,4.98,0,7.54-.6,0-1.31,0-2.03,0-.18,0-.21-.07-.12-.23.37-.64.34-1.35.34-2.06,0-1.08,0-2.15,0-3.23,0-.69-.06-1.36-.43-2.01Z"/>
    <path class="cls-8" d="m464.24,81.57c-3.02,0-5.45,2.4-5.47,5.43-.02,3.04,2.39,5.52,5.42,5.51,3.19-.01,5.48-2.42,5.48-5.47,0-3.23-2.54-5.46-5.43-5.46Zm3.62,6.59c-.6-.02-1.2.02-1.8-.01-.45-.03-.64.1-.61.58.04.63,0,1.27.02,1.91,0,.3-.08.4-.39.39-.6-.02-1.2-.02-1.8,0-.28,0-.37-.09-.36-.37.02-.37,0-.74,0-1.19-.06-.37.21-.97-.11-1.23-.27-.22-.84-.06-1.28-.08-.44-.02-1,.19-1.28-.08-.28-.27-.08-.84-.09-1.27,0-1.06-.16-.94.96-.95.48,0,.95-.01,1.43,0,.28,0,.37-.09.36-.36-.02-.67.01-1.34-.01-2.01-.01-.33.1-.43.42-.41.58.02,1.17.02,1.75,0,.31-.01.39.1.38.4-.02.63.02,1.27-.02,1.91-.02.41.13.51.51.49.62-.03,1.24,0,1.85-.01.28,0,.42.05.41.37-.02.53-.02,1.06,0,1.59.01.28-.09.36-.36.36Z"/>
  </g>
  <g>
    <path class="cls-9" d="m389.35,126.51c24.36,0,48.71,0,73.07-.01.45,0,.59.05.59.53-.02,9.87-.01,19.74-.01,29.61-.14.46-.1.96-.37,1.4-.65,1.03-1.64,1.45-2.87,1.46-.14,0-.28,0-.41,0-22.12,0-44.24,0-66.37,0-.68,0-1.38,0-2.01-.33-1.22-.64-1.68-1.66-1.67-2.93,0-2.45,0-4.89,0-7.34,0-7.24,0-14.49,0-21.73,0-.22-.06-.45.06-.66Z"/>
    <path class="cls-4" d="m398.76,136.25c.19-.65.36-1.2.51-1.76.06-.22.19-.29.42-.29,1.59.02,3.19-.03,4.78.05,1.86.1,3.06,1.31,3.21,3.07.25,2.99-1.92,5.47-5.12,5.88-.98.13-1.96.06-2.95.09-.3,0-.36-.1-.36-.36,0-2.01,0-4.03,0-6.04,0-.29.08-.4.4-.39.61.02,1.22.02,1.83,0,.36-.01.42.14.42.43-.01,1.27.01,2.54-.01,3.8,0,.43.15.51.55.43,1.68-.33,2.94-2.28,2.48-3.85-.19-.66-.76-1.05-1.61-1.06-1.28-.02-2.56,0-3.84,0-.21,0-.43,0-.71,0Z"/>
    <path class="cls-4" d="m447.85,136.59c1.14,0,2.28-.02,3.43,0,1.48.04,2.22.72,2.25,2.12.04,1.4,0,2.8.03,4.2,0,.34-.13.42-.45.39-.6-.05-1.37.24-1.76-.12-.34-.31-.08-1.03-.09-1.57-.02-.82,0-1.64-.03-2.46-.03-.61-.57-.93-1.2-.76-.3.08-.18.3-.18.46-.01,1.29-.03,2.58,0,3.86,0,.44-.09.66-.61.6-.56-.07-1.31.23-1.64-.12-.28-.3-.09-.99-.1-1.51,0-.95-.02-1.9,0-2.85,0-.33-.07-.45-.45-.44-.97.01-.97,0-.97.89,0,1.16-.03,2.31.01,3.47.02.48-.15.61-.63.57-.45-.04-.91-.02-1.36,0-.25,0-.35-.08-.35-.32,0-2.03,0-4.07,0-6.1,0-.32.2-.3.43-.3,1.22,0,2.44,0,3.66,0,0,0,0,0,0,.01Z"/>
    <path class="cls-4" d="m428.93,138.66c0-1.34.01-2.69,0-4.03,0-.35.11-.45.47-.43.49.03.99.03,1.48,0,.38-.02.47.12.45.45-.03.45.04.9-.02,1.34-.07.53.17.62.66.6.57-.03,1.14-.04,1.71.08.87.18,1.41.69,1.53,1.51.23,1.61.06,3.24.1,4.86,0,.24-.15.27-.35.27-.53,0-1.07-.03-1.59,0-.39.02-.45-.14-.45-.46.01-1.16.01-2.31,0-3.47-.02-.85-.51-1.18-1.39-.99-.32.07-.19.29-.19.44-.01,1.32-.02,2.65,0,3.97,0,.38-.08.54-.51.51-.47-.04-.95-.03-1.42,0-.37.02-.47-.1-.46-.44.02-1.4,0-2.8,0-4.2Z"/>
    <path class="cls-4" d="m425.94,134.24c1.61-.03,1.59-.03,2.06,1.46.16.5.04.6-.47.56-.53-.04-1.06-.01-1.59,0-1.26.02-1.91.71-1.81,1.91.15,1.67,1.42,2.87,3.21,3.04q.92.08.67.9-.39,1.3-1.8,1.11c-3.13-.44-5.36-3.49-4.7-6.43.33-1.45,1.53-2.42,3.19-2.54.41-.03.83,0,1.24,0Z"/>
    <path class="cls-4" d="m413.92,143.29c-1.38,0-1.35,0-1.8-1.23-.18-.49-.11-.67.46-.6.35.04.71.04,1.06.04.39,0,.53-.15.26-.48-.32-.4-.67-.78-1-1.18-.22-.26-.45-.52-.63-.81-.67-1.1-.03-2.31,1.3-2.43.7-.06,1.42-.03,2.13-.03.16,0,.3,0,.36.2.13.43.29.85.44,1.27.07.19,0,.28-.21.28-.24,0-.47-.01-.71,0-.24.02-.56-.08-.69.18-.11.24.16.4.3.56.34.41.71.8,1.05,1.21.26.31.46.65.52,1.05.16,1.06-.56,1.88-1.74,1.95-.37.02-.75,0-1.12,0Z"/>
    <path class="cls-4" d="m411.05,139.9c0,.99-.01,1.98,0,2.97,0,.34-.11.46-.47.44-.49-.03-.99-.03-1.48,0-.38.02-.46-.13-.46-.45.01-1.96.01-3.92,0-5.87,0-.32.11-.42.44-.41.51.02,1.02.02,1.53,0,.35-.02.43.11.43.42-.02.97,0,1.94,0,2.91Z"/>
    <path class="cls-4" d="m422.53,146.15c.07-.02.08-.03.1-.03.9-.15,1.61.04,2.12.84.23.36.54.92.95.89.33-.02.62-.57.93-.88.08-.08.18-.16.23-.26.34-.66.92-.7,1.61-.58-.51,1.31-.32,2.66-.22,4,.01.17,0,.23-.19.23-.31,0-.67.09-.93-.03-.36-.16-.02-.5-.04-.76-.05-.55-.02-1.12-.02-1.83-.47.48-.86.85-1.21,1.26-.22.25-.36.26-.57,0-.34-.41-.72-.79-1.21-1.32,0,.98-.07,1.81.09,2.66h-1.25c.19-1.13.07-2.25.1-3.37,0-.25-.01-.25-.49-.83Z"/>
    <path class="cls-4" d="m411.25,146.15s.07-.04.11-.04c.35,0,.78-.11,1.04.03.3.17-.02.56,0,.86.08,1.04-.09,2.09.11,3.12.05.24-.08.24-.25.23-.33,0-.66,0-1.04,0,.15-.48.1-.92.13-1.36.04-.41-.14-.49-.54-.49-1.37,0-1.4.02-1.24,1.31.02.16.06.32.1.48-.06.02-.09.05-.13.05-.35,0-.78.11-1.04-.03-.31-.17.03-.56,0-.86-.08-1.04.09-2.09-.1-3.12-.04-.24.09-.24.26-.24.31,0,.63,0,1.01,0-.13.48-.09.93-.11,1.38,0,.26.08.34.37.36,1.49.09,1.61-.06,1.34-1.69Z"/>
    <path class="cls-4" d="m444.03,147.89c-.18.58-.43.89-1.06.63-.35-.14-.51.03-.47.38.02.17.01.34,0,.5-.02.25.11.31.36.3.53-.01,1.03-.18,1.55-.3q-.29.96-1.26.96c-.61,0-1.22,0-1.82,0,.13-1.35.12-2.66.02-3.97-.02-.22-.02-.29.23-.29.86,0,1.72,0,2.6,0-.23.79-.23.78-1,.67-.26-.03-.65-.27-.68.29-.04.78-.03.82.6.82.29,0,.59,0,.94,0Z"/>
    <path class="cls-4" d="m438.11,149.39c.22.62-.09.86-.65.94-.81.12-1.61.16-2.36-.21-1.43-.71-1.64-2.42-.41-3.4.9-.71,1.95-.83,3.06-.58.55.12.25.52.29.82-1.43-.43-2.2-.32-2.71.38-.39.54-.36,1.36.08,1.88.56.66,1.31.71,2.69.17Z"/>
    <path class="cls-4" d="m419.12,140.28c-.55,0-1.11.07-1.65-.02-.78-.13-.21-.75-.33-1.13-.06-.18-.27-.64.32-.63,1.1.01,2.21-.07,3.3.03.79.07.22.74.33,1.12.06.19.25.64-.33.63-.55,0-1.1,0-1.65,0Z"/>
    <path class="cls-4" d="m447.63,146.98c-.33-.14-.6-.32-.93-.28-.21.03-.44.09-.5.32-.06.21.04.36.21.49.31.23.63.45.92.7.38.33.6.73.43,1.25-.19.53-.6.81-1.16.91-.21.04-.43.04-.65.03-.94-.04-.98-.08-.91-1.01.35.19.68.39,1.09.34.23-.03.42-.11.51-.32.09-.21.02-.42-.15-.56-.28-.23-.59-.43-.88-.65-.37-.28-.64-.62-.56-1.1.09-.52.48-.8.97-.96.28-.09.57-.13.87-.11.77.06.84.13.75.96Z"/>
    <path class="cls-4" d="m439.01,146.13h1.25c-.13,1.31-.14,2.6-.01,3.88.04.35-.06.37-.34.36-.27-.01-.61.08-.81-.04-.26-.16.03-.46.02-.71-.05-1.15.08-2.31-.1-3.48Z"/>
    <path class="cls-4" d="m409.82,136.03c-1.16,0-1.17,0-1.16-1.11,0-.8-.09-.71.76-.71.35,0,.71,0,1.06,0,.1,0,.22-.04.29,0,.58.37.16.93.27,1.39.05.22.03.45-.34.43-.29-.02-.59,0-.88,0Z"/>
    <path class="cls-4" d="m442.71,139.19c.57-1.29.04-2.37-1.37-2.65-1.14-.23-2.31-.23-3.45.06-.87.22-1.41.78-1.61,1.62-.58,2.48,1.28,4.86,3.96,5.07,1.69.13,1.77.07,2.2-1.47.08-.28.05-.36-.26-.35-.59.02-1.18,0-1.92-.1.42-.26.73-.44,1.03-.64.6-.4,1.13-.87,1.42-1.53Zm-2.49-.12c-.27.3-.62.51-.98.71-.49.27-.56.23-.61-.33-.07-.84.29-1.21,1.22-1.21.2.03.47-.05.59.22.1.25-.06.43-.21.6Z"/>
    <path class="cls-4" d="m420.82,148.51c.9-.44,1.14-.78,1.02-1.41-.09-.51-.59-.92-1.29-.97-.68-.05-1.37-.01-2.03-.01.07,1.41.1,2.8-.01,4.21h1.28c-.14-.49-.14-.98-.09-1.51.87.62,1.34,1.75,2.77,1.49-.63-.62-1.2-1.16-1.66-1.81Zm-.86-.51c-.54.02-.15-.43-.31-.62.15-.2-.2-.63.33-.62.38,0,.7.16.7.59,0,.45-.33.64-.72.65Z"/>
    <path class="cls-4" d="m416.02,146.36c-.14-.28-.34-.25-.57-.26-.25-.01-.43.02-.54.29-.21.5-.49.97-.74,1.46-.43.82-.86,1.65-1.31,2.51.35,0,.63,0,.9,0,.18,0,.25-.05.3-.24.27-.98.28-.97,1.32-.97.12,0,.24.02.35,0,.51-.1.8.14.87.58.1.59.45.73,1.01.64.13-.02.27,0,.47,0-.72-1.38-1.41-2.68-2.07-4Zm-.26,2.12c-.29,0-.58,0-.91,0,.1-.46.35-.8.54-1.22.27.31.37.66.53.98.08.16.03.24-.17.24Z"/>
    <path class="cls-4" d="m431.66,146.31c-.13-.26-.34-.2-.54-.22-.26-.03-.41.05-.54.3-.61,1.21-1.25,2.4-1.87,3.6-.05.1-.21.19-.08.36.12,0,.26-.01.4,0,.44.05.73-.02.78-.54.02-.23.12-.6.4-.64.56-.07,1.15-.11,1.7,0,.35.07.4.56.5.89.07.22.17.3.41.29.3-.02.61,0,.94,0-.72-1.39-1.42-2.71-2.09-4.05Zm-1.18,2.13c.21-.42.39-.78.57-1.14.18.03.18.16.22.24q.49,1-.79.9Z"/>
    <path class="cls-4" d="m407.67,147.26c-.05-.65-.59-1.1-1.43-1.14-.6-.03-1.21,0-1.8,0,.08,1.43.08,2.82,0,4.25.21,0,.43.01.64,0,.2-.01.42.07.62-.07-.02-.12-.04-.23-.07-.34-.07-.37-.15-.77,0-1.1.13-.31.57-.14.86-.22.86-.25,1.24-.66,1.18-1.37Zm-1.86.8c-.5-.02-.05-.47-.3-.63.2-.23-.19-.66.34-.67.4,0,.67.2.66.63,0,.44-.3.7-.7.68Z"/>
  </g>
  <g>
    <path class="cls-8" d="m390.4,193.12c-.33-.29-.54-.44-.71-.62-.23-.24-.23-.51-.04-.77.2-.27.49-.35.75-.17.82.56,1.57,1.21,2.24,1.95.26.29.06.58-.19.79-.6.53-1.2,1.07-1.81,1.59-.33.28-.69.32-1-.03-.32-.37-.09-.64.19-.91.11-.11.29-.17.29-.45-1.11,0-2.21,0-3.31,0-1.23,0-2.47,0-3.7,0-1.74.02-3.16,1.44-3.17,3.16,0,2.03,1.21,3.34,3.12,3.37.21,0,.43,0,.64,0,.44.01.74.24.76.68.02.45-.3.69-.72.71-2.26.12-4.27-.8-5.03-3.27-.93-3.04,1.34-6.02,4.54-6.02,2.32,0,4.64,0,7.17,0Z"/>
    <path class="cls-8" d="m395.18,194.76c0,1.42,0,2.83,0,4.25,0,.49,0,1.02-.68,1.01-.69,0-.73-.53-.73-1.06,0-2.69-.02-5.39.01-8.08.02-1.39-.62-2.38-1.79-2.98-1.24-.63-2.51-.45-3.64.31-.74.5-1.16,1.23-1.18,2.15,0,.33.02.67-.02.99-.05.4-.29.63-.73.62-.4-.01-.6-.22-.65-.6-.47-3.08,2.35-5.73,5.42-5.18,2.24.41,4.18,2.25,4.01,4.88-.08,1.22-.01,2.46-.01,3.68Z"/>
    <path class="cls-8" d="m385.75,200.86c0-1.46,0-2.93,0-4.39,0-.48.04-.95.66-.96.64,0,.74.48.74.99,0,2.74,0,5.47,0,8.21,0,1.49.79,2.62,2.13,3.1,1.32.47,2.95.05,3.83-.99.56-.65.69-1.43.65-2.25-.03-.52.04-.99.69-1,.66-.01.71.46.72.98.01,2.63-1.52,4.46-4.04,4.82-2.34.34-4.63-1.12-5.27-3.36-.2-.72-.1-1.45-.11-2.18-.02-.99,0-1.98,0-2.97Z"/>
    <path class="cls-8" d="m393.49,202.44c-1.45,0-2.89,0-4.34,0-.52,0-.99-.08-.97-.74.02-.62.49-.66.97-.66,2.8,0,5.6,0,8.4,0,1.41,0,2.43-.65,2.99-1.9.56-1.26.38-2.49-.48-3.59-.54-.7-1.3-.99-2.17-1.05-.26-.02-.52,0-.78,0-.45,0-.75-.2-.78-.64-.03-.46.28-.71.7-.73,1.7-.09,3.22.33,4.27,1.76,1.12,1.53,1.33,3.22.47,4.94-.85,1.71-2.28,2.6-4.22,2.6-1.35,0-2.7,0-4.06,0Z"/>
    <path class="cls-8" d="m463.67,198.38c0-.68-.01-1.37,0-2.05,0-.23-.16-.58.17-.67.33-.09.77-.15.99.18.27.41.47.25.76.07.81-.51,1.47-.46,2.16.21.21.2.29.12.45,0,.26-.2.55-.37.87-.46,1.17-.32,1.96.26,2.02,1.47.06,1.2-.13,2.4.15,3.59.1.41-.33.4-.57.44-.45.07-.9.02-.98-.54-.06-.44-.03-.89-.04-1.34,0-.52,0-1.04,0-1.56,0-.42-.06-.86-.63-.83-.5.03-.92.24-.93.85,0,.94-.04,1.89.01,2.83.04.63-.31.6-.74.6-.44,0-.77,0-.73-.62.05-.94.02-1.89,0-2.83,0-.41-.04-.87-.62-.83-.53.04-.95.25-.94.91.02.94-.03,1.89.02,2.83.04.63-.36.53-.72.53-.37,0-.78.11-.73-.53.05-.75.01-1.51.01-2.26Z"/>
    <path class="cls-8" d="m448.17,196.08c.12,0,.15,0,.16,0,2.01-1.07,3.01-.46,3.05,1.83.01.92-.1,1.85.1,2.75.09.42-.22.45-.43.48-.41.06-.87.15-1.08-.39-.11-.3-.08-.61-.08-.91,0-.71,0-1.42,0-2.13,0-.41,0-.83-.6-.83-.6,0-1.07.34-1.08.87-.02.92-.04,1.84,0,2.76.02.53-.13.71-.67.68-.46-.03-.79,0-.78-.65.04-2.29.02-4.58.02-6.87,0-.34-.06-.69.47-.65.44.03.9.05.92.64.02.8,0,1.6,0,2.43Z"/>
    <path class="cls-8" d="m428.95,198.37c0-.68-.01-1.37,0-2.05,0-.23-.16-.58.19-.67.33-.08.76-.15.99.19.23.33.37.29.7.11,1.48-.86,2.61-.22,2.72,1.48.07,1.1-.1,2.21.14,3.31.08.39-.33.39-.59.43-.45.06-.9,0-.98-.55-.06-.42-.03-.85-.04-1.27,0-.54,0-1.08,0-1.63,0-.41.01-.83-.59-.84-.6,0-1.09.39-1.09.93-.01.92-.04,1.84.01,2.76.04.62-.29.61-.73.61-.44,0-.78,0-.73-.62.05-.73.01-1.46.01-2.19Z"/>
    <path class="cls-8" d="m415.96,198c0,.87-.04,1.75.01,2.62.03.62-.34.56-.72.55-.37-.02-.84.15-.83-.53.03-1.7,0-3.4.03-5.1.01-.56-.13-.79-.7-.71-.19.03-.38-.01-.57,0-.44.04-.7-.02-.7-.58-.01-.58.24-.64.72-.63,1.4.03,2.8,0,4.2,0,.26,0,.54-.04.55.36,0,.34.03.71-.4.79-.37.07-.76.11-1.13.07-.41-.05-.48.1-.47.46.02.9,0,1.79,0,2.69Z"/>
    <path class="cls-8" d="m436.96,201.24c-.6,0-1.09-.07-1.56-.24-.37-.14-.62-.31-.43-.78.18-.43.41-.47.8-.25.4.23.85.27,1.31.22.25-.03.47-.14.53-.39.07-.3-.11-.5-.36-.61-.34-.15-.71-.27-1.05-.42-.86-.36-1.23-.92-1.16-1.74.06-.72.58-1.22,1.44-1.44.8-.2,1.55.03,2.3.23.38.1.26.38.16.63-.09.23-.13.54-.52.39-.4-.15-.81-.27-1.24-.27-.29,0-.6.02-.67.37-.07.35.21.5.48.61.3.13.63.22.93.34.91.38,1.36,1.04,1.26,1.83-.1.82-.74,1.36-1.74,1.47-.19.02-.38.03-.47.03Z"/>
    <path class="cls-8" d="m419.9,196.47c.39-.54.84-.94,1.54-.86.23.03.59-.08.53.35-.06.39.02.91-.55.98-1.19.13-1.33.26-1.33,1.41,0,.78-.03,1.55,0,2.33.03.59-.38.5-.71.48-.33-.02-.81.18-.8-.47.02-.94,0-1.88,0-2.82,0-.49.05-.99-.27-1.43-.21-.28.05-.48.19-.68.16-.22.38-.15.58-.07.37.14.61.42.81.78Z"/>
    <path class="cls-8" d="m460.5,196.52c.34-.66.83-.98,1.52-.91.23.02.59-.08.51.36-.07.37.01.86-.5.97-1.38.28-1.38.26-1.38,1.65,0,.68-.03,1.37,0,2.05.03.62-.38.53-.75.53-.36,0-.78.09-.76-.53.03-1.03,0-2.07,0-3.11,0-.33.03-.68-.19-.95-.26-.32-.11-.57.1-.81.25-.28.52-.12.77,0,.29.14.44.41.66.74Z"/>
    <path class="cls-8" d="m407.42,197.48c0-1.39.01-2.78,0-4.17,0-.41.12-.52.52-.51.38.01.61.02.6.52-.02,2.76-.02,5.52,0,8.28,0,.44-.15.55-.57.57-.46.01-.55-.16-.55-.57.02-1.37,0-2.74,0-4.1Z"/>
    <path class="cls-8" d="m445.02,196.71c-.45-1.16-1.58-1.54-2.67-.92-.31.18-.52.31-.82-.03-.2-.23-.55-.2-.81-.1-.28.11-.14.41-.15.63-.01,1.09,0,2.17,0,3.26,0,1.09-.01,2.17,0,3.26,0,.26-.19.67.35.67.46,0,.95.06,1.01-.59.04-.42.05-.85.05-1.27,0-.4-.03-.64.56-.49,1.17.3,2.02-.18,2.49-1.31.43-1.03.38-2.08-.02-3.1Zm-1.46,2.92c-.22.4-.54.55-1.01.44-.45-.11-.62-.34-.59-.8.03-.52.04-1.04,0-1.56-.05-.68.34-.97.91-1.03.57-.06.75.4.85.86.06.25.05.52.07.74-.03.49-.01.94-.23,1.35Z"/>
    <path class="cls-8" d="m427.32,200.23c-.17-.22-.12-.5-.13-.75,0-.66,0-1.32,0-1.98-.03-1.28-.71-1.95-2.01-1.95-.66,0-1.31.13-1.95.34-.35.12-.47.25-.33.61.12.31.17.64.67.45.37-.14.78-.22,1.17-.26.51-.06.9.12.93.7.03.67-.5.28-.74.39-.14,0-.26,0-.38,0-.93.06-1.67.56-1.88,1.27-.21.69,0,1.46.51,1.87.6.49,1.54.53,2.32,0,.36-.25.56-.17.85.07.21.18.52.34.77.09.22-.22.48-.48.19-.85Zm-1.58-.96c-.05.54-.44.92-1.02.91-.48,0-.67-.27-.66-.72.01-.71.54-.71,1.03-.74.41-.04.69.02.64.55Z"/>
    <path class="cls-8" d="m457.44,200.19c-.15-.24-.13-.54-.13-.83,0-.73.02-1.46-.02-2.19-.04-.83-.49-1.35-1.31-1.54-.94-.21-1.83.01-2.72.3-.41.13-.27.43-.18.7.09.24.16.48.55.35.44-.15.92-.26,1.38-.29.48-.03.82.22.83.76,0,.63-.49.21-.68.34-.16,0-.28,0-.4,0-.98.05-1.69.52-1.93,1.29-.23.73,0,1.49.56,1.91.62.46,1.53.45,2.33-.09.29-.2.44-.19.69.04.23.22.56.42.89.14.27-.23.38-.51.15-.87Zm-2.54-.01c-.49.02-.7-.26-.7-.68,0-.67.48-.78,1.21-.77.17,0,.52-.06.48.52-.04.56-.37.91-.98.94Z"/>
  </g>
  <g>
    <path class="cls-8" d="m491.03,89.8s.08-.03.11-.05c.34-.26.56-.29.85.14.5.74,1.29.87,2.12.69.46-.1.8-.38.9-.86.12-.53,0-1.01-.42-1.38-.29-.25-.64-.41-.98-.59-.43-.21-.86-.41-1.25-.69-.77-.55-1.04-1.26-.84-2.14.17-.72.76-1.23,1.58-1.35.87-.13,1.81.29,2.21.95.15.25-.02.32-.17.41-.14.09-.27.29-.45,0-.31-.48-.78-.66-1.34-.64-.5.02-.91.29-1.06.7-.17.49-.03,1,.39,1.32.35.27.75.44,1.14.64.42.22.86.42,1.23.73.72.62.97,1.47.67,2.37-.29.86-.95,1.21-1.8,1.31-1.3.15-2.24-.39-2.9-1.49,0-.03,0-.05,0-.08Z"/>
    <path class="cls-8" d="m491.03,92.67c1.47,0,2.95.01,4.42,0,.36,0,.35.17.35.42,0,.25,0,.42-.35.42-1.47-.02-2.95,0-4.42,0v-.82Z"/>
    <path class="cls-8" d="m588.45,85.7c-.82,1.5-1.6,2.91-2.38,4.32-.1.19-.17.42-.45.42-.28,0-.34-.23-.45-.42-.77-1.4-1.54-2.79-2.37-4.3,0,.22,0,.33,0,.45,0,1.41,0,2.82,0,4.23,0,.31-.07.58-.33.75-.18.12-.39.15-.56-.03-.17-.17-.16-.39,0-.55.15-.15.15-.31.15-.48,0-1.81,0-3.61,0-5.42,0-.16.02-.32-.13-.45-.19-.18-.2-.4,0-.57.2-.18.44-.14.63.04.11.1.18.24.25.37.87,1.59,1.74,3.19,2.61,4.79.06.11.12.21.21.36.2-.36.37-.67.54-.99.76-1.39,1.51-2.78,2.27-4.18.07-.13.13-.27.26-.37.2-.16.43-.21.63-.02.2.18.17.4-.02.57-.13.12-.11.27-.11.42,0,1.83,0,3.67,0,5.5,0,.15-.01.29.12.41.19.18.2.39,0,.57-.21.19-.44.13-.63-.03-.22-.18-.23-.45-.23-.71,0-1.53,0-3.06,0-4.69Z"/>
    <path class="cls-8" d="m510.78,87.47c0-1.16,0-2.32,0-3.48,0-.27.07-.35.34-.35,1.26.01,2.51.02,3.77,0,.32,0,.31.16.31.38,0,.23-.02.38-.32.37-.98-.02-1.97,0-2.95-.02-.34,0-.41.11-.4.42.02.61.03,1.23,0,1.84-.02.35.06.48.44.46.83-.03,1.67,0,2.5-.02.33,0,.34.14.34.39,0,.25-.05.36-.34.36-.86-.02-1.72,0-2.58-.01-.29,0-.37.09-.36.37.02.67.02,1.34,0,2.01,0,.3.1.37.38.36,1.01-.01,2.02,0,3.03,0,.26,0,.4.04.39.35,0,.29-.07.4-.39.4-1.28,0-2.57,0-3.85.03-.26,0-.32-.09-.32-.33,0-1.18,0-2.35,0-3.53Z"/>
    <path class="cls-8" d="m497.57,86.51c0-.85.02-1.7,0-2.54,0-.34.17-.32.41-.33.24,0,.37.03.37.33-.01,1.52,0,3.04,0,4.55,0,.2.01.41.05.61.24,1.29,1.4,1.89,2.6,1.34.72-.33.93-.97.94-1.69.02-1.57.01-3.15,0-4.72,0-.29.02-.44.38-.44.34,0,.43.11.43.44-.04,1.65.05,3.31-.05,4.96-.09,1.48-1.13,2.41-2.6,2.37-1.5-.04-2.47-.99-2.51-2.47-.02-.81,0-1.61,0-2.42,0,0,0,0,0,0Z"/>
    <path class="cls-8" d="m549.73,91.29c-.73.02-1.35-.19-1.94-.54-.24-.14-.44-.33-.25-.63.17-.28.42-.18.64-.05.75.46,1.56.57,2.39.29.45-.15.83-.39.9-.91.08-.55-.23-.9-.67-1.17-.41-.25-.87-.4-1.31-.56-.38-.14-.76-.31-1.1-.54-.69-.47-1.05-1.11-.93-1.95.11-.78.61-1.27,1.31-1.54,1.01-.39,1.96-.24,2.83.4.21.15.4.34.21.61-.2.29-.43.17-.67.01-.71-.48-1.47-.58-2.25-.22-.88.41-.95,1.41-.16,1.97.47.34,1.03.5,1.56.71.38.15.76.3,1.09.55,1.26.93,1.1,2.63-.31,3.29-.44.21-.9.3-1.35.28Z"/>
    <path class="cls-8" d="m568.82,91.3c-1.82,0-3.25-1.2-3.68-3-.43-1.81.49-3.73,2.17-4.5,1.02-.47,2.04-.4,3.04.06.26.12.45.29.32.6-.14.33-.38.26-.64.13-1.92-.91-4.08.38-4.21,2.52-.12,1.91,1.26,3.47,3.03,3.42.5-.01.97-.16,1.39-.43.23-.15.47-.22.63.07.15.28.02.49-.25.64-.58.33-1.2.52-1.8.5Z"/>
    <path class="cls-8" d="m557.47,87.72c0,.98,0,1.97,0,2.95,0,.28-.03.57-.37.57-.33,0-.38-.28-.38-.57,0-1.98,0-3.96,0-5.94,0-.32-.07-.43-.4-.42-.63.03-1.26,0-1.88,0-.27,0-.47-.1-.48-.38,0-.28.18-.39.46-.39,1.77,0,3.55,0,5.32,0,.27,0,.47.1.48.38,0,.28-.19.4-.46.39-.63,0-1.26.01-1.88,0-.31,0-.43.07-.42.41.02,1,0,1.99,0,2.99Z"/>
    <path class="cls-8" d="m539.48,87.34c0,.93.02,1.86,0,2.79,0,.29.09.33.34.33.96-.01,1.91,0,2.87,0,.3,0,.58.05.57.41,0,.33-.28.4-.56.39-1.23,0-2.46,0-3.69,0-.22,0-.41-.04-.52-.26-.09-.19-.01-.35.13-.47.12-.11.09-.25.09-.38,0-1.83,0-3.66,0-5.5,0-.15.01-.29-.11-.42-.21-.22-.21-.47.05-.62.26-.15.51-.05.68.19.16.24.16.52.16.79,0,.92,0,1.83,0,2.75Z"/>
    <path class="cls-8" d="m545.73,87.38c0,1.06,0,2.13,0,3.19,0,.1,0,.19,0,.29-.03.23-.16.39-.39.38-.21-.01-.34-.17-.34-.39,0-.27,0-.55,0-.82,0-1.91,0-3.82,0-5.73,0-.1,0-.19,0-.29,0-.25.07-.45.35-.45.3,0,.39.19.39.46,0,1.12,0,2.24,0,3.36Z"/>
    <path class="cls-8" d="m562.53,91.25c-.3,0-.55-.26-.56-.59-.01-.34.25-.62.56-.62.3,0,.57.28.57.58,0,.33-.26.62-.58.62Z"/>
    <path class="cls-8" d="m527.47,87.29s.03-.05.05-.06c.76-.5.91-1.22.76-2.05-.15-.86-.7-1.35-1.54-1.48-.92-.14-1.85-.03-2.78-.06-.18,0-.2.1-.19.24,0,.34,0,.68,0,1.03,0,2,0,3.99,0,5.99,0,.18-.07.41.25.4.96-.03,1.91.07,2.87-.03.62-.07,1.15-.35,1.49-.9.68-1.09.32-2.32-.91-3.08Zm-2.91-1.7c.04-.34-.19-.88.09-1.14.25-.24.78-.05,1.19-.07.12,0,.25,0,.37,0,1.19.02,1.57.92,1.24,1.94-.16.48-.58.64-1.03.67-.53.03-1.06,0-1.6.01-.21,0-.26-.09-.25-.27,0-.35,0-.71,0-1.14Zm2.12,4.96c-.62.1-1.25.02-1.88.05-.21,0-.25-.1-.25-.28,0-.4,0-.79,0-1.19s0-.79,0-1.19c0-.15.01-.27.21-.27.65.03,1.31-.07,1.96.06.78.15,1.19.66,1.18,1.43-.01.78-.44,1.26-1.23,1.38Z"/>
    <path class="cls-8" d="m579.86,86.1c-.58-1.76-2.36-2.89-4.03-2.57-2.19.42-3.58,2.54-3.09,4.72.4,1.81,1.88,3.04,3.63,3.05.23-.02.47-.03.69-.08,2.25-.49,3.55-2.87,2.8-5.13Zm-3.49,4.42c-1.63,0-2.94-1.41-2.93-3.15,0-1.73,1.31-3.07,2.95-3.07,1.63,0,2.92,1.38,2.91,3.11,0,1.72-1.32,3.11-2.93,3.11Z"/>
    <path class="cls-8" d="m520.15,88.11c.08-.04.14-.07.2-.1,1.01-.48,1.43-1.32,1.27-2.49-.13-.95-.81-1.62-1.85-1.81-.79-.14-1.58-.02-2.37-.07-.32-.02-.38.1-.38.4.01,2.3.01,4.59,0,6.89,0,.31.09.39.39.39.32,0,.39-.12.38-.41-.02-.48-.01-.96,0-1.43.01-.39-.17-.91.07-1.15.28-.27.8-.05,1.22-.09.21-.02.31.09.41.26.46.79.92,1.58,1.38,2.37.3.52.42.56,1.09.38-.61-1.04-1.21-2.07-1.83-3.12Zm-.7-.64c-.47.05-.96,0-1.43.02-.23,0-.23-.13-.23-.29,0-.42,0-.85,0-1.27s0-.85,0-1.27c0-.14-.01-.28.2-.28.5,0,1.02-.03,1.51.03.93.12,1.34.64,1.33,1.6-.01.89-.45,1.37-1.38,1.46Z"/>
    <path class="cls-8" d="m536.55,90.52c-.22-.11-.26-.3-.33-.49-.71-2-1.42-4.01-2.13-6.02-.09-.25-.16-.52-.49-.53-.35,0-.43.26-.53.53-.69,1.96-1.38,3.91-2.07,5.86-.09.25-.14.53-.42.67-.1.05-.12.17-.12.29,0,.29.24.46.53.39.29-.08.45-.29.55-.56.15-.42.31-.85.45-1.27.06-.18.15-.26.35-.25.82.01,1.64.01,2.46,0,.24,0,.33.09.4.3.13.4.27.8.42,1.2.1.26.24.49.53.59.23.08.42,0,.52-.2.1-.18.08-.4-.12-.5Zm-2.01-2.18c-.64-.02-1.28-.01-1.92,0-.23,0-.25-.07-.18-.26.38-1.05.76-2.1,1.15-3.18.39,1.08.76,2.12,1.14,3.15.07.19.08.3-.19.29Z"/>
    <path class="cls-8" d="m507.19,83.71c-.79-.14-1.58-.03-2.37-.07-.29-.02-.37.09-.36.37.01,1.15,0,2.3,0,3.45,0,1.18.01,2.35,0,3.53,0,.44.3.28.5.33.29.06.27-.13.27-.32,0-.77.01-1.53,0-2.3,0-.3.06-.41.38-.4.5.01,1.01.04,1.51-.04,1.21-.19,1.93-1.02,1.94-2.25.01-1.2-.7-2.08-1.86-2.29Zm-.15,3.79c-.53.1-1.06.04-1.59.06-.22.01-.23-.13-.23-.29,0-.44,0-.87,0-1.31s0-.87,0-1.31c0-.15,0-.28.21-.27.56.03,1.12-.06,1.67.07.76.18,1.15.72,1.14,1.57-.02.81-.44,1.33-1.2,1.48Z"/>
  </g>
  <g>
    <path class="cls-21" d="m584.96,137.87c-2.35-4.5-7.92-6.25-12.44-3.92-.01,0-.03.01-.04.02-4.49,2.34-6.23,7.87-3.89,12.35,2.35,4.5,7.92,6.25,12.44,3.92,4.52-2.34,6.28-7.88,3.94-12.38Zm-14.14,5.17c.15.22.35.33.61.33.41,0,.67-.26.8-.78l.8.08c-.06.43-.27.83-.6,1.13-.29.25-.65.37-1.06.37-.56,0-1-.21-1.3-.61-.3-.41-.45-.91-.45-1.5s.16-1.12.5-1.51c.32-.4.77-.6,1.32-.6.89,0,1.42.47,1.59,1.4l-.8.11c-.06-.5-.32-.76-.74-.76-.31,0-.54.14-.68.41-.14.27-.21.6-.21.99,0,.41.07.72.22.95Zm5.92.55c-.36.39-.83.58-1.39.58-.6,0-1.07-.21-1.39-.65-.32-.43-.48-.95-.47-1.49,0-.6.17-1.1.52-1.5.35-.4.86-.62,1.39-.6.55,0,1,.19,1.35.58.35.39.52.89.52,1.51s-.18,1.17-.55,1.55Zm7.19.49h0s-.97,0-.97,0v-2.53c0-.52-.23-.79-.7-.79-.27,0-.49.1-.65.3-.17.19-.25.49-.25.89v2.14h-.98v-2.53c0-.54-.22-.8-.65-.8-.27,0-.49.11-.67.32-.18.21-.27.5-.27.87v2.14h-.95v-4.07h.89v.87c.29-.63.74-.95,1.36-.95s.99.32,1.17.95c.33-.63.78-.95,1.36-.95.4,0,.71.12.96.36.24.25.36.55.36.91v2.87Z"/>
    <path class="cls-21" d="m575.41,140.69c-.32,0-.56.13-.71.38-.15.25-.23.58-.23.98,0,.45.08.78.24,1.02.17.23.39.35.67.35.62,0,.93-.46.93-1.38,0-.41-.07-.74-.22-.98-.14-.24-.4-.38-.68-.36Z"/>
  </g>
  <path class="cls-21" d="m563.3,134.54v4.03s1.9,0,1.9,0v2.46h-1.9v4.26c0,.45.04.75.11.9.12.23.32.34.6.34.26,0,.61-.08,1.07-.26l.83,2.65c-.85.22-2.23.47-2.98.47-.85,0-1.49-.13-1.9-.39s-.71-.65-.91-1.18c-.19-.52-.29-1.38-.29-2.56v-4.23h-1.28v-2.46h1.28v-4.03s3.47,0,3.47,0Z"/>
  <g class="cls-1">
    <path class="cls-21" d="m500.22,134.55v4.03h1.91v2.46h-1.9v4.26c0,.45.04.75.12.9.11.23.31.34.59.34.26,0,.61-.08,1.07-.26l.83,2.65c-.97.26-1.97.41-2.97.47-.86,0-1.5-.13-1.9-.39s-.71-.65-.91-1.18c-.19-.52-.29-1.38-.29-2.56v-4.23h-1.28v-2.46h1.28v-4.03h3.46Z"/>
  </g>
  <path class="cls-21" d="m509.56,144.16c-.48.19-.97.38-1.49.52-.71.22-1.15.44-1.33.65-.19.23-.29.47-.29.75,0,.32.1.58.28.78.19.2.47.3.84.3.39,0,.74-.11,1.07-.33s.56-.49.71-.8c.14-.32.21-.72.21-1.23v-.65Zm.58,5.02c-.13-.27-.22-.48-.26-.62-.05-.22-.09-.45-.12-.67-.38.45-.84.83-1.36,1.1-.61.29-1.31.44-2.13.44-1.07,0-1.89-.29-2.45-.87-.56-.58-.86-1.36-.84-2.16,0-.8.2-1.46.6-1.98s1.15-.91,2.23-1.17c1.29-.3,2.16-.52,2.54-.62.58-.16.91-.17,1.17-.57.27-.42-.03-.81-.21-.98-.19-.18-.5-.3-.94-.3-.56,0-.93.06-1.21.29-.49.39-.32.96-.8.96h-3.11c.13-.67.16-1.39.54-2,.25-.38.57-.72,1.01-1.01.4-.24.85-.4,1.31-.48,1.42-.24,2.88-.23,4.3.03.63.13,1.15.42,1.57.85.3.3.53.72.7,1.27.17.55.26,1.07.26,1.57v6.93h-2.8Zm30.29-5.02c-.47.19-.97.38-1.49.52-.7.22-1.15.44-1.33.65-.19.23-.28.47-.28.75,0,.32.1.58.28.78.19.2.47.3.84.3s.74-.11,1.07-.33c.32-.22.56-.49.7-.8.14-.32.21-.72.21-1.23v-.65Zm.58,5.02c-.13-.27-.22-.48-.26-.62-.06-.22-.1-.45-.12-.67-.38.45-.83.82-1.35,1.1-.61.29-1.32.44-2.13.44-1.07,0-1.9-.29-2.45-.87-.56-.58-.86-1.36-.84-2.16,0-.8.19-1.46.6-1.98.4-.52,1.15-.91,2.23-1.17,1.29-.3,2.16-.52,2.54-.62.58-.16.91-.17,1.17-.57.27-.42-.03-.81-.22-.98-.19-.18-.49-.3-.93-.3-.57,0-.94.06-1.21.29-.49.39-.32.96-.8.96h-3.11c.13-.67.16-1.39.54-2,.25-.38.58-.72,1.02-1.01.4-.24.85-.4,1.31-.48,1.43-.24,2.88-.23,4.3.03.63.13,1.15.42,1.57.85.29.3.52.72.7,1.27.17.55.26,1.07.26,1.57v6.93s-2.8,0-2.8,0Zm-27.41-14.62h3.04v8.38l3.93-4.34h3.61l-3.62,3.91,3.59,6.69h-3.56l-2.21-4.43-1.8,1.96v2.47h-2.96v-14.63Z"/>
  <path class="cls-21" d="m529.95,142.8c-.06-.78-.25-1.2-.54-1.54-.29-.33-.71-.52-1.15-.5-.55,0-.99.26-1.32.76-.21.32-.34.65-.39,1.28h3.4Zm3.39,3.36c-.28,1.08-.98,2.01-1.94,2.56-.74.46-1.8.69-3.17.69-1.2,0-2.14-.19-2.83-.6-.74-.45-1.33-1.1-1.7-1.88-.47-.94-.7-1.99-.67-3.04,0-1.65.45-2.99,1.36-4.01.9-1.02,2.15-1.53,3.74-1.53,1.29,0,2.31.23,3.06.69.76.47,1.36,1.17,1.72,1.99.39.87.58,2.01.58,3.4v.45h-6.94c.06.65.21,1.14.45,1.46.34.45.71.8,1.24.79,1.21,0,1.67-.47,1.88-1.12l3.22.14Z"/>
  <g class="cls-22">
    <path class="cls-21" d="m544.47,134.54h3.13v14.6h-3.13v-14.6Zm7.27,9.36c0,.95.16,2.21.49,2.67.43.68,1.33.89,2.01.46.18-.11.34-.27.45-.45.32-.45.48-1.73.48-2.72,0-.91-.16-1.84-.49-2.29-.32-.45-.73-.67-1.2-.67-.51,0-.98.26-1.25.69-.33.45-.49,1.39-.49,2.32m-3.47.01c0-1.62.46-2.95,1.39-3.99.96-1.06,2.34-1.63,3.77-1.57,1.81,0,3.17.61,4.1,1.84.77,1.06,1.16,2.35,1.11,3.66,0,1.62-.46,2.96-1.38,4-.93,1.04-2.2,1.55-3.82,1.55-1.3.06-2.57-.41-3.53-1.29-1.1-1.07-1.64-2.47-1.64-4.2"/>
  </g>
  <g>
    <path class="cls-8" d="m669.6,143.02c.29-.44.56-.84.83-1.25,1.34-2.04,2.68-4.07,4.02-6.11.14-.22.33-.34.61-.33.32.02.64,0,.96,0,.2,0,.3.1.31.29,0,.08,0,.17,0,.25v12.1c0,.2-.11.32-.32.32h-1.47c-.21,0-.31-.1-.33-.31,0-.12-.01-.24-.01-.36v-7.67c0-.1,0-.21-.08-.34-.12.18-.25.36-.38.54-1.23,1.87-2.45,3.74-3.67,5.61-.3.45-.67.46-.97,0-1.27-1.94-2.54-3.88-3.81-5.81-.07-.11-.15-.22-.28-.33,0,.1-.03.2-.03.3v7.7c0,.64-.02.66-.67.66h-1.06c-.31,0-.39-.09-.4-.4v-12.25c0-.2.11-.31.32-.31.36,0,.73-.03,1.09.01.16.02.36.16.46.3.71,1.04,1.39,2.09,2.07,3.14.88,1.34,1.76,2.67,2.64,4.01.03.05.08.1.16.21h0Z"/>
    <path class="cls-8" d="m690.8,135.18c1.07-.06,2.09.2,3.09.6.22.08.32.22.32.45,0,.39,0,.78,0,1.17,0,.28-.1.33-.37.23-.52-.19-1.04-.42-1.58-.53-1.11-.23-2.22-.29-3.3.2-.82.38-1.22,1.63-.2,2.24.64.38,1.33.67,2.03.96.91.39,1.83.74,2.62,1.34.92.71,1.43,1.63,1.42,2.82,0,.89-.21,1.7-.79,2.39-.51.6-1.18.95-1.93,1.15-1.93.49-3.84.42-5.71-.31-.5-.2-.53-.29-.5-.82.02-.36,0-.71,0-1.06,0-.28.1-.34.35-.21,1.19.63,2.46.91,3.81.83.76-.04,1.5-.17,2.05-.77.55-.59.72-1.7-.15-2.34-.61-.45-1.3-.7-1.99-.97-.85-.34-1.72-.65-2.49-1.15-.7-.45-1.27-1.02-1.46-1.87-.38-1.78.32-3.24,1.98-3.9.89-.35,1.82-.48,2.79-.44h0Z"/>
    <path class="cls-8" d="m646.91,141.72c.14,0,.23,0,.3.02,1.02.23,2.02.05,3-.23,1.11-.32,2.21-.67,3.32-.97,1.08-.29,2.19-.42,3.31-.22.83.15,1.57.5,2.13,1.16.06.08.11.18.2.33-.15-.01-.23,0-.3-.03-.77-.25-1.54-.21-2.3,0-1.27.35-2.53.78-3.8,1.13-.57.16-1.17.24-1.76.32-.2.03-.25.09-.25.28,0,.85,0,1.7,0,2.56,0,.23.07.29.29.29,2.53,0,5.07,0,7.6,0,.3,0,.45.15.45.45v1.17c0,.32-.02.34-.35.34h-9.78c-.31,0-.35-.04-.35-.36,0-1.53,0-3.05,0-4.58,0-.24-.06-.36-.29-.44-.52-.2-.95-.54-1.3-.97-.04-.05-.06-.11-.12-.23h0Z"/>
    <path class="cls-8" d="m632.46,141.83c-.13-.03-.25-.06-.38-.09-.85-.21-1.7-.1-2.52.14-1.14.33-2.26.72-3.41,1.04-.64.18-1.3.27-1.99.41,0,.01-.01.08-.01.16,0,.87,0,1.74,0,2.61,0,.22.07.26.28.26,2.55,0,5.1,0,7.65,0,.41,0,.41,0,.41.41v1.22c0,.3-.03.33-.34.33h-9.81c-.3,0-.34-.03-.34-.34,0-1.54,0-3.07,0-4.61,0-.23-.06-.35-.28-.43-.5-.19-.92-.52-1.27-.93-.06-.07-.09-.16-.16-.29.15.01.23.01.32.03,1.01.23,2,.05,2.97-.22,1.11-.31,2.21-.67,3.32-.97,1.08-.29,2.19-.42,3.3-.23.83.15,1.58.48,2.13,1.15.07.08.12.19.18.29-.02.02-.04.05-.06.07h0Z"/>
    <path class="cls-8" d="m636.22,141.81v-6c0-.44.02-.45.45-.45h1.39c.3,0,.34.04.34.34v10.32c0,.22.11.34.33.34h6.66c.38,0,.4.02.41.4,0,.41,0,.82,0,1.24,0,.22-.07.32-.31.32-2.96,0-5.93,0-8.89,0-.31,0-.38-.07-.38-.42v-6.08Z"/>
    <path class="cls-8" d="m682.41,141.84v6.05c0,.37-.05.41-.41.41-.48,0-.96,0-1.44,0-.24,0-.34-.12-.35-.34,0-.08,0-.17,0-.25v-11.79c0-.11,0-.22.01-.33.02-.16.12-.25.29-.25h1.6c.25,0,.3.15.3.37v6.12h0Z"/>
    <path class="cls-8" d="m648.62,140.94v-5.19c0-.38.02-.4.4-.4h9.7c.37,0,.38,0,.38.39,0,.41,0,.81,0,1.22,0,.24-.09.31-.31.31-.6,0-1.2,0-1.8,0h-5.88q-.35,0-.35.35c0,.66.01,1.32,0,1.98,0,.19-.07.41-.2.54-.5.56-1.18.74-1.94.81h0Z"/>
    <path class="cls-8" d="m627.24,135.35h4.89c.34,0,.36.02.36.36,0,.43,0,.86,0,1.29,0,.17-.07.25-.24.25h-7.75c-.23,0-.35.11-.35.34,0,.67.01,1.33,0,2,0,.18-.09.4-.21.54-.45.53-1.08.69-1.73.78-.05,0-.13-.1-.19-.16-.02-.02,0-.08,0-.12v-4.91c0-.36.01-.37.38-.37h4.87,0Z"/>
  </g>
  <g>
    <path class="cls-8" d="m778.08,90.57c1.15-1.15,2.32-1.84,3.72-2.16,3.73-.84,7.59,1.63,8.37,5.37.81,3.9-1.71,7.7-5.56,8.4-4.34.78-8.27-2.46-8.3-6.87-.03-4.19-.04-8.37-.05-12.56,0-.23-.04-.52.08-.68.2-.26.5-.58.78-.6.28-.02.63.26.84.5.14.16.11.48.12.73,0,2.56,0,5.11,0,7.87Zm5.21,9.87c2.83.04,5.19-2.28,5.22-5.13.02-2.81-2.27-5.16-5.07-5.2-2.89-.04-5.27,2.27-5.29,5.12-.01,2.84,2.29,5.17,5.15,5.21Z"/>
    <path class="cls-8" d="m756.87,88.31c3.92-.03,7.07,3.12,7.08,7.09,0,3.82-3.14,7-6.96,7.03-3.95.03-7.17-3.1-7.19-7-.02-3.93,3.12-7.09,7.07-7.11Zm.09,1.9c-2.83-.04-5.19,2.22-5.25,5.01-.05,2.86,2.23,5.26,5.02,5.3,2.92.04,5.24-2.19,5.3-5.08.05-2.84-2.23-5.19-5.08-5.23Z"/>
    <path class="cls-8" d="m737.62,102.5c-.16,0-.44,0-.71-.03-.57-.06-.95-.48-.93-1,.02-.53.43-.88,1-.94.96-.1,1.96-.11,2.87-.39,2.1-.64,3.59-1.98,4-4.23.42-2.3.74-4.63,1.1-6.94.24-1.54.69-3.01,1.55-4.32,1.74-2.65,4.27-3.65,7.36-3.41.58.05.94.47.92,1.01-.02.54-.41.89-1.01.92-.65.04-1.32.03-1.96.14-2.25.39-3.8,1.7-4.39,3.89-.45,1.66-.63,3.4-.93,5.1-.25,1.39-.43,2.8-.78,4.17-.86,3.34-2.85,5.43-7.21,5.98-.25.03-.51.04-.87.06Z"/>
    <path class="cls-8" d="m795.26,95.2c-1.22-1.08-1.97-2.31-1.47-3.91.53-1.7,1.86-2.57,3.53-2.91.61-.13,1.26-.09,1.89-.05.47.02.78.32.78.83,0,.52-.35.75-.82.8-.31.04-.63,0-.95.01-.87.03-1.6.37-2.19,1.01-.67.74-.65,1.67.03,2.4.58.62,1.3.92,2.14.95.34.01.68-.02,1.01.02.47.05.82.32.82.81,0,.51-.33.81-.85.85-.46.04-.93,0-1.39.08-1.24.19-2.19,1.11-2.22,2.09-.03.97.89,1.9,2.17,2.13.47.09.97.06,1.45.09.48.03.81.27.86.76.05.51-.28.83-.74.87-1.83.19-3.51-.16-4.78-1.62-1.31-1.51-1.13-3.52.39-4.92.09-.08.19-.16.32-.28Z"/>
    <path class="cls-8" d="m806.94,96.1c0-1.67,0-3.34,0-5.01,0-.78-.2-.98-.97-.98-.89,0-1.78,0-2.66,0-.67,0-1.06-.35-1.07-.91-.01-.56.38-.93,1.04-.93,3.07,0,6.13,0,9.2,0,.61,0,1.01.38,1.02.9,0,.55-.41.93-1.05.94-.89.01-1.78,0-2.66,0-.8,0-1.01.2-1.01,1.02,0,3.15,0,6.3,0,9.44,0,.21,0,.42,0,.63-.03.61-.4.99-.93.98-.53-.01-.89-.4-.9-1.02-.01-1.69,0-3.38,0-5.07Z"/>
    <path class="cls-8" d="m766.7,97.84c.08-1.39,0-2.81.27-4.16.55-2.62,2.1-4.48,4.75-5.26.33-.1.74-.17,1.05-.06.28.1.6.44.65.72.05.25-.22.58-.41.83-.1.13-.34.16-.52.21-2.35.68-3.79,2.54-3.81,5.01-.02,1.99.02,3.97,0,5.96,0,.84-.77,1.36-1.4.92-.26-.18-.46-.61-.48-.94-.06-1.07-.02-2.15-.02-3.23-.03,0-.06,0-.09,0Z"/>
    <path class="cls-8" d="m786.14,76.52c2.33,0,4.17,1.86,4.17,4.2,0,2.29-1.87,4.14-4.16,4.15-2.33,0-4.21-1.86-4.2-4.17,0-2.34,1.85-4.17,4.2-4.17Zm3.31,4.17c0-1.81-1.47-3.31-3.29-3.34-1.83-.03-3.35,1.48-3.36,3.33-.01,1.83,1.52,3.35,3.35,3.34,1.81-.02,3.29-1.51,3.29-3.33Z"/>
    <path class="cls-8" d="m793.8,77.55c-2.19-.02-3.92-1.8-3.88-4,.03-2.14,1.83-3.87,3.99-3.84,2.14.03,3.89,1.83,3.86,3.98-.02,2.15-1.81,3.89-3.97,3.87Zm3.14-3.88c.01-1.76-1.38-3.16-3.12-3.15-1.71,0-3.11,1.41-3.11,3.11,0,1.69,1.4,3.1,3.11,3.13,1.69.03,3.12-1.38,3.13-3.09Z"/>
    <path class="cls-8" d="m805.7,79.42c.01,2.05-1.63,3.72-3.69,3.73-2.05,0-3.72-1.65-3.72-3.7,0-2.06,1.64-3.72,3.69-3.73,2.05-.01,3.71,1.64,3.72,3.7Zm-.76.03c0-1.63-1.27-2.94-2.91-2.97-1.64-.02-2.97,1.31-2.98,2.97,0,1.61,1.32,2.93,2.94,2.93,1.62,0,2.94-1.31,2.94-2.93Z"/>
    <path class="cls-8" d="m811.08,70.18c1.7,0,3.07,1.35,3.08,3.05.02,1.69-1.35,3.08-3.04,3.09-1.74,0-3.13-1.37-3.12-3.08,0-1.69,1.39-3.05,3.08-3.05Zm.01,5.5c1.34,0,2.43-1.07,2.44-2.41,0-1.33-1.07-2.44-2.39-2.46-1.36-.02-2.5,1.07-2.51,2.42-.01,1.36,1.08,2.45,2.46,2.45Z"/>
  </g>
  <g>
    <g>
      <polygon class="cls-8" points="39.63 145.63 39.63 142.96 43.05 142.96 43.05 141.51 39.63 141.51 39.63 139.36 44.15 139.36 44.15 137.86 38 137.86 38 147.14 44.33 147.14 44.33 145.63 39.63 145.63"/>
      <path class="cls-8" d="m53.26,139.13c-.93-.81-2.15-1.28-3.66-1.28h-2.96v9.29h2.96c1.51,0,2.73-.46,3.66-1.28.93-.87,1.39-1.97,1.39-3.37-.06-1.39-.52-2.5-1.39-3.37Zm-.29,3.37c0,.93-.29,1.68-.93,2.26-.58.58-1.45.87-2.44.87h-1.28v-6.27h1.28c1.04,0,1.86.29,2.5.87.52.52.87,1.33.87,2.26Z"/>
      <path class="cls-8" d="m61.39,142.15v1.45h2.79v.87c-.58.87-1.51,1.33-2.61,1.33-.93,0-1.74-.29-2.38-.93-.58-.64-.93-1.45-.93-2.38s.29-1.74.87-2.32c.58-.64,1.33-.93,2.32-.93,1.1,0,1.97.46,2.67,1.39l.06.06,1.16-.99-.06-.06c-.93-1.28-2.21-1.92-3.83-1.92-1.39,0-2.55.46-3.48,1.39-.87.87-1.39,2.03-1.39,3.37s.46,2.5,1.39,3.42c.93.93,2.09,1.39,3.48,1.39.93,0,1.8-.23,2.55-.64.75-.46,1.33-1.04,1.74-1.8h0v-2.67h-4.35v-.06Z"/>
      <path class="cls-8" d="m92.79,143.02c-.35-.41-.93-.75-1.68-1.1l-1.04-.46c-.46-.23-.75-.41-.99-.58-.17-.17-.23-.35-.23-.64,0-.35.12-.58.35-.75s.58-.29.93-.29c.75,0,1.39.35,1.86,1.04l.06.06,1.16-.87-.06-.06c-.29-.52-.7-.93-1.22-1.22-.52-.29-1.1-.41-1.74-.41-.81,0-1.51.23-2.09.7s-.87,1.1-.87,1.86c0,.58.17,1.1.58,1.51s.93.75,1.57,1.04l.99.46c.46.23.81.41.99.58.17.17.29.41.29.7,0,.35-.12.64-.41.87s-.64.35-1.1.35c-.87,0-1.68-.46-2.32-1.39l-.06-.06-1.16.87.06.06c.35.64.87,1.1,1.45,1.45s1.28.52,2.03.52c.87,0,1.63-.23,2.26-.75.58-.52.87-1.16.87-1.97.06-.58-.12-1.1-.46-1.51Z"/>
      <path class="cls-8" d="m71.89,137.86h-.75l-4,9.29h1.74l.64-1.51h4l.64,1.51h1.74l-4-9.29Zm1.04,6.33h-2.79l1.39-3.48,1.39,3.48Z"/>
      <path class="cls-8" d="m82.8,143.31c.52-.23.93-.52,1.22-.99.35-.41.52-.99.52-1.57,0-.87-.29-1.57-.87-2.09s-1.33-.81-2.26-.81h-3.42v9.29h1.63v-3.54h1.57l2.61,3.54h1.8l-2.79-3.83Zm.06-2.55c0,.41-.12.75-.41.99s-.64.41-1.1.41h-1.74v-2.84h1.74c.46,0,.87.12,1.1.41.29.29.41.64.41,1.04Z"/>
    </g>
    <rect class="cls-8" x="99.57" y="135.47" width="14.03" height="14.03"/>
  </g>
  <g>
    <path class="cls-8" d="m420.01,299.99c-.22-.11-.46-.17-.7-.17-.17,0-.34.03-.51.09l-1.6.54.1.31c.28.83,1.19,1.27,2.01.99l1.6-.54-.1-.31c-.14-.4-.42-.73-.8-.91Z"/>
    <path class="cls-8" d="m420.37,299.27c.57.28,1,.77,1.21,1.38l.1.31.77-.26c.4-.14.73-.42.91-.8.19-.38.22-.81.08-1.21l-.21-.61c-.14-.4-.42-.73-.8-.91-.22-.11-.46-.17-.7-.17-.17,0-.34.03-.51.09l-3.14,1.06c-.4.14-.73.42-.91.8-.11.23-.16.47-.16.72l1.52-.52c.61-.21,1.26-.16,1.83.12Z"/>
    <path class="cls-8" d="m416.88,304.6l3.14-1.06c.4-.14.73-.42.91-.8.11-.23.16-.47.16-.72l-1.52.52c-.25.09-.51.13-.77.13-1,0-1.94-.63-2.27-1.63l-.1-.31-.77.26c-.4.14-.73.42-.91.8-.19.38-.22.81-.08,1.21l.21.61c.28.83,1.18,1.27,2.01.99Z"/>
    <path class="cls-8" d="m452.87,303.13c-1.22-2.82-3.52-4.63-6.1-6.07-4.45-2.49-9.35-3.29-14.35-3.51-2.06-.09-4.13.03-6.2.25-1.61.17-3.22.39-4.81.64-3.85.62-7.54,1.86-11.05,3.59-4.34,2.14-8.22,4.85-10.88,9.03-2.37,3.73-2.31,8.43.08,11.58,2.16,2.84,5.06,4.58,8.32,5.77,4.1,1.5,8.36,2.1,12.08,2.08,8.66.09,16.06-1.85,23.76-6.04,2.94-1.6,5.48-3.68,7.45-6.38,2.44-3.34,3.42-6.96,1.7-10.95Zm-39.52,13.54c-.52,2.86.26,2.32-2.59,2.37-.76.02-1.53,0-2.3,0-.9,0-1.79-.02-2.69-.01-.3,0-.6.01-.89.03-.72.03-.92-.21-.82-.89.45-3.05.91-6.11,1.3-9.17.19-1.48.52-2.94.54-4.45,0-.91.32-1.81.5-2.71.06-.3.26-.38.53-.38,1.01,0,2.02.02,3.03,0,.46,0,.58.2.52.62-.34,2.39-.66,4.78-1,7.17-.27,1.96-.55,3.93-.84,5.89-.07.48.08.66.58.65,1.13,0,2.26.08,3.38.03.7-.03.84.24.73.85Zm.54-13.43c-.21-.61-.16-1.26.12-1.83.28-.57.77-1,1.38-1.21l.82-.28c-.06-.46.02-.92.23-1.35.28-.57.77-1,1.38-1.21l3.14-1.06c.61-.21,1.26-.16,1.83.12.57.28,1,.77,1.21,1.38l.21.61c.42,1.25-.25,2.62-1.5,3.04l-.82.28c.13,1.1-.52,2.19-1.61,2.56l-3.14,1.06c-.25.09-.51.13-.77.13-1,0-1.94-.63-2.27-1.63l-.21-.61Zm5.33,6.07c-.45,2.93-.85,5.87-1.23,8.82-.09.69-.32.97-1.03.92-.64-.05-1.29-.06-1.93,0-.79.07-.93-.26-.82-.97.43-2.82.81-5.64,1.21-8.46.01-.09.03-.18.04-.27q.17-1.95,2.17-1.95c1.93,0,1.89-.01,1.6,1.92Zm11.09,9.15c-.05.41-.25.58-.67.57-.46-.02-.92,0-1.38,0-1.86.02-1.84.02-1.59-1.84.23-1.7.64-3.37.73-5.08.04-.74-.12-1.35-.91-1.6-.77-.24-1.6.14-2.01.91-.53,1-.59,2.11-.75,3.2-.19,1.27-.37,2.54-.51,3.82-.05.48-.26.62-.7.61-.7-.02-1.41-.04-2.11.01-.8.06-1.02-.25-.9-1.01.33-2.18.63-4.36.94-6.54.16-1.09.4-2.17.32-3.28-.04-.6.27-.82.82-.82.67,0,1.35,0,2.02,0,.45,0,.97-.18,1.03.63.03.42.37.19.59,0,.81-.71,1.75-1.03,2.84-.97,1.93.11,3.11,1.29,3.15,3.21.07,2.77-.61,5.46-.92,8.19Zm13.89-10.01c-1.22,1.37-2.44,2.74-3.69,4.09-.37.4-.4.74-.11,1.21.91,1.49,1.76,3.01,2.66,4.51.37.61.22.8-.47.77-.98-.03-1.96-.03-2.94.01-.56.03-.84-.23-1.05-.69-.48-1.06-.96-2.12-1.46-3.17-.12-.27-.22-.63-.64-.52-.37.09-.26.44-.29.69-.14.97-.28,1.94-.39,2.91-.06.56-.31.8-.9.77-.76-.04-1.53-.02-2.3,0-.47,0-.64-.16-.62-.65.08-1.74.54-3.42.74-5.13.35-3.01.82-5.99,1.16-9,.17-1.52.46-3.07.72-4.6.09-.5.32-.65.8-.63.73.03,1.47.04,2.21,0,.68-.04.82.22.73.87-.53,3.64-1.02,7.28-1.53,10.91-.04.3-.07.6-.11.91.05.02.1.04.15.06.98-1.21,1.98-2.4,2.92-3.65.41-.55.85-.78,1.54-.75,1.15.05,2.31.01,3.51.01-.05.53-.39.77-.64,1.05Z"/>
  </g>
  <g>
    <path class="cls-18" d="m762.73,134.53c1.18.36,2.38.56,3.61.32,1.24-.24,1.92-1.2,1.72-2.34-.09-.49-.37-.82-.76-1.08-.5-.33-1.05-.54-1.61-.73-.58-.2-1.15-.41-1.68-.73-1.62-.98-1.62-3.2.03-4.13,1.41-.79,2.86-.53,4.3-.04.28.09.16.25.1.42-.09.28-.25.22-.46.14-.9-.31-1.82-.52-2.79-.31-.96.21-1.54.77-1.65,1.62-.11.85.27,1.47,1.18,1.92.96.47,2.02.68,2.94,1.25,1.61,1,1.59,3.23-.03,4.23-.45.27-.94.44-1.45.48-.97.08-1.93.03-2.89-.16-.51-.11-.74-.3-.56-.85Z"/>
    <path class="cls-8" d="m769.7,151.38c0,1.44,0,2.74,0,4.03,0,.77.02,1.55-.01,2.32,0,.22.25.62-.23.64-.52.03-.26-.41-.26-.61-.02-2.16-.01-4.32-.01-6.47,0-.12-.02-.24,0-.36.03-.17-.13-.42.19-.47.25-.04.4.07.54.28.47.73.96,1.45,1.44,2.17.99,1.49,1.99,2.98,3.05,4.56,0-1.23,0-2.35,0-3.46,0-1.03,0-2.06,0-3.09,0-.19-.1-.47.27-.46.38.01.24.3.24.48,0,2.3.01,4.59,0,6.89,0,.18.16.46-.14.55-.33.1-.49-.12-.65-.36-.88-1.34-1.77-2.67-2.66-4-.56-.84-1.13-1.68-1.76-2.63Z"/>
    <path class="cls-8" d="m806.37,157.47c0-2.2,0-4.27,0-6.35,0-.16,0-.32,0-.47.01-.19.16-.19.3-.19.15,0,.21.08.21.22,0,.14,0,.28,0,.42,0,2.22,0,4.43-.01,6.65,0,.21.2.53-.17.64-.35.1-.48-.16-.64-.39-1.36-2.04-2.72-4.08-4.08-6.12-.08-.13-.17-.25-.34-.48,0,.53,0,.93,0,1.33,0,1.72,0,3.44,0,5.17,0,.19.18.52-.27.5-.39-.01-.23-.31-.23-.48-.01-2.32-.01-4.63,0-6.95,0-.17-.13-.42.16-.49.27-.07.43.07.58.3,1.07,1.62,2.14,3.23,3.22,4.84.39.59.79,1.18,1.25,1.87Z"/>
    <path class="cls-20" d="m754.05,157.65c.93.28,1.84.42,2.78.26.79-.13,1.36-.63,1.45-1.28.12-.79-.17-1.28-1.01-1.67-.61-.28-1.25-.48-1.86-.76-1.02-.47-1.42-1.17-1.28-2.16.12-.83.87-1.49,1.87-1.64.8-.12,1.57-.02,2.33.24.16.05.37.06.28.34-.09.27-.24.23-.45.15-.64-.25-1.3-.33-1.98-.26-.79.09-1.36.54-1.47,1.16-.14.8.14,1.32.96,1.69.59.27,1.22.46,1.81.73,1.13.51,1.51,1.14,1.39,2.21-.1.88-.78,1.52-1.85,1.73-.89.18-1.77.07-2.64-.11-.38-.08-.43-.27-.33-.64Z"/>
    <path class="cls-18" d="m782.67,134.84c.92.27,1.81.42,2.72.26.23-.04.46-.11.67-.21.54-.26.84-.7.86-1.32.02-.6-.27-1.04-.79-1.29-.69-.33-1.42-.58-2.12-.9-.64-.29-1.15-.71-1.25-1.46-.16-1.19.53-2.11,1.76-2.32.82-.14,1.62-.06,2.39.22.15.05.44,0,.31.36-.11.3-.28.2-.46.13-.66-.24-1.34-.33-2.04-.24-.76.1-1.27.55-1.38,1.18-.13.78.14,1.3.93,1.65.61.28,1.25.48,1.87.75,1.06.48,1.48,1.14,1.38,2.11-.1.93-.77,1.59-1.84,1.82-.89.18-1.77.07-2.65-.1-.38-.08-.43-.27-.35-.65Z"/>
    <path class="cls-20" d="m780.67,158.49c-2.41.02-3.67-1.22-3.9-3.62-.21-2.16.82-3.88,2.63-4.37.96-.26,1.92-.18,2.85.15.16.06.36.08.26.35-.1.25-.22.25-.44.15-.57-.26-1.18-.32-1.8-.28-1.3.07-2.31.82-2.69,2.05-.32,1.03-.31,2.07.02,3.1.41,1.28,1.41,1.95,2.86,1.96.51,0,1.03-.05,1.53-.17.1-.03.29-.15.31.1.01.15.03.3-.19.36-.54.14-1.09.21-1.42.22Z"/>
    <path class="cls-13" d="m762.63,154.74c0,1.07,0,2.14,0,3.2,0,.2.09.44-.28.45-.39,0-.27-.26-.27-.44,0-2.14-.02-4.27,0-6.41,0-.44-.09-.59-.55-.55-.57.04-1.15,0-1.72.01-.2,0-.34-.02-.34-.28,0-.27.16-.27.35-.27,1.66,0,3.32,0,4.98,0,.21,0,.39,0,.38.3,0,.28-.19.25-.36.25-.59,0-1.19.02-1.78,0-.34-.01-.43.09-.43.43.02,1.11,0,2.21,0,3.32Z"/>
    <path class="cls-16" d="m786.12,154.76c0,1.07,0,2.14,0,3.2,0,.21.07.44-.3.43-.34-.02-.24-.25-.24-.42,0-2.14-.02-4.27,0-6.41,0-.48-.14-.61-.6-.58-.55.04-1.11,0-1.66.01-.19,0-.34,0-.34-.27,0-.26.14-.28.34-.28,1.68,0,3.36,0,5.04,0,.2,0,.34.02.34.28,0,.27-.16.26-.35.26-.55,0-1.11.03-1.66,0-.45-.03-.62.08-.6.57.04,1.07.01,2.13.01,3.2Z"/>
    <path class="cls-8" d="m766.94,154.46c0,1.16,0,2.33,0,3.49,0,.2.08.44-.29.43-.38,0-.27-.26-.27-.45,0-2.35,0-4.7,0-7.05,0-.2-.07-.45.29-.44.37,0,.27.27.27.46,0,1.18,0,2.37,0,3.55Z"/>
    <path class="cls-12" d="m751.74,154.47c0-1.16,0-2.33,0-3.49,0-.18-.18-.51.25-.52.4,0,.3.29.3.5,0,2.33,0,4.66,0,6.99,0,.19.1.44-.28.45-.38.01-.28-.24-.28-.43,0-1.16,0-2.33,0-3.49Z"/>
    <path class="cls-8" d="m790.4,154.41c0,1.19,0,2.38,0,3.56,0,.17.1.41-.24.42-.38.01-.28-.24-.28-.44,0-2.36,0-4.71,0-7.07,0-.17-.09-.42.24-.43.37-.02.28.25.28.45,0,1.17,0,2.34,0,3.5Z"/>
    <path class="cls-12" d="m776.85,142.34c0-.63,0-1.27,0-1.9,0-.22.01-.38.31-.37.63.02,1.27,0,1.9,0,.11,0,.27-.04.26.14,0,.17-.16.14-.27.14-.47,0-.95.02-1.42,0-.31-.01-.45.05-.45.41-.03,1.51-.05,1.51,1.47,1.52.04,0,.08,0,.12,0,.16.04.43-.1.43.16,0,.25-.28.13-.43.14-.51.03-1.18-.16-1.49.1-.32.27-.06.97-.11,1.47-.01.15.12.42-.13.43-.32.01-.18-.29-.18-.45-.02-.59,0-1.19,0-1.78Z"/>
    <path class="cls-10" d="m811.7,152.81c.27-.66.52-1.31.79-1.96.05-.13.07-.35.3-.3.23.05.14.25.14.39,0,.77,0,1.54,0,2.31-.06,0-.13,0-.19,0v-2.15s-.08-.01-.12-.02c-.3.73-.61,1.46-.97,2.33-.37-.88-.68-1.63-.98-2.38h-.09v2.21c-.26-.34-.19-.7-.2-1.05-.01-.41-.01-.83,0-1.24,0-.14-.09-.35.14-.4.21-.05.24.16.3.3.2.49.39.99.6,1.48.07.16.08.35.28.48Z"/>
    <path class="cls-8" d="m779.19,145.76h-7.37c.27-.23,6.61-.31,7.37,0Z"/>
    <path class="cls-11" d="m808.07,150.56h1.92c-.04.08-.07.16-.09.16-.86-.13-.8.42-.78.99.02.51.08,1.04-.06,1.54-.06,0-.11,0-.17,0,0-.59-.03-1.18,0-1.77.03-.5-.01-.86-.65-.73-.07.01-.16,0-.19-.19Z"/>
    <path class="cls-20" d="m749.73,152.95c-.31-1.21-1.08-1.99-2.3-2.31-1.01-.27-2.05-.14-3.07-.2-.42-.02-.48.14-.48.51.02,1.17,0,2.33,0,3.5s.01,2.34,0,3.5c0,.32.07.45.42.43.63-.03,1.27,0,1.9-.02,1.82-.07,3.09-.97,3.5-2.49.26-.97.28-1.96.02-2.93Zm-.63,2.87c-.36,1.24-1.34,1.93-2.87,2.06q-1.78.15-1.78-1.6c0-1.56.03-3.12-.02-4.68-.02-.57.18-.73.7-.66.15.02.32,0,.47,0,0,0,0,0,0-.01.37.03.75.04,1.12.08,1.28.16,2.13.91,2.43,2.17.21.88.19,1.77-.06,2.64Z"/>
    <path class="cls-18" d="m799.29,154.44c.03-.48-.03-.95-.13-1.41-.38-1.67-1.65-2.68-3.36-2.69-1.71,0-3,.99-3.4,2.65-.19.76-.19,1.53-.1,2.3.2,1.85,1.43,3.08,3.16,3.2,1.83.13,3.22-.84,3.68-2.58.13-.48.19-.97.16-1.47Zm-.68,1.03c-.32,1.68-1.27,2.51-2.86,2.5-1.58-.01-2.6-.92-2.84-2.61-.13-.88-.12-1.78.19-2.64.44-1.23,1.35-1.84,2.74-1.83,1.33,0,2.22.64,2.64,1.88.18.55.25,1.12.26,1.7-.04.33-.05.67-.12,1Z"/>
    <path class="cls-18" d="m778.99,127.86c-.05-.14-.1-.25-.28-.25-.18,0-.21.13-.27.26-1.02,2.54-2.04,5.08-3.07,7.65.43.11.64.02.77-.37.22-.67.53-1.32.77-1.98.1-.27.22-.41.54-.4.81.02,1.62.02,2.43,0,.31,0,.46.1.56.39.23.65.53,1.28.74,1.93.14.42.34.59.8.43-1-2.55-2.01-5.1-3.01-7.65Zm.78,4.4c-.81,0-1.61,0-2.48,0,.47-1.23.93-2.4,1.42-3.68.46,1.2.88,2.32,1.3,3.43.09.24-.07.26-.24.26Z"/>
    <path class="cls-17" d="m772.58,127.69c-.71-.09-1.42-.02-2.13-.06-.42-.03-.49.15-.48.51.02,1.15,0,2.29,0,3.44,0,1.15,0,2.29,0,3.44,0,.21-.18.56.29.55.47-.02.24-.38.25-.57.03-.77.03-1.54,0-2.31,0-.31.09-.4.4-.4.55,0,1.11,0,1.66-.06,1.38-.16,2.18-1.05,2.16-2.36-.02-1.3-.72-2-2.16-2.18Zm.46,3.94c-.75.24-1.52.17-2.29.18-.24,0-.23-.16-.23-.32,0-.51,0-1.03,0-1.54,0-.49,0-.99,0-1.48,0-.15-.03-.33.22-.32.77.02,1.54-.09,2.29.16.75.25,1.1.76,1.1,1.62,0,.9-.34,1.45-1.1,1.69Z"/>
    <path class="cls-19" d="m775.29,140.62c-.24-.27-.53-.46-.89-.55-1.51-.38-2.6.56-2.6,2.36,0,.1,0,.32.05.54.15.77.53,1.38,1.32,1.59.78.21,1.54.13,2.12-.53.74-.84.74-2.58,0-3.42Zm-1.75,3.73c-.9-.12-1.4-.83-1.4-2.02,0-1.38.68-2.11,1.88-2.01.15.01.31.05.46.11.84.32,1.23,1.5.91,2.73-.23.85-.93,1.31-1.85,1.19Z"/>
  </g>
  <g>
    <path class="cls-8" d="m177.62,89.78c.35-1.34.7-2.68,1.06-4.02.36-1.33.75-2.66,1.13-4h2.17c.77,2.59,1.42,5.23,2.15,7.88.7-2.65,1.39-5.25,2.08-7.87h1.91c-.85,3.2-1.7,6.38-2.55,9.58h-2.76c-.63-2.37-1.26-4.77-1.89-7.16-.31.76-.49,1.56-.7,2.34-.23.81-.44,1.62-.66,2.42-.22.8-.44,1.59-.67,2.4h-2.7c-.82-3.19-1.64-6.38-2.47-9.59h1.86c.7,2.66,1.47,5.3,1.97,8h.07Z"/>
    <path class="cls-8" d="m207.72,87.43c.16.04.32.07.47.11.38.11.67.34.81.7.11.28.2.58.22.88.03.7.01,1.39.01,2.09,0,.03-.01.06-.02.09-.3.1-1.18.12-1.85.05,0-.09-.02-.18-.02-.27,0-.51,0-1.02-.01-1.53,0-.16-.02-.33-.04-.49-.05-.42-.3-.68-.7-.76-.33-.06-.67-.11-1-.12-.72-.02-1.44,0-2.15,0-.03,0-.06.01-.13.03v3.13c-.62.07-1.2.05-1.78.03-.07-.26-.1-8.96-.03-9.59.06-.01.13-.05.21-.05,1.72,0,3.44.01,5.16.04.35,0,.71.1,1.05.2.65.18,1.07.62,1.25,1.26.09.32.15.66.17.99.04.65,0,1.3-.16,1.94-.12.48-.39.81-.87.97-.19.06-.38.15-.57.22,0,.02,0,.04,0,.07Zm-4.39-.86c.06.02.08.03.1.03,1,0,2,0,3-.03.53-.01.86-.34.94-.87.04-.23.06-.46.06-.68-.01-.32-.03-.65-.1-.97-.09-.38-.34-.63-.75-.66-.17-.01-.35-.04-.52-.04-.73,0-1.46-.01-2.19-.02-.17,0-.34,0-.54,0v3.23Z"/>
    <path class="cls-8" d="m158.83,87.42c.14.03.28.06.41.1.63.18,1.01.64,1.04,1.3.03.74.05,1.48.07,2.22,0,.09,0,.17-.01.3-.62.06-1.23.06-1.87.02,0-.16-.02-.3-.02-.44,0-.49,0-.98,0-1.47,0-.14-.02-.28-.04-.42-.08-.39-.31-.65-.7-.73-.32-.07-.65-.11-.97-.12-.71-.02-1.42,0-2.12,0-.05,0-.1.01-.19.02v3.13c-.62.08-1.21.07-1.83.03v-9.59c.07-.01.14-.04.21-.04,1.73.01,3.46,0,5.19.05.38,0,.77.13,1.14.24.53.17.89.54,1.07,1.06.09.24.16.5.19.76.08.77.06,1.54-.12,2.3-.11.5-.39.84-.89.99-.19.06-.38.14-.56.21,0,.02.01.04.02.07Zm-4.39-.87c.07,0,.12.02.17.02.79,0,1.59,0,2.38,0,.21,0,.41,0,.62-.02.45-.05.75-.3.84-.74.12-.59.12-1.19,0-1.78-.09-.4-.31-.62-.72-.63-1.07-.04-2.15-.03-3.23-.05,0,0-.02,0-.05.02v3.17Z"/>
    <path class="cls-8" d="m198.57,86.6c0,.49,0,.98,0,1.47,0,.61-.08,1.21-.31,1.79-.25.65-.71,1.09-1.36,1.32-.64.23-1.31.32-1.99.32-.71,0-1.41-.02-2.12-.06-1.58-.08-2.49-.94-2.72-2.51-.16-1.1-.13-2.21-.1-3.32.02-.6.02-1.2.17-1.78.14-.52.37-1,.77-1.38.45-.42,1-.59,1.59-.69.84-.15,1.69-.11,2.54-.07.42.02.85.03,1.27.1,1.15.21,1.89.96,2.13,2.11.16.77.14,1.56.15,2.34,0,.12,0,.24,0,.36h-.02Zm-6.67-.07h-.01c0,.53,0,1.07,0,1.6,0,.39.08.76.23,1.11.13.31.36.53.71.55.65.05,1.3.1,1.95.11.35,0,.71-.1,1.06-.17.31-.06.51-.25.6-.54.1-.34.21-.69.24-1.04.05-.66.05-1.33.05-1.99,0-.59-.03-1.18-.1-1.76-.08-.65-.44-.99-1.09-1.07-.86-.1-1.72-.1-2.57.01-.38.05-.69.25-.83.61-.11.27-.19.56-.21.85-.03.58,0,1.15,0,1.73Z"/>
    <path class="cls-8" d="m240.34,84.52h-1.79c-.02-.19-.04-.36-.05-.53-.04-.46-.24-.68-.69-.78-.62-.14-1.23-.1-1.85-.04-.15.01-.3.02-.45.05-.45.06-.74.32-.82.76-.07.36-.07.72.05,1.06.1.29.29.47.6.54.6.15,1.21.11,1.82.17.59.07,1.19.12,1.78.2.36.05.68.21.97.44.26.21.44.48.51.81.19.9.19,1.8-.02,2.69-.2.81-.69,1.35-1.56,1.44-.67.07-1.34.15-2.02.15-.73,0-1.46-.02-2.18-.12-1.13-.16-1.62-.74-1.75-1.65-.05-.33-.08-.67-.11-1-.01-.12,0-.23,0-.36.08,0,.15-.02.21-.02.5,0,1,0,1.53,0,.03.19.05.37.08.55.02.15.03.31.07.45.1.35.37.58.74.59.75.02,1.5.01,2.25.02.08,0,.15,0,.23-.02.54-.08.74-.29.78-.83.02-.28.04-.57.02-.85-.03-.54-.2-.74-.73-.83-.41-.07-.82-.11-1.23-.14-.73-.07-1.45-.11-2.18-.19-.87-.11-1.45-.65-1.64-1.5-.17-.78-.15-1.56.01-2.33.11-.52.41-.9.88-1.15.37-.2.77-.31,1.18-.36,1.26-.14,2.52-.13,3.77.1.86.16,1.34.65,1.47,1.52.06.37.09.75.13,1.18Z"/>
    <path class="cls-8" d="m223.48,87.32v4.02h-1.76c-.12-.41-.15-9-.04-9.55.44-.1,1.24-.12,1.79-.02.02,1.26,0,2.53,0,3.79.39.14,3.91.18,4.49.05v-3.83c.62-.09,1.21-.1,1.83-.02v9.61c-.59.02-1.18.01-1.8,0v-4.04c-1.51-.06-3-.09-4.52-.02Z"/>
    <path class="cls-8" d="m169.39,81.76h1.83c0,.09.03.17.03.25,0,2.07.01,4.14,0,6.21,0,.51-.08,1.02-.18,1.52-.14.69-.57,1.17-1.22,1.42-.31.12-.65.21-.98.24-1.26.15-2.52.13-3.77-.1-1.11-.2-1.67-.81-1.81-1.93-.05-.41-.07-.82-.08-1.24,0-2.01,0-4.03,0-6.04,0-.1,0-.19.01-.31.6-.08,1.2-.09,1.83-.01,0,.13,0,.24,0,.36,0,1.96,0,3.92,0,5.88,0,.33.03.65.06.98.03.38.24.63.6.74.24.07.49.14.73.15.65,0,1.31,0,1.95-.06.59-.05.85-.32.9-.92.05-.58.08-1.17.08-1.76.01-1.64,0-3.29,0-4.93,0-.13,0-.26,0-.43Z"/>
    <path class="cls-8" d="m214.4,83.35h-2.79c-.02-.54,0-1.05-.01-1.59h7.49v1.6h-2.82c-.04,2.67,0,5.31-.02,7.98h-1.84c0-.43,0-.87,0-1.32,0-.44,0-.87,0-1.31v-5.37Z"/>
    <path class="cls-8" d="m149.95,83.38h-2.73s-.04.04-.05.05c0,0-.02.02-.02.03,0,.02,0,.04-.01.06,0,.02,0,.04,0,.07,0,2.57,0,5.14-.01,7.71,0,0,0,.02-.03.08-.28,0-.58,0-.88,0-.29,0-.59,0-.93,0-.01-.91,0-1.79,0-2.68,0-.88,0-1.76,0-2.64s0-1.78,0-2.69h-2.74c-.07-.26-.08-1.23-.02-1.59h7.41v1.61Z"/>
  </g>
  <path class="cls-8" d="m303.06,191.11c.09,1.97.26,3.89,1.06,5.71,1.01,2.31,2.77,3.58,5.28,3.87,1.16.14,2.3.12,3.42-.17,1.82-.47,3.17-1.55,4.05-3.22.07-.14.26-.22.39-.32,0,.17.03.37-.04.51-.68,1.39-1.72,2.45-3.15,3.04-2.31.95-4.66.97-6.97,0-2.27-.96-3.35-2.89-3.94-5.15-.48-1.83-.48-3.71-.33-5.57.08-1.1.2-2.23.53-3.28.86-2.72,2.8-4.26,5.58-4.78,1.78-.33,3.54-.31,5.23.43,1.49.66,2.52,1.76,3.12,3.27.07.16.11.34.14.52.01.07-.06.15-.09.22-.09-.04-.2-.05-.25-.11-.07-.1-.1-.23-.15-.34-.87-2.14-2.46-3.33-4.74-3.65-1.36-.19-2.68-.1-4,.28-2.64.76-4.13,2.57-4.69,5.18-.25,1.17-.31,2.38-.46,3.57Z"/>
  <path class="cls-8" d="m307.1,194.68c.1.18.21.35.28.55.44,1.22,1.96,2.05,3.2,1.82,1.52-.28,1.97-1.83,1.84-2.87-.13-1.04-.67-1.79-1.57-2.32-.68-.4-1.37-.79-2.01-1.25-1.56-1.11-1.88-3.06-.76-4.48,1.08-1.37,4.23-1.6,5.3.53.07.13.03.31.04.47-.06.01-.12.02-.18.04-.1-.14-.2-.29-.3-.43-.49-.77-1.19-1.17-2.1-1.22-1.37-.08-2.3,1.28-1.61,2.49.29.5.79.92,1.27,1.28.75.55,1.6.97,2.35,1.52,1.6,1.16,1.9,2.97,1.32,4.62-.17.49-.57,1-1,1.29-1.61,1.09-3.33,1.16-5.02.17-.78-.45-1.24-1.16-1.25-2.08.07-.04.13-.07.2-.11Zm4.97,2.12c.94-.26,1.51-.83,1.77-1.69.5-1.61-.06-3.19-1.47-4.15-.98-.67-2-1.28-2.94-1.99-.8-.61-1.02-1.49-.73-2.47.04-.14.11-.28.18-.46-.09.04-.13.05-.15.07-1.3,1.1-1.16,3.07.33,4.11.64.45,1.35.82,2.02,1.24,2,1.27,2.4,3.34,1,5.33Z"/>
  <path class="cls-8" d="m319.24,210.95c.62-.92,1.19-1.79,1.79-2.64.11-.15.32-.24.49-.35.06.18.16.35.16.53.01,1.41.02,2.81,0,4.22,0,.18-.17.36-.26.55-.09-.19-.26-.37-.27-.56-.02-1.15-.01-2.3-.12-3.51-.19.28-.38.56-.57.84-.3.45-.6.9-.89,1.35-.24.37-.46.35-.69-.01-.37-.58-.75-1.15-1.12-1.72-.11-.16-.22-.32-.41-.59-.02.3-.04.47-.04.63,0,1.04,0,2.09-.01,3.13,0,.14-.15.29-.22.43-.09-.14-.27-.29-.27-.43-.02-1.48-.02-2.95,0-4.43,0-.15.14-.3.21-.44.14.09.32.16.41.29.6.87,1.18,1.76,1.82,2.72Z"/>
  <path class="cls-8" d="m311.5,210.61c0,1.75-1.17,2.86-2.86,2.73-1.5-.12-2.49-1.59-2.23-3.29.24-1.57,1.65-2.5,3.21-2.13,1.14.27,1.88,1.32,1.87,2.69Zm-.54,0c0-1.26-.75-2.18-1.85-2.24-1.14-.07-2.05.72-2.15,1.87-.13,1.42.53,2.4,1.76,2.58,1.23.19,2.24-.81,2.24-2.21Z"/>
  <path class="cls-8" d="m290.43,208.92c0,1.36,0,2.59-.01,3.81,0,.17-.15.34-.24.5-.07-.16-.2-.32-.2-.48-.02-1.44-.01-2.88,0-4.32,0-.16.1-.32.15-.48.16.1.36.16.46.29.88,1.16,1.74,2.34,2.62,3.51.1.14.21.26.42.52,0-1.3-.01-2.45.01-3.59,0-.25.15-.49.23-.74.08.24.23.48.24.73.02,1.33.02,2.67,0,4,0,.19-.12.38-.18.57-.17-.11-.38-.18-.49-.33-.88-1.16-1.74-2.34-2.61-3.51-.09-.13-.2-.25-.38-.47Z"/>
  <path class="cls-8" d="m284.51,210.64c-.76.47-1.2,1.04-1.02,1.93.02.12.04.27-.01.37-.06.12-.19.21-.29.31-.08-.1-.21-.2-.23-.31-.04-.25-.01-.5-.01-.75,0-1.24-.01-2.48.01-3.72,0-.18.16-.35.25-.52.1.18.28.36.28.54.03.74.01,1.47.01,2.34.22-.2.38-.33.52-.46.74-.7,1.48-1.42,2.24-2.11.14-.13.38-.15.58-.22-.07.19-.1.42-.23.56-.54.55-1.11,1.07-1.7,1.62.58.74,1.15,1.46,1.71,2.17.1.13.24.24.29.39.05.14.01.31.02.47-.15-.05-.36-.05-.45-.15-.54-.65-1.06-1.32-1.59-1.98-.12-.15-.25-.31-.38-.47Z"/>
  <path class="cls-8" d="m323.63,208.43v1.85c.61,0,1.22-.02,1.82.01.18,0,.35.14.52.22-.17.08-.33.23-.5.24-.6.03-1.21.01-1.85.01v2c.73,0,1.44-.02,2.15.01.18,0,.36.18.54.27-.18.08-.35.22-.53.23-.72.03-1.44,0-2.16.01-.4,0-.59-.12-.59-.56.02-1.44.01-2.88,0-4.32,0-.37.14-.52.51-.51.77.01,1.55,0,2.32.02.15,0,.3.17.45.25-.16.08-.31.23-.47.24-.73.03-1.46.01-2.22.01Z"/>
  <path class="cls-8" d="m296.78,213.48c-.49-.23-.99-.44-1.46-.72-.13-.08-.15-.34-.22-.52.18.04.4.03.54.13.52.4,1.07.58,1.71.42.42-.1.74-.32.8-.77.06-.46-.23-.75-.61-.93-.39-.18-.81-.3-1.21-.46-.86-.34-1.18-.82-1.09-1.58.08-.66.61-1.12,1.45-1.21.63-.07,1.23.04,1.71.49.11.1.09.33.13.5-.16-.03-.35-.01-.46-.1-.5-.36-1.05-.54-1.62-.29-.27.12-.54.41-.64.69-.14.38.11.69.48.86.24.11.49.21.75.31.28.11.58.2.86.33.56.26.83.72.81,1.34-.02.61-.37,1.01-.91,1.22-.3.11-.63.14-.94.21-.02.03-.05.05-.07.08Z"/>
  <path class="cls-8" d="m340.06,213.36c-.48.02-1.06-.2-1.52-.67-.1-.1-.08-.3-.12-.46.15.02.35,0,.45.08.57.47,1.2.7,1.9.43.27-.11.54-.41.65-.69.15-.37-.09-.71-.45-.88-.42-.2-.86-.35-1.3-.52-.85-.33-1.21-.83-1.13-1.56.08-.68.63-1.16,1.48-1.24.61-.06,1.19.04,1.66.47.12.11.12.33.18.5-.17-.03-.37-.01-.5-.1-.53-.36-1.1-.53-1.67-.25-.26.13-.55.46-.58.73-.03.24.23.61.46.75.41.25.89.37,1.34.54.55.21.99.52,1.07,1.16.13.99-.58,1.69-1.93,1.7Z"/>
  <path class="cls-8" d="m280,213.5c-.52-.24-.96-.47-1.46-.75-.12-.07-.13-.34-.19-.52.17.04.38.03.5.12.56.45,1.19.66,1.86.39.28-.12.6-.46.65-.74.04-.25-.22-.65-.47-.81-.38-.25-.85-.36-1.29-.53-.88-.34-1.2-.81-1.11-1.62.07-.64.64-1.1,1.47-1.18.63-.06,1.23.05,1.7.51.1.1.09.3.13.46-.15-.02-.35.01-.46-.07-.55-.4-1.15-.56-1.77-.26-.25.12-.51.45-.53.71-.03.23.2.59.42.72.39.24.85.37,1.29.53.54.2,1.02.47,1.15,1.1.21,1.03-.52,1.79-1.73,1.8-.02.05-.14.1-.16.14Z"/>
  <path class="cls-8" d="m313.82,213.36c-.47.02-1.03-.19-1.49-.64-.11-.1-.1-.33-.14-.5.15.03.35.01.45.1.55.45,1.16.65,1.86.45.39-.11.75-.36.7-.77-.04-.3-.28-.67-.53-.84-.38-.25-.86-.35-1.29-.53-.83-.34-1.15-.83-1.05-1.6.08-.61.59-1.05,1.38-1.16.67-.09,1.3.01,1.8.51.1.1.08.3.12.46-.16-.03-.35,0-.46-.08-.55-.4-1.16-.56-1.77-.25-.25.12-.5.46-.53.72-.02.23.21.58.43.72.37.24.82.35,1.24.51.94.35,1.34.89,1.22,1.65-.12.77-.8,1.25-1.94,1.25Z"/>
  <path class="cls-8" d="m336.13,213.36c-1.07,0-2.08-.65-2.48-1.71-.42-1.11-.12-2.41.75-3.16.8-.7,2.07-.86,3.03-.34.17.09.26.32.39.49-.2,0-.43.04-.6-.04-.87-.37-1.7-.36-2.43.26-.77.65-.92,1.53-.66,2.46.25.88.87,1.42,1.78,1.49.44.03.9-.17,1.35-.24.18-.03.37,0,.56.01-.25.33-.37.47-.78.62-.3.11-.61.16-.91.16Z"/>
  <path class="cls-8" d="m304.14,213.39c-.2,0-.41,0-.61-.05-.87-.19-1.6-.88-1.91-1.7-.43-1.14-.11-2.42.8-3.19.81-.68,2.11-.81,3.03-.27.15.09.22.31.32.47-.19,0-.4.04-.55-.03-.88-.39-1.73-.4-2.48.25-.76.65-.92,1.52-.65,2.46.25.88.87,1.43,1.78,1.49.46.03.93-.18,1.4-.26.16-.03.35-.01.51.02.08.01-.66.58-.77.62-.29.11-.59.18-.89.2Z"/>
  <path class="cls-8" d="m329.23,208.43c0,1.4.01,2.72,0,4.05,0,.27.18.74-.26.75-.45,0-.27-.46-.28-.73-.02-1.33,0-2.65,0-4.06-.47,0-.9.02-1.32-.01-.15-.01-.28-.15-.42-.23.15-.09.29-.25.44-.26,1.06-.02,2.12-.02,3.18,0,.15,0,.29.17.44.26-.14.08-.28.22-.43.23-.42.03-.85.01-1.33.01Z"/>
  <path class="cls-8" d="m288.59,210.62c0,.74.02,1.47-.01,2.21,0,.15-.18.28-.27.43-.08-.14-.23-.28-.23-.42-.02-1.49-.02-2.98,0-4.47,0-.14.18-.29.28-.43.08.14.22.28.22.42.02.75.01,1.51.01,2.26Z"/>
  <path class="cls-8" d="m331.92,210.53c0-.7-.02-1.4.01-2.1,0-.17.18-.33.27-.5.09.17.25.34.26.51.02,1.44.02,2.87,0,4.31,0,.17-.18.33-.27.49-.09-.17-.25-.34-.26-.51-.03-.73-.01-1.47-.01-2.21Z"/>
  <g>
    <path class="cls-8" d="m470,251.27c-.18.15-.15.37-.19.56-.23,1.03-.45,2.06-.67,3.1-.33,1.55-.33,1.53-1.93,1.5-.45,0-.56-.14-.46-.57.27-1.12.52-2.26.76-3.39.08-.38.16-.76.18-1.14.03-.56-.28-.77-.82-.6-.49.15-.84.48-1.14.88-.43.58-.67,1.25-.84,1.95-.12.47-.21.95-.31,1.43-.34,1.54-.58,1.69-2.15,1.45-.45-.07-.25-.34-.21-.54.25-1.15.53-2.3.78-3.45.08-.36.15-.72.18-1.08.04-.59-.27-.81-.84-.64-.51.16-.87.51-1.17.93-.4.55-.62,1.18-.78,1.84-.12.51-.22,1.03-.35,1.54-.11.45-.01,1.08-.39,1.29-.5.27-1.15.1-1.74.08-.5-.02-.23-.4-.19-.59.4-1.91.83-3.81,1.25-5.71,0-.04.02-.08.03-.12.23-1.05.5-1.21,1.58-1.02.24.04.29.16.29.37,0,.27,0,.55,0,.86,2.7-1.9,3.75-1.89,4.56.05.2-.18.39-.36.58-.53.57-.48,1.2-.83,1.96-.9,1.06-.09,1.58.22,2.03,1.23v1.22Z"/>
    <path class="cls-8" d="m410.74,250.11c.38-.3.69-.56,1.02-.79.35-.25.75-.4,1.18-.47,1.55-.26,2.4.53,2.24,2.08-.17,1.74-.69,3.42-1.04,5.13-.03.14-.06.32-.22.33-.61.02-1.22.04-1.82-.01-.25-.02-.11-.3-.08-.46.28-1.31.58-2.62.85-3.93.08-.42.34-.93-.17-1.22-.49-.28-.95.03-1.33.33-.71.55-1.07,1.32-1.28,2.16-.22.89-.41,1.78-.59,2.67-.07.36-.23.49-.61.5-1.7.04-1.7.05-1.33-1.59.68-2.99,1.38-5.97,2.04-8.97.1-.48.3-.61.77-.61,1.52.02,1.53,0,1.18,1.48-.26,1.1-.52,2.19-.8,3.36Z"/>
    <path class="cls-8" d="m438.52,250.2c.28-.25.43-.39.58-.52.52-.44,1.1-.77,1.79-.85,1.48-.18,2.27.54,2.14,2.03-.15,1.79-.68,3.5-1.07,5.25-.02.09-.07.19-.14.26-.08.08-1.83.09-1.93.02-.21-.15-.06-.34-.03-.5.3-1.39.6-2.78.9-4.17.07-.34.18-.7-.18-.95-.33-.23-.67-.1-.98.06-.84.42-1.31,1.16-1.55,2.02-.29.99-.51,2.01-.71,3.02-.09.42-.26.55-.69.55-1.63,0-1.63.02-1.28-1.55.69-3.01,1.38-6.02,2.06-9.03.1-.43.26-.6.72-.59,1.57,0,1.57-.01,1.22,1.51-.13.55-.25,1.11-.38,1.66-.13.53-.28,1.05-.46,1.76Z"/>
    <path class="cls-8" d="m397.5,245.28q1.04,0,.82,1.03c-.53,2.46-1.07,4.92-1.59,7.38-.18.84-.17.85.65,1.08.1.03.19.03.25.14.29.49-.04,1.35-.59,1.51-.1.03-.2.06-.3.07-1.87.36-2.7-.47-2.3-2.33.56-2.62,1.15-5.24,1.73-7.85.28-1.24.04-1.01,1.32-1.04Z"/>
    <path class="cls-8" d="m454.81,250.23c.26-.34.44-.6.65-.84.54-.6,1.41-.75,2.12-.41.28.13.43.29.22.6-.12.19-.23.39-.32.59-.23.52-.43.93-1.18.66-.52-.19-.95.23-1.24.69-.42.67-.6,1.42-.77,2.17-.17.75-.33,1.51-.5,2.26-.04.17-.03.43-.25.44-.59.03-1.18.03-1.76,0-.25,0-.18-.23-.15-.38.48-2.22.98-4.44,1.46-6.66.06-.29.21-.42.51-.39.1.01.2,0,.3,0,.96,0,.92-.09.88.87,0,.09.01.19.03.38Z"/>
    <path class="cls-8" d="m452.07,262.12c.16-.33.31-.65.47-.97.42-.86.86-1.71,1.25-2.57.17-.38.42-.5.81-.47.32.02.4.12.25.41-.8,1.53-1.6,3.06-2.39,4.59-.21.41-.58.3-.91.3-.36,0-.33-.29-.36-.53-.18-1.41-.36-2.82-.53-4.23-.03-.24-.1-.51.29-.53.31-.01.61-.04.65.42.09,1.07.22,2.14.34,3.21.01.11-.02.24.14.37Z"/>
    <path class="cls-8" d="m422.84,263.49c-.46,0-.78-.04-1.09-.15-.25-.09-.43-.2-.3-.53.12-.31.26-.41.59-.27.36.15.74.22,1.13.1.31-.09.55-.27.61-.6.06-.32-.09-.55-.34-.73-.27-.19-.56-.33-.81-.53-.91-.7-.81-1.9.19-2.46.62-.35,1.28-.36,1.95-.17.22.06.37.17.26.44-.09.23-.14.49-.5.36-.29-.11-.59-.14-.9-.08-.29.06-.54.21-.62.52-.09.33.11.54.34.71.16.12.34.22.51.32.76.47,1.02.98.88,1.7-.13.66-.67,1.16-1.44,1.31-.2.04-.4.04-.47.05Z"/>
    <path class="cls-8" d="m403.75,263.49c-1.75.03-2.68-1.05-2.43-2.71.28-1.89,1.97-3.08,3.79-2.68.22.05.53.04.44.42-.08.34-.24.44-.61.38-1.49-.24-2.51.54-2.64,1.97-.12,1.37.59,2,2.03,1.78.23-.03.49-.18.55.23.05.36-.14.47-.43.52-.1.02-.2.04-.3.06-.16.02-.32.02-.4.03Z"/>
    <path class="cls-8" d="m460.7,262.06c.11-.56.26-1.35.41-2.15.08-.41.4-.34.67-.32.37.03.25.29.21.5-.11.62-.23,1.24-.33,1.86-.05.29-.05.6.28.73.31.12.55-.05.76-.26.27-.27.4-.61.47-.97.09-.46.2-.91.26-1.38.06-.43.29-.54.67-.49.45.06.27.38.23.61-.16.92-.34,1.84-.51,2.76-.04.19-.02.43-.31.45-.21.01-.47.1-.56-.21-.07-.24-.19-.13-.32-.06-.1.06-.2.14-.31.19-.91.45-1.65,0-1.63-1.26Z"/>
    <path class="cls-8" d="m433.65,262.13c.35-.71.69-1.41,1.04-2.12.11-.22.2-.46.52-.43.19.02.44-.1.56.1.11.17-.08.34-.17.49-.52.94-1.06,1.87-1.56,2.83-.2.38-.47.44-.85.42-.42-.03-.38-.36-.43-.62-.16-.9-.31-1.8-.46-2.7-.03-.2-.16-.48.21-.5.29-.02.63-.11.69.36.09.72.19,1.44.29,2.16.05,0,.1.02.14.02Z"/>
    <path class="cls-8" d="m439.5,263.49c-1.12-.01-1.74-.7-1.64-1.73.13-1.36,1.26-2.36,2.54-2.25.23.02.59-.05.57.37-.02.37-.26.42-.6.41-.83-.02-1.41.49-1.54,1.33-.11.74.29,1.17,1.04,1.12.21-.01.54-.3.61.19.06.45-.29.47-.58.53-.16.03-.32.03-.4.04Z"/>
    <path class="cls-8" d="m459.07,263.41c-.33.02-.54-.03-.46-.44.31-1.57.62-3.15.9-4.73.08-.43.36-.43.68-.4.41.04.26.33.22.55-.28,1.5-.57,2.99-.85,4.49-.06.3-.11.58-.49.53Z"/>
    <path class="cls-8" d="m411.16,260.09c.28-.2.46-.38.68-.48.18-.08.48-.25.56.06.07.24.06.64-.28.71-.84.18-1.04.82-1.2,1.51-.09.38-.15.76-.22,1.14-.07.43-.39.41-.7.37-.36-.05-.23-.32-.2-.52.15-.92.32-1.84.47-2.76.04-.26.04-.52.43-.54.37-.02.42.21.45.52Z"/>
    <path class="cls-8" d="m430.55,260.1c.28-.2.46-.37.67-.48.18-.09.47-.26.58.02.09.25.07.65-.25.72-.92.21-1.09.93-1.26,1.68-.06.3-.13.6-.16.9-.04.45-.33.51-.69.46-.46-.07-.24-.39-.2-.61.14-.9.3-1.8.46-2.7.04-.23.03-.49.39-.52.36-.03.46.16.47.53Z"/>
    <path class="cls-8" d="m436.29,263.41c-.32.02-.47-.09-.41-.43.2-1.02.4-2.03.59-3.05.08-.45.42-.38.71-.34.37.05.21.33.17.53-.17.94-.36,1.87-.53,2.81-.06.33-.18.53-.54.48Z"/>
    <path class="cls-8" d="m418.66,262.26c-.51,0-.91-.42-.9-.94,0-.52.41-.92.93-.92.54,0,.97.44.94.97-.02.51-.45.9-.96.89Z"/>
    <path class="cls-8" d="m447.36,262.26c-.52.01-.92-.37-.94-.9-.02-.52.36-.94.88-.96.54-.02.98.4.98.93,0,.51-.4.92-.92.93Z"/>
    <path class="cls-8" d="m437.7,258.48c-.02.34-.2.54-.53.55-.28,0-.46-.16-.47-.44-.01-.33.16-.55.49-.57.31-.02.48.16.51.47Z"/>
    <path class="cls-8" d="m393.25,255.99c-.64-3.18-1.26-6.37-1.89-9.56-.03-.14-.04-.29-.17-.37-.44-.29-1.78.04-2.04.49-1.69,2.98-3.38,5.97-5.08,8.95-.52.92-.52.9.53.93.79.02,1.54.09,1.83-.91.4-1.38,1.32-1.8,2.74-1.66,1.41.14,1.42.03,1.66,1.43q.19,1.13,1.33,1.12c.24,0,.49,0,.73,0,.32.01.42-.1.36-.43Zm-3.31-3.86c-.5-.03-1.15.22-1.46-.11-.22-.23.28-.77.46-1.17.25-.55.54-1.09.81-1.63.04,0,.09,0,.13,0,.12.86.24,1.72.35,2.58.03.23-.07.35-.3.34Z"/>
    <path class="cls-8" d="m402.67,248.81c-.48,0-1.08.11-1.69.19-.49.07-.71.29-.82.79-.62,2.92-1.28,5.83-1.93,8.74-.38,1.71-.39,1.7,1.38,1.62.32-.01.47-.12.53-.44.18-.92.41-1.82.58-2.74.08-.43.19-.6.71-.5,2.05.37,3.88-.52,4.72-2.21,1.45-2.9-.15-5.49-3.5-5.46Zm-.8,6.08c-.43-.07-.59-.23-.48-.69.26-1.06.49-2.13.7-3.21.08-.4.29-.53.66-.54,1.11-.03,1.81.68,1.8,1.82-.02,1.63-1.27,2.84-2.68,2.61Z"/>
    <path class="cls-8" d="m434.77,248.09c-.38-1.24-1.47-1.96-3.08-2.03-.69-.03-1.38.03-2.07-.02-.53-.04-.73.16-.84.67-.6,2.88-1.23,5.75-1.85,8.62q-.24,1.1.86,1.1c.12,0,.25-.02.36,0,.59.11.83-.16.91-.73.09-.66.32-1.3.4-1.97.07-.59.34-.76.91-.75,1.12.01,2.18-.26,3.09-.93,1.21-.89,1.75-2.54,1.31-3.97Zm-4.45,3.13c-.23-.05-.25-.16-.21-.34.2-.91.4-1.82.6-2.73.03-.15.1-.24.27-.29.89-.23,1.73.43,1.73,1.37,0,1.25-1.18,2.23-2.38,1.99Z"/>
    <path class="cls-8" d="m422.96,251.16c0-1.18-.56-1.92-1.7-2.21-1.05-.26-2.1-.16-3.13.11-1.04.27-1.05.31-.8,1.37.08.32.2.39.51.28.61-.23,1.24-.37,1.91-.33.33.02.65.1.87.37.16.2.26.44.18.68-.09.3-.37.17-.58.19-.28.02-.57,0-.85.03-.86.08-1.69.24-2.42.74-1.04.72-1.41,2.29-.78,3.3.57.92,1.96,1.15,3.11.49.33-.19.62-.44.93-.66q.45,1.04,1.63.75s.04,0,.06-.01c.3-.03.41-.18.38-.49-.1-.9.1-1.78.33-2.64.18-.65.34-1.3.34-1.97Zm-2.64,2.61c-.28.55-.73.92-1.33,1.09-.43.12-.84.07-1.03-.38-.2-.46.01-.83.42-1.08.45-.27.96-.31,1.47-.33.69-.03.78.1.47.7Z"/>
    <path class="cls-8" d="m449.02,248.93c-1.03-.24-2.06-.13-3.07.14-1.01.27-.99.27-.79,1.26.08.37.19.52.6.36.63-.25,1.29-.37,1.97-.29.39.05.7.2.86.58.19.45.07.64-.42.65-.59,0-1.18.02-1.76.14-.66.13-1.3.35-1.82.79-.88.75-1.14,2.25-.56,3.16.56.87,1.85,1.11,2.96.55.39-.19.7-.48,1.08-.78q.37,1.07,1.45.82s.08-.02.12-.02c.37-.03.52-.2.48-.6-.08-.82.08-1.62.3-2.4.17-.61.32-1.22.38-1.85.12-1.32-.49-2.21-1.78-2.5Zm-.72,4.47c-.11.71-1.08,1.52-1.85,1.51-.27-.02-.55-.13-.67-.46-.11-.31-.03-.6.19-.85.34-.37,1.72-.7,2.19-.54.2.07.17.19.14.34Z"/>
    <path class="cls-8" d="m457.84,259.58c-1.53-.45-3.14.51-3.43,2.08-.15.79.04,1.41.52,1.69.5.29,1.03.16,1.69-.42.03-.02.07-.03.17-.07.05.28,0,.6.41.56.24-.02.45-.03.46-.35.02-1.02.28-2.01.47-3,.05-.26-.02-.41-.3-.49Zm-.75,1.12c-.13.59-.2,1.2-.61,1.69-.2.24-.45.43-.79.31-.32-.12-.34-.42-.35-.71,0-.8.57-1.59,1.26-1.74.37-.08.6-.02.5.45Z"/>
    <path class="cls-8" d="m409.03,259.58c-1.73-.56-3.58.81-3.52,2.63.02.52.18.97.7,1.18.5.2.96.08,1.36-.27.1-.09.17-.23.25-.34l.15.06c0,.31,0,.61.43.57.22-.02.41-.04.42-.32.05-1.04.3-2.04.49-3.06.04-.23,0-.37-.26-.46Zm-.79,1.11c-.13.59-.2,1.2-.62,1.69-.2.24-.45.44-.79.31-.34-.13-.36-.45-.36-.68.03-.86.6-1.63,1.26-1.77.36-.07.61-.04.51.44Z"/>
    <path class="cls-8" d="m413.82,261.86c.38-.06.77-.09,1.13-.19.7-.2,1.02-.69.9-1.3-.11-.57-.65-.91-1.35-.86-1.09.09-1.97,1.08-2.03,2.3-.05,1.05.55,1.68,1.77,1.68.12-.02.4-.06.68-.12.28-.06.52-.17.42-.53-.09-.36-.34-.17-.54-.14-.42.06-.85.15-1.2-.2-.13-.13-.22-.3-.15-.49.06-.17.23-.13.36-.15Zm-.22-.96c.13-.41.45-.66.89-.69.27-.02.53.11.48.4-.1.56-.64.44-.97.55-.2-.04-.49.03-.4-.26Z"/>
    <path class="cls-8" d="m442.49,261.85c.34-.05.69-.07,1.02-.16.77-.2,1.13-.71,1-1.35-.12-.6-.73-.94-1.48-.82-1,.15-1.77,1.04-1.88,2.18-.11,1.1.52,1.79,1.78,1.79.12-.02.4-.06.68-.12.25-.06.47-.15.41-.48-.08-.41-.35-.21-.57-.18-.4.06-.81.13-1.16-.17-.14-.13-.24-.29-.2-.49.04-.22.25-.17.4-.19Zm.66-1.65c.27,0,.53.11.47.41-.1.52-.59.45-.95.54-.16-.05-.4.09-.43-.2-.03-.29.54-.76.91-.75Z"/>
    <path class="cls-8" d="m466.21,261.85c.36-.06.73-.08,1.07-.18.71-.2,1.04-.68.93-1.28-.11-.6-.66-.95-1.39-.88-1.1.11-1.95,1.12-1.98,2.33-.02,1.09.54,1.66,1.63,1.65.31,0,.6-.05.9-.14.28-.08.4-.24.33-.54-.09-.34-.3-.16-.48-.13-.42.08-.85.16-1.22-.14-.16-.13-.28-.32-.21-.53.06-.2.27-.13.42-.16Zm.67-1.66c.24.01.48.11.44.38-.08.58-.6.48-.98.57-.16-.05-.42.08-.41-.23.01-.31.57-.75.94-.73Z"/>
    <path class="cls-8" d="m426.76,261.86c.38-.06.77-.08,1.14-.19.71-.2,1.02-.67.9-1.3-.1-.58-.64-.91-1.35-.85-1.13.1-1.99,1.12-2,2.38,0,1.03.54,1.59,1.73,1.6.12-.02.4-.05.68-.11.27-.06.53-.16.44-.52-.1-.41-.38-.17-.59-.14-.43.05-.86.12-1.19-.26-.11-.13-.19-.28-.13-.45.06-.17.23-.13.37-.15Zm.7-1.66c.24,0,.49.1.46.37-.06.59-.59.48-.96.59-.17-.04-.41.08-.43-.21-.01-.3.55-.75.92-.74Z"/>
  </g>
  <g>
    <path class="cls-8" d="m676.86,87.11h-8.74s-.02.08-.02.11c-.02.5-.02.99.19,1.46.16.37.44.62.84.71.37.08.75.16,1.13.18.79.05,1.59.05,2.38-.07.09-.01.18-.03.27-.05.52-.13.75-.4.8-.94,0-.08.01-.16.02-.24h3.13c.04.82-.13,1.43-.87,1.95-.55.39-1.19.57-1.84.7-.8.17-1.62.23-2.44.23-.82,0-1.64,0-2.45-.04-.7-.03-1.39-.15-2.08-.32-1.11-.28-1.78-.97-2.06-2.07-.14-.55-.22-1.1-.23-1.67,0-.6-.04-1.2.09-1.78.08-.36.18-.73.32-1.07.31-.74.89-1.19,1.65-1.43.64-.21,1.29-.31,1.95-.38,1.21-.12,2.43-.09,3.64-.04.77.03,1.52.17,2.26.39.95.28,1.51.92,1.79,1.85.2.65.21,1.32.24,1.99,0,.18,0,.36,0,.55Zm-3.1-1.31c-.02-.28-.04-.54-.07-.8-.07-.56-.38-.89-.93-.99-.29-.05-.59-.1-.89-.12-.86-.06-1.72-.08-2.57.1-.3.06-.62.14-.82.4-.32.42-.34.92-.36,1.42h5.63Z"/>
    <path class="cls-8" d="m680.38,94.84v-1.51c.18,0,.35,0,.52,0,.37.01.73-.01,1.08-.15.52-.2.9-.56,1.16-1.04.2-.35.34-.73.42-1.1-.28,0-.56,0-.83,0-.22,0-.44,0-.67.02-.09,0-.11-.05-.14-.11-.53-1.08-1.05-2.17-1.58-3.25-.8-1.65-1.61-3.29-2.41-4.94-.06-.12-.11-.24-.18-.38.14,0,.26-.02.38-.02.95,0,1.9,0,2.86-.01.09,0,.12.04.15.11.6,1.39,1.21,2.78,1.82,4.16.43.98.85,1.96,1.27,2.93.02.05.04.09.08.17.04-.09.07-.15.09-.22.33-1.01.66-2.02,1-3.02.44-1.31.89-2.61,1.34-3.92.04-.12.09-.15.21-.15.94,0,1.88,0,2.82,0,.07,0,.13,0,.22.01-.12.33-.24.65-.35.96-.71,1.91-1.42,3.81-2.14,5.72-.4,1.06-.79,2.12-1.21,3.17-.25.62-.59,1.18-1.08,1.65-.48.47-1.08.71-1.72.83-1.02.19-2.05.21-3.08.12,0,0-.02,0-.03-.01Z"/>
    <path class="cls-8" d="m644.94,88.3h3.22c-.02.09-.03.15-.04.22-.09.39.04.68.4.87.41.22.86.32,1.32.33.68.02,1.37,0,2.05-.02.4-.01.79-.11,1.15-.28.44-.19.62-.46.61-.86-.02-.38-.27-.68-.68-.84-.41-.16-.83-.14-1.26-.16-1.12-.05-2.24-.08-3.35-.15-.61-.04-1.21-.14-1.8-.32-.93-.29-1.46-.96-1.51-1.93-.02-.36-.03-.71.07-1.06.18-.66.61-1.09,1.24-1.34.49-.19,1.02-.27,1.54-.33,1.3-.16,2.6-.15,3.91-.12.7.02,1.39.07,2.09.16.4.05.79.15,1.17.28.73.25,1.14.79,1.26,1.55.03.17.04.34.06.52-.05,0-.09,0-.13,0-.93,0-1.86-.01-2.79-.01-.13,0-.18-.04-.2-.16-.02-.11-.06-.21-.09-.32-.09-.3-.3-.47-.6-.5-.37-.05-.73-.08-1.1-.09-.49-.01-.98,0-1.47,0-.42,0-.82.09-1.21.25-.62.26-.64.8-.43,1.33.07.17.23.25.41.27.48.05.96.1,1.45.14,1.24.08,2.48.14,3.72.24.49.04.98.15,1.47.27.83.19,1.28.74,1.41,1.57.08.51.06,1.02-.11,1.51-.25.7-.77,1.12-1.45,1.36-.69.25-1.42.36-2.14.41-.89.06-1.78.08-2.67.08-.93,0-1.87,0-2.79-.16-.59-.09-1.18-.21-1.71-.51-.59-.34-.9-.86-.96-1.53-.02-.21,0-.43,0-.66Z"/>
    <path class="cls-8" d="m636.49,84.81h-3.07c-.04-.14-.07-.29-.11-.43-.09-.32-.3-.52-.63-.56-.43-.05-.86-.09-1.28-.09-.54,0-1.09,0-1.63.04-.31.02-.62.1-.9.24-.53.28-.62.72-.4,1.28.07.18.23.28.42.3.67.06,1.34.12,2.02.17,1.12.08,2.25.14,3.37.23.52.04,1.04.15,1.54.33.63.23.99.71,1.09,1.34.07.44.07.91,0,1.35-.12.74-.59,1.23-1.26,1.54-.62.29-1.28.4-1.94.47-1.64.18-3.29.18-4.93.08-.78-.05-1.56-.14-2.3-.41-1.1-.4-1.46-1.3-1.42-2.3,0-.03.01-.06.02-.1h3.22c-.02.12-.05.23-.06.35-.03.27.06.49.28.66.28.22.61.31.95.36,1.08.16,2.16.15,3.23-.07.23-.05.46-.15.67-.26.3-.15.45-.42.43-.76-.02-.36-.21-.62-.54-.78-.38-.19-.78-.2-1.19-.21-1.17-.05-2.35-.08-3.52-.15-.63-.03-1.25-.14-1.85-.33-.76-.24-1.28-.74-1.44-1.53-.09-.47-.11-.95,0-1.42.16-.69.61-1.14,1.26-1.38.58-.21,1.18-.29,1.79-.36,1.19-.13,2.38-.09,3.57-.09.72,0,1.43.03,2.14.15.4.07.8.15,1.18.28.75.25,1.15.82,1.26,1.59.02.15.03.31.05.48Z"/>
    <path class="cls-8" d="m662.38,91.05h-3.14v-12.33h3.14v12.33Z"/>
    <path class="cls-8" d="m639.38,82.41h3.14v8.64h-3.14v-8.64Z"/>
    <path class="cls-8" d="m659.27,97.61c-.03-.26-.05-.51-.07-.77,0-.08-.01-.16-.03-.23-.03-.21-.18-.37-.39-.39-.58-.03-1.16-.05-1.76-.08v1.46h-.6v-3.34s.09,0,.13,0c.67,0,1.35,0,2.02,0,.27,0,.53.03.78.14.29.13.48.34.51.66.03.34-.09.61-.39.8-.05.03-.09.06-.15.09.07.04.12.07.18.1.16.1.26.24.28.44.02.27.04.53.08.8,0,.07.08.13.12.2.02.03.03.06.05.09-.03.01-.06.03-.08.03-.21,0-.42,0-.68,0Zm-2.25-1.84c.42,0,.82,0,1.22,0,.17,0,.35,0,.52-.04.28-.04.46-.23.46-.48,0-.32-.1-.47-.43-.55-.08-.02-.15-.03-.23-.03-.5-.01-1-.02-1.5-.03-.02,0-.03,0-.05.01v1.12Z"/>
    <path class="cls-8" d="m642.52,80.45h-3.14v-1.73h3.14v1.73Z"/>
    <path class="cls-8" d="m663.16,96.51s.02.05.02.08c.04.32.23.51.52.6.48.15.97.14,1.44-.02.23-.08.34-.23.34-.42,0-.19-.11-.36-.34-.42-.39-.1-.79-.17-1.19-.26-.23-.05-.46-.09-.68-.17-.59-.22-.71-.91-.24-1.34.24-.22.52-.32.84-.36.45-.05.9-.04,1.33.1.47.15.74.5.76.96-.16,0-.33,0-.49,0-.03,0-.08-.03-.08-.05-.1-.38-.38-.52-.73-.59-.32-.06-.65-.04-.95.08-.11.04-.22.12-.28.21-.17.22-.08.5.18.58.34.1.68.15,1.03.23.29.06.59.12.88.2.31.09.51.3.56.64.05.37-.06.67-.39.86-.29.17-.61.26-.95.27-.49.02-.98.06-1.44-.16-.35-.16-.61-.4-.67-.8-.03-.19-.02-.21.17-.22.11,0,.22,0,.33,0,.01,0,.03,0,.04,0Z"/>
    <path class="cls-8" d="m655.62,97.61c-.21,0-.41,0-.6,0-.03,0-.08-.05-.1-.09-.12-.25-.23-.5-.34-.76-.04-.08-.08-.12-.17-.12-.49,0-.99,0-1.48,0-.1,0-.14.03-.17.12-.11.25-.23.5-.34.76-.03.08-.08.1-.16.1-.17,0-.34,0-.54,0,.03-.06.05-.12.07-.17.5-1.03,1.01-2.05,1.51-3.08.04-.08.08-.11.17-.11.17,0,.33,0,.5,0,.04,0,.11.04.12.07.5,1.06,1,2.13,1.5,3.2,0,.02.01.03.03.08Zm-1.31-1.4c-.2-.46-.41-.92-.63-1.42-.23.49-.45.94-.68,1.42h1.3Z"/>
    <path class="cls-8" d="m648.51,94.23c.81.02,1.6.01,2.39.05.41.02.8.34.87.77.07.43-.17.84-.6,1.01-.15.06-.33.1-.49.11-.46.02-.92.01-1.37.02-.05,0-.1,0-.16,0v1.4h-.63v-3.36Zm.63,1.53c.47,0,.93.01,1.38,0,.15,0,.31-.07.43-.16.31-.22.25-.7-.1-.83-.19-.07-.39-.1-.59-.11-.37-.02-.74,0-1.12,0v1.11Z"/>
    <path class="cls-8" d="m661.58,97.6h-.59v-3.34h.59v3.34Z"/>
  </g>
</svg>